<svg xmlns="http://www.w3.org/2000/svg" xmlns:xlink="http://www.w3.org/1999/xlink" xmlns:lucid="lucid" width="1289" height="724"><g transform="translate(-147 -419)" lucid:page-tab-id="0_0"><path d="M160.26 434.42H392v44.66H160.26z" stroke="#5e5e5e" fill="#fff"/><path d="M140 428.88h272v60H140z" fill="none"/><use xlink:href="#a" transform="matrix(1,0,0,1,140,428.87994856604377) translate(28.395061728395092 36.22222222222222)"/><use xlink:href="#b" transform="matrix(1,0,0,1,140,428.87994856604377) translate(128.55555555555554 36.22222222222222)"/><use xlink:href="#c" transform="matrix(1,0,0,1,140,428.87994856604377) translate(185.25925925925924 36.22222222222222)"/><path d="M466 759.58h90.46l-45.23-80.9z" stroke="#5e5e5e" fill="#fff0f0"/><use xlink:href="#d" transform="matrix(1,0,0,1,471.00000000000006,683.6756991070608) translate(40.504999999999995 27.107638888888886)"/><use xlink:href="#e" transform="matrix(1,0,0,1,471.00000000000006,683.6756991070608) translate(23.221049382716057 64.44097222222221)"/><path d="M313 606.33h136V759.1H313z" stroke="#5e5e5e" fill="#fff0f0"/><use xlink:href="#f" transform="matrix(1,0,0,1,318,611.3310923630182) translate(17.463580246913608 38.650694444444426)"/><use xlink:href="#g" transform="matrix(1,0,0,1,318,611.3310923630182) translate(26.123456790123484 76.51736111111106)"/><use xlink:href="#h" transform="matrix(1,0,0,1,318,611.3310923630182) translate(55.802469135802475 76.51736111111106)"/><use xlink:href="#i" transform="matrix(1,0,0,1,318,611.3310923630182) translate(82.59259259259258 76.51736111111106)"/><use xlink:href="#j" transform="matrix(1,0,0,1,318,611.3310923630182) translate(9.753086419753117 114.02847222222215)"/><use xlink:href="#k" transform="matrix(1,0,0,1,318,611.3310923630182) translate(71.64197530864197 114.02847222222215)"/><path d="M567.77 759.58h90.46L613 678.68z" stroke="#5e5e5e" fill="#fff0f0"/><use xlink:href="#d" transform="matrix(1,0,0,1,572.7692307692307,683.6756991070608) translate(40.504999999999995 27.107638888888886)"/><use xlink:href="#l" transform="matrix(1,0,0,1,572.7692307692307,683.6756991070608) translate(23.221049382716057 64.44097222222221)"/><path d="M669.54 760.45H760l-45.23-80.9z" stroke="#5e5e5e" fill="#fff0f0"/><use xlink:href="#d" transform="matrix(1,0,0,1,674.5384615384614,684.5477174708552) translate(40.504999999999995 27.107638888888886)"/><use xlink:href="#m" transform="matrix(1,0,0,1,674.5384615384614,684.5477174708552) translate(23.221049382716057 64.44097222222221)"/><path d="M222.33 579.5h-54.35V638h-1v-59.5h55.35zm126.8 9.95h-1v-9.95h-53.36v-1h54.37z" stroke="#5e5e5e" stroke-width=".05" fill="#5e5e5e"/><path d="M167.98 638v.5h-1v-.5z" fill="#5e5e5e"/><path d="M168 637.96v.56h-1.05v-.56zm-1 .5h.95v-.45H167z" stroke="#5e5e5e" stroke-width=".05" fill="#5e5e5e"/><path d="M348.64 604.2L344 589.96h9.27z" fill="#5e5e5e"/><path d="M348.64 605.83l-5.32-16.38h10.64zm-3.95-15.38l3.94 12.14 3.95-12.15z" stroke="#5e5e5e" stroke-width=".05" fill="#5e5e5e"/><use xlink:href="#n" transform="matrix(1,0,0,1,222.32591735054189,563) translate(0 21.33333333333333)"/><path d="M936 759.5h88.5l-44.25-80.9z" stroke="#5e5e5e" fill="#fff3d9"/><use xlink:href="#d" transform="matrix(1,0,0,1,940.9999999999999,683.5954801157117) translate(39.504999999999995 27.107638888888886)"/><use xlink:href="#e" transform="matrix(1,0,0,1,940.9999999999999,683.5954801157117) translate(21.721049382716053 64.44097222222221)"/><path d="M780 605.2h136V759H780z" stroke="#5e5e5e" fill="#fff3d9"/><use xlink:href="#f" transform="matrix(1,0,0,1,785,610.1908602314238) translate(17.463580246913608 38.744444444444426)"/><use xlink:href="#g" transform="matrix(1,0,0,1,785,610.1908602314238) translate(26.123456790123484 76.61111111111106)"/><use xlink:href="#h" transform="matrix(1,0,0,1,785,610.1908602314238) translate(55.802469135802475 76.61111111111106)"/><use xlink:href="#i" transform="matrix(1,0,0,1,785,610.1908602314238) translate(82.59259259259258 76.61111111111106)"/><use xlink:href="#o" transform="matrix(1,0,0,1,785,610.1908602314238) translate(9.753086419753117 114.12222222222215)"/><use xlink:href="#p" transform="matrix(1,0,0,1,785,610.1908602314238) translate(71.64197530864197 114.12222222222215)"/><path d="M1035.55 759.5h88.5l-44.25-80.9z" stroke="#5e5e5e" fill="#fff3d9"/><use xlink:href="#d" transform="matrix(1,0,0,1,1040.5536160679064,683.5954801157117) translate(39.504999999999995 27.107638888888886)"/><use xlink:href="#l" transform="matrix(1,0,0,1,1040.5536160679064,683.5954801157117) translate(21.721049382716053 64.44097222222221)"/><path d="M1135.1 760.4h88.5l-44.25-80.9z" stroke="#5e5e5e" fill="#fff3d9"/><use xlink:href="#d" transform="matrix(1,0,0,1,1140.1072321358129,684.501258543172) translate(39.504999999999995 27.107638888888886)"/><use xlink:href="#m" transform="matrix(1,0,0,1,1140.1072321358129,684.501258543172) translate(21.721049382716053 64.44097222222221)"/><path d="M160 639h136v120H160z" stroke="#5e5e5e" fill="#f2f2ff"/><use xlink:href="#q" transform="matrix(1,0,0,1,165,644) translate(12.098765432098787 42.555555555555564)"/><use xlink:href="#r" transform="matrix(1,0,0,1,165,644) translate(-1.7716049382715795 79.88888888888889)"/><path d="M573.98 579.5h-165.6v25.83h-1V578.5H574zm240.17 8.8h-1v-8.8H646.43v-1h167.73z" stroke="#5e5e5e" stroke-width=".05" fill="#5e5e5e"/><path d="M408.4 605.83h-1v-.5h1z" fill="#5e5e5e"/><path d="M408.42 605.86h-1.05v-.57h1.05zm-1-.52v.47h.95v-.46z" stroke="#5e5e5e" stroke-width=".05" fill="#5e5e5e"/><path d="M813.65 603.07l-4.63-14.26h9.27z" fill="#5e5e5e"/><path d="M813.65 604.7l-5.32-16.4h10.65zm-3.94-15.4l3.95 12.16 3.95-12.15z" stroke="#5e5e5e" stroke-width=".05" fill="#5e5e5e"/><use xlink:href="#n" transform="matrix(1,0,0,1,573.9817873095392,563) translate(0 21.33333333333333)"/><g fill="none"><path d="M957.55 607.2v-36.23h136v36.22z"/><path d="M1093.55 570.97c0 5.53-4.47 10-10 10h-48c-5.52 0-10 4.48-10 10 0-5.52-4.47-10-10-10h-48c-5.52 0-10-4.47-10-10" stroke="#5e5e5e"/></g><g fill="none"><path d="M1124.45 760v80h-88.5v-80z"/><path d="M1035.96 760c0 5.52 4.48 10 10 10h24.25c5.53 0 10 4.48 10 10 0-5.52 4.48-10 10-10h24.25c5.53 0 10-4.48 10-10" stroke="#5e5e5e"/></g><use xlink:href="#s" transform="matrix(6.123233995736766e-17,1,-1,6.123233995736766e-17,1119.4528097709158,795) translate(0 44.65555555555555)"/><path d="M765.75 821.5h164.5v61.88h-164.5z" stroke="#000" stroke-opacity="0" fill="#fff" fill-opacity="0"/><use xlink:href="#t" transform="matrix(1,0,0,1,770.75,826.4878201422398) translate(24.53703703703706 21.333333333333325)"/><use xlink:href="#u" transform="matrix(1,0,0,1,770.75,826.4878201422398) translate(16.018518518518547 57.24444444444441)"/><use xlink:href="#v" transform="matrix(1,0,0,1,770.75,826.4878201422398) translate(44.462962962962976 57.24444444444441)"/><path d="M957.55 432.35h136V563.4h-136z" stroke="#5e5e5e" fill="#e3fae3"/><use xlink:href="#f" transform="matrix(1,0,0,1,962.5536160679064,437.34661523271046) translate(17.463580246913608 29.056944444444426)"/><use xlink:href="#g" transform="matrix(1,0,0,1,962.5536160679064,437.34661523271046) translate(26.123456790123484 66.92361111111106)"/><use xlink:href="#h" transform="matrix(1,0,0,1,962.5536160679064,437.34661523271046) translate(55.802469135802475 66.92361111111106)"/><use xlink:href="#w" transform="matrix(1,0,0,1,962.5536160679064,437.34661523271046) translate(82.59259259259258 66.92361111111106)"/><use xlink:href="#x" transform="matrix(1,0,0,1,962.5536160679064,437.34661523271046) translate(14.938271604938294 104.43472222222215)"/><use xlink:href="#y" transform="matrix(1,0,0,1,962.5536160679064,437.34661523271046) translate(71.64197530864197 104.43472222222215)"/><path d="M1034.05 597.1v66.2h8.5l-17 15.3-17-15.3h8.5v-66.2z" stroke="#5e5e5e" fill="#e3fae3"/><path d="M1004.02 720.12h36.12" stroke="#5e5e5e" fill="none"/><path d="M1004.04 720.62h-.24l-.55-1h.8z" stroke="#5e5e5e" stroke-width=".05" fill="#5e5e5e"/><path d="M1054.9 720.12l-14.26 4.63v-9.27z" stroke="#5e5e5e" fill="#5e5e5e"/><path d="M917 721.78h22.67" stroke="#5e5e5e" fill="none"/><path d="M917 722.28h-.5v-1h.5z" stroke="#5e5e5e" stroke-width=".05" fill="#5e5e5e"/><path d="M954.44 721.78l-14.27 4.63v-9.26z" stroke="#5e5e5e" fill="#5e5e5e"/><path d="M466 1072.76h90.46l-45.23-73.08z" stroke="#5e5e5e" fill="#fff0f0"/><use xlink:href="#d" transform="matrix(1,0,0,1,471.00000000000006,1004.684555784168) translate(40.504999999999995 24.888888888888886)"/><use xlink:href="#e" transform="matrix(1,0,0,1,471.00000000000006,1004.684555784168) translate(22.721049382716053 62.222222222222214)"/><path d="M313 919.52h136v152.77H313z" stroke="#5e5e5e" fill="#fff0f0"/><use xlink:href="#f" transform="matrix(1,0,0,1,318,924.5207811992644) translate(17.463580246913608 38.650694444444426)"/><use xlink:href="#g" transform="matrix(1,0,0,1,318,924.5207811992644) translate(26.123456790123484 76.51736111111106)"/><use xlink:href="#h" transform="matrix(1,0,0,1,318,924.5207811992644) translate(55.802469135802475 76.51736111111106)"/><use xlink:href="#i" transform="matrix(1,0,0,1,318,924.5207811992644) translate(82.59259259259258 76.51736111111106)"/><use xlink:href="#j" transform="matrix(1,0,0,1,318,924.5207811992644) translate(9.753086419753117 114.02847222222215)"/><use xlink:href="#k" transform="matrix(1,0,0,1,318,924.5207811992644) translate(71.64197530864197 114.02847222222215)"/><path d="M567.77 1072.76h90.46L613 999.68z" stroke="#5e5e5e" fill="#fff0f0"/><use xlink:href="#d" transform="matrix(1,0,0,1,572.7692307692308,1004.684555784168) translate(40.504999999999995 24.888888888888886)"/><use xlink:href="#l" transform="matrix(1,0,0,1,572.7692307692308,1004.684555784168) translate(22.721049382716053 62.222222222222214)"/><path d="M669.54 1072.76H760l-45.23-73.08z" stroke="#5e5e5e" fill="#fff0f0"/><use xlink:href="#d" transform="matrix(1,0,0,1,674.5384615384615,1004.684555784168) translate(40.504999999999995 24.888888888888886)"/><use xlink:href="#m" transform="matrix(1,0,0,1,674.5384615384615,1004.684555784168) translate(22.721049382716053 62.222222222222214)"/><path d="M780 919h136v153.8H780z" stroke="#5e5e5e" fill="#fff3d9"/><use xlink:href="#f" transform="matrix(1,0,0,1,785,924) translate(17.463580246913608 38.744444444444426)"/><use xlink:href="#g" transform="matrix(1,0,0,1,785,924) translate(26.123456790123484 76.61111111111106)"/><use xlink:href="#h" transform="matrix(1,0,0,1,785,924) translate(55.802469135802475 76.61111111111106)"/><use xlink:href="#z" transform="matrix(1,0,0,1,785,924) translate(82.59259259259258 76.61111111111106)"/><use xlink:href="#o" transform="matrix(1,0,0,1,785,924) translate(9.753086419753117 114.12222222222215)"/><use xlink:href="#p" transform="matrix(1,0,0,1,785,924) translate(71.64197530864197 114.12222222222215)"/><path d="M1340 1071.54h88.5l-44.25-73.07z" stroke="#5e5e5e" fill="#fff3d9"/><use xlink:href="#d" transform="matrix(1,0,0,1,1345.0000000000005,1003.4647749656349) translate(39.504999999999995 24.888888888888886)"/><use xlink:href="#e" transform="matrix(1,0,0,1,1345.0000000000005,1003.4647749656349) translate(22.221049382716053 62.222222222222214)"/><path d="M160 952.8h136v120H160z" stroke="#5e5e5e" fill="#f2f2ff"/><use xlink:href="#q" transform="matrix(1,0,0,1,165,957.8091397685764) translate(12.098765432098787 42.555555555555564)"/><use xlink:href="#r" transform="matrix(1,0,0,1,165,957.8091397685764) translate(-1.7716049382715795 79.88888888888889)"/><path d="M931.73 1071.54h88.5l-44.25-73.07z" stroke="#5e5e5e" fill="#fff3d9"/><g><use xlink:href="#d" transform="matrix(1,0,0,1,936.7343017139857,1003.4647749656349) translate(39.504999999999995 24.888888888888886)"/><use xlink:href="#e" transform="matrix(1,0,0,1,936.7343017139857,1003.4647749656349) translate(22.221049382716053 62.222222222222214)"/></g><path d="M1187.98 919h136v153.8h-136z" stroke="#5e5e5e" fill="#fff3d9"/><g><use xlink:href="#f" transform="matrix(1,0,0,1,1192.980353299722,924.0000000000002) translate(17.463580246913608 38.744444444444426)"/><use xlink:href="#g" transform="matrix(1,0,0,1,1192.980353299722,924.0000000000002) translate(26.123456790123484 76.61111111111106)"/><use xlink:href="#h" transform="matrix(1,0,0,1,1192.980353299722,924.0000000000002) translate(55.802469135802475 76.61111111111106)"/><use xlink:href="#z" transform="matrix(1,0,0,1,1192.980353299722,924.0000000000002) translate(82.59259259259258 76.61111111111106)"/><use xlink:href="#A" transform="matrix(1,0,0,1,1192.980353299722,924.0000000000002) translate(9.753086419753117 114.12222222222215)"/><use xlink:href="#B" transform="matrix(1,0,0,1,1192.980353299722,924.0000000000002) translate(71.64197530864197 114.12222222222215)"/></g><path d="M1035.96 919h136v153.8h-136z" stroke="#5e5e5e" fill="#e3fae3"/><g><use xlink:href="#f" transform="matrix(1,0,0,1,1040.9607065994437,924.0000000000002) translate(17.463580246913608 38.744444444444426)"/><use xlink:href="#g" transform="matrix(1,0,0,1,1040.9607065994437,924.0000000000002) translate(26.123456790123484 76.61111111111106)"/><use xlink:href="#h" transform="matrix(1,0,0,1,1040.9607065994437,924.0000000000002) translate(55.802469135802475 76.61111111111106)"/><use xlink:href="#w" transform="matrix(1,0,0,1,1040.9607065994437,924.0000000000002) translate(82.59259259259258 76.61111111111106)"/><use xlink:href="#C" transform="matrix(1,0,0,1,1040.9607065994437,924.0000000000002) translate(9.753086419753117 114.12222222222215)"/><use xlink:href="#D" transform="matrix(1,0,0,1,1040.9607065994437,924.0000000000002) translate(71.64197530864197 114.12222222222215)"/></g><path d="M75 1094h240v60H75z" stroke="#000" stroke-opacity="0" stroke-width="3" fill="#fff" fill-opacity="0"/><g><use xlink:href="#E" transform="matrix(1,0,0,1,80,1099) translate(78.61111111111114 30.277777777777768)"/></g><g><path d="M1034.1 806.1l58.28 82.1 4.1-2.9-2.96 13.22-13.45-1.57 4.1-2.9-58.27-82.14z" stroke="#5e5e5e" fill="#e3fae3"/></g><g><path d="M981.67 805.72v82.37h5.68L976 898.3l-11.35-10.2h5.68V805.7z" stroke="#5e5e5e" fill="#fff3d9"/></g><g><path d="M1112.92 805.35l93.43 74.74 2.92-3.67.73 12.57-12.42 2.05 2.92-3.66-93.42-74.75z" stroke="#5e5e5e" fill="#fff3d9"/></g><g><path d="M1062.6 760.34l85.77 120.32-55.9 39.86-85.8-120.3z" stroke="#000" stroke-opacity="0" fill="#fff" fill-opacity="0"/></g><g><use xlink:href="#F" transform="matrix(0.5805256290169708,0.8142419751243793,-0.8142419751243793,0.5805256290169708,1061.4226458738467,767.3162067165738) translate(14.333333333333371 32.659722222222214)"/><use xlink:href="#G" transform="matrix(0.5805256290169708,0.8142419751243793,-0.8142419751243793,0.5805256290169708,1061.4226458738467,767.3162067165738) translate(60.65432098765432 32.659722222222214)"/></g><g><path d="M1131.82 758.32l115.42 92.26-42.87 53.64-115.42-92.26z" stroke="#000" stroke-opacity="0" fill="#fff" fill-opacity="0"/></g><g><use xlink:href="#F" transform="matrix(0.7811090397143496,0.6243946412938908,-0.6243946412938908,0.7811090397143496,1132.6066787389918,765.3486026599376) translate(14.333333333333371 32.659722222222214)"/><use xlink:href="#G" transform="matrix(0.7811090397143496,0.6243946412938908,-0.6243946412938908,0.7811090397143496,1132.6066787389918,765.3486026599376) translate(60.65432098765432 32.659722222222214)"/></g><path d="M848 884.38V900" stroke="#5e5e5e" stroke-width="2" fill="none"/><path d="M849 884.4h-2v-1.02h2z" stroke="#5e5e5e" stroke-width=".05" fill="#5e5e5e"/><path d="M848 915.26L843.37 901h9.26z" stroke="#5e5e5e" stroke-width="2" fill="#5e5e5e"/><path d="M260 1072a6 6 0 0 1 6-6h228a6 6 0 0 1 6 6v48a6 6 0 0 1-6 6H266a6 6 0 0 1-6-6z" stroke="#000" stroke-opacity="0" stroke-width="3" fill="#fff" fill-opacity="0"/><g><use xlink:href="#H" transform="matrix(1,0,0,1,265,1071) translate(82.40740740740742 30.70833333333333)"/><use xlink:href="#I" transform="matrix(1,0,0,1,265,1071) translate(132.77777777777777 30.70833333333333)"/></g><path d="M392 1072.68a6 6 0 0 1 6-6h228a6 6 0 0 1 6 6v48a6 6 0 0 1-6 6H398a6 6 0 0 1-6-6z" stroke="#000" stroke-opacity="0" stroke-width="3" fill="#fff" fill-opacity="0"/><g><use xlink:href="#J" transform="matrix(1,0,0,1,397,1071.6814772511357) translate(107.5925925925926 30.70833333333333)"/></g><path d="M493 1072a6 6 0 0 1 6-6h228a6 6 0 0 1 6 6v48a6 6 0 0 1-6 6H499a6 6 0 0 1-6-6z" stroke="#000" stroke-opacity="0" stroke-width="3" fill="#fff" fill-opacity="0"/><g><use xlink:href="#K" transform="matrix(1,0,0,1,498,1071) translate(107.5925925925926 30.70833333333333)"/></g><path d="M594.77 1072.68a6 6 0 0 1 6-6h228a6 6 0 0 1 6 6v48a6 6 0 0 1-6 6h-228a6 6 0 0 1-6-6z" stroke="#000" stroke-opacity="0" stroke-width="3" fill="#fff" fill-opacity="0"/><g><use xlink:href="#L" transform="matrix(1,0,0,1,599.7692307692307,1071.6814772511357) translate(107.5925925925926 30.70833333333333)"/></g><path d="M727.1 1072.68a6 6 0 0 1 6-6h228a6 6 0 0 1 6 6v48a6 6 0 0 1-6 6h-228a6 6 0 0 1-6-6z" stroke="#000" stroke-opacity="0" stroke-width="3" fill="#fff" fill-opacity="0"/><g><use xlink:href="#M" transform="matrix(1,0,0,1,732.0957379151064,1071.6814772511357) translate(107.5925925925926 30.70833333333333)"/></g><path d="M856 1072a6 6 0 0 1 6-6h228a6 6 0 0 1 6 6v47.32a6 6 0 0 1-6 6H862a6 6 0 0 1-6-6z" stroke="#000" stroke-opacity="0" stroke-width="3" fill="#fff" fill-opacity="0"/><g><use xlink:href="#N" transform="matrix(1,0,0,1,861,1071) translate(107.5925925925926 30.70833333333333)"/></g><path d="M1134.26 1072a6 6 0 0 1 6-6h228a6 6 0 0 1 6 6v48a6 6 0 0 1-6 6h-228a6 6 0 0 1-6-6z" stroke="#000" stroke-opacity="0" stroke-width="3" fill="#fff" fill-opacity="0"/><g><use xlink:href="#O" transform="matrix(1,0,0,1,1139.2582792604871,1071) translate(107.5925925925926 30.70833333333333)"/></g><path d="M1264.25 1072a6 6 0 0 1 6-6h228a6 6 0 0 1 6 6v48a6 6 0 0 1-6 6h-228a6 6 0 0 1-6-6z" stroke="#000" stroke-opacity="0" stroke-width="3" fill="#fff" fill-opacity="0"/><g><use xlink:href="#P" transform="matrix(1,0,0,1,1269.2460515857365,1071) translate(107.5925925925926 30.70833333333333)"/></g><path d="M983.96 1073.36a6 6 0 0 1 6-6h228a6 6 0 0 1 6 6v47.32a6 6 0 0 1-6 6h-228a6 6 0 0 1-6-6z" stroke="#000" stroke-opacity="0" stroke-width="3" fill="#fff" fill-opacity="0"/><g><use xlink:href="#Q" transform="matrix(1,0,0,1,988.9607065994437,1072.3629545022714) translate(107.5925925925926 30.70833333333333)"/></g><path d="M162.5 1108h1246M162.53 1108h-1.03" stroke="#5e5e5e" stroke-width="2" fill="none"/><path d="M1423.76 1108l-14.27 4.63v-9.27z" stroke="#5e5e5e" stroke-width="2" fill="#5e5e5e"/><defs><path d="M205 0l-28-72H64L36 0H1l101-248h38L239 0h-34zm-38-99l-47-123c-12 45-31 82-46 123h93" id="R"/><path d="M85-194c31 0 48 13 60 33l-1-100h32l1 261h-30c-2-10 0-23-3-31C134-8 116 4 85 4 32 4 16-35 15-94c0-66 23-100 70-100zm9 24c-40 0-46 34-46 75 0 40 6 74 45 74 42 0 51-32 51-76 0-42-9-74-50-73" id="S"/><path d="M87 75C49 33 22-17 22-94c0-76 28-126 65-167h31c-38 41-64 92-64 168S80 34 118 75H87" id="T"/><path d="M110-160c48 1 74 30 74 79 0 53-28 85-80 85-65 0-83-55-86-122-5-90 50-162 133-122 14 7 22 21 27 39l-31 6c-5-40-67-38-82-6-9 19-15 44-15 74 11-20 30-34 60-33zm-7 138c34 0 49-23 49-58s-16-56-50-56c-29 0-50 16-49 49 1 36 15 65 50 65" id="U"/><path d="M68-38c1 34 0 65-14 84H32c9-13 17-26 17-46H33v-38h35" id="V"/><g id="a"><use transform="matrix(0.0864197530864197,0,0,0.0864197530864197,0,0)" xlink:href="#R"/><use transform="matrix(0.0864197530864197,0,0,0.0864197530864197,20.74074074074073,0)" xlink:href="#S"/><use transform="matrix(0.0864197530864197,0,0,0.0864197530864197,38.02469135802467,0)" xlink:href="#S"/><use transform="matrix(0.0864197530864197,0,0,0.0864197530864197,55.30864197530861,0)" xlink:href="#T"/><use transform="matrix(0.0864197530864197,0,0,0.0864197530864197,65.59259259259255,0)" xlink:href="#U"/><use transform="matrix(0.0864197530864197,0,0,0.0864197530864197,82.8765432098765,0)" xlink:href="#V"/></g><path d="M141 0L90-78 38 0H4l68-98-65-92h35l48 74 47-74h35l-64 92 68 98h-35" id="W"/><path d="M141-36C126-15 110 5 73 4 37 3 15-17 15-53c-1-64 63-63 125-63 3-35-9-54-41-54-24 1-41 7-42 31l-33-3c5-37 33-52 76-52 45 0 72 20 72 64v82c-1 20 7 32 28 27v20c-31 9-61-2-59-35zM48-53c0 20 12 33 32 33 41-3 63-29 60-74-43 2-92-5-92 41" id="X"/><g id="b"><use transform="matrix(0.0864197530864197,0,0,0.0864197530864197,0,0)" xlink:href="#T"/><use transform="matrix(0.0864197530864197,0,0,0.0864197530864197,10.283950617283946,0)" xlink:href="#W"/><use transform="matrix(0.06790123456790119,0,0,0.06790123456790119,25.839506172839492,0)" xlink:href="#X"/><use transform="matrix(0.0864197530864197,0,0,0.0864197530864197,39.41975308641973,0)" xlink:href="#V"/></g><path d="M179-190L93 31C79 59 56 82 12 73V49c39 6 53-20 64-50L1-190h34L92-34l54-156h33" id="Y"/><path d="M33-261c38 41 65 92 65 168S71 34 33 75H2C39 34 66-17 66-93S39-220 2-261h31" id="Z"/><path d="M33-154v-36h34v36H33zM33 0v-36h34V0H33" id="aa"/><g id="c"><use transform="matrix(0.0864197530864197,0,0,0.0864197530864197,0,0)" xlink:href="#Y"/><use transform="matrix(0.06790123456790119,0,0,0.06790123456790119,15.555555555555546,0)" xlink:href="#X"/><use transform="matrix(0.0864197530864197,0,0,0.0864197530864197,29.135802469135783,0)" xlink:href="#Z"/><use transform="matrix(0.0864197530864197,0,0,0.0864197530864197,39.41975308641973,0)" xlink:href="#Z"/><use transform="matrix(0.0864197530864197,0,0,0.0864197530864197,49.70370370370368,0)" xlink:href="#aa"/></g><path d="M100-20c69 3 59-102 24-131-4-5-8-9-11-12-35 12-65 35-65 80 0 37 16 62 52 63zM15-83c0-56 38-82 82-97l-56-60v-21h129v23l-90-1c38 49 105 73 105 156 0 54-31 87-85 87S15-29 15-83" id="ab"/><path d="M27 0v-27h64v-190l-56 39v-29l58-41h29v221h61V0H27" id="ac"/><g id="e"><use transform="matrix(0.08641975308641973,0,0,0.08641975308641973,0,0)" xlink:href="#ab"/><use transform="matrix(0.08641975308641973,0,0,0.08641975308641973,17.283950617283946,0)" xlink:href="#ac"/></g><path d="M212-179c-10-28-35-45-73-45-59 0-87 40-87 99 0 60 29 101 89 101 43 0 62-24 78-52l27 14C228-24 195 4 139 4 59 4 22-46 18-125c-6-104 99-153 187-111 19 9 31 26 39 46" id="ad"/><path d="M106-169C34-169 62-67 57 0H25v-261h32l-1 103c12-21 28-36 61-36 89 0 53 116 60 194h-32v-121c2-32-8-49-39-48" id="ae"/><path d="M84 4C-5 8 30-112 23-190h32v120c0 31 7 50 39 49 72-2 45-101 50-169h31l1 190h-30c-1-10 1-25-2-33-11 22-28 36-60 37" id="af"/><path d="M117-194c89-4 53 116 60 194h-32v-121c0-31-8-49-39-48C34-167 62-67 57 0H25l-1-190h30c1 10-1 24 2 32 11-22 29-35 61-36" id="ag"/><path d="M143 0L79-87 56-68V0H24v-261h32v163l83-92h37l-77 82L181 0h-38" id="ah"/><g id="f"><use transform="matrix(0.08765432098765426,0,0,0.08765432098765426,0,0)" xlink:href="#ad"/><use transform="matrix(0.08765432098765426,0,0,0.08765432098765426,22.702469135802453,0)" xlink:href="#ae"/><use transform="matrix(0.08765432098765426,0,0,0.08765432098765426,40.233333333333306,0)" xlink:href="#af"/><use transform="matrix(0.08765432098765426,0,0,0.08765432098765426,57.76419753086416,0)" xlink:href="#ag"/><use transform="matrix(0.08765432098765426,0,0,0.08765432098765426,75.29506172839501,0)" xlink:href="#ah"/></g><path d="M11-25l91-223h38l90 223V0H11v-25zm183-2l-74-195C99-153 70-92 46-27h148" id="ai"/><use transform="matrix(0.08765432098765426,0,0,0.08765432098765426,0,0)" xlink:href="#ai" id="g"/><path d="M18-150v-26h174v26H18zm0 90v-26h174v26H18" id="aj"/><use transform="matrix(0.0864197530864197,0,0,0.0864197530864197,0,0)" xlink:href="#aj" id="h"/><path d="M126-127c33 6 58 20 58 59 0 88-139 92-164 29-3-8-5-16-6-25l32-3c6 27 21 44 54 44 32 0 52-15 52-46 0-38-36-46-79-43v-28c39 1 72-4 72-42 0-27-17-43-46-43-28 0-47 15-49 41l-32-3c6-42 35-63 81-64 48-1 79 21 79 65 0 36-21 52-52 59" id="ak"/><use transform="matrix(0.0864197530864197,0,0,0.0864197530864197,0,0)" xlink:href="#ak" id="i"/><path d="M195 0l-74-108L45 0H8l94-129-87-119h37l69 98 67-98h37l-84 118L233 0h-38" id="al"/><path d="M101-251c68 0 85 55 85 127S166 4 100 4C33 4 14-52 14-124c0-73 17-127 87-127zm-1 229c47 0 54-49 54-102s-4-102-53-102c-51 0-55 48-55 102 0 53 5 102 54 102" id="am"/><g id="j"><use transform="matrix(0.0864197530864197,0,0,0.0864197530864197,0,0)" xlink:href="#T"/><use transform="matrix(0.0864197530864197,0,0,0.0864197530864197,10.283950617283946,0)" xlink:href="#al"/><use transform="matrix(0.06790123456790119,0,0,0.06790123456790119,31.024691358024675,0)" xlink:href="#am"/><use transform="matrix(0.0864197530864197,0,0,0.0864197530864197,44.60493827160491,0)" xlink:href="#V"/></g><path d="M137-103V0h-34v-103L8-248h37l75 118 75-118h37" id="an"/><g id="k"><use transform="matrix(0.0864197530864197,0,0,0.0864197530864197,0,0)" xlink:href="#an"/><use transform="matrix(0.06790123456790119,0,0,0.06790123456790119,20.74074074074073,0)" xlink:href="#am"/><use transform="matrix(0.0864197530864197,0,0,0.0864197530864197,34.320987654320966,0)" xlink:href="#Z"/></g><path d="M101-251c82-7 93 87 43 132L82-64C71-53 59-42 53-27h129V0H18c2-99 128-94 128-182 0-28-16-43-45-43s-46 15-49 41l-32-3c6-41 34-60 81-64" id="ao"/><g id="l"><use transform="matrix(0.08641975308641973,0,0,0.08641975308641973,0,0)" xlink:href="#ab"/><use transform="matrix(0.08641975308641973,0,0,0.08641975308641973,17.283950617283946,0)" xlink:href="#ao"/></g><g id="m"><use transform="matrix(0.08641975308641973,0,0,0.08641975308641973,0,0)" xlink:href="#ab"/><use transform="matrix(0.08641975308641973,0,0,0.08641975308641973,17.283950617283946,0)" xlink:href="#ak"/></g><path d="M153-248C145-148 188 4 80 4 36 3 13-21 6-62l32-5c4 25 16 42 43 43 27 0 39-20 39-49v-147H72v-28h81" id="ap"/><path d="M232-93c-1 65-40 97-104 97C67 4 28-28 28-90v-158h33c8 89-33 224 67 224 102 0 64-133 71-224h33v155" id="aq"/><path d="M240 0l2-218c-23 76-54 145-80 218h-23L58-218 59 0H30v-248h44l77 211c21-75 51-140 76-211h43V0h-30" id="ar"/><path d="M30-248c87 1 191-15 191 75 0 78-77 80-158 76V0H30v-248zm33 125c57 0 124 11 124-50 0-59-68-47-124-48v98" id="as"/><g id="n"><use transform="matrix(0.07407407407407406,0,0,0.07407407407407406,0,0)" xlink:href="#ap"/><use transform="matrix(0.07407407407407406,0,0,0.07407407407407406,13.33333333333333,0)" xlink:href="#aq"/><use transform="matrix(0.07407407407407406,0,0,0.07407407407407406,32.51851851851851,0)" xlink:href="#ar"/><use transform="matrix(0.07407407407407406,0,0,0.07407407407407406,54.66666666666665,0)" xlink:href="#as"/></g><g id="o"><use transform="matrix(0.0864197530864197,0,0,0.0864197530864197,0,0)" xlink:href="#T"/><use transform="matrix(0.0864197530864197,0,0,0.0864197530864197,10.283950617283946,0)" xlink:href="#al"/><use transform="matrix(0.06790123456790119,0,0,0.06790123456790119,31.024691358024675,0)" xlink:href="#ac"/><use transform="matrix(0.0864197530864197,0,0,0.0864197530864197,44.60493827160491,0)" xlink:href="#V"/></g><g id="p"><use transform="matrix(0.0864197530864197,0,0,0.0864197530864197,0,0)" xlink:href="#an"/><use transform="matrix(0.06790123456790119,0,0,0.06790123456790119,20.74074074074073,0)" xlink:href="#ac"/><use transform="matrix(0.0864197530864197,0,0,0.0864197530864197,34.320987654320966,0)" xlink:href="#Z"/></g><path d="M197 0v-115H63V0H30v-248h33v105h134v-105h34V0h-34" id="at"/><path d="M100-194c63 0 86 42 84 106H49c0 40 14 67 53 68 26 1 43-12 49-29l28 8c-11 28-37 45-77 45C44 4 14-33 15-96c1-61 26-98 85-98zm52 81c6-60-76-77-97-28-3 7-6 17-6 28h103" id="au"/><path d="M114-163C36-179 61-72 57 0H25l-1-190h30c1 12-1 29 2 39 6-27 23-49 58-41v29" id="av"/><g id="q"><use transform="matrix(0.0864197530864197,0,0,0.0864197530864197,0,0)" xlink:href="#at"/><use transform="matrix(0.0864197530864197,0,0,0.0864197530864197,22.382716049382704,0)" xlink:href="#au"/><use transform="matrix(0.0864197530864197,0,0,0.0864197530864197,39.66666666666664,0)" xlink:href="#X"/><use transform="matrix(0.0864197530864197,0,0,0.0864197530864197,56.950617283950585,0)" xlink:href="#S"/><use transform="matrix(0.0864197530864197,0,0,0.0864197530864197,74.23456790123453,0)" xlink:href="#au"/><use transform="matrix(0.0864197530864197,0,0,0.0864197530864197,91.51851851851848,0)" xlink:href="#av"/></g><path d="M59-47c-2 24 18 29 38 22v24C64 9 27 4 27-40v-127H5v-23h24l9-43h21v43h35v23H59v120" id="aw"/><g id="r"><use transform="matrix(0.0864197530864197,0,0,0.0864197530864197,0,0)" xlink:href="#ar"/><use transform="matrix(0.0864197530864197,0,0,0.0864197530864197,25.839506172839492,0)" xlink:href="#au"/><use transform="matrix(0.0864197530864197,0,0,0.0864197530864197,43.123456790123434,0)" xlink:href="#aw"/><use transform="matrix(0.0864197530864197,0,0,0.0864197530864197,51.7654320987654,0)" xlink:href="#X"/><use transform="matrix(0.0864197530864197,0,0,0.0864197530864197,69.04938271604934,0)" xlink:href="#S"/><use transform="matrix(0.0864197530864197,0,0,0.0864197530864197,86.33333333333329,0)" xlink:href="#X"/><use transform="matrix(0.0864197530864197,0,0,0.0864197530864197,103.61728395061724,0)" xlink:href="#aw"/><use transform="matrix(0.0864197530864197,0,0,0.0864197530864197,112.25925925925922,0)" xlink:href="#X"/></g><path d="M30-248c118-7 216 8 213 122C240-48 200 0 122 0H30v-248zM63-27c89 8 146-16 146-99s-60-101-146-95v194" id="ax"/><path d="M127-220V0H93v-220H8v-28h204v28h-85" id="ay"/><path d="M30 0v-248h187v28H63v79h144v27H63v87h162V0H30" id="az"/><g id="t"><use transform="matrix(0.07407407407407404,0,0,0.07407407407407404,0,0)" xlink:href="#aq"/><use transform="matrix(0.07407407407407404,0,0,0.07407407407407404,19.185185185185176,0)" xlink:href="#as"/><use transform="matrix(0.07407407407407404,0,0,0.07407407407407404,36.96296296296295,0)" xlink:href="#ax"/><use transform="matrix(0.07407407407407404,0,0,0.07407407407407404,56.148148148148124,0)" xlink:href="#R"/><use transform="matrix(0.07407407407407404,0,0,0.07407407407407404,71.9259259259259,0)" xlink:href="#ay"/><use transform="matrix(0.07407407407407404,0,0,0.07407407407407404,88.14814814814811,0)" xlink:href="#az"/></g><use transform="matrix(0.08765432098765426,0,0,0.08765432098765426,0,0)" xlink:href="#ai" id="u"/><path d="M140-251c81 0 123 46 123 126C263-46 219 4 140 4 59 4 17-45 17-125s42-126 123-126zm0 227c63 0 89-41 89-101s-29-99-89-99c-61 0-89 39-89 99S79-25 140-24" id="aA"/><path d="M190 0L58-211 59 0H30v-248h39L202-35l-2-213h31V0h-41" id="aB"/><g id="v"><use transform="matrix(0.07407407407407404,0,0,0.07407407407407404,0,0)" xlink:href="#ad"/><use transform="matrix(0.07407407407407404,0,0,0.07407407407407404,19.185185185185176,0)" xlink:href="#aA"/><use transform="matrix(0.07407407407407404,0,0,0.07407407407407404,39.92592592592591,0)" xlink:href="#aq"/><use transform="matrix(0.07407407407407404,0,0,0.07407407407407404,59.111111111111086,0)" xlink:href="#aB"/><use transform="matrix(0.07407407407407404,0,0,0.07407407407407404,78.29629629629626,0)" xlink:href="#ay"/></g><use transform="matrix(0.0864197530864197,0,0,0.0864197530864197,0,0)" xlink:href="#am" id="w"/><g id="x"><use transform="matrix(0.0864197530864197,0,0,0.0864197530864197,0,0)" xlink:href="#T"/><use transform="matrix(0.0864197530864197,0,0,0.0864197530864197,10.283950617283946,0)" xlink:href="#W"/><use transform="matrix(0.06790123456790119,0,0,0.06790123456790119,25.839506172839492,0)" xlink:href="#X"/><use transform="matrix(0.0864197530864197,0,0,0.0864197530864197,39.41975308641973,0)" xlink:href="#V"/></g><g id="y"><use transform="matrix(0.0864197530864197,0,0,0.0864197530864197,0,0)" xlink:href="#Y"/><use transform="matrix(0.06790123456790119,0,0,0.06790123456790119,15.555555555555546,0)" xlink:href="#X"/><use transform="matrix(0.0864197530864197,0,0,0.0864197530864197,29.135802469135783,0)" xlink:href="#Z"/></g><use transform="matrix(0.0864197530864197,0,0,0.0864197530864197,0,0)" xlink:href="#ac" id="z"/><g id="A"><use transform="matrix(0.0864197530864197,0,0,0.0864197530864197,0,0)" xlink:href="#T"/><use transform="matrix(0.0864197530864197,0,0,0.0864197530864197,10.283950617283946,0)" xlink:href="#al"/><use transform="matrix(0.06790123456790119,0,0,0.06790123456790119,31.024691358024675,0)" xlink:href="#ak"/><use transform="matrix(0.0864197530864197,0,0,0.0864197530864197,44.60493827160491,0)" xlink:href="#V"/></g><g id="B"><use transform="matrix(0.0864197530864197,0,0,0.0864197530864197,0,0)" xlink:href="#an"/><use transform="matrix(0.06790123456790119,0,0,0.06790123456790119,20.74074074074073,0)" xlink:href="#ak"/><use transform="matrix(0.0864197530864197,0,0,0.0864197530864197,34.320987654320966,0)" xlink:href="#Z"/></g><g id="C"><use transform="matrix(0.0864197530864197,0,0,0.0864197530864197,0,0)" xlink:href="#T"/><use transform="matrix(0.0864197530864197,0,0,0.0864197530864197,10.283950617283946,0)" xlink:href="#al"/><use transform="matrix(0.06790123456790119,0,0,0.06790123456790119,31.024691358024675,0)" xlink:href="#ao"/><use transform="matrix(0.0864197530864197,0,0,0.0864197530864197,44.60493827160491,0)" xlink:href="#V"/></g><g id="D"><use transform="matrix(0.0864197530864197,0,0,0.0864197530864197,0,0)" xlink:href="#an"/><use transform="matrix(0.06790123456790119,0,0,0.06790123456790119,20.74074074074073,0)" xlink:href="#ao"/><use transform="matrix(0.0864197530864197,0,0,0.0864197530864197,34.320987654320966,0)" xlink:href="#Z"/></g><path d="M160-131c35 5 61 23 61 61C221 17 115-2 30 0v-248c76 3 177-17 177 60 0 33-19 50-47 57zm-97-11c50-1 110 9 110-42 0-47-63-36-110-37v79zm0 115c55-2 124 14 124-45 0-56-70-42-124-44v89" id="aC"/><path d="M185-189c-5-48-123-54-124 2 14 75 158 14 163 119 3 78-121 87-175 55-17-10-28-26-33-46l33-7c5 56 141 63 141-1 0-78-155-14-162-118-5-82 145-84 179-34 5 7 8 16 11 25" id="aD"/><g id="E"><use transform="matrix(0.06172839506172835,0,0,0.06172839506172835,0,0)" xlink:href="#aC"/><use transform="matrix(0.06172839506172835,0,0,0.06172839506172835,14.814814814814804,0)" xlink:href="#an"/><use transform="matrix(0.06172839506172835,0,0,0.06172839506172835,29.62962962962961,0)" xlink:href="#ay"/><use transform="matrix(0.06172839506172835,0,0,0.06172839506172835,43.14814814814812,0)" xlink:href="#az"/><use transform="matrix(0.06172839506172835,0,0,0.06172839506172835,57.96296296296292,0)" xlink:href="#aD"/></g><path d="M266 0h-40l-56-210L115 0H75L2-248h35L96-30l15-64 43-154h32l59 218 59-218h35" id="aE"/><g id="F"><use transform="matrix(0.04938271604938268,0,0,0.04938271604938268,0,0)" xlink:href="#aB"/><use transform="matrix(0.04938271604938268,0,0,0.04938271604938268,12.790123456790115,0)" xlink:href="#az"/><use transform="matrix(0.04938271604938268,0,0,0.04938271604938268,24.641975308641957,0)" xlink:href="#aE"/></g><path d="M194 0L95-120 63-95V0H30v-248h33v124l119-124h40L117-140 236 0h-42" id="aF"/><g id="G"><use transform="matrix(0.04938271604938268,0,0,0.04938271604938268,0,0)" xlink:href="#ad"/><use transform="matrix(0.04938271604938268,0,0,0.04938271604938268,12.790123456790115,0)" xlink:href="#at"/><use transform="matrix(0.04938271604938268,0,0,0.04938271604938268,25.58024691358023,0)" xlink:href="#aq"/><use transform="matrix(0.04938271604938268,0,0,0.04938271604938268,38.370370370370345,0)" xlink:href="#aB"/><use transform="matrix(0.04938271604938268,0,0,0.04938271604938268,51.16049382716046,0)" xlink:href="#aF"/></g><path fill="#3a414a" d="M33 0v-248h34V0H33" id="aG"/><path fill="#3a414a" d="M85-194c31 0 48 13 60 33l-1-100h32l1 261h-30c-2-10 0-23-3-31C134-8 116 4 85 4 32 4 16-35 15-94c0-66 23-100 70-100zm9 24c-40 0-46 34-46 75 0 40 6 74 45 74 42 0 51-32 51-76 0-42-9-74-50-73" id="aH"/><path fill="#3a414a" d="M141 0L90-78 38 0H4l68-98-65-92h35l48 74 47-74h35l-64 92 68 98h-35" id="aI"/><path fill="#3a414a" d="M33-154v-36h34v36H33zM33 0v-36h34V0H33" id="aJ"/><g id="H"><use transform="matrix(0.07407407407407406,0,0,0.07407407407407406,0,0)" xlink:href="#aG"/><use transform="matrix(0.07407407407407406,0,0,0.07407407407407406,7.407407407407406,0)" xlink:href="#aH"/><use transform="matrix(0.07407407407407406,0,0,0.07407407407407406,22.222222222222218,0)" xlink:href="#aI"/><use transform="matrix(0.07407407407407406,0,0,0.07407407407407406,35.55555555555555,0)" xlink:href="#aJ"/></g><path fill="#3a414a" d="M101-251c68 0 85 55 85 127S166 4 100 4C33 4 14-52 14-124c0-73 17-127 87-127zm-1 229c47 0 54-49 54-102s-4-102-53-102c-51 0-55 48-55 102 0 53 5 102 54 102" id="aK"/><use transform="matrix(0.07407407407407406,0,0,0.07407407407407406,0,0)" xlink:href="#aK" id="I"/><path fill="#3a414a" d="M27 0v-27h64v-190l-56 39v-29l58-41h29v221h61V0H27" id="aL"/><use transform="matrix(0.07407407407407406,0,0,0.07407407407407406,0,0)" xlink:href="#aL" id="J"/><path fill="#3a414a" d="M101-251c82-7 93 87 43 132L82-64C71-53 59-42 53-27h129V0H18c2-99 128-94 128-182 0-28-16-43-45-43s-46 15-49 41l-32-3c6-41 34-60 81-64" id="aM"/><use transform="matrix(0.07407407407407406,0,0,0.07407407407407406,0,0)" xlink:href="#aM" id="K"/><path fill="#3a414a" d="M126-127c33 6 58 20 58 59 0 88-139 92-164 29-3-8-5-16-6-25l32-3c6 27 21 44 54 44 32 0 52-15 52-46 0-38-36-46-79-43v-28c39 1 72-4 72-42 0-27-17-43-46-43-28 0-47 15-49 41l-32-3c6-42 35-63 81-64 48-1 79 21 79 65 0 36-21 52-52 59" id="aN"/><use transform="matrix(0.07407407407407406,0,0,0.07407407407407406,0,0)" xlink:href="#aN" id="L"/><path fill="#3a414a" d="M155-56V0h-30v-56H8v-25l114-167h33v167h35v25h-35zm-30-156c-27 46-58 90-88 131h88v-131" id="aO"/><use transform="matrix(0.07407407407407406,0,0,0.07407407407407406,0,0)" xlink:href="#aO" id="M"/><path fill="#3a414a" d="M54-142c48-35 137-8 131 61C196 18 31 33 14-55l32-4c7 23 22 37 52 37 35-1 51-22 54-58 4-55-73-65-99-34H22l8-134h141v27H59" id="aP"/><use transform="matrix(0.07407407407407406,0,0,0.07407407407407406,0,0)" xlink:href="#aP" id="N"/><path fill="#3a414a" d="M64 0c3-98 48-159 88-221H18v-27h164v26C143-157 98-101 97 0H64" id="aQ"/><use transform="matrix(0.07407407407407406,0,0,0.07407407407407406,0,0)" xlink:href="#aQ" id="O"/><path fill="#3a414a" d="M134-131c28 9 52 24 51 62-1 50-34 73-85 73S17-19 16-69c0-36 21-54 49-61-75-25-45-126 34-121 46 3 78 18 79 63 0 33-17 51-44 57zm-34-11c31 1 46-15 46-44 0-28-17-43-47-42-29 0-46 13-45 42 1 28 16 44 46 44zm1 122c35 0 51-18 51-52 0-30-18-46-53-46-33 0-51 17-51 47 0 34 19 51 53 51" id="aR"/><use transform="matrix(0.07407407407407406,0,0,0.07407407407407406,0,0)" xlink:href="#aR" id="P"/><path fill="#3a414a" d="M110-160c48 1 74 30 74 79 0 53-28 85-80 85-65 0-83-55-86-122-5-90 50-162 133-122 14 7 22 21 27 39l-31 6c-5-40-67-38-82-6-9 19-15 44-15 74 11-20 30-34 60-33zm-7 138c34 0 49-23 49-58s-16-56-50-56c-29 0-50 16-49 49 1 36 15 65 50 65" id="aS"/><use transform="matrix(0.07407407407407406,0,0,0.07407407407407406,0,0)" xlink:href="#aS" id="Q"/></defs></g></svg>