<svg xmlns="http://www.w3.org/2000/svg" xmlns:xlink="http://www.w3.org/1999/xlink" xmlns:lucid="lucid" width="2105" height="947"><g transform="translate(537 156)" lucid:page-tab-id="10QJgXnOwH8c"><path d="M-177.25-160h197.5v100h-197.5z" stroke="#000" stroke-opacity="0" stroke-width="2" fill="#fff" fill-opacity="0"/><use xlink:href="#a" transform="matrix(1,0,0,1,-172.2499750000004,-155) translate(-3.6111111111111143 53)"/><path d="M-174.25-80h880V20h-880z" stroke="#000" stroke-width="2" fill="#fff"/><use xlink:href="#b" transform="matrix(1,0,0,1,-162.24997500000006,-67.99999999999997) translate(301.7777777777778 45.069444444444436)"/><path d="M-174.25 14.66h220V124h-220z" stroke="#3a414a" stroke-width="2" fill="#fff"/><use xlink:href="#c" transform="matrix(1,0,0,1,-162.24997500000006,26.660493827160288) translate(16.123456790123484 31.131944444444436)"/><use xlink:href="#d" transform="matrix(1,0,0,1,-162.24997500000006,26.660493827160288) translate(110.8395061728395 31.131944444444436)"/><use xlink:href="#e" transform="matrix(1,0,0,1,-162.24997500000006,26.660493827160288) translate(64.51851851851853 73.79861111111109)"/><path d="M45.75 14.66h220V124h-220z" stroke="#3a414a" stroke-width="2" fill="#fff"/><use xlink:href="#f" transform="matrix(1,0,0,1,57.75002499999994,26.660493827160288) translate(22.21296296296299 29.354166666666657)"/><use xlink:href="#g" transform="matrix(1,0,0,1,57.75002499999994,26.660493827160288) translate(21.287037037037067 69.35416666666664)"/><use xlink:href="#h" transform="matrix(1,0,0,1,57.75002499999994,26.660493827160288) translate(84.15740740740742 69.35416666666664)"/><path d="M265.75 14.66h220V124h-220z" stroke="#3a414a" stroke-width="2" fill="#fff"/><use xlink:href="#c" transform="matrix(1,0,0,1,277.75002500000005,26.660493827160288) translate(21.01234567901237 31.131944444444436)"/><use xlink:href="#i" transform="matrix(1,0,0,1,277.75002500000005,26.660493827160288) translate(115.72839506172839 31.131944444444436)"/><use xlink:href="#e" transform="matrix(1,0,0,1,277.75002500000005,26.660493827160288) translate(64.51851851851853 73.79861111111109)"/><path d="M485.75 14.66h220V124h-220z" stroke="#3a414a" stroke-width="2" fill="#fff"/><use xlink:href="#j" transform="matrix(1,0,0,1,497.75002500000005,26.660493827160288) translate(44.76543209876545 31.131944444444436)"/><use xlink:href="#k" transform="matrix(1,0,0,1,497.75002500000005,26.660493827160288) translate(11.000617283950646 74.15416666666665)"/><use xlink:href="#l" transform="matrix(1,0,0,1,497.75002500000005,26.660493827160288) translate(133.74012345679012 74.15416666666665)"/><path d="M-514.25-80h220V38h-220z" stroke="#3a414a" stroke-width="2" fill="#fff"/><use xlink:href="#m" transform="matrix(1,0,0,1,-502.2499750000004,-68.00000000000003) translate(33.851851851851876 34.381944444444436)"/><use xlink:href="#n" transform="matrix(1,0,0,1,-502.2499750000004,-68.00000000000003) translate(50.64197530864199 77.04861111111109)"/><path d="M705.75-80h220V59.66h-220z" stroke="#3a414a" stroke-width="2" fill="#fff"/><use xlink:href="#o" transform="matrix(1,0,0,1,717.750025,-68.00000000000003) translate(6.691358024691397 42.944444444444436)"/><use xlink:href="#p" transform="matrix(1,0,0,1,717.750025,-68.00000000000003) translate(98.54320987654322 42.944444444444436)"/><use xlink:href="#q" transform="matrix(1,0,0,1,717.750025,-68.00000000000003) translate(159.67901234567898 42.944444444444436)"/><use xlink:href="#r" transform="matrix(1,0,0,1,717.750025,-68.00000000000003) translate(38.79012345679015 85.61111111111109)"/><path d="M925.75-80H1240V59.66H925.75z" stroke="#3a414a" stroke-width="2" fill="#ffdda6"/><use xlink:href="#s" transform="matrix(1,0,0,1,937.7500250000002,-67.99999999999997) translate(94.78395061728398 28.799999999999997)"/><use xlink:href="#t" transform="matrix(1,0,0,1,937.7500250000002,-67.99999999999997) translate(73.59876543209879 71.64444444444443)"/><use xlink:href="#u" transform="matrix(1,0,0,1,937.7500250000002,-67.99999999999997) translate(29.0555555555556 114.31111111111107)"/><use xlink:href="#v" transform="matrix(1,0,0,1,937.7500250000002,-67.99999999999997) translate(167.22839506172838 114.31111111111107)"/><path d="M-177.25 160H58.5v100h-235.75z" stroke="#000" stroke-opacity="0" stroke-width="2" fill="#fff" fill-opacity="0"/><use xlink:href="#w" transform="matrix(1,0,0,1,-172.2499750000004,165) translate(-6.833333333333343 53)"/><path d="M-174.75 245.34h880v100h-880z" stroke="#000" stroke-width="2" fill="#fff"/><use xlink:href="#x" transform="matrix(1,0,0,1,-162.74996920521085,257.33950617283983) translate(281.0864197530865 45.069444444444436)"/><path d="M-174.75 340h220v109.33h-220z" stroke="#3a414a" stroke-width="2" fill="#fff"/><use xlink:href="#c" transform="matrix(1,0,0,1,-162.74996920521085,352) translate(16.123456790123484 31.131944444444436)"/><use xlink:href="#d" transform="matrix(1,0,0,1,-162.74996920521085,352) translate(110.8395061728395 31.131944444444436)"/><use xlink:href="#y" transform="matrix(1,0,0,1,-162.74996920521085,352) translate(64.51851851851853 73.79861111111109)"/><path d="M45.25 340h220v109.33h-220z" stroke="#3a414a" stroke-width="2" fill="#fff"/><use xlink:href="#z" transform="matrix(1,0,0,1,57.250030794789154,352) translate(-1.604938271604908 28.777777777777786)"/><use xlink:href="#A" transform="matrix(1,0,0,1,57.250030794789154,352) translate(17.111111111111143 71.44444444444444)"/><use xlink:href="#n" transform="matrix(1,0,0,1,57.250030794789154,352) translate(84.17283950617285 71.44444444444444)"/><path d="M264.75 340h220v109.33h-220z" stroke="#3a414a" stroke-width="2" fill="#fff"/><use xlink:href="#B" transform="matrix(1,0,0,1,276.7500807947887,352) translate(25.824074074074105 29.354166666666657)"/><use xlink:href="#C" transform="matrix(1,0,0,1,276.7500807947887,352) translate(114.62037037037037 29.354166666666657)"/><use xlink:href="#D" transform="matrix(1,0,0,1,276.7500807947887,352) translate(66.61111111111111 69.35416666666664)"/><path d="M484.75 340h220v109.33h-220z" stroke="#3a414a" stroke-width="2" fill="#fff"/><use xlink:href="#j" transform="matrix(1,0,0,1,496.7500807947886,352) translate(44.76543209876545 31.131944444444436)"/><use xlink:href="#E" transform="matrix(1,0,0,1,496.7500807947886,352) translate(9.802469135802497 74.15416666666665)"/><use xlink:href="#F" transform="matrix(1,0,0,1,496.7500807947886,352) translate(130.98765432098764 74.15416666666665)"/><path d="M-514.25 385.34h220v118h-220z" stroke="#3a414a" stroke-width="2" fill="#fff"/><use xlink:href="#G" transform="matrix(1,0,0,1,-502.2499750000004,397.3395061728397) translate(47.72839506172842 55.163194444444436)"/><path d="M704.25 245.34h220v140h-220z" stroke="#3a414a" stroke-width="2" fill="#fff"/><use xlink:href="#H" transform="matrix(1,0,0,1,716.2501307947882,257.33950617283983) translate(3.3333333333333712 28.444444444444436)"/><use xlink:href="#I" transform="matrix(1,0,0,1,716.2501307947882,257.33950617283983) translate(137.45679012345678 28.444444444444436)"/><use xlink:href="#J" transform="matrix(1,0,0,1,716.2501307947882,257.33950617283983) translate(3.2345679012345983 71.11111111111109)"/><use xlink:href="#K" transform="matrix(1,0,0,1,716.2501307947882,257.33950617283983) translate(42.740740740740755 71.11111111111109)"/><use xlink:href="#L" transform="matrix(1,0,0,1,716.2501307947882,257.33950617283983) translate(133.50617283950618 71.11111111111109)"/><use xlink:href="#M" transform="matrix(1,0,0,1,716.2501307947882,257.33950617283983) translate(13.308641975308674 113.77777777777774)"/><use xlink:href="#J" transform="matrix(1,0,0,1,716.2501307947882,257.33950617283983) translate(97.95061728395062 113.77777777777774)"/><use xlink:href="#N" transform="matrix(1,0,0,1,716.2501307947882,257.33950617283983) translate(137.45679012345676 113.77777777777774)"/><path d="M925.75 255.5H1241v120H925.75z" stroke="#3a414a" stroke-width="2" fill="#ffdda6"/><use xlink:href="#O" transform="matrix(1,0,0,1,937.750025,267.5092592592596) translate(90.3456790123457 34.8)"/><use xlink:href="#P" transform="matrix(1,0,0,1,937.750025,267.5092592592596) translate(19.925925925925966 77.64444444444443)"/><path d="M-174.75 480h200v100h-200z" stroke="#000" stroke-opacity="0" stroke-width="2" fill="#fff" fill-opacity="0"/><use xlink:href="#Q" transform="matrix(1,0,0,1,-169.74996920521085,485) translate(-10.333333333333343 53)"/><path d="M-174.25 565.34h880v100h-880z" stroke="#000" stroke-width="2" fill="#fff"/><use xlink:href="#R" transform="matrix(1,0,0,1,-162.24997500000006,577.3395061728398) translate(359.95061728395063 45.069444444444436)"/><path d="M-174.25 660h220v109.33h-220z" stroke="#3a414a" stroke-width="2" fill="#fff"/><use xlink:href="#c" transform="matrix(1,0,0,1,-162.249975,672) translate(16.123456790123484 31.131944444444436)"/><use xlink:href="#d" transform="matrix(1,0,0,1,-162.249975,672) translate(110.8395061728395 31.131944444444436)"/><use xlink:href="#y" transform="matrix(1,0,0,1,-162.249975,672) translate(64.51851851851853 73.79861111111109)"/><path d="M45.75 660h220v109.33h-220z" stroke="#3a414a" stroke-width="2" fill="#fff"/><use xlink:href="#S" transform="matrix(1,0,0,1,57.75002499999994,672) translate(0.6172839506173347 30.26388888888888)"/><use xlink:href="#T" transform="matrix(1,0,0,1,57.75002499999994,672) translate(145.62962962962962 30.26388888888888)"/><use xlink:href="#U" transform="matrix(1,0,0,1,57.75002499999994,672) translate(28.23148148148151 69.37499999999997)"/><use xlink:href="#V" transform="matrix(1,0,0,1,57.75002499999994,672) translate(81.8425925925926 69.37499999999997)"/><use xlink:href="#W" transform="matrix(1,0,0,1,57.75002499999994,672) translate(121.5648148148148 69.37499999999997)"/><path d="M265.75 660h220v109.33h-220z" stroke="#3a414a" stroke-width="2" fill="#fff"/><g><use xlink:href="#c" transform="matrix(1,0,0,1,277.7500249999997,672) translate(21.01234567901237 31.131944444444436)"/><use xlink:href="#i" transform="matrix(1,0,0,1,277.7500249999997,672) translate(115.72839506172839 31.131944444444436)"/><use xlink:href="#y" transform="matrix(1,0,0,1,277.7500249999997,672) translate(64.51851851851853 73.79861111111109)"/></g><path d="M485.75 660h220v109.33h-220z" stroke="#3a414a" stroke-width="2" fill="#fff"/><g><use xlink:href="#X" transform="matrix(1,0,0,1,497.7500250000004,672) translate(44.76543209876545 31.131944444444436)"/><use xlink:href="#Y" transform="matrix(1,0,0,1,497.7500250000004,672) translate(7.824074074074105 74.15416666666665)"/><use xlink:href="#Z" transform="matrix(1,0,0,1,497.7500250000004,672) translate(129.00925925925924 74.15416666666665)"/></g><path d="M705.25 565.34h315.25V705H705.25z" stroke="#3a414a" stroke-width="2" fill="#ffdda6"/><g><use xlink:href="#aa" transform="matrix(1,0,0,1,717.2500749999994,577.3395061728398) translate(58.86111111111114 65.05)"/><use xlink:href="#ab" transform="matrix(1,0,0,1,717.2500749999994,577.3395061728398) translate(173.9722222222222 65.05)"/></g><path d="M437.67 565.34h268.08v82H437.67z" stroke="#3a414a" stroke-width="2" fill="#fff"/><g><use xlink:href="#ac" transform="matrix(1,0,0,1,449.66982380750085,577.3395061728397) translate(11.197530864197688 23.111111111111082)"/><use xlink:href="#ad" transform="matrix(1,0,0,1,449.66982380750085,577.3395061728397) translate(62.395061728395156 23.111111111111082)"/><use xlink:href="#ae" transform="matrix(1,0,0,1,449.66982380750085,577.3395061728397) translate(99.1481481481482 23.111111111111082)"/><use xlink:href="#af" transform="matrix(1,0,0,1,449.66982380750085,577.3395061728397) translate(12.922839506172977 57.7777777777777)"/><use xlink:href="#ag" transform="matrix(1,0,0,1,449.66982380750085,577.3395061728397) translate(62.114197530864274 57.7777777777777)"/><use xlink:href="#ah" transform="matrix(1,0,0,1,449.66982380750085,577.3395061728397) translate(94.21296296296299 57.7777777777777)"/></g><path d="M-292.25 444.34h57.75v-149h40.25" stroke="#3a414a" stroke-width="2" fill="none"/><path d="M-292.22 445.34h-1.03v-2h1.03z" stroke="#3a414a" stroke-width=".05" fill="#3a414a"/><path d="M-179 295.34l-14.25 4.64v-9.28z" stroke="#3a414a" stroke-width="2" fill="#3a414a"/><path d="M-292.25 444.34h58v159h40.5" stroke="#3a414a" stroke-width="2" fill="none"/><path d="M-292.22 445.34h-1.03v-2h1.03z" stroke="#3a414a" stroke-width=".05" fill="#3a414a"/><path d="M-178.5 603.33l-14.25 4.63v-9.27z" stroke="#3a414a" stroke-width="2" fill="#3a414a"/><path d="M-292.25-21h98.5" stroke="#3a414a" stroke-width="2" fill="none"/><path d="M-292.22-20h-1.03v-2h1.03z" stroke="#3a414a" stroke-width=".05" fill="#3a414a"/><path d="M-178.5-21l-14.25 4.65v-9.27z" stroke="#3a414a" stroke-width="2" fill="#3a414a"/><g><path d="M1540.5-80v785H1360V-80z" stroke="#3a414a" stroke-width="2" fill="#fff"/></g><g><use xlink:href="#ai" transform="matrix(6.123233995736766e-17,1,-1,6.123233995736766e-17,1528.4999500000008,-68) translate(284.820987654321 60.08680555555556)"/><use xlink:href="#aj" transform="matrix(6.123233995736766e-17,1,-1,6.123233995736766e-17,1528.4999500000008,-68) translate(217.72222222222223 113.4201388888889)"/><use xlink:href="#ak" transform="matrix(6.123233995736766e-17,1,-1,6.123233995736766e-17,1528.4999500000008,-68) translate(259.6975308641975 113.4201388888889)"/></g><path d="M1242-10.17h98.5" stroke="#3a414a" stroke-width="2" fill="none"/><path d="M1242.03-9.17H1241v-2h1.03z" stroke="#3a414a" stroke-width=".05" fill="#3a414a"/><path d="M1355.76-10.17l-14.26 4.64v-9.28z" stroke="#3a414a" stroke-width="2" fill="#3a414a"/><path d="M1243 315.5h57.5v.03h40" stroke="#3a414a" stroke-width="2" fill="none"/><path d="M1243.03 316.5H1242v-2h1.03z" stroke="#3a414a" stroke-width=".05" fill="#3a414a"/><path d="M1355.76 315.53l-14.26 4.63v-9.27z" stroke="#3a414a" stroke-width="2" fill="#3a414a"/><path d="M1022.5 635.17h318" stroke="#3a414a" stroke-width="2" fill="none"/><path d="M1022.53 636.17h-1.03v-2h1.03z" stroke="#3a414a" stroke-width=".05" fill="#3a414a"/><path d="M1355.76 635.17l-14.26 4.63v-9.27z" stroke="#3a414a" stroke-width="2" fill="#3a414a"/><path d="M243.8 171h-647.05v194.84h-2V169H243.8zm503.45 0h-452.2v-2h450.2v-60.54h-37.5v-2h39.5z" stroke="#3a414a" stroke-width=".05" fill="#3a414a"/><path d="M707.78 108.46h-1.03v-2h1.03z" fill="#3a414a"/><path d="M707.8 108.5h-1.07v-2.06h1.07zm-1.02-2v1.94h.97v-1.95z" stroke="#3a414a" stroke-width=".05" fill="#3a414a"/><path d="M-404.25 381.1l-4.63-14.26h9.26z" fill="#3a414a"/><path d="M-404.25 384.34l-6-18.5h12zm-3.26-16.5l3.25 10.03 3.26-10.03z" stroke="#3a414a" stroke-width=".05" fill="#3a414a"/><g><use xlink:href="#al" transform="matrix(1,0,0,1,243.80434968986611,148.66666666666669) translate(0 28.444444444444436)"/></g><defs><path d="M67-125c0 53 21 87 73 88 37 1 54-22 65-47l45 17C233-25 199 4 140 4 58 4 20-42 15-125 8-235 124-281 211-232c18 10 29 29 36 50l-46 12c-8-25-30-41-62-41-52 0-71 34-72 86" id="am"/><path d="M110-194c64 0 96 36 96 99 0 64-35 99-97 99-61 0-95-36-95-99 0-62 34-99 96-99zm-1 164c35 0 45-28 45-65 0-40-10-65-43-65-34 0-45 26-45 65 0 36 10 65 43 65" id="an"/><path d="M220-157c-53 9-28 100-34 157h-49v-107c1-27-5-49-29-50C55-147 81-57 75 0H25l-1-190h47c2 12-1 28 3 38 10-53 101-56 108 0 13-22 24-43 59-42 82 1 51 116 57 194h-49v-107c-1-25-5-48-29-50" id="ao"/><path d="M135-194c53 0 70 44 70 98 0 56-19 98-73 100-31 1-45-17-59-34 3 33 2 69 2 105H25l-1-265h48c2 10 0 23 3 31 11-24 29-35 60-35zM114-30c33 0 39-31 40-66 0-38-9-64-40-64-56 0-55 130 0 130" id="ap"/><path d="M135-150c-39-12-60 13-60 57V0H25l-1-190h47c2 13-1 29 3 40 6-28 27-53 61-41v41" id="aq"/><path d="M185-48c-13 30-37 53-82 52C43 2 14-33 14-96s30-98 90-98c62 0 83 45 84 108H66c0 31 8 55 39 56 18 0 30-7 34-22zm-45-69c5-46-57-63-70-21-2 6-4 13-4 21h74" id="ar"/><path d="M137-138c1-29-70-34-71-4 15 46 118 7 119 86 1 83-164 76-172 9l43-7c4 19 20 25 44 25 33 8 57-30 24-41C81-84 22-81 20-136c-2-80 154-74 161-7" id="as"/><g id="a"><use transform="matrix(0.1111111111111111,0,0,0.1111111111111111,0,0)" xlink:href="#am"/><use transform="matrix(0.1111111111111111,0,0,0.1111111111111111,28.777777777777775,0)" xlink:href="#an"/><use transform="matrix(0.1111111111111111,0,0,0.1111111111111111,53.11111111111111,0)" xlink:href="#ao"/><use transform="matrix(0.1111111111111111,0,0,0.1111111111111111,88.66666666666666,0)" xlink:href="#ap"/><use transform="matrix(0.1111111111111111,0,0,0.1111111111111111,112.99999999999999,0)" xlink:href="#aq"/><use transform="matrix(0.1111111111111111,0,0,0.1111111111111111,128.55555555555554,0)" xlink:href="#ar"/><use transform="matrix(0.1111111111111111,0,0,0.1111111111111111,150.77777777777777,0)" xlink:href="#as"/><use transform="matrix(0.1111111111111111,0,0,0.1111111111111111,173,0)" xlink:href="#as"/></g><path d="M199 0l-22-63H83L61 0H9l90-248h61L250 0h-51zm-33-102l-36-108c-10 38-24 72-36 108h72" id="at"/><path d="M24 0v-248h52v208h133V0H24" id="au"/><path d="M67-125c0 54 23 88 75 88 28 0 53-7 68-21v-34h-60v-39h108v91C232-14 192 4 140 4 58 4 20-42 15-125 8-236 126-280 215-234c19 10 29 26 37 47l-47 15c-11-23-29-39-63-39-53 1-75 33-75 86" id="av"/><path d="M24 0v-54h51V0H24" id="aw"/><path d="M190-63c-7 42-38 67-86 67-59 0-84-38-90-98-12-110 154-137 174-36l-49 2c-2-19-15-32-35-32-30 0-35 28-38 64-6 74 65 87 74 30" id="ax"/><g id="b"><use transform="matrix(0.0987654320987654,0,0,0.0987654320987654,0,0)" xlink:href="#at"/><use transform="matrix(0.0987654320987654,0,0,0.0987654320987654,25.58024691358024,0)" xlink:href="#au"/><use transform="matrix(0.0987654320987654,0,0,0.0987654320987654,47.20987654320986,0)" xlink:href="#av"/><use transform="matrix(0.0987654320987654,0,0,0.0987654320987654,74.86419753086417,0)" xlink:href="#aw"/><use transform="matrix(0.0987654320987654,0,0,0.0987654320987654,84.74074074074072,0)" xlink:href="#ax"/><use transform="matrix(0.0987654320987654,0,0,0.0987654320987654,104.4938271604938,0)" xlink:href="#an"/><use transform="matrix(0.0987654320987654,0,0,0.0987654320987654,126.12345679012341,0)" xlink:href="#ao"/><use transform="matrix(0.0987654320987654,0,0,0.0987654320987654,157.72839506172835,0)" xlink:href="#ap"/><use transform="matrix(0.0987654320987654,0,0,0.0987654320987654,179.35802469135797,0)" xlink:href="#aq"/><use transform="matrix(0.0987654320987654,0,0,0.0987654320987654,193.18518518518513,0)" xlink:href="#ar"/><use transform="matrix(0.0987654320987654,0,0,0.0987654320987654,212.93827160493825,0)" xlink:href="#as"/><use transform="matrix(0.0987654320987654,0,0,0.0987654320987654,232.6913580246913,0)" xlink:href="#as"/></g><path d="M185-189c-5-48-123-54-124 2 14 75 158 14 163 119 3 78-121 87-175 55-17-10-28-26-33-46l33-7c5 56 141 63 141-1 0-78-155-14-162-118-5-82 145-84 179-34 5 7 8 16 11 25" id="ay"/><path d="M59-47c-2 24 18 29 38 22v24C64 9 27 4 27-40v-127H5v-23h24l9-43h21v43h35v23H59v120" id="az"/><path d="M100-194c62-1 85 37 85 99 1 63-27 99-86 99S16-35 15-95c0-66 28-99 85-99zM99-20c44 1 53-31 53-75 0-43-8-75-51-75s-53 32-53 75 10 74 51 75" id="aA"/><path d="M114-163C36-179 61-72 57 0H25l-1-190h30c1 12-1 29 2 39 6-27 23-49 58-41v29" id="aB"/><path d="M100-194c63 0 86 42 84 106H49c0 40 14 67 53 68 26 1 43-12 49-29l28 8c-11 28-37 45-77 45C44 4 14-33 15-96c1-61 26-98 85-98zm52 81c6-60-76-77-97-28-3 7-6 17-6 28h103" id="aC"/><g id="c"><use transform="matrix(0.0987654320987654,0,0,0.0987654320987654,0,0)" xlink:href="#ay"/><use transform="matrix(0.0987654320987654,0,0,0.0987654320987654,23.703703703703695,0)" xlink:href="#az"/><use transform="matrix(0.0987654320987654,0,0,0.0987654320987654,33.58024691358023,0)" xlink:href="#aA"/><use transform="matrix(0.0987654320987654,0,0,0.0987654320987654,53.333333333333314,0)" xlink:href="#aB"/><use transform="matrix(0.0987654320987654,0,0,0.0987654320987654,65.0864197530864,0)" xlink:href="#aC"/></g><path d="M135-143c-3-34-86-38-87 0 15 53 115 12 119 90S17 21 10-45l28-5c4 36 97 45 98 0-10-56-113-15-118-90-4-57 82-63 122-42 12 7 21 19 24 35" id="aD"/><path d="M141-36C126-15 110 5 73 4 37 3 15-17 15-53c-1-64 63-63 125-63 3-35-9-54-41-54-24 1-41 7-42 31l-33-3c5-37 33-52 76-52 45 0 72 20 72 64v82c-1 20 7 32 28 27v20c-31 9-61-2-59-35zM48-53c0 20 12 33 32 33 41-3 63-29 60-74-43 2-92-5-92 41" id="aE"/><g id="d"><use transform="matrix(0.0987654320987654,0,0,0.0987654320987654,0,0)" xlink:href="#aD"/><use transform="matrix(0.0987654320987654,0,0,0.0987654320987654,17.77777777777777,0)" xlink:href="#az"/><use transform="matrix(0.0987654320987654,0,0,0.0987654320987654,27.654320987654305,0)" xlink:href="#aE"/><use transform="matrix(0.0987654320987654,0,0,0.0987654320987654,47.40740740740739,0)" xlink:href="#aB"/><use transform="matrix(0.0987654320987654,0,0,0.0987654320987654,59.16049382716047,0)" xlink:href="#az"/></g><path d="M24-231v-30h32v30H24zM24 0v-190h32V0H24" id="aF"/><path d="M210-169c-67 3-38 105-44 169h-31v-121c0-29-5-50-35-48C34-165 62-65 56 0H25l-1-190h30c1 10-1 24 2 32 10-44 99-50 107 0 11-21 27-35 58-36 85-2 47 119 55 194h-31v-121c0-29-5-49-35-48" id="aG"/><g id="e"><use transform="matrix(0.0987654320987654,0,0,0.0987654320987654,0,0)" xlink:href="#az"/><use transform="matrix(0.0987654320987654,0,0,0.0987654320987654,9.876543209876539,0)" xlink:href="#aF"/><use transform="matrix(0.0987654320987654,0,0,0.0987654320987654,17.679012345679006,0)" xlink:href="#aG"/><use transform="matrix(0.0987654320987654,0,0,0.0987654320987654,47.20987654320986,0)" xlink:href="#aC"/></g><path d="M212-179c-10-28-35-45-73-45-59 0-87 40-87 99 0 60 29 101 89 101 43 0 62-24 78-52l27 14C228-24 195 4 139 4 59 4 22-46 18-125c-6-104 99-153 187-111 19 9 31 26 39 46" id="aH"/><path d="M115-194c55 1 70 41 70 98S169 2 115 4C84 4 66-9 55-30l1 105H24l-1-265h31l2 30c10-21 28-34 59-34zm-8 174c40 0 45-34 45-75s-6-73-45-74c-42 0-51 32-51 76 0 43 10 73 51 73" id="aI"/><g id="f"><use transform="matrix(0.09259259259259256,0,0,0.09259259259259256,0,0)" xlink:href="#aH"/><use transform="matrix(0.09259259259259256,0,0,0.09259259259259256,23.981481481481474,0)" xlink:href="#aA"/><use transform="matrix(0.09259259259259256,0,0,0.09259259259259256,42.499999999999986,0)" xlink:href="#aG"/><use transform="matrix(0.09259259259259256,0,0,0.09259259259259256,70.18518518518516,0)" xlink:href="#aI"/><use transform="matrix(0.09259259259259256,0,0,0.09259259259259256,88.70370370370367,0)" xlink:href="#aB"/><use transform="matrix(0.09259259259259256,0,0,0.09259259259259256,99.72222222222219,0)" xlink:href="#aC"/><use transform="matrix(0.09259259259259256,0,0,0.09259259259259256,118.2407407407407,0)" xlink:href="#aD"/><use transform="matrix(0.09259259259259256,0,0,0.09259259259259256,134.90740740740736,0)" xlink:href="#aD"/></g><path d="M117-194c89-4 53 116 60 194h-32v-121c0-31-8-49-39-48C34-167 62-67 57 0H25l-1-190h30c1 10-1 24 2 32 11-22 29-35 61-36" id="aJ"/><g id="g"><use transform="matrix(0.09259259259259256,0,0,0.09259259259259256,0,0)" xlink:href="#aF"/><use transform="matrix(0.09259259259259256,0,0,0.09259259259259256,7.314814814814812,0)" xlink:href="#aJ"/><use transform="matrix(0.09259259259259256,0,0,0.09259259259259256,25.833333333333325,0)" xlink:href="#az"/><use transform="matrix(0.09259259259259256,0,0,0.09259259259259256,35.09259259259258,0)" xlink:href="#aA"/></g><path d="M115-194c53 0 69 39 70 98 0 66-23 100-70 100C84 3 66-7 56-30L54 0H23l1-261h32v101c10-23 28-34 59-34zm-8 174c40 0 45-34 45-75 0-40-5-75-45-74-42 0-51 32-51 76 0 43 10 73 51 73" id="aK"/><path d="M179-190L93 31C79 59 56 82 12 73V49c39 6 53-20 64-50L1-190h34L92-34l54-156h33" id="aL"/><g id="h"><use transform="matrix(0.09259259259259256,0,0,0.09259259259259256,0,0)" xlink:href="#aK"/><use transform="matrix(0.09259259259259256,0,0,0.09259259259259256,18.518518518518512,0)" xlink:href="#aF"/><use transform="matrix(0.09259259259259256,0,0,0.09259259259259256,25.833333333333325,0)" xlink:href="#aJ"/><use transform="matrix(0.09259259259259256,0,0,0.09259259259259256,44.35185185185183,0)" xlink:href="#aE"/><use transform="matrix(0.09259259259259256,0,0,0.09259259259259256,62.870370370370345,0)" xlink:href="#aB"/><use transform="matrix(0.09259259259259256,0,0,0.09259259259259256,73.88888888888886,0)" xlink:href="#aL"/></g><path d="M85-194c31 0 48 13 60 33l-1-100h32l1 261h-30c-2-10 0-23-3-31C134-8 116 4 85 4 32 4 16-35 15-94c0-66 23-100 70-100zm9 24c-40 0-46 34-46 75 0 40 6 74 45 74 42 0 51-32 51-76 0-42-9-74-50-73" id="aM"/><g id="i"><use transform="matrix(0.0987654320987654,0,0,0.0987654320987654,0,0)" xlink:href="#aC"/><use transform="matrix(0.0987654320987654,0,0,0.0987654320987654,19.753086419753078,0)" xlink:href="#aJ"/><use transform="matrix(0.0987654320987654,0,0,0.0987654320987654,39.506172839506156,0)" xlink:href="#aM"/></g><path d="M233-177c-1 41-23 64-60 70L243 0h-38l-65-103H63V0H30v-248c88 3 205-21 203 71zM63-129c60-2 137 13 137-47 0-61-80-42-137-45v92" id="aN"/><path d="M84 4C-5 8 30-112 23-190h32v120c0 31 7 50 39 49 72-2 45-101 50-169h31l1 190h-30c-1-10 1-25-2-33-11 22-28 36-60 37" id="aO"/><g id="j"><use transform="matrix(0.0987654320987654,0,0,0.0987654320987654,0,0)" xlink:href="#aN"/><use transform="matrix(0.0987654320987654,0,0,0.0987654320987654,25.58024691358024,0)" xlink:href="#aC"/><use transform="matrix(0.0987654320987654,0,0,0.0987654320987654,45.333333333333314,0)" xlink:href="#az"/><use transform="matrix(0.0987654320987654,0,0,0.0987654320987654,55.209876543209845,0)" xlink:href="#aO"/><use transform="matrix(0.0987654320987654,0,0,0.0987654320987654,74.96296296296293,0)" xlink:href="#aB"/><use transform="matrix(0.0987654320987654,0,0,0.0987654320987654,86.71604938271602,0)" xlink:href="#aJ"/></g><path d="M11-25l91-223h38l90 223V0H11v-25zm183-2l-74-195C99-153 70-92 46-27h148" id="aP"/><path d="M127-220V0H93v-220H8v-28h204v28h-85" id="aQ"/><path d="M68-38c1 34 0 65-14 84H32c9-13 17-26 17-46H33v-38h35" id="aR"/><g id="k"><use transform="matrix(0.09999999999999998,0,0,0.09999999999999998,0,0)" xlink:href="#aP"/><use transform="matrix(0.09999999999999998,0,0,0.09999999999999998,23.999999999999993,0)" xlink:href="#aQ"/><use transform="matrix(0.0987654320987654,0,0,0.0987654320987654,45.89999999999999,0)" xlink:href="#aF"/><use transform="matrix(0.0987654320987654,0,0,0.0987654320987654,53.70246913580246,0)" xlink:href="#aG"/><use transform="matrix(0.0987654320987654,0,0,0.0987654320987654,83.23333333333332,0)" xlink:href="#aC"/><use transform="matrix(0.0987654320987654,0,0,0.0987654320987654,102.98641975308641,0)" xlink:href="#aR"/></g><path d="M160-131c35 5 61 23 61 61C221 17 115-2 30 0v-248c76 3 177-17 177 60 0 33-19 50-47 57zm-97-11c50-1 110 9 110-42 0-47-63-36-110-37v79zm0 115c55-2 124 14 124-45 0-56-70-42-124-44v89" id="aS"/><g id="l"><use transform="matrix(0.0987654320987654,0,0,0.0987654320987654,0,0)" xlink:href="#aS"/><use transform="matrix(0.0987654320987654,0,0,0.0987654320987654,23.703703703703695,0)" xlink:href="#aF"/><use transform="matrix(0.0987654320987654,0,0,0.0987654320987654,31.506172839506164,0)" xlink:href="#aJ"/></g><path d="M106-169C34-169 62-67 57 0H25v-261h32l-1 103c12-21 28-36 61-36 89 0 53 116 60 194h-32v-121c2-32-8-49-39-48" id="aT"/><path d="M24 0v-261h32V0H24" id="aU"/><g id="m"><use transform="matrix(0.0987654320987654,0,0,0.0987654320987654,0,0)" xlink:href="#ay"/><use transform="matrix(0.0987654320987654,0,0,0.0987654320987654,23.703703703703695,0)" xlink:href="#aT"/><use transform="matrix(0.0987654320987654,0,0,0.0987654320987654,43.45679012345677,0)" xlink:href="#aE"/><use transform="matrix(0.0987654320987654,0,0,0.0987654320987654,63.209876543209845,0)" xlink:href="#aI"/><use transform="matrix(0.0987654320987654,0,0,0.0987654320987654,82.96296296296292,0)" xlink:href="#aC"/><use transform="matrix(0.0987654320987654,0,0,0.0987654320987654,102.716049382716,0)" xlink:href="#aU"/><use transform="matrix(0.0987654320987654,0,0,0.0987654320987654,110.51851851851846,0)" xlink:href="#aL"/></g><path d="M24-231v-30h32v30H24zM-9 49c24 4 33-6 33-30v-209h32V24c2 40-23 58-65 49V49" id="aV"/><path d="M96-169c-40 0-48 33-48 73s9 75 48 75c24 0 41-14 43-38l32 2c-6 37-31 61-74 61-59 0-76-41-82-99-10-93 101-131 147-64 4 7 5 14 7 22l-32 3c-4-21-16-35-41-35" id="aW"/><g id="n"><use transform="matrix(0.0987654320987654,0,0,0.0987654320987654,0,0)" xlink:href="#aA"/><use transform="matrix(0.0987654320987654,0,0,0.0987654320987654,19.753086419753078,0)" xlink:href="#aK"/><use transform="matrix(0.0987654320987654,0,0,0.0987654320987654,39.506172839506156,0)" xlink:href="#aV"/><use transform="matrix(0.0987654320987654,0,0,0.0987654320987654,47.308641975308625,0)" xlink:href="#aC"/><use transform="matrix(0.0987654320987654,0,0,0.0987654320987654,67.0617283950617,0)" xlink:href="#aW"/><use transform="matrix(0.0987654320987654,0,0,0.0987654320987654,84.83950617283948,0)" xlink:href="#az"/></g><path d="M266 0h-40l-56-210L115 0H75L2-248h35L96-30l15-64 43-154h32l59 218 59-218h35" id="aX"/><g id="o"><use transform="matrix(0.0987654320987654,0,0,0.0987654320987654,0,0)" xlink:href="#aX"/><use transform="matrix(0.0987654320987654,0,0,0.0987654320987654,32.790123456790106,0)" xlink:href="#aB"/><use transform="matrix(0.0987654320987654,0,0,0.0987654320987654,44.54320987654319,0)" xlink:href="#aF"/><use transform="matrix(0.0987654320987654,0,0,0.0987654320987654,52.34567901234565,0)" xlink:href="#az"/><use transform="matrix(0.0987654320987654,0,0,0.0987654320987654,62.22222222222219,0)" xlink:href="#aC"/></g><g id="p"><use transform="matrix(0.0987654320987654,0,0,0.0987654320987654,0,0)" xlink:href="#aS"/><use transform="matrix(0.0987654320987654,0,0,0.0987654320987654,23.703703703703695,0)" xlink:href="#aF"/><use transform="matrix(0.0987654320987654,0,0,0.0987654320987654,31.506172839506164,0)" xlink:href="#aJ"/></g><g id="q"><use transform="matrix(0.0987654320987654,0,0,0.0987654320987654,0,0)" xlink:href="#az"/><use transform="matrix(0.0987654320987654,0,0,0.0987654320987654,9.876543209876539,0)" xlink:href="#aA"/></g><path d="M177-190C167-65 218 103 67 71c-23-6-38-20-44-43l32-5c15 47 100 32 89-28v-30C133-14 115 1 83 1 29 1 15-40 15-95c0-56 16-97 71-98 29-1 48 16 59 35 1-10 0-23 2-32h30zM94-22c36 0 50-32 50-73 0-42-14-75-50-75-39 0-46 34-46 75s6 73 46 73" id="aY"/><g id="r"><use transform="matrix(0.0987654320987654,0,0,0.0987654320987654,0,0)" xlink:href="#aD"/><use transform="matrix(0.0987654320987654,0,0,0.0987654320987654,17.77777777777777,0)" xlink:href="#az"/><use transform="matrix(0.0987654320987654,0,0,0.0987654320987654,27.654320987654305,0)" xlink:href="#aA"/><use transform="matrix(0.0987654320987654,0,0,0.0987654320987654,47.40740740740739,0)" xlink:href="#aB"/><use transform="matrix(0.0987654320987654,0,0,0.0987654320987654,59.16049382716047,0)" xlink:href="#aE"/><use transform="matrix(0.0987654320987654,0,0,0.0987654320987654,78.91358024691355,0)" xlink:href="#aY"/><use transform="matrix(0.0987654320987654,0,0,0.0987654320987654,98.66666666666663,0)" xlink:href="#aC"/></g><g id="s"><use transform="matrix(0.09999999999999998,0,0,0.09999999999999998,0,0)" xlink:href="#aP"/><use transform="matrix(0.0987654320987654,0,0,0.0987654320987654,23.999999999999993,0)" xlink:href="#aQ"/><use transform="matrix(0.0987654320987654,0,0,0.0987654320987654,44.34567901234567,0)" xlink:href="#aF"/><use transform="matrix(0.0987654320987654,0,0,0.0987654320987654,52.148148148148145,0)" xlink:href="#aG"/><use transform="matrix(0.0987654320987654,0,0,0.0987654320987654,81.67901234567898,0)" xlink:href="#aC"/></g><path d="M9 0v-24l116-142H16v-24h144v24L44-24h123V0H9" id="aZ"/><path d="M87 75C49 33 22-17 22-94c0-76 28-126 65-167h31c-38 41-64 92-64 168S80 34 118 75H87" id="ba"/><path d="M33-261c38 41 65 92 65 168S71 34 33 75H2C39 34 66-17 66-93S39-220 2-261h31" id="bb"/><g id="t"><use transform="matrix(0.0987654320987654,0,0,0.0987654320987654,0,0)" xlink:href="#ay"/><use transform="matrix(0.0987654320987654,0,0,0.0987654320987654,23.703703703703695,0)" xlink:href="#aF"/><use transform="matrix(0.0987654320987654,0,0,0.0987654320987654,31.506172839506164,0)" xlink:href="#aZ"/><use transform="matrix(0.0987654320987654,0,0,0.0987654320987654,49.283950617283935,0)" xlink:href="#aC"/><use transform="matrix(0.0987654320987654,0,0,0.0987654320987654,69.03703703703701,0)" xlink:href="#ba"/><use transform="matrix(0.0987654320987654,0,0,0.0987654320987654,80.7901234567901,0)" xlink:href="#aS"/><use transform="matrix(0.0987654320987654,0,0,0.0987654320987654,104.4938271604938,0)" xlink:href="#aF"/><use transform="matrix(0.0987654320987654,0,0,0.0987654320987654,112.29629629629626,0)" xlink:href="#aJ"/><use transform="matrix(0.0987654320987654,0,0,0.0987654320987654,132.04938271604934,0)" xlink:href="#bb"/></g><g id="u"><use transform="matrix(0.0987654320987654,0,0,0.0987654320987654,0,0)" xlink:href="#ay"/><use transform="matrix(0.0987654320987654,0,0,0.0987654320987654,23.703703703703695,0)" xlink:href="#aT"/><use transform="matrix(0.0987654320987654,0,0,0.0987654320987654,43.45679012345677,0)" xlink:href="#aE"/><use transform="matrix(0.0987654320987654,0,0,0.0987654320987654,63.209876543209845,0)" xlink:href="#aI"/><use transform="matrix(0.0987654320987654,0,0,0.0987654320987654,82.96296296296292,0)" xlink:href="#aC"/><use transform="matrix(0.0987654320987654,0,0,0.0987654320987654,102.716049382716,0)" xlink:href="#aU"/><use transform="matrix(0.0987654320987654,0,0,0.0987654320987654,110.51851851851846,0)" xlink:href="#aL"/></g><g id="v"><use transform="matrix(0.0987654320987654,0,0,0.0987654320987654,0,0)" xlink:href="#aA"/><use transform="matrix(0.0987654320987654,0,0,0.0987654320987654,19.753086419753078,0)" xlink:href="#aK"/><use transform="matrix(0.0987654320987654,0,0,0.0987654320987654,39.506172839506156,0)" xlink:href="#aV"/><use transform="matrix(0.0987654320987654,0,0,0.0987654320987654,47.308641975308625,0)" xlink:href="#aC"/><use transform="matrix(0.0987654320987654,0,0,0.0987654320987654,67.0617283950617,0)" xlink:href="#aW"/><use transform="matrix(0.0987654320987654,0,0,0.0987654320987654,84.83950617283948,0)" xlink:href="#az"/></g><path d="M24-248c120-7 223 5 221 122C244-46 201 0 124 0H24v-248zM76-40c74 7 117-18 117-86 0-67-45-88-117-82v168" id="bc"/><g id="w"><use transform="matrix(0.1111111111111111,0,0,0.1111111111111111,0,0)" xlink:href="#bc"/><use transform="matrix(0.1111111111111111,0,0,0.1111111111111111,28.777777777777775,0)" xlink:href="#ar"/><use transform="matrix(0.1111111111111111,0,0,0.1111111111111111,51,0)" xlink:href="#ax"/><use transform="matrix(0.1111111111111111,0,0,0.1111111111111111,73.22222222222223,0)" xlink:href="#an"/><use transform="matrix(0.1111111111111111,0,0,0.1111111111111111,97.55555555555556,0)" xlink:href="#ao"/><use transform="matrix(0.1111111111111111,0,0,0.1111111111111111,133.11111111111111,0)" xlink:href="#ap"/><use transform="matrix(0.1111111111111111,0,0,0.1111111111111111,157.44444444444446,0)" xlink:href="#aq"/><use transform="matrix(0.1111111111111111,0,0,0.1111111111111111,173,0)" xlink:href="#ar"/><use transform="matrix(0.1111111111111111,0,0,0.1111111111111111,195.22222222222223,0)" xlink:href="#as"/><use transform="matrix(0.1111111111111111,0,0,0.1111111111111111,217.44444444444446,0)" xlink:href="#as"/></g><path d="M88-194c31-1 46 15 58 34l-1-101h50l1 261h-48c-2-10 0-23-3-31C134-8 116 4 84 4 32 4 16-41 15-95c0-56 19-97 73-99zm17 164c33 0 40-30 41-66 1-37-9-64-41-64s-38 30-39 65c0 43 13 65 39 65" id="bd"/><g id="x"><use transform="matrix(0.0987654320987654,0,0,0.0987654320987654,0,0)" xlink:href="#at"/><use transform="matrix(0.0987654320987654,0,0,0.0987654320987654,25.58024691358024,0)" xlink:href="#au"/><use transform="matrix(0.0987654320987654,0,0,0.0987654320987654,47.20987654320986,0)" xlink:href="#av"/><use transform="matrix(0.0987654320987654,0,0,0.0987654320987654,74.86419753086417,0)" xlink:href="#aw"/><use transform="matrix(0.0987654320987654,0,0,0.0987654320987654,84.74074074074072,0)" xlink:href="#bd"/><use transform="matrix(0.0987654320987654,0,0,0.0987654320987654,106.37037037037034,0)" xlink:href="#ar"/><use transform="matrix(0.0987654320987654,0,0,0.0987654320987654,126.12345679012341,0)" xlink:href="#ax"/><use transform="matrix(0.0987654320987654,0,0,0.0987654320987654,145.8765432098765,0)" xlink:href="#an"/><use transform="matrix(0.0987654320987654,0,0,0.0987654320987654,167.50617283950612,0)" xlink:href="#ao"/><use transform="matrix(0.0987654320987654,0,0,0.0987654320987654,199.11111111111106,0)" xlink:href="#ap"/><use transform="matrix(0.0987654320987654,0,0,0.0987654320987654,220.74074074074068,0)" xlink:href="#aq"/><use transform="matrix(0.0987654320987654,0,0,0.0987654320987654,234.5679012345678,0)" xlink:href="#ar"/><use transform="matrix(0.0987654320987654,0,0,0.0987654320987654,254.32098765432096,0)" xlink:href="#as"/><use transform="matrix(0.0987654320987654,0,0,0.0987654320987654,274.074074074074,0)" xlink:href="#as"/></g><g id="y"><use transform="matrix(0.0987654320987654,0,0,0.0987654320987654,0,0)" xlink:href="#az"/><use transform="matrix(0.0987654320987654,0,0,0.0987654320987654,9.876543209876539,0)" xlink:href="#aF"/><use transform="matrix(0.0987654320987654,0,0,0.0987654320987654,17.679012345679006,0)" xlink:href="#aG"/><use transform="matrix(0.0987654320987654,0,0,0.0987654320987654,47.20987654320986,0)" xlink:href="#aC"/></g><path d="M30-248c118-7 216 8 213 122C240-48 200 0 122 0H30v-248zM63-27c89 8 146-16 146-99s-60-101-146-95v194" id="be"/><g id="z"><use transform="matrix(0.0987654320987654,0,0,0.0987654320987654,0,0)" xlink:href="#be"/><use transform="matrix(0.0987654320987654,0,0,0.0987654320987654,25.58024691358024,0)" xlink:href="#aC"/><use transform="matrix(0.0987654320987654,0,0,0.0987654320987654,45.333333333333314,0)" xlink:href="#aW"/><use transform="matrix(0.0987654320987654,0,0,0.0987654320987654,63.11111111111109,0)" xlink:href="#aA"/><use transform="matrix(0.0987654320987654,0,0,0.0987654320987654,82.86419753086416,0)" xlink:href="#aG"/><use transform="matrix(0.0987654320987654,0,0,0.0987654320987654,112.395061728395,0)" xlink:href="#aI"/><use transform="matrix(0.0987654320987654,0,0,0.0987654320987654,132.1481481481481,0)" xlink:href="#aB"/><use transform="matrix(0.0987654320987654,0,0,0.0987654320987654,143.90123456790118,0)" xlink:href="#aC"/><use transform="matrix(0.0987654320987654,0,0,0.0987654320987654,163.65432098765427,0)" xlink:href="#aD"/><use transform="matrix(0.0987654320987654,0,0,0.0987654320987654,181.43209876543204,0)" xlink:href="#aD"/></g><g id="A"><use transform="matrix(0.0987654320987654,0,0,0.0987654320987654,0,0)" xlink:href="#aF"/><use transform="matrix(0.0987654320987654,0,0,0.0987654320987654,7.8024691358024665,0)" xlink:href="#aJ"/><use transform="matrix(0.0987654320987654,0,0,0.0987654320987654,27.55555555555554,0)" xlink:href="#az"/><use transform="matrix(0.0987654320987654,0,0,0.0987654320987654,37.43209876543208,0)" xlink:href="#aA"/></g><g id="B"><use transform="matrix(0.09259259259259256,0,0,0.09259259259259256,0,0)" xlink:href="#ay"/><use transform="matrix(0.09259259259259256,0,0,0.09259259259259256,22.222222222222214,0)" xlink:href="#az"/><use transform="matrix(0.09259259259259256,0,0,0.09259259259259256,31.48148148148147,0)" xlink:href="#aA"/><use transform="matrix(0.09259259259259256,0,0,0.09259259259259256,49.999999999999986,0)" xlink:href="#aB"/><use transform="matrix(0.09259259259259256,0,0,0.09259259259259256,61.018518518518505,0)" xlink:href="#aC"/></g><g id="C"><use transform="matrix(0.09259259259259256,0,0,0.09259259259259256,0,0)" xlink:href="#aC"/><use transform="matrix(0.09259259259259256,0,0,0.09259259259259256,18.518518518518512,0)" xlink:href="#aJ"/><use transform="matrix(0.09259259259259256,0,0,0.09259259259259256,37.037037037037024,0)" xlink:href="#aM"/></g><g id="D"><use transform="matrix(0.09259259259259256,0,0,0.09259259259259256,0,0)" xlink:href="#az"/><use transform="matrix(0.09259259259259256,0,0,0.09259259259259256,9.259259259259256,0)" xlink:href="#aF"/><use transform="matrix(0.09259259259259256,0,0,0.09259259259259256,16.57407407407407,0)" xlink:href="#aG"/><use transform="matrix(0.09259259259259256,0,0,0.09259259259259256,44.259259259259245,0)" xlink:href="#aC"/></g><g id="E"><use transform="matrix(0.09999999999999998,0,0,0.09999999999999998,0,0)" xlink:href="#aP"/><use transform="matrix(0.0987654320987654,0,0,0.0987654320987654,23.999999999999993,0)" xlink:href="#aQ"/><use transform="matrix(0.0987654320987654,0,0,0.0987654320987654,44.34567901234567,0)" xlink:href="#aF"/><use transform="matrix(0.0987654320987654,0,0,0.0987654320987654,52.148148148148145,0)" xlink:href="#aG"/><use transform="matrix(0.0987654320987654,0,0,0.0987654320987654,81.67901234567898,0)" xlink:href="#aC"/><use transform="matrix(0.0987654320987654,0,0,0.0987654320987654,101.43209876543206,0)" xlink:href="#aR"/></g><path d="M140-251c81 0 123 46 123 126C263-46 219 4 140 4 59 4 17-45 17-125s42-126 123-126zm0 227c63 0 89-41 89-101s-29-99-89-99c-61 0-89 39-89 99S79-25 140-24" id="bf"/><g id="F"><use transform="matrix(0.0987654320987654,0,0,0.0987654320987654,0,0)" xlink:href="#bf"/><use transform="matrix(0.0987654320987654,0,0,0.0987654320987654,27.654320987654312,0)" xlink:href="#aK"/><use transform="matrix(0.0987654320987654,0,0,0.0987654320987654,47.40740740740739,0)" xlink:href="#aV"/></g><g id="G"><use transform="matrix(0.0987654320987654,0,0,0.0987654320987654,0,0)" xlink:href="#aS"/><use transform="matrix(0.0987654320987654,0,0,0.0987654320987654,23.703703703703695,0)" xlink:href="#aF"/><use transform="matrix(0.0987654320987654,0,0,0.0987654320987654,31.506172839506164,0)" xlink:href="#aJ"/><use transform="matrix(0.0987654320987654,0,0,0.0987654320987654,51.259259259259245,0)" xlink:href="#aE"/><use transform="matrix(0.0987654320987654,0,0,0.0987654320987654,71.01234567901231,0)" xlink:href="#aB"/><use transform="matrix(0.0987654320987654,0,0,0.0987654320987654,82.76543209876539,0)" xlink:href="#aL"/></g><path d="M108 0H70L1-190h34L89-25l56-165h34" id="bg"/><g id="H"><use transform="matrix(0.0987654320987654,0,0,0.0987654320987654,0,0)" xlink:href="#aH"/><use transform="matrix(0.0987654320987654,0,0,0.0987654320987654,25.58024691358024,0)" xlink:href="#aA"/><use transform="matrix(0.0987654320987654,0,0,0.0987654320987654,45.333333333333314,0)" xlink:href="#aJ"/><use transform="matrix(0.0987654320987654,0,0,0.0987654320987654,65.08641975308639,0)" xlink:href="#bg"/><use transform="matrix(0.0987654320987654,0,0,0.0987654320987654,82.86419753086416,0)" xlink:href="#aC"/><use transform="matrix(0.0987654320987654,0,0,0.0987654320987654,102.61728395061722,0)" xlink:href="#aB"/><use transform="matrix(0.0987654320987654,0,0,0.0987654320987654,114.37037037037034,0)" xlink:href="#az"/></g><g id="I"><use transform="matrix(0.0987654320987654,0,0,0.0987654320987654,0,0)" xlink:href="#bf"/><use transform="matrix(0.0987654320987654,0,0,0.0987654320987654,27.654320987654312,0)" xlink:href="#aK"/><use transform="matrix(0.0987654320987654,0,0,0.0987654320987654,47.40740740740739,0)" xlink:href="#aV"/></g><g id="J"><use transform="matrix(0.0987654320987654,0,0,0.0987654320987654,0,0)" xlink:href="#az"/><use transform="matrix(0.0987654320987654,0,0,0.0987654320987654,9.876543209876539,0)" xlink:href="#aA"/></g><path d="M194 0L95-120 63-95V0H30v-248h33v124l119-124h40L117-140 236 0h-42" id="bh"/><g id="K"><use transform="matrix(0.0987654320987654,0,0,0.0987654320987654,0,0)" xlink:href="#aX"/><use transform="matrix(0.0987654320987654,0,0,0.0987654320987654,33.48148148148147,0)" xlink:href="#bh"/><use transform="matrix(0.0987654320987654,0,0,0.0987654320987654,57.18518518518517,0)" xlink:href="#aS"/></g><g id="L"><use transform="matrix(0.0987654320987654,0,0,0.0987654320987654,0,0)" xlink:href="#aE"/><use transform="matrix(0.0987654320987654,0,0,0.0987654320987654,19.753086419753078,0)" xlink:href="#aJ"/><use transform="matrix(0.0987654320987654,0,0,0.0987654320987654,39.506172839506156,0)" xlink:href="#aM"/></g><path d="M206 0h-36l-40-164L89 0H53L-1-190h32L70-26l43-164h34l41 164 42-164h31" id="bi"/><g id="M"><use transform="matrix(0.0987654320987654,0,0,0.0987654320987654,0,0)" xlink:href="#bi"/><use transform="matrix(0.0987654320987654,0,0,0.0987654320987654,25.58024691358024,0)" xlink:href="#aB"/><use transform="matrix(0.0987654320987654,0,0,0.0987654320987654,37.33333333333332,0)" xlink:href="#aF"/><use transform="matrix(0.0987654320987654,0,0,0.0987654320987654,45.13580246913579,0)" xlink:href="#az"/><use transform="matrix(0.0987654320987654,0,0,0.0987654320987654,55.01234567901233,0)" xlink:href="#aC"/></g><path d="M101-234c-31-9-42 10-38 44h38v23H63V0H32v-167H5v-23h27c-7-52 17-82 69-68v24" id="bj"/><g id="N"><use transform="matrix(0.0987654320987654,0,0,0.0987654320987654,0,0)" xlink:href="#bj"/><use transform="matrix(0.0987654320987654,0,0,0.0987654320987654,9.876543209876539,0)" xlink:href="#aF"/><use transform="matrix(0.0987654320987654,0,0,0.0987654320987654,17.679012345679006,0)" xlink:href="#aU"/><use transform="matrix(0.0987654320987654,0,0,0.0987654320987654,25.481481481481474,0)" xlink:href="#aC"/></g><g id="O"><use transform="matrix(0.09999999999999998,0,0,0.09999999999999998,0,0)" xlink:href="#aP"/><use transform="matrix(0.0987654320987654,0,0,0.0987654320987654,23.999999999999993,0)" xlink:href="#aQ"/><use transform="matrix(0.0987654320987654,0,0,0.0987654320987654,44.34567901234567,0)" xlink:href="#aF"/><use transform="matrix(0.0987654320987654,0,0,0.0987654320987654,52.148148148148145,0)" xlink:href="#aG"/><use transform="matrix(0.0987654320987654,0,0,0.0987654320987654,81.67901234567898,0)" xlink:href="#aC"/><use transform="matrix(0.0987654320987654,0,0,0.0987654320987654,101.43209876543206,0)" xlink:href="#aR"/></g><g id="P"><use transform="matrix(0.0987654320987654,0,0,0.0987654320987654,0,0)" xlink:href="#ay"/><use transform="matrix(0.0987654320987654,0,0,0.0987654320987654,23.703703703703695,0)" xlink:href="#aF"/><use transform="matrix(0.0987654320987654,0,0,0.0987654320987654,31.506172839506164,0)" xlink:href="#aZ"/><use transform="matrix(0.0987654320987654,0,0,0.0987654320987654,49.283950617283935,0)" xlink:href="#aC"/><use transform="matrix(0.0987654320987654,0,0,0.0987654320987654,69.03703703703701,0)" xlink:href="#ba"/><use transform="matrix(0.0987654320987654,0,0,0.0987654320987654,80.7901234567901,0)" xlink:href="#aX"/><use transform="matrix(0.0987654320987654,0,0,0.0987654320987654,114.27160493827157,0)" xlink:href="#bh"/><use transform="matrix(0.0987654320987654,0,0,0.0987654320987654,137.97530864197526,0)" xlink:href="#aS"/><use transform="matrix(0.0987654320987654,0,0,0.0987654320987654,161.67901234567896,0)" xlink:href="#ba"/><use transform="matrix(0.0987654320987654,0,0,0.0987654320987654,173.43209876543204,0)" xlink:href="#bf"/><use transform="matrix(0.0987654320987654,0,0,0.0987654320987654,201.08641975308635,0)" xlink:href="#aK"/><use transform="matrix(0.0987654320987654,0,0,0.0987654320987654,220.83950617283944,0)" xlink:href="#aV"/><use transform="matrix(0.0987654320987654,0,0,0.0987654320987654,228.6419753086419,0)" xlink:href="#bb"/><use transform="matrix(0.0987654320987654,0,0,0.0987654320987654,240.39506172839498,0)" xlink:href="#bb"/></g><path d="M140-251c80 0 125 45 125 126S219 4 139 4C58 4 15-44 15-125s44-126 125-126zm-1 214c52 0 73-35 73-88 0-50-21-86-72-86-52 0-73 35-73 86s22 88 72 88" id="bk"/><path d="M133-34C117-15 103 5 69 4 32 3 11-16 11-54c-1-60 55-63 116-61 1-26-3-47-28-47-18 1-26 9-28 27l-52-2c7-38 36-58 82-57s74 22 75 68l1 82c-1 14 12 18 25 15v27c-30 8-71 5-69-32zm-48 3c29 0 43-24 42-57-32 0-66-3-65 30 0 17 8 27 23 27" id="bl"/><path d="M115-3C79 11 28 4 28-45v-112H4v-33h27l15-45h31v45h36v33H77v99c-1 23 16 31 38 25v30" id="bm"/><path d="M25-224v-37h50v37H25zM25 0v-190h50V0H25" id="bn"/><path d="M135-194c87-1 58 113 63 194h-50c-7-57 23-157-34-157-59 0-34 97-39 157H25l-1-190h47c2 12-1 28 3 38 12-26 28-41 61-42" id="bo"/><g id="Q"><use transform="matrix(0.1111111111111111,0,0,0.1111111111111111,0,0)" xlink:href="#bk"/><use transform="matrix(0.1111111111111111,0,0,0.1111111111111111,31.11111111111111,0)" xlink:href="#ap"/><use transform="matrix(0.1111111111111111,0,0,0.1111111111111111,55.44444444444444,0)" xlink:href="#ar"/><use transform="matrix(0.1111111111111111,0,0,0.1111111111111111,77.66666666666666,0)" xlink:href="#aq"/><use transform="matrix(0.1111111111111111,0,0,0.1111111111111111,93.22222222222221,0)" xlink:href="#bl"/><use transform="matrix(0.1111111111111111,0,0,0.1111111111111111,115.44444444444444,0)" xlink:href="#bm"/><use transform="matrix(0.1111111111111111,0,0,0.1111111111111111,128.66666666666666,0)" xlink:href="#bn"/><use transform="matrix(0.1111111111111111,0,0,0.1111111111111111,139.77777777777777,0)" xlink:href="#an"/><use transform="matrix(0.1111111111111111,0,0,0.1111111111111111,164.11111111111111,0)" xlink:href="#bo"/><use transform="matrix(0.1111111111111111,0,0,0.1111111111111111,188.44444444444446,0)" xlink:href="#as"/></g><path d="M24-248c93 1 206-16 204 79-1 75-69 88-152 82V0H24v-248zm52 121c47 0 100 7 100-41 0-47-54-39-100-39v80" id="bp"/><g id="R"><use transform="matrix(0.0987654320987654,0,0,0.0987654320987654,0,0)" xlink:href="#at"/><use transform="matrix(0.0987654320987654,0,0,0.0987654320987654,25.58024691358024,0)" xlink:href="#au"/><use transform="matrix(0.0987654320987654,0,0,0.0987654320987654,47.20987654320986,0)" xlink:href="#av"/><use transform="matrix(0.0987654320987654,0,0,0.0987654320987654,74.86419753086417,0)" xlink:href="#aw"/><use transform="matrix(0.0987654320987654,0,0,0.0987654320987654,84.74074074074072,0)" xlink:href="#bk"/><use transform="matrix(0.0987654320987654,0,0,0.0987654320987654,112.39506172839502,0)" xlink:href="#bp"/></g><g id="S"><use transform="matrix(0.0864197530864197,0,0,0.0864197530864197,0,0)" xlink:href="#bf"/><use transform="matrix(0.0864197530864197,0,0,0.0864197530864197,24.197530864197518,0)" xlink:href="#aI"/><use transform="matrix(0.0864197530864197,0,0,0.0864197530864197,41.48148148148146,0)" xlink:href="#aC"/><use transform="matrix(0.0864197530864197,0,0,0.0864197530864197,58.7654320987654,0)" xlink:href="#aB"/><use transform="matrix(0.0864197530864197,0,0,0.0864197530864197,69.04938271604935,0)" xlink:href="#aE"/><use transform="matrix(0.0864197530864197,0,0,0.0864197530864197,86.33333333333329,0)" xlink:href="#az"/><use transform="matrix(0.0864197530864197,0,0,0.0864197530864197,94.97530864197526,0)" xlink:href="#aF"/><use transform="matrix(0.0864197530864197,0,0,0.0864197530864197,101.80246913580241,0)" xlink:href="#aA"/><use transform="matrix(0.0864197530864197,0,0,0.0864197530864197,119.08641975308636,0)" xlink:href="#aJ"/></g><path d="M30-248c87 1 191-15 191 75 0 78-77 80-158 76V0H30v-248zm33 125c57 0 124 11 124-50 0-59-68-47-124-48v98" id="bq"/><path d="M33-154v-36h34v36H33zM33 0v-36h34V0H33" id="br"/><g id="T"><use transform="matrix(0.08024691358024688,0,0,0.08024691358024688,0,0)" xlink:href="#bf"/><use transform="matrix(0.08024691358024688,0,0,0.08024691358024688,22.469135802469125,0)" xlink:href="#bq"/><use transform="matrix(0.08024691358024688,0,0,0.08024691358024688,41.72839506172838,0)" xlink:href="#br"/></g><g id="U"><use transform="matrix(0.09259259259259256,0,0,0.09259259259259256,0,0)" xlink:href="#aK"/><use transform="matrix(0.09259259259259256,0,0,0.09259259259259256,18.518518518518512,0)" xlink:href="#aF"/><use transform="matrix(0.09259259259259256,0,0,0.09259259259259256,25.833333333333325,0)" xlink:href="#aJ"/></g><path d="M16-82v-28h88v28H16" id="bs"/><path d="M18-27v-27l151-64-151-65v-27l175 74v36" id="bt"/><g id="V"><use transform="matrix(0.09259259259259256,0,0,0.09259259259259256,0,0)" xlink:href="#bs"/><use transform="matrix(0.09259259259259256,0,0,0.09259259259259256,11.018518518518515,0)" xlink:href="#bt"/></g><g id="W"><use transform="matrix(0.09259259259259256,0,0,0.09259259259259256,0,0)" xlink:href="#aB"/><use transform="matrix(0.09259259259259256,0,0,0.09259259259259256,11.018518518518515,0)" xlink:href="#aC"/><use transform="matrix(0.09259259259259256,0,0,0.09259259259259256,29.537037037037027,0)" xlink:href="#aD"/></g><g id="X"><use transform="matrix(0.0987654320987654,0,0,0.0987654320987654,0,0)" xlink:href="#aN"/><use transform="matrix(0.0987654320987654,0,0,0.0987654320987654,25.58024691358024,0)" xlink:href="#aC"/><use transform="matrix(0.0987654320987654,0,0,0.0987654320987654,45.333333333333314,0)" xlink:href="#az"/><use transform="matrix(0.0987654320987654,0,0,0.0987654320987654,55.209876543209845,0)" xlink:href="#aO"/><use transform="matrix(0.0987654320987654,0,0,0.0987654320987654,74.96296296296293,0)" xlink:href="#aB"/><use transform="matrix(0.0987654320987654,0,0,0.0987654320987654,86.71604938271602,0)" xlink:href="#aJ"/></g><g id="Y"><use transform="matrix(0.09999999999999998,0,0,0.09999999999999998,0,0)" xlink:href="#aP"/><use transform="matrix(0.0987654320987654,0,0,0.0987654320987654,23.999999999999993,0)" xlink:href="#aQ"/><use transform="matrix(0.0987654320987654,0,0,0.0987654320987654,44.34567901234567,0)" xlink:href="#aF"/><use transform="matrix(0.0987654320987654,0,0,0.0987654320987654,52.148148148148145,0)" xlink:href="#aG"/><use transform="matrix(0.0987654320987654,0,0,0.0987654320987654,81.67901234567898,0)" xlink:href="#aC"/><use transform="matrix(0.0987654320987654,0,0,0.0987654320987654,101.43209876543206,0)" xlink:href="#aR"/></g><g id="Z"><use transform="matrix(0.09259259259259256,0,0,0.09259259259259256,0,0)" xlink:href="#aN"/><use transform="matrix(0.09259259259259256,0,0,0.09259259259259256,23.981481481481474,0)" xlink:href="#aC"/><use transform="matrix(0.09259259259259256,0,0,0.09259259259259256,42.499999999999986,0)" xlink:href="#aD"/></g><g id="aa"><use transform="matrix(0.09999999999999998,0,0,0.09999999999999998,0,0)" xlink:href="#aP"/><use transform="matrix(0.09259259259259256,0,0,0.09259259259259256,23.99999999999999,0)" xlink:href="#aQ"/><use transform="matrix(0.09259259259259256,0,0,0.09259259259259256,43.07407407407406,0)" xlink:href="#aF"/><use transform="matrix(0.09259259259259256,0,0,0.09259259259259256,50.38888888888888,0)" xlink:href="#aG"/><use transform="matrix(0.09259259259259256,0,0,0.09259259259259256,78.07407407407405,0)" xlink:href="#aC"/><use transform="matrix(0.09259259259259256,0,0,0.09259259259259256,96.59259259259257,0)" xlink:href="#aR"/></g><g id="ab"><use transform="matrix(0.09259259259259256,0,0,0.09259259259259256,0,0)" xlink:href="#aN"/><use transform="matrix(0.09259259259259256,0,0,0.09259259259259256,23.981481481481474,0)" xlink:href="#aC"/><use transform="matrix(0.09259259259259256,0,0,0.09259259259259256,42.499999999999986,0)" xlink:href="#aD"/></g><path d="M63-220v92h138v28H63V0H30v-248h175v28H63" id="bu"/><g id="ac"><use transform="matrix(0.08024691358024681,0,0,0.08024691358024681,0,0)" xlink:href="#bu"/><use transform="matrix(0.08024691358024681,0,0,0.08024691358024681,17.57407407407405,0)" xlink:href="#aA"/><use transform="matrix(0.08024691358024681,0,0,0.08024691358024681,33.62345679012341,0)" xlink:href="#aB"/></g><g id="ad"><use transform="matrix(0.08024691358024681,0,0,0.08024691358024681,0,0)" xlink:href="#aE"/><use transform="matrix(0.08024691358024681,0,0,0.08024691358024681,16.04938271604936,0)" xlink:href="#aU"/><use transform="matrix(0.08024691358024681,0,0,0.08024691358024681,22.38888888888886,0)" xlink:href="#aU"/></g><g id="ae"><use transform="matrix(0.08024691358024681,0,0,0.08024691358024681,0,0)" xlink:href="#aA"/><use transform="matrix(0.08024691358024681,0,0,0.08024691358024681,16.04938271604936,0)" xlink:href="#aI"/><use transform="matrix(0.08024691358024681,0,0,0.08024691358024681,32.09876543209872,0)" xlink:href="#aC"/><use transform="matrix(0.08024691358024681,0,0,0.08024691358024681,48.14814814814808,0)" xlink:href="#aB"/><use transform="matrix(0.08024691358024681,0,0,0.08024691358024681,57.69753086419746,0)" xlink:href="#aE"/><use transform="matrix(0.08024691358024681,0,0,0.08024691358024681,73.74691358024681,0)" xlink:href="#az"/><use transform="matrix(0.08024691358024681,0,0,0.08024691358024681,81.7716049382715,0)" xlink:href="#aF"/><use transform="matrix(0.08024691358024681,0,0,0.08024691358024681,88.11111111111099,0)" xlink:href="#aA"/><use transform="matrix(0.08024691358024681,0,0,0.08024691358024681,104.16049382716034,0)" xlink:href="#aJ"/><use transform="matrix(0.08024691358024681,0,0,0.08024691358024681,120.20987654320973,0)" xlink:href="#aD"/></g><g id="af"><use transform="matrix(0.08024691358024681,0,0,0.08024691358024681,0,0)" xlink:href="#bf"/><use transform="matrix(0.08024691358024681,0,0,0.08024691358024681,22.469135802469108,0)" xlink:href="#bq"/></g><g id="ag"><use transform="matrix(0.08024691358024681,0,0,0.08024691358024681,0,0)" xlink:href="#az"/><use transform="matrix(0.08024691358024681,0,0,0.08024691358024681,8.02469135802468,0)" xlink:href="#aA"/></g><g id="ah"><use transform="matrix(0.08024691358024681,0,0,0.08024691358024681,0,0)" xlink:href="#aF"/><use transform="matrix(0.08024691358024681,0,0,0.08024691358024681,6.339506172839498,0)" xlink:href="#aJ"/><use transform="matrix(0.08024691358024681,0,0,0.08024691358024681,22.38888888888886,0)" xlink:href="#bg"/><use transform="matrix(0.08024691358024681,0,0,0.08024691358024681,36.833333333333286,0)" xlink:href="#aC"/><use transform="matrix(0.08024691358024681,0,0,0.08024691358024681,52.88271604938265,0)" xlink:href="#aD"/><use transform="matrix(0.08024691358024681,0,0,0.08024691358024681,67.32716049382708,0)" xlink:href="#az"/><use transform="matrix(0.08024691358024681,0,0,0.08024691358024681,75.35185185185176,0)" xlink:href="#aF"/><use transform="matrix(0.08024691358024681,0,0,0.08024691358024681,81.69135802469125,0)" xlink:href="#aY"/><use transform="matrix(0.08024691358024681,0,0,0.08024691358024681,97.74074074074062,0)" xlink:href="#aE"/><use transform="matrix(0.08024691358024681,0,0,0.08024691358024681,113.79012345678998,0)" xlink:href="#az"/><use transform="matrix(0.08024691358024681,0,0,0.08024691358024681,121.81481481481467,0)" xlink:href="#aC"/></g><path d="M137 0h-34L2-248h35l83 218 83-218h36" id="bv"/><g id="ai"><use transform="matrix(0.12345679012345678,0,0,0.12345679012345678,0,0)" xlink:href="#bv"/><use transform="matrix(0.12345679012345678,0,0,0.12345679012345678,26.296296296296294,0)" xlink:href="#aE"/><use transform="matrix(0.12345679012345678,0,0,0.12345679012345678,50.98765432098765,0)" xlink:href="#aU"/><use transform="matrix(0.12345679012345678,0,0,0.12345679012345678,60.74074074074073,0)" xlink:href="#aF"/><use transform="matrix(0.12345679012345678,0,0,0.12345679012345678,70.49382716049382,0)" xlink:href="#aM"/><use transform="matrix(0.12345679012345678,0,0,0.12345679012345678,95.18518518518518,0)" xlink:href="#aE"/><use transform="matrix(0.12345679012345678,0,0,0.12345679012345678,119.87654320987653,0)" xlink:href="#az"/><use transform="matrix(0.12345679012345678,0,0,0.12345679012345678,132.2222222222222,0)" xlink:href="#aF"/><use transform="matrix(0.12345679012345678,0,0,0.12345679012345678,141.9753086419753,0)" xlink:href="#aA"/><use transform="matrix(0.12345679012345678,0,0,0.12345679012345678,166.66666666666666,0)" xlink:href="#aJ"/></g><path d="M234-2c-28 10-62 0-77-18C117 19 8 12 13-65c3-43 29-61 60-76-25-40-17-114 47-108 35 3 59 15 59 50 0 44-40 53-71 69 14 26 32 50 51 72 14-21 24-43 30-72l26 8c-9 33-21 57-38 82 13 13 33 22 57 15v23zM97-151c25-10 52-18 56-48-1-18-13-29-33-29-42 0-39 50-23 77zM42-66c-3 51 71 58 98 28-20-24-41-51-56-80-23 10-40 24-42 52" id="bw"/><use transform="matrix(0.12345679012345678,0,0,0.12345679012345678,0,0)" xlink:href="#bw" id="aj"/><path d="M143 0L79-87 56-68V0H24v-261h32v163l83-92h37l-77 82L181 0h-38" id="bx"/><g id="ak"><use transform="matrix(0.12345679012345678,0,0,0.12345679012345678,0,0)" xlink:href="#aS"/><use transform="matrix(0.12345679012345678,0,0,0.12345679012345678,29.629629629629626,0)" xlink:href="#aC"/><use transform="matrix(0.12345679012345678,0,0,0.12345679012345678,54.32098765432099,0)" xlink:href="#aJ"/><use transform="matrix(0.12345679012345678,0,0,0.12345679012345678,79.01234567901234,0)" xlink:href="#aW"/><use transform="matrix(0.12345679012345678,0,0,0.12345679012345678,101.23456790123456,0)" xlink:href="#aT"/><use transform="matrix(0.12345679012345678,0,0,0.12345679012345678,125.92592592592591,0)" xlink:href="#aG"/><use transform="matrix(0.12345679012345678,0,0,0.12345679012345678,162.8395061728395,0)" xlink:href="#aE"/><use transform="matrix(0.12345679012345678,0,0,0.12345679012345678,187.53086419753086,0)" xlink:href="#aB"/><use transform="matrix(0.12345679012345678,0,0,0.12345679012345678,202.22222222222223,0)" xlink:href="#bx"/><use transform="matrix(0.12345679012345678,0,0,0.12345679012345678,224.44444444444446,0)" xlink:href="#aF"/><use transform="matrix(0.12345679012345678,0,0,0.12345679012345678,234.19753086419755,0)" xlink:href="#aJ"/><use transform="matrix(0.12345679012345678,0,0,0.12345679012345678,258.8888888888889,0)" xlink:href="#aY"/></g><g id="al"><use transform="matrix(0.0987654320987654,0,0,0.0987654320987654,0,0)" xlink:href="#aS"/><use transform="matrix(0.0987654320987654,0,0,0.0987654320987654,23.703703703703695,0)" xlink:href="#aF"/><use transform="matrix(0.0987654320987654,0,0,0.0987654320987654,31.506172839506164,0)" xlink:href="#aJ"/></g></defs></g></svg>