<svg xmlns="http://www.w3.org/2000/svg" xmlns:xlink="http://www.w3.org/1999/xlink" xmlns:lucid="lucid" width="1519" height="862"><g transform="translate(-599 501)" lucid:page-tab-id="0_0"><path d="M703.33 160.08a6 6 0 0 1 6-6h148a6 6 0 0 1 6 6v174.66a6 6 0 0 1-6 6h-148a6 6 0 0 1-6-6z" stroke="#3a414a" fill="#fcfcca"/><use xlink:href="#a" transform="matrix(1,0,0,1,715.3333333333333,166.07591421448353) translate(26.311728395061735 23.11111111111111)"/><use xlink:href="#b" transform="matrix(1,0,0,1,715.3333333333333,166.07591421448353) translate(20.734567901234577 57.77777777777777)"/><use xlink:href="#c" transform="matrix(1,0,0,1,715.3333333333333,166.07591421448353) translate(68 92.44444444444444)"/><use xlink:href="#d" transform="matrix(1,0,0,1,715.3333333333333,166.07591421448353) translate(31.95061728395062 127.11111111111111)"/><use xlink:href="#e" transform="matrix(1,0,0,1,715.3333333333333,166.07591421448353) translate(76.02469135802468 127.11111111111111)"/><use xlink:href="#f" transform="matrix(1,0,0,1,715.3333333333333,166.07591421448353) translate(11.104938271604937 161.77777777777777)"/><use xlink:href="#g" transform="matrix(1,0,0,1,715.3333333333333,166.07591421448353) translate(108.84567901234568 161.77777777777777)"/><path d="M866.66 335.75a3.2 3.2 0 0 0 2.67 5h148a3.2 3.2 0 0 0 2.67-5l-73.34-110a4 4 0 0 0-6.65 0z" stroke="#3a414a" fill="#fcfcca"/><use xlink:href="#h" transform="matrix(1,0,0,1,868.3333333333333,225.74258088115016) translate(75.005 21.21527777777778)"/><use xlink:href="#i" transform="matrix(1,0,0,1,868.3333333333333,225.74258088115016) translate(75.005 47.88194444444444)"/><use xlink:href="#j" transform="matrix(1,0,0,1,868.3333333333333,225.74258088115016) translate(50.930925925925926 74.54861111111111)"/><use xlink:href="#k" transform="matrix(1,0,0,1,868.3333333333333,225.74258088115016) translate(50.93092592592593 101.21527777777777)"/><path d="M1026.66 335.75a3.2 3.2 0 0 0 2.67 5h148a3.2 3.2 0 0 0 2.68-5l-73.34-110a4 4 0 0 0-6.65 0z" stroke="#3a414a" fill="#fcfcca"/><use xlink:href="#h" transform="matrix(1,0,0,1,1028.3333333333333,225.74258088115016) translate(75.005 21.21527777777778)"/><use xlink:href="#i" transform="matrix(1,0,0,1,1028.3333333333333,225.74258088115016) translate(75.005 47.88194444444444)"/><use xlink:href="#l" transform="matrix(1,0,0,1,1028.3333333333333,225.74258088115016) translate(50.930925925925926 74.54861111111111)"/><use xlink:href="#m" transform="matrix(1,0,0,1,1028.3333333333333,225.74258088115016) translate(50.93092592592593 101.21527777777777)"/><path d="M1186.66 335.75a3.2 3.2 0 0 0 2.67 5h148a3.2 3.2 0 0 0 2.68-5l-73.34-110a4 4 0 0 0-6.65 0z" stroke="#3a414a" fill="#fcfcca"/><use xlink:href="#h" transform="matrix(1,0,0,1,1188.3333333333333,225.74258088115016) translate(75.005 21.21527777777778)"/><use xlink:href="#i" transform="matrix(1,0,0,1,1188.3333333333333,225.74258088115016) translate(75.005 47.88194444444444)"/><use xlink:href="#n" transform="matrix(1,0,0,1,1188.3333333333333,225.74258088115016) translate(50.930925925925926 74.54861111111111)"/><use xlink:href="#o" transform="matrix(1,0,0,1,1188.3333333333333,225.74258088115016) translate(50.93092592592593 101.21527777777777)"/><path d="M1363.33 160.08a6 6 0 0 1 6-6h148a6 6 0 0 1 6 6v174.66a6 6 0 0 1-6 6h-148a6 6 0 0 1-6-6z" stroke="#3a414a" fill="#e3fae3"/><use xlink:href="#a" transform="matrix(1,0,0,1,1375.3333333333333,166.07591421448353) translate(26.311728395061735 23.11111111111111)"/><use xlink:href="#b" transform="matrix(1,0,0,1,1375.3333333333333,166.07591421448353) translate(20.734567901234577 57.77777777777777)"/><use xlink:href="#c" transform="matrix(1,0,0,1,1375.3333333333333,166.07591421448353) translate(68 92.44444444444444)"/><use xlink:href="#d" transform="matrix(1,0,0,1,1375.3333333333333,166.07591421448353) translate(31.95061728395062 127.11111111111111)"/><use xlink:href="#e" transform="matrix(1,0,0,1,1375.3333333333333,166.07591421448353) translate(76.02469135802468 127.11111111111111)"/><use xlink:href="#f" transform="matrix(1,0,0,1,1375.3333333333333,166.07591421448353) translate(11.104938271604937 161.77777777777777)"/><use xlink:href="#p" transform="matrix(1,0,0,1,1375.3333333333333,166.07591421448353) translate(108.84567901234568 161.77777777777777)"/><path d="M1526.66 335.75a3.2 3.2 0 0 0 2.67 5h148a3.2 3.2 0 0 0 2.68-5l-73.34-110a4 4 0 0 0-6.65 0z" stroke="#3a414a" fill="#e3fae3"/><use xlink:href="#h" transform="matrix(1,0,0,1,1528.3333333333333,225.74258088115016) translate(75.005 21.21527777777778)"/><use xlink:href="#i" transform="matrix(1,0,0,1,1528.3333333333333,225.74258088115016) translate(75.005 47.88194444444444)"/><use xlink:href="#q" transform="matrix(1,0,0,1,1528.3333333333333,225.74258088115016) translate(50.930925925925926 74.54861111111111)"/><use xlink:href="#r" transform="matrix(1,0,0,1,1528.3333333333333,225.74258088115016) translate(50.93092592592593 101.21527777777777)"/><path d="M1686.66 335.75a3.2 3.2 0 0 0 2.67 5h148a3.2 3.2 0 0 0 2.68-5l-73.34-110a4 4 0 0 0-6.65 0z" stroke="#3a414a" fill="#e3fae3"/><use xlink:href="#h" transform="matrix(1,0,0,1,1688.3333333333333,225.74258088115016) translate(75.005 21.21527777777778)"/><use xlink:href="#i" transform="matrix(1,0,0,1,1688.3333333333333,225.74258088115016) translate(75.005 47.88194444444444)"/><use xlink:href="#s" transform="matrix(1,0,0,1,1688.3333333333333,225.74258088115016) translate(50.930925925925926 74.54861111111111)"/><use xlink:href="#t" transform="matrix(1,0,0,1,1688.3333333333333,225.74258088115016) translate(50.93092592592593 101.21527777777777)"/><path d="M663.33 346.74a6 6 0 0 1 6-6h228a6 6 0 0 1 6 6v48a6 6 0 0 1-6 6h-228a6 6 0 0 1-6-6z" stroke="#000" stroke-opacity="0" stroke-width="3" fill="#fff" fill-opacity="0"/><use xlink:href="#u" transform="matrix(1,0,0,1,668.3333333333333,345.74258088115016) translate(87.8395061728395 30.27777777777778)"/><use xlink:href="#v" transform="matrix(1,0,0,1,668.3333333333333,345.74258088115016) translate(129.8148148148148 30.27777777777778)"/><path d="M1846.66 335.75a3.2 3.2 0 0 0 2.67 5h148a3.2 3.2 0 0 0 2.68-5l-73.34-110a4 4 0 0 0-6.65 0z" stroke="#3a414a" fill="#e3fae3"/><use xlink:href="#h" transform="matrix(1,0,0,1,1848.3333333333333,225.74258088115016) translate(75.005 21.21527777777778)"/><use xlink:href="#i" transform="matrix(1,0,0,1,1848.3333333333333,225.74258088115016) translate(75.005 47.88194444444444)"/><use xlink:href="#w" transform="matrix(1,0,0,1,1848.3333333333333,225.74258088115016) translate(50.930925925925926 74.54861111111111)"/><use xlink:href="#x" transform="matrix(1,0,0,1,1848.3333333333333,225.74258088115016) translate(50.93092592592593 101.21527777777777)"/><path d="M1105.33-53.84h497.4M1105.38-53.84h-2.05" stroke="#5e5e5e" stroke-width="4" fill="none"/><path d="M1619-53.84l-14.28 4.64v-9.27z" stroke="#5e5e5e" stroke-width="4" fill="#5e5e5e"/><path d="M1103.33-53.33V-432.6M1103.33-53.38v2.05" stroke="#5e5e5e" stroke-width="4" fill="none"/><path d="M1103.33-448.86l4.64 14.26h-9.27z" stroke="#5e5e5e" stroke-width="4" fill="#5e5e5e"/><path d="M1035.87-489a6 6 0 0 1 6-6h122.93a6 6 0 0 1 6 6v38.68a6 6 0 0 1-6 6h-122.93a6 6 0 0 1-6-6z" fill="none"/><use xlink:href="#y" transform="matrix(1,0,0,1,1047.8653703703703,-483) translate(0 17.944444444444443)"/><use xlink:href="#z" transform="matrix(1,0,0,1,1047.8653703703703,-483) translate(57.901234567901234 17.944444444444443)"/><path d="M1625.46-72a6 6 0 0 1 6-6h71.2a6 6 0 0 1 6 6v38.67a6 6 0 0 1-6 6h-71.2a6 6 0 0 1-6-6z" fill="none"/><use xlink:href="#A" transform="matrix(1,0,0,1,1637.4591358024693,-66.00499999999997) translate(0 17.944444444444443)"/><path d="M1150-114.67a6 6 0 0 1 6-6h27.52a6 6 0 0 1 6 6v53.33a6 6 0 0 1-6 6H1156a6 6 0 0 1-6-6zM1210.67-166.67a6 6 0 0 1 6-6h26a6 6 0 0 1 6 6v105.33a6 6 0 0 1-6 6h-26a6 6 0 0 1-6-6zM1269.15-296a6 6 0 0 1 6-6h26.66a6 6 0 0 1 6 6v234.66a6 6 0 0 1-6 6h-26.65a6 6 0 0 1-6-6zM1328.3-322.67a6 6 0 0 1 6-6h26.66a6 6 0 0 1 6 6v261.33a6 6 0 0 1-6 6h-26.67a6 6 0 0 1-6-6zM1387.44-252a6 6 0 0 1 6-6h26.67a6 6 0 0 1 6 6v190.66a6 6 0 0 1-6 6h-26.66a6 6 0 0 1-6-6zM1446.6-166.67a6 6 0 0 1 6-6h26.66a6 6 0 0 1 6 6v105.33a6 6 0 0 1-6 6h-26.67a6 6 0 0 1-6-6zM1505.73-114.67a6 6 0 0 1 6-6h26.67a6 6 0 0 1 6 6v53.33a6 6 0 0 1-6 6h-26.67a6 6 0 0 1-6-6z" stroke="#5e5e5e" stroke-width="3" fill="#31bddf"/><path d="M595.32 268a6 6 0 0 1 6-6H680a6 6 0 0 1 6 6v108a6 6 0 0 1-6 6h-78.68a6 6 0 0 1-6-6z" fill="none"/><use xlink:href="#B" transform="matrix(1,0,0,1,607.3233333333333,273.9950000000001) translate(0 64.5)"/><path d="M2026 268a6 6 0 0 1 6-6h78.67a6 6 0 0 1 6 6v108a6 6 0 0 1-6 6H2032a6 6 0 0 1-6-6z" fill="none"/><use xlink:href="#B" transform="matrix(1,0,0,1,2037.995,273.9950000000001) translate(0 64.5)"/><path d="M1379.33-27.7v62.37M1389.5-10.2l-10.17-17.2-10.18 17.2M1379.33 34.62v2.05" stroke="#5e5e5e" stroke-width="4" fill="none"/><path d="M945.33 221.45h-4v-82.12h4zm420-182.78H949.4l-.7.05-.6.15-.58.24-.53.34-.5.4-.4.48-.33.53-.24.58-.14.6-.07.7V118h-4V42.6l.1-1.2.3-1.2.47-1.17.66-1.07.8-.95.97-.8 1.07-.67 1.16-.48 1.22-.3 1.17-.08h416.08z" stroke="#5e5e5e" stroke-width=".05" fill="#5e5e5e"/><path d="M1367.33 38.67h-2.05v-4h2.05z" stroke="#5e5e5e" stroke-width=".05" fill="#5e5e5e"/><path d="M945.33 223.94l-.27-.15-.85-.26-.87-.1-.88.1-.84.25-.27.14v-2.54h4z" fill="#5e5e5e"/><path d="M945.36 223.98l-.3-.16-.85-.26-.87-.08-.87.08-.84.26-.3.16v-2.6h4.04zm-4-2.55v2.47l.24-.13.85-.26.88-.07.9.08.84.27.24.13v-2.47z" stroke="#5e5e5e" stroke-width=".05" fill="#5e5e5e"/><use xlink:href="#C" transform="matrix(1,0,0,1,897.9506172839506,118.00000000000007) translate(0 14.222222222222223)"/><use xlink:href="#D" transform="matrix(1,0,0,1,897.9506172839506,118.00000000000007) translate(50.320987654320994 14.222222222222223)"/><path d="M1105.33 221.45h-4v-80.78h4zm261.34-182.78H1109.4l-.7.05-.6.15-.58.24-.53.34-.5.4-.4.48-.32.53-.24.58-.15.6-.07.7v76.6h-4V42.6l.1-1.2.3-1.2.47-1.17.66-1.07.8-.95.97-.8 1.07-.67 1.16-.48 1.22-.3 1.18-.08h257.4z" stroke="#5e5e5e" stroke-width=".05" fill="#5e5e5e"/><path d="M1368.67 38.67h-2.06l.02-4h2.05z" stroke="#5e5e5e" stroke-width=".05" fill="#5e5e5e"/><path d="M1105.33 223.94l-.27-.15-.85-.26-.87-.1-.88.1-.84.25-.27.14v-2.54h4z" fill="#5e5e5e"/><path d="M1105.36 223.98l-.3-.16-.85-.26-.87-.08-.87.08-.84.26-.3.16v-2.6h4.04zm-4-2.55v2.47l.24-.13.85-.26.88-.07.9.08.84.27.24.13v-2.47z" stroke="#5e5e5e" stroke-width=".05" fill="#5e5e5e"/><g><use xlink:href="#E" transform="matrix(1,0,0,1,1057.9506172839506,119.33333333333344) translate(0 14.222222222222223)"/><use xlink:href="#F" transform="matrix(1,0,0,1,1057.9506172839506,119.33333333333344) translate(50.320987654320994 14.222222222222223)"/></g><path d="M1265.33 221.45h-4v-80.72h4zm0-102.06h-4V38.66h4z" stroke="#5e5e5e" stroke-width=".05" fill="#5e5e5e"/><path d="M1265.33 38.72h-4v-2.05h4z" stroke="#5e5e5e" stroke-width=".05" fill="#5e5e5e"/><path d="M1265.33 223.94l-.27-.15-.85-.26-.87-.1-.88.1-.84.25-.27.14v-2.54h4z" fill="#5e5e5e"/><path d="M1265.36 223.98l-.3-.16-.85-.26-.87-.08-.87.08-.84.26-.3.16v-2.6h4.04zm-4-2.55v2.47l.24-.13.85-.26.88-.07.9.08.84.27.24.13v-2.47z" stroke="#5e5e5e" stroke-width=".05" fill="#5e5e5e"/><g><use xlink:href="#G" transform="matrix(1,0,0,1,1217.9506172839506,119.39231988911963) translate(0 14.222222222222223)"/><use xlink:href="#H" transform="matrix(1,0,0,1,1217.9506172839506,119.39231988911963) translate(50.320987654320994 14.222222222222223)"/></g><path d="M1925.33 221.45h-4v-90.12h4zm-6.74-186.7l1.2.3 1.17.48 1.07.66.95.8.8.96.67 1.07.48 1.16.3 1.2.08 1.2V110h-4V42.75l-.05-.7-.15-.62-.24-.58-.34-.53-.4-.48-.48-.4-.53-.33-.58-.23-.6-.15-.7-.05h-543.94v-4h544.08z" stroke="#5e5e5e" stroke-width=".05" fill="#5e5e5e"/><path d="M1373.38 38.67h-2.05v-4h2.06z" stroke="#5e5e5e" stroke-width=".05" fill="#5e5e5e"/><path d="M1925.33 223.94l-.27-.15-.85-.26-.87-.1-.88.1-.84.25-.27.14v-2.54h4z" fill="#5e5e5e"/><path d="M1925.36 223.98l-.3-.16-.85-.26-.87-.08-.87.08-.84.26-.3.16v-2.6h4.04zm-4-2.55v2.47l.24-.13.85-.26.88-.07.9.08.84.27.24.13v-2.47z" stroke="#5e5e5e" stroke-width=".05" fill="#5e5e5e"/><g><use xlink:href="#I" transform="matrix(1,0,0,1,1877.9506172839506,110.00000000000007) translate(0 14.222222222222223)"/><use xlink:href="#J" transform="matrix(1,0,0,1,1877.9506172839506,110.00000000000007) translate(50.320987654320994 14.222222222222223)"/></g><path d="M1597.33 229.84h-4V134h4zm0-117.17h-4v-74h4z" stroke="#5e5e5e" stroke-width=".05" fill="#5e5e5e"/><path d="M1597.33 38.72h-4v-2.05h4z" stroke="#5e5e5e" stroke-width=".05" fill="#5e5e5e"/><path d="M1593.33 234.84v-5.05h3.37z" fill="#5e5e5e"/><path d="M1593.3 234.92v-5.16h3.45zm.06-5.1v4.94l3.3-4.94z" stroke="#5e5e5e" stroke-width=".05" fill="#5e5e5e"/><g><use xlink:href="#K" transform="matrix(1,0,0,1,1549.9506172839508,112.66666666666669) translate(0 14.222222222222223)"/><use xlink:href="#L" transform="matrix(1,0,0,1,1549.9506172839508,112.66666666666669) translate(50.320987654320994 14.222222222222223)"/></g><path d="M1765.33 221.45h-4v-90.12h4zm0-111.45h-4V38.67h4z" stroke="#5e5e5e" stroke-width=".05" fill="#5e5e5e"/><path d="M1765.33 38.72h-4v-2.05h4z" stroke="#5e5e5e" stroke-width=".05" fill="#5e5e5e"/><path d="M1765.33 223.94l-.27-.15-.85-.26-.87-.1-.88.1-.84.25-.27.14v-2.54h4z" fill="#5e5e5e"/><path d="M1765.36 223.98l-.3-.16-.85-.26-.87-.08-.87.08-.84.26-.3.16v-2.6h4.04zm-4-2.55v2.47l.24-.13.85-.26.88-.07.9.08.84.27.24.13v-2.47z" stroke="#5e5e5e" stroke-width=".05" fill="#5e5e5e"/><g><use xlink:href="#M" transform="matrix(1,0,0,1,1717.9506172839506,110.00000000000007) translate(0 14.222222222222223)"/><use xlink:href="#N" transform="matrix(1,0,0,1,1717.9506172839506,110.00000000000007) translate(50.320987654320994 14.222222222222223)"/></g><path d="M1374.67 38.67H646.74l-.7.05-.6.15-.6.24-.53.34-.46.4-.4.48-.34.53-.24.58-.14.6-.06.7V260h-4V42.6l.1-1.2.3-1.2.47-1.17.65-1.07.82-.95.96-.8 1.07-.67 1.16-.48 1.2-.3 1.18-.08h728.1z" stroke="#5e5e5e" stroke-width=".05" fill="#5e5e5e"/><path d="M642.66 262h-4v-2.06h4z" fill="#5e5e5e"/><path d="M642.7 262.02h-4.06v-2.1h4.05zm-4-2.05v2h3.94v-2zM1376.67 38.67h-2.06l.02-4h2.05zM2066.6 34.76l1.2.3 1.17.47 1.07.66.95.8.8.96.67 1.07.48 1.16.3 1.2.08 1.2V260h-4V42.75l-.05-.7-.15-.62-.24-.58-.34-.53-.4-.48-.48-.4-.53-.33-.58-.23-.6-.15-.7-.05h-615.94v-4h616.08z" stroke="#5e5e5e" stroke-width=".05" fill="#5e5e5e"/><path d="M2073.33 262h-4v-2.06h4z" fill="#5e5e5e"/><path d="M2073.36 262.02h-4.05v-2.1h4.06zm-4-2.05v2h3.95v-2zM1449.38 38.67h-2.05v-4h2.06z" stroke="#5e5e5e" stroke-width=".05" fill="#5e5e5e"/><defs><path fill="#3a414a" d="M212-179c-10-28-35-45-73-45-59 0-87 40-87 99 0 60 29 101 89 101 43 0 62-24 78-52l27 14C228-24 195 4 139 4 59 4 22-46 18-125c-6-104 99-153 187-111 19 9 31 26 39 46" id="O"/><path fill="#3a414a" d="M106-169C34-169 62-67 57 0H25v-261h32l-1 103c12-21 28-36 61-36 89 0 53 116 60 194h-32v-121c2-32-8-49-39-48" id="P"/><path fill="#3a414a" d="M84 4C-5 8 30-112 23-190h32v120c0 31 7 50 39 49 72-2 45-101 50-169h31l1 190h-30c-1-10 1-25-2-33-11 22-28 36-60 37" id="Q"/><path fill="#3a414a" d="M117-194c89-4 53 116 60 194h-32v-121c0-31-8-49-39-48C34-167 62-67 57 0H25l-1-190h30c1 10-1 24 2 32 11-22 29-35 61-36" id="R"/><path fill="#3a414a" d="M143 0L79-87 56-68V0H24v-261h32v163l83-92h37l-77 82L181 0h-38" id="S"/><g id="a"><use transform="matrix(0.08024691358024691,0,0,0.08024691358024691,0,0)" xlink:href="#O"/><use transform="matrix(0.08024691358024691,0,0,0.08024691358024691,20.78395061728395,0)" xlink:href="#P"/><use transform="matrix(0.08024691358024691,0,0,0.08024691358024691,36.83333333333333,0)" xlink:href="#Q"/><use transform="matrix(0.08024691358024691,0,0,0.08024691358024691,52.8827160493827,0)" xlink:href="#R"/><use transform="matrix(0.08024691358024691,0,0,0.08024691358024691,68.93209876543209,0)" xlink:href="#S"/></g><path fill="#3a414a" d="M197 0v-115H63V0H30v-248h33v105h134v-105h34V0h-34" id="T"/><path fill="#3a414a" d="M100-194c63 0 86 42 84 106H49c0 40 14 67 53 68 26 1 43-12 49-29l28 8c-11 28-37 45-77 45C44 4 14-33 15-96c1-61 26-98 85-98zm52 81c6-60-76-77-97-28-3 7-6 17-6 28h103" id="U"/><path fill="#3a414a" d="M141-36C126-15 110 5 73 4 37 3 15-17 15-53c-1-64 63-63 125-63 3-35-9-54-41-54-24 1-41 7-42 31l-33-3c5-37 33-52 76-52 45 0 72 20 72 64v82c-1 20 7 32 28 27v20c-31 9-61-2-59-35zM48-53c0 20 12 33 32 33 41-3 63-29 60-74-43 2-92-5-92 41" id="V"/><path fill="#3a414a" d="M85-194c31 0 48 13 60 33l-1-100h32l1 261h-30c-2-10 0-23-3-31C134-8 116 4 85 4 32 4 16-35 15-94c0-66 23-100 70-100zm9 24c-40 0-46 34-46 75 0 40 6 74 45 74 42 0 51-32 51-76 0-42-9-74-50-73" id="W"/><path fill="#3a414a" d="M114-163C36-179 61-72 57 0H25l-1-190h30c1 12-1 29 2 39 6-27 23-49 58-41v29" id="X"/><g id="b"><use transform="matrix(0.08024691358024691,0,0,0.08024691358024691,0,0)" xlink:href="#T"/><use transform="matrix(0.08024691358024691,0,0,0.08024691358024691,20.78395061728395,0)" xlink:href="#U"/><use transform="matrix(0.08024691358024691,0,0,0.08024691358024691,36.83333333333333,0)" xlink:href="#V"/><use transform="matrix(0.08024691358024691,0,0,0.08024691358024691,52.8827160493827,0)" xlink:href="#W"/><use transform="matrix(0.08024691358024691,0,0,0.08024691358024691,68.93209876543209,0)" xlink:href="#U"/><use transform="matrix(0.08024691358024691,0,0,0.08024691358024691,84.98148148148145,0)" xlink:href="#X"/></g><path fill="#3a414a" d="M141 0L90-78 38 0H4l68-98-65-92h35l48 74 47-74h35l-64 92 68 98h-35" id="Y"/><path fill="#3a414a" d="M101-251c68 0 85 55 85 127S166 4 100 4C33 4 14-52 14-124c0-73 17-127 87-127zm-1 229c47 0 54-49 54-102s-4-102-53-102c-51 0-55 48-55 102 0 53 5 102 54 102" id="Z"/><path fill="#3a414a" d="M68-38c1 34 0 65-14 84H32c9-13 17-26 17-46H33v-38h35" id="aa"/><g id="d"><use transform="matrix(0.08024691358024691,0,0,0.08024691358024691,0,0)" xlink:href="#Y"/><use transform="matrix(0.06790123456790123,0,0,0.06790123456790123,14.444444444444443,0)" xlink:href="#Z"/><use transform="matrix(0.08024691358024691,0,0,0.08024691358024691,28.02469135802469,0)" xlink:href="#aa"/></g><path fill="#3a414a" d="M179-190L93 31C79 59 56 82 12 73V49c39 6 53-20 64-50L1-190h34L92-34l54-156h33" id="ab"/><g id="e"><use transform="matrix(0.08024691358024691,0,0,0.08024691358024691,0,0)" xlink:href="#ab"/><use transform="matrix(0.06790123456790123,0,0,0.06790123456790123,14.444444444444443,0)" xlink:href="#Z"/></g><path fill="#3a414a" d="M30-248c118-7 216 8 213 122C240-48 200 0 122 0H30v-248zM63-27c89 8 146-16 146-99s-60-101-146-95v194" id="ac"/><path fill="#3a414a" d="M24 0v-261h32V0H24" id="ad"/><path fill="#3a414a" d="M59-47c-2 24 18 29 38 22v24C64 9 27 4 27-40v-127H5v-23h24l9-43h21v43h35v23H59v120" id="ae"/><path fill="#3a414a" d="M135-143c-3-34-86-38-87 0 15 53 115 12 119 90S17 21 10-45l28-5c4 36 97 45 98 0-10-56-113-15-118-90-4-57 82-63 122-42 12 7 21 19 24 35" id="af"/><path fill="#3a414a" d="M33-154v-36h34v36H33zM33 0v-36h34V0H33" id="ag"/><g id="f"><use transform="matrix(0.08024691358024691,0,0,0.08024691358024691,0,0)" xlink:href="#ac"/><use transform="matrix(0.08024691358024691,0,0,0.08024691358024691,20.78395061728395,0)" xlink:href="#U"/><use transform="matrix(0.08024691358024691,0,0,0.08024691358024691,36.83333333333333,0)" xlink:href="#ad"/><use transform="matrix(0.08024691358024691,0,0,0.08024691358024691,43.172839506172835,0)" xlink:href="#ae"/><use transform="matrix(0.08024691358024691,0,0,0.08024691358024691,51.197530864197525,0)" xlink:href="#V"/><use transform="matrix(0.08024691358024691,0,0,0.08024691358024691,67.24691358024691,0)" xlink:href="#af"/><use transform="matrix(0.08024691358024691,0,0,0.08024691358024691,81.69135802469135,0)" xlink:href="#ag"/></g><path fill="#3a414a" d="M126-127c33 6 58 20 58 59 0 88-139 92-164 29-3-8-5-16-6-25l32-3c6 27 21 44 54 44 32 0 52-15 52-46 0-38-36-46-79-43v-28c39 1 72-4 72-42 0-27-17-43-46-43-28 0-47 15-49 41l-32-3c6-42 35-63 81-64 48-1 79 21 79 65 0 36-21 52-52 59" id="ah"/><use transform="matrix(0.08024691358024691,0,0,0.08024691358024691,0,0)" xlink:href="#ah" id="g"/><path fill="#3a414a" d="M-5 72V49h209v23H-5" id="ai"/><g id="j"><use transform="matrix(0.06172839506172839,0,0,0.06172839506172839,0,0)" xlink:href="#W"/><use transform="matrix(0.06172839506172839,0,0,0.06172839506172839,12.345679012345679,0)" xlink:href="#Y"/><use transform="matrix(0.06172839506172839,0,0,0.06172839506172839,23.45679012345679,0)" xlink:href="#ai"/><use transform="matrix(0.06172839506172839,0,0,0.06172839506172839,35.80246913580247,0)" xlink:href="#Z"/></g><g id="k"><use transform="matrix(0.06172839506172839,0,0,0.06172839506172839,0,0)" xlink:href="#W"/><use transform="matrix(0.06172839506172839,0,0,0.06172839506172839,12.345679012345679,0)" xlink:href="#ab"/><use transform="matrix(0.06172839506172839,0,0,0.06172839506172839,23.45679012345679,0)" xlink:href="#ai"/><use transform="matrix(0.06172839506172839,0,0,0.06172839506172839,35.80246913580247,0)" xlink:href="#Z"/></g><path fill="#3a414a" d="M27 0v-27h64v-190l-56 39v-29l58-41h29v221h61V0H27" id="aj"/><g id="l"><use transform="matrix(0.06172839506172839,0,0,0.06172839506172839,0,0)" xlink:href="#W"/><use transform="matrix(0.06172839506172839,0,0,0.06172839506172839,12.345679012345679,0)" xlink:href="#Y"/><use transform="matrix(0.06172839506172839,0,0,0.06172839506172839,23.45679012345679,0)" xlink:href="#ai"/><use transform="matrix(0.06172839506172839,0,0,0.06172839506172839,35.80246913580247,0)" xlink:href="#aj"/></g><g id="m"><use transform="matrix(0.06172839506172839,0,0,0.06172839506172839,0,0)" xlink:href="#W"/><use transform="matrix(0.06172839506172839,0,0,0.06172839506172839,12.345679012345679,0)" xlink:href="#ab"/><use transform="matrix(0.06172839506172839,0,0,0.06172839506172839,23.45679012345679,0)" xlink:href="#ai"/><use transform="matrix(0.06172839506172839,0,0,0.06172839506172839,35.80246913580247,0)" xlink:href="#aj"/></g><path fill="#3a414a" d="M101-251c82-7 93 87 43 132L82-64C71-53 59-42 53-27h129V0H18c2-99 128-94 128-182 0-28-16-43-45-43s-46 15-49 41l-32-3c6-41 34-60 81-64" id="ak"/><g id="n"><use transform="matrix(0.06172839506172839,0,0,0.06172839506172839,0,0)" xlink:href="#W"/><use transform="matrix(0.06172839506172839,0,0,0.06172839506172839,12.345679012345679,0)" xlink:href="#Y"/><use transform="matrix(0.06172839506172839,0,0,0.06172839506172839,23.45679012345679,0)" xlink:href="#ai"/><use transform="matrix(0.06172839506172839,0,0,0.06172839506172839,35.80246913580247,0)" xlink:href="#ak"/></g><g id="o"><use transform="matrix(0.06172839506172839,0,0,0.06172839506172839,0,0)" xlink:href="#W"/><use transform="matrix(0.06172839506172839,0,0,0.06172839506172839,12.345679012345679,0)" xlink:href="#ab"/><use transform="matrix(0.06172839506172839,0,0,0.06172839506172839,23.45679012345679,0)" xlink:href="#ai"/><use transform="matrix(0.06172839506172839,0,0,0.06172839506172839,35.80246913580247,0)" xlink:href="#ak"/></g><use transform="matrix(0.08024691358024691,0,0,0.08024691358024691,0,0)" xlink:href="#ak" id="p"/><g id="q"><use transform="matrix(0.06172839506172839,0,0,0.06172839506172839,0,0)" xlink:href="#W"/><use transform="matrix(0.06172839506172839,0,0,0.06172839506172839,12.345679012345679,0)" xlink:href="#Y"/><use transform="matrix(0.06172839506172839,0,0,0.06172839506172839,23.45679012345679,0)" xlink:href="#ai"/><use transform="matrix(0.06172839506172839,0,0,0.06172839506172839,35.80246913580247,0)" xlink:href="#ah"/></g><g id="r"><use transform="matrix(0.06172839506172839,0,0,0.06172839506172839,0,0)" xlink:href="#W"/><use transform="matrix(0.06172839506172839,0,0,0.06172839506172839,12.345679012345679,0)" xlink:href="#ab"/><use transform="matrix(0.06172839506172839,0,0,0.06172839506172839,23.45679012345679,0)" xlink:href="#ai"/><use transform="matrix(0.06172839506172839,0,0,0.06172839506172839,35.80246913580247,0)" xlink:href="#ah"/></g><path fill="#3a414a" d="M155-56V0h-30v-56H8v-25l114-167h33v167h35v25h-35zm-30-156c-27 46-58 90-88 131h88v-131" id="al"/><g id="s"><use transform="matrix(0.06172839506172839,0,0,0.06172839506172839,0,0)" xlink:href="#W"/><use transform="matrix(0.06172839506172839,0,0,0.06172839506172839,12.345679012345679,0)" xlink:href="#Y"/><use transform="matrix(0.06172839506172839,0,0,0.06172839506172839,23.45679012345679,0)" xlink:href="#ai"/><use transform="matrix(0.06172839506172839,0,0,0.06172839506172839,35.80246913580247,0)" xlink:href="#al"/></g><g id="t"><use transform="matrix(0.06172839506172839,0,0,0.06172839506172839,0,0)" xlink:href="#W"/><use transform="matrix(0.06172839506172839,0,0,0.06172839506172839,12.345679012345679,0)" xlink:href="#ab"/><use transform="matrix(0.06172839506172839,0,0,0.06172839506172839,23.45679012345679,0)" xlink:href="#ai"/><use transform="matrix(0.06172839506172839,0,0,0.06172839506172839,35.80246913580247,0)" xlink:href="#al"/></g><path fill="#333" d="M33 0v-248h34V0H33" id="am"/><path fill="#333" d="M85-194c31 0 48 13 60 33l-1-100h32l1 261h-30c-2-10 0-23-3-31C134-8 116 4 85 4 32 4 16-35 15-94c0-66 23-100 70-100zm9 24c-40 0-46 34-46 75 0 40 6 74 45 74 42 0 51-32 51-76 0-42-9-74-50-73" id="an"/><path fill="#333" d="M141 0L90-78 38 0H4l68-98-65-92h35l48 74 47-74h35l-64 92 68 98h-35" id="ao"/><path fill="#333" d="M33-154v-36h34v36H33zM33 0v-36h34V0H33" id="ap"/><g id="u"><use transform="matrix(0.06172839506172839,0,0,0.06172839506172839,0,0)" xlink:href="#am"/><use transform="matrix(0.06172839506172839,0,0,0.06172839506172839,6.172839506172839,0)" xlink:href="#an"/><use transform="matrix(0.06172839506172839,0,0,0.06172839506172839,18.51851851851852,0)" xlink:href="#ao"/><use transform="matrix(0.06172839506172839,0,0,0.06172839506172839,29.62962962962963,0)" xlink:href="#ap"/></g><path fill="#333" d="M101-251c68 0 85 55 85 127S166 4 100 4C33 4 14-52 14-124c0-73 17-127 87-127zm-1 229c47 0 54-49 54-102s-4-102-53-102c-51 0-55 48-55 102 0 53 5 102 54 102" id="aq"/><use transform="matrix(0.06172839506172839,0,0,0.06172839506172839,0,0)" xlink:href="#aq" id="v"/><path fill="#3a414a" d="M54-142c48-35 137-8 131 61C196 18 31 33 14-55l32-4c7 23 22 37 52 37 35-1 51-22 54-58 4-55-73-65-99-34H22l8-134h141v27H59" id="ar"/><g id="w"><use transform="matrix(0.06172839506172839,0,0,0.06172839506172839,0,0)" xlink:href="#W"/><use transform="matrix(0.06172839506172839,0,0,0.06172839506172839,12.345679012345679,0)" xlink:href="#Y"/><use transform="matrix(0.06172839506172839,0,0,0.06172839506172839,23.45679012345679,0)" xlink:href="#ai"/><use transform="matrix(0.06172839506172839,0,0,0.06172839506172839,35.80246913580247,0)" xlink:href="#ar"/></g><g id="x"><use transform="matrix(0.06172839506172839,0,0,0.06172839506172839,0,0)" xlink:href="#W"/><use transform="matrix(0.06172839506172839,0,0,0.06172839506172839,12.345679012345679,0)" xlink:href="#ab"/><use transform="matrix(0.06172839506172839,0,0,0.06172839506172839,23.45679012345679,0)" xlink:href="#ai"/><use transform="matrix(0.06172839506172839,0,0,0.06172839506172839,35.80246913580247,0)" xlink:href="#ar"/></g><path fill="#333" d="M30-248c118-7 216 8 213 122C240-48 200 0 122 0H30v-248zM63-27c89 8 146-16 146-99s-60-101-146-95v194" id="as"/><path fill="#333" d="M100-194c63 0 86 42 84 106H49c0 40 14 67 53 68 26 1 43-12 49-29l28 8c-11 28-37 45-77 45C44 4 14-33 15-96c1-61 26-98 85-98zm52 81c6-60-76-77-97-28-3 7-6 17-6 28h103" id="at"/><path fill="#333" d="M24 0v-261h32V0H24" id="au"/><path fill="#333" d="M59-47c-2 24 18 29 38 22v24C64 9 27 4 27-40v-127H5v-23h24l9-43h21v43h35v23H59v120" id="av"/><path fill="#333" d="M141-36C126-15 110 5 73 4 37 3 15-17 15-53c-1-64 63-63 125-63 3-35-9-54-41-54-24 1-41 7-42 31l-33-3c5-37 33-52 76-52 45 0 72 20 72 64v82c-1 20 7 32 28 27v20c-31 9-61-2-59-35zM48-53c0 20 12 33 32 33 41-3 63-29 60-74-43 2-92-5-92 41" id="aw"/><g id="y"><use transform="matrix(0.06172839506172839,0,0,0.06172839506172839,0,0)" xlink:href="#as"/><use transform="matrix(0.06172839506172839,0,0,0.06172839506172839,15.987654320987653,0)" xlink:href="#at"/><use transform="matrix(0.06172839506172839,0,0,0.06172839506172839,28.333333333333332,0)" xlink:href="#au"/><use transform="matrix(0.06172839506172839,0,0,0.06172839506172839,33.20987654320987,0)" xlink:href="#av"/><use transform="matrix(0.06172839506172839,0,0,0.06172839506172839,39.382716049382715,0)" xlink:href="#aw"/></g><path fill="#333" d="M108 0H70L1-190h34L89-25l56-165h34" id="ax"/><path fill="#333" d="M84 4C-5 8 30-112 23-190h32v120c0 31 7 50 39 49 72-2 45-101 50-169h31l1 190h-30c-1-10 1-25-2-33-11 22-28 36-60 37" id="ay"/><g id="z"><use transform="matrix(0.06172839506172839,0,0,0.06172839506172839,0,0)" xlink:href="#ax"/><use transform="matrix(0.06172839506172839,0,0,0.06172839506172839,11.11111111111111,0)" xlink:href="#aw"/><use transform="matrix(0.06172839506172839,0,0,0.06172839506172839,23.45679012345679,0)" xlink:href="#au"/><use transform="matrix(0.06172839506172839,0,0,0.06172839506172839,28.333333333333336,0)" xlink:href="#ay"/><use transform="matrix(0.06172839506172839,0,0,0.06172839506172839,40.67901234567901,0)" xlink:href="#at"/></g><path fill="#333" d="M212-179c-10-28-35-45-73-45-59 0-87 40-87 99 0 60 29 101 89 101 43 0 62-24 78-52l27 14C228-24 195 4 139 4 59 4 22-46 18-125c-6-104 99-153 187-111 19 9 31 26 39 46" id="az"/><path fill="#333" d="M100-194c62-1 85 37 85 99 1 63-27 99-86 99S16-35 15-95c0-66 28-99 85-99zM99-20c44 1 53-31 53-75 0-43-8-75-51-75s-53 32-53 75 10 74 51 75" id="aA"/><path fill="#333" d="M117-194c89-4 53 116 60 194h-32v-121c0-31-8-49-39-48C34-167 62-67 57 0H25l-1-190h30c1 10-1 24 2 32 11-22 29-35 61-36" id="aB"/><g id="A"><use transform="matrix(0.06172839506172839,0,0,0.06172839506172839,0,0)" xlink:href="#az"/><use transform="matrix(0.06172839506172839,0,0,0.06172839506172839,15.987654320987653,0)" xlink:href="#aA"/><use transform="matrix(0.06172839506172839,0,0,0.06172839506172839,28.333333333333332,0)" xlink:href="#ay"/><use transform="matrix(0.06172839506172839,0,0,0.06172839506172839,40.67901234567901,0)" xlink:href="#aB"/><use transform="matrix(0.06172839506172839,0,0,0.06172839506172839,53.02469135802469,0)" xlink:href="#av"/></g><path fill="#333" d="M33 0v-38h34V0H33" id="aC"/><g id="B"><use transform="matrix(0.2222222222222222,0,0,0.2222222222222222,0,0)" xlink:href="#aC"/><use transform="matrix(0.2222222222222222,0,0,0.2222222222222222,22.22222222222222,0)" xlink:href="#aC"/><use transform="matrix(0.2222222222222222,0,0,0.2222222222222222,44.44444444444444,0)" xlink:href="#aC"/></g><path fill="#333" d="M88-194c31-1 46 15 58 34l-1-101h50l1 261h-48c-2-10 0-23-3-31C134-8 116 4 84 4 32 4 16-41 15-95c0-56 19-97 73-99zm17 164c33 0 40-30 41-66 1-37-9-64-41-64s-38 30-39 65c0 43 13 65 39 65" id="aD"/><path fill="#333" d="M144 0l-44-69L55 0H2l70-98-66-92h53l41 62 40-62h54l-67 91 71 99h-54" id="aE"/><path fill="#333" d="M-4 44V30h207v14H-4" id="aF"/><path fill="#333" d="M101-251c68 0 84 54 84 127C185-50 166 4 99 4S15-52 14-124c-1-75 17-127 87-127zm-1 216c37-5 36-46 36-89s4-89-36-89c-39 0-36 45-36 89 0 43-3 85 36 89" id="aG"/><path fill="#333" d="M76-54c-1 42 2 86-19 110H24C36 42 46 24 48 0H25v-54h51" id="aH"/><g id="C"><use transform="matrix(0.04938271604938272,0,0,0.04938271604938272,0,0)" xlink:href="#aD"/><use transform="matrix(0.04938271604938272,0,0,0.04938271604938272,10.814814814814815,0)" xlink:href="#aE"/><use transform="matrix(0.04938271604938272,0,0,0.04938271604938272,20.69135802469136,0)" xlink:href="#aF"/><use transform="matrix(0.04938271604938272,0,0,0.04938271604938272,30.567901234567906,0)" xlink:href="#aG"/><use transform="matrix(0.04938271604938272,0,0,0.04938271604938272,40.44444444444445,0)" xlink:href="#aH"/></g><path fill="#333" d="M123 10C108 53 80 86 19 72V37c35 8 53-11 59-39L3-190h52l48 148c12-52 28-100 44-148h51" id="aI"/><g id="D"><use transform="matrix(0.04938271604938272,0,0,0.04938271604938272,0,0)" xlink:href="#aD"/><use transform="matrix(0.04938271604938272,0,0,0.04938271604938272,10.814814814814815,0)" xlink:href="#aI"/><use transform="matrix(0.04938271604938272,0,0,0.04938271604938272,20.69135802469136,0)" xlink:href="#aF"/><use transform="matrix(0.04938271604938272,0,0,0.04938271604938272,30.567901234567906,0)" xlink:href="#aG"/></g><path fill="#333" d="M23 0v-37h61v-169l-59 37v-38l62-41h46v211h57V0H23" id="aJ"/><g id="E"><use transform="matrix(0.04938271604938272,0,0,0.04938271604938272,0,0)" xlink:href="#aD"/><use transform="matrix(0.04938271604938272,0,0,0.04938271604938272,10.814814814814815,0)" xlink:href="#aE"/><use transform="matrix(0.04938271604938272,0,0,0.04938271604938272,20.69135802469136,0)" xlink:href="#aF"/><use transform="matrix(0.04938271604938272,0,0,0.04938271604938272,30.567901234567906,0)" xlink:href="#aJ"/><use transform="matrix(0.04938271604938272,0,0,0.04938271604938272,40.44444444444445,0)" xlink:href="#aH"/></g><g id="F"><use transform="matrix(0.04938271604938272,0,0,0.04938271604938272,0,0)" xlink:href="#aD"/><use transform="matrix(0.04938271604938272,0,0,0.04938271604938272,10.814814814814815,0)" xlink:href="#aI"/><use transform="matrix(0.04938271604938272,0,0,0.04938271604938272,20.69135802469136,0)" xlink:href="#aF"/><use transform="matrix(0.04938271604938272,0,0,0.04938271604938272,30.567901234567906,0)" xlink:href="#aJ"/></g><path fill="#333" d="M182-182c0 78-84 86-111 141h115V0H12c-6-101 99-100 120-180 1-22-12-31-33-32-23 0-32 14-35 34l-49-3c5-45 32-70 84-70 51 0 83 22 83 69" id="aK"/><g id="G"><use transform="matrix(0.04938271604938272,0,0,0.04938271604938272,0,0)" xlink:href="#aD"/><use transform="matrix(0.04938271604938272,0,0,0.04938271604938272,10.814814814814815,0)" xlink:href="#aE"/><use transform="matrix(0.04938271604938272,0,0,0.04938271604938272,20.69135802469136,0)" xlink:href="#aF"/><use transform="matrix(0.04938271604938272,0,0,0.04938271604938272,30.567901234567906,0)" xlink:href="#aK"/><use transform="matrix(0.04938271604938272,0,0,0.04938271604938272,40.44444444444445,0)" xlink:href="#aH"/></g><g id="H"><use transform="matrix(0.04938271604938272,0,0,0.04938271604938272,0,0)" xlink:href="#aD"/><use transform="matrix(0.04938271604938272,0,0,0.04938271604938272,10.814814814814815,0)" xlink:href="#aI"/><use transform="matrix(0.04938271604938272,0,0,0.04938271604938272,20.69135802469136,0)" xlink:href="#aF"/><use transform="matrix(0.04938271604938272,0,0,0.04938271604938272,30.567901234567906,0)" xlink:href="#aK"/></g><path fill="#333" d="M139-81c0-46-55-55-73-27H18l9-140h149v37H72l-4 63c44-38 133-4 122 66C201 21 21 35 11-62l49-4c5 18 15 30 39 30 26 0 40-18 40-45" id="aL"/><g id="I"><use transform="matrix(0.04938271604938272,0,0,0.04938271604938272,0,0)" xlink:href="#aD"/><use transform="matrix(0.04938271604938272,0,0,0.04938271604938272,10.814814814814815,0)" xlink:href="#aE"/><use transform="matrix(0.04938271604938272,0,0,0.04938271604938272,20.69135802469136,0)" xlink:href="#aF"/><use transform="matrix(0.04938271604938272,0,0,0.04938271604938272,30.567901234567906,0)" xlink:href="#aL"/><use transform="matrix(0.04938271604938272,0,0,0.04938271604938272,40.44444444444445,0)" xlink:href="#aH"/></g><g id="J"><use transform="matrix(0.04938271604938272,0,0,0.04938271604938272,0,0)" xlink:href="#aD"/><use transform="matrix(0.04938271604938272,0,0,0.04938271604938272,10.814814814814815,0)" xlink:href="#aI"/><use transform="matrix(0.04938271604938272,0,0,0.04938271604938272,20.69135802469136,0)" xlink:href="#aF"/><use transform="matrix(0.04938271604938272,0,0,0.04938271604938272,30.567901234567906,0)" xlink:href="#aL"/></g><path fill="#333" d="M128-127c34 4 56 21 59 58 7 91-148 94-172 28-4-9-6-17-7-26l51-5c1 24 16 35 40 36 23 0 39-12 38-36-1-31-31-36-65-34v-40c32 2 59-3 59-33 0-20-13-33-34-33s-33 13-35 32l-50-3c6-44 37-68 86-68 50 0 83 20 83 66 0 35-22 52-53 58" id="aM"/><g id="K"><use transform="matrix(0.04938271604938272,0,0,0.04938271604938272,0,0)" xlink:href="#aD"/><use transform="matrix(0.04938271604938272,0,0,0.04938271604938272,10.814814814814815,0)" xlink:href="#aE"/><use transform="matrix(0.04938271604938272,0,0,0.04938271604938272,20.69135802469136,0)" xlink:href="#aF"/><use transform="matrix(0.04938271604938272,0,0,0.04938271604938272,30.567901234567906,0)" xlink:href="#aM"/><use transform="matrix(0.04938271604938272,0,0,0.04938271604938272,40.44444444444445,0)" xlink:href="#aH"/></g><g id="L"><use transform="matrix(0.04938271604938272,0,0,0.04938271604938272,0,0)" xlink:href="#aD"/><use transform="matrix(0.04938271604938272,0,0,0.04938271604938272,10.814814814814815,0)" xlink:href="#aI"/><use transform="matrix(0.04938271604938272,0,0,0.04938271604938272,20.69135802469136,0)" xlink:href="#aF"/><use transform="matrix(0.04938271604938272,0,0,0.04938271604938272,30.567901234567906,0)" xlink:href="#aM"/></g><path fill="#333" d="M165-50V0h-47v-50H5v-38l105-160h55v161h33v37h-33zm-47-37l2-116L46-87h72" id="aN"/><g id="M"><use transform="matrix(0.04938271604938272,0,0,0.04938271604938272,0,0)" xlink:href="#aD"/><use transform="matrix(0.04938271604938272,0,0,0.04938271604938272,10.814814814814815,0)" xlink:href="#aE"/><use transform="matrix(0.04938271604938272,0,0,0.04938271604938272,20.69135802469136,0)" xlink:href="#aF"/><use transform="matrix(0.04938271604938272,0,0,0.04938271604938272,30.567901234567906,0)" xlink:href="#aN"/><use transform="matrix(0.04938271604938272,0,0,0.04938271604938272,40.44444444444445,0)" xlink:href="#aH"/></g><g id="N"><use transform="matrix(0.04938271604938272,0,0,0.04938271604938272,0,0)" xlink:href="#aD"/><use transform="matrix(0.04938271604938272,0,0,0.04938271604938272,10.814814814814815,0)" xlink:href="#aI"/><use transform="matrix(0.04938271604938272,0,0,0.04938271604938272,20.69135802469136,0)" xlink:href="#aF"/><use transform="matrix(0.04938271604938272,0,0,0.04938271604938272,30.567901234567906,0)" xlink:href="#aN"/></g></defs></g></svg>