<svg xmlns="http://www.w3.org/2000/svg" xmlns:xlink="http://www.w3.org/1999/xlink" xmlns:lucid="lucid" width="737.73" height="122.67"><g transform="translate(166.9040748829973 -613.7899042627806)" lucid:page-tab-id="8dI._S0hVxfN"><path d="M-144.5 652.46h128v43.33h-128z" stroke="#5e5e5e" stroke-width="2" fill-opacity="0"/><use xlink:href="#a" transform="matrix(1,0,0,1,-142.3207415496639,654.6232375961142) translate(39.808641975308646 25.09027777777778)"/><path d="M-16.5 652.46h220v43.33h-220z" stroke="#5e5e5e" stroke-width="2" fill-opacity="0"/><use xlink:href="#b" transform="matrix(1,0,0,1,-14.320741549663888,654.6232375961142) translate(61.08641975308643 25.090277777777775)"/><path d="M203.5 652.46h344v43.33h-344z" stroke="#5e5e5e" stroke-width="2" fill-opacity="0"/><use xlink:href="#c" transform="matrix(1,0,0,1,205.6792584503361,654.6232375961142) translate(125.61728395061728 25.09027777777778)"/><path d="M-97.38 714.96h-31.14v-1h31.14zm64.67 0h-31.15v-1h31.15z" stroke="#5e5e5e" stroke-width=".05" fill="#5e5e5e"/><path d="M-129.02 719.1l-14.27-4.64 14.28-4.64z" fill="#fff"/><path d="M-128.52 719.78l-16.38-5.32 16.38-5.33zm-13.15-5.32l12.15 3.94v-7.9z" stroke="#5e5e5e" stroke-width=".05" fill="#5e5e5e"/><path d="M-17.94 714.46l-14.26 4.63v-9.28z" fill="#fff"/><path d="M-16.32 714.46l-16.38 5.32v-10.65zm-15.38 3.94l12.14-3.94-12.14-3.95z" stroke="#5e5e5e" stroke-width=".05" fill="#5e5e5e"/><use xlink:href="#d" transform="matrix(1,0,0,1,-97.37784031509607,703.7899042627807) translate(0 14.222222222222223)"/><use xlink:href="#e" transform="matrix(1,0,0,1,-97.37784031509607,703.7899042627807) translate(14.814814814814817 14.222222222222223)"/><path d="M72.22 714.96H.06v-1h72.16zm114.57 0h-72.16v-1h72.15z" stroke="#5e5e5e" stroke-width=".05" fill="#5e5e5e"/><path d="M-.44 719.1l-14.26-4.64 14.26-4.64z" fill="#fff"/><path d="M.06 719.78l-16.38-5.32 16.38-5.33zm-13.15-5.32l12.16 3.94v-7.9z" stroke="#5e5e5e" stroke-width=".05" fill="#5e5e5e"/><path d="M201.56 714.46l-14.27 4.63v-9.28z" fill="#fff"/><path d="M203.18 714.46l-16.4 5.32v-10.65zm-15.4 3.94l12.16-3.94-12.15-3.95z" stroke="#5e5e5e" stroke-width=".05" fill="#5e5e5e"/><use xlink:href="#f" transform="matrix(1,0,0,1,72.21938190712686,703.789904262781) translate(0 14.222222222222223)"/><use xlink:href="#g" transform="matrix(1,0,0,1,72.21938190712686,703.789904262781) translate(14.814814814814817 14.222222222222223)"/><path d="M349.44 714.96H219.67v-1h129.77zm182.06 0H401.74v-1H531.5z" stroke="#5e5e5e" stroke-width=".05" fill="#5e5e5e"/><path d="M219.17 719.1l-14.27-4.64 14.27-4.64z" fill="#fff"/><path d="M219.67 719.78l-16.38-5.32 16.37-5.33zm-13.15-5.32l12.15 3.94v-7.9z" stroke="#5e5e5e" stroke-width=".05" fill="#5e5e5e"/><path d="M546.27 714.46L532 719.1v-9.28z" fill="#fff"/><path d="M547.9 714.46l-16.4 5.32v-10.65zm-15.4 3.94l12.15-3.94-12.15-3.95z" stroke="#5e5e5e" stroke-width=".05" fill="#5e5e5e"/><use xlink:href="#h" transform="matrix(1,0,0,1,349.43880282921106,703.7899042627805) translate(0 14.222222222222223)"/><use xlink:href="#g" transform="matrix(1,0,0,1,349.43880282921106,703.7899042627805) translate(24.69135802469136 14.222222222222223)"/><path d="M176.02 636.3H-128.1v-1h304.12zm356.42 0H228.32v-1h304.12z" stroke="#5e5e5e" stroke-width=".05" fill="#5e5e5e"/><path d="M-128.6 640.42l-14.27-4.63 14.27-4.64z" fill="#fff"/><path d="M-128.1 641.1l-16.4-5.3 16.4-5.33zm-13.15-5.3l12.15 3.94v-7.9z" stroke="#5e5e5e" stroke-width=".05" fill="#5e5e5e"/><path d="M547.2 635.8l-14.26 4.63v-9.27z" fill="#fff"/><path d="M548.82 635.8l-16.38 5.3v-10.63zm-15.38 3.94l12.15-3.95-12.16-3.96z" stroke="#5e5e5e" stroke-width=".05" fill="#5e5e5e"/><g><use xlink:href="#i" transform="matrix(1,0,0,1,176.02012805581762,625.123237596114) translate(0 14.222222222222223)"/><use xlink:href="#g" transform="matrix(1,0,0,1,176.02012805581762,625.123237596114) translate(24.69135802469136 14.222222222222223)"/></g><defs><path d="M185-189c-5-48-123-54-124 2 14 75 158 14 163 119 3 78-121 87-175 55-17-10-28-26-33-46l33-7c5 56 141 63 141-1 0-78-155-14-162-118-5-82 145-84 179-34 5 7 8 16 11 25" id="j"/><path d="M24-231v-30h32v30H24zM24 0v-190h32V0H24" id="k"/><path d="M177-190C167-65 218 103 67 71c-23-6-38-20-44-43l32-5c15 47 100 32 89-28v-30C133-14 115 1 83 1 29 1 15-40 15-95c0-56 16-97 71-98 29-1 48 16 59 35 1-10 0-23 2-32h30zM94-22c36 0 50-32 50-73 0-42-14-75-50-75-39 0-46 34-46 75s6 73 46 73" id="l"/><path d="M117-194c89-4 53 116 60 194h-32v-121c0-31-8-49-39-48C34-167 62-67 57 0H25l-1-190h30c1 10-1 24 2 32 11-22 29-35 61-36" id="m"/><g id="a"><use transform="matrix(0.06172839506172839,0,0,0.06172839506172839,0,0)" xlink:href="#j"/><use transform="matrix(0.06172839506172839,0,0,0.06172839506172839,14.814814814814813,0)" xlink:href="#k"/><use transform="matrix(0.06172839506172839,0,0,0.06172839506172839,19.691358024691354,0)" xlink:href="#l"/><use transform="matrix(0.06172839506172839,0,0,0.06172839506172839,32.03703703703703,0)" xlink:href="#m"/></g><path d="M30 0v-248h187v28H63v79h144v27H63v87h162V0H30" id="n"/><path d="M141 0L90-78 38 0H4l68-98-65-92h35l48 74 47-74h35l-64 92 68 98h-35" id="o"/><path d="M115-194c55 1 70 41 70 98S169 2 115 4C84 4 66-9 55-30l1 105H24l-1-265h31l2 30c10-21 28-34 59-34zm-8 174c40 0 45-34 45-75s-6-73-45-74c-42 0-51 32-51 76 0 43 10 73 51 73" id="p"/><path d="M100-194c62-1 85 37 85 99 1 63-27 99-86 99S16-35 15-95c0-66 28-99 85-99zM99-20c44 1 53-31 53-75 0-43-8-75-51-75s-53 32-53 75 10 74 51 75" id="q"/><path d="M100-194c63 0 86 42 84 106H49c0 40 14 67 53 68 26 1 43-12 49-29l28 8c-11 28-37 45-77 45C44 4 14-33 15-96c1-61 26-98 85-98zm52 81c6-60-76-77-97-28-3 7-6 17-6 28h103" id="r"/><path d="M59-47c-2 24 18 29 38 22v24C64 9 27 4 27-40v-127H5v-23h24l9-43h21v43h35v23H59v120" id="s"/><g id="b"><use transform="matrix(0.061728395061728385,0,0,0.061728395061728385,0,0)" xlink:href="#n"/><use transform="matrix(0.061728395061728385,0,0,0.061728395061728385,14.814814814814813,0)" xlink:href="#o"/><use transform="matrix(0.061728395061728385,0,0,0.061728395061728385,25.925925925925924,0)" xlink:href="#p"/><use transform="matrix(0.061728395061728385,0,0,0.061728395061728385,38.2716049382716,0)" xlink:href="#q"/><use transform="matrix(0.061728395061728385,0,0,0.061728395061728385,50.61728395061728,0)" xlink:href="#m"/><use transform="matrix(0.061728395061728385,0,0,0.061728395061728385,62.962962962962955,0)" xlink:href="#r"/><use transform="matrix(0.061728395061728385,0,0,0.061728395061728385,75.30864197530863,0)" xlink:href="#m"/><use transform="matrix(0.061728395061728385,0,0,0.061728395061728385,87.6543209876543,0)" xlink:href="#s"/></g><path d="M240 0l2-218c-23 76-54 145-80 218h-23L58-218 59 0H30v-248h44l77 211c21-75 51-140 76-211h43V0h-30" id="t"/><path d="M141-36C126-15 110 5 73 4 37 3 15-17 15-53c-1-64 63-63 125-63 3-35-9-54-41-54-24 1-41 7-42 31l-33-3c5-37 33-52 76-52 45 0 72 20 72 64v82c-1 20 7 32 28 27v20c-31 9-61-2-59-35zM48-53c0 20 12 33 32 33 41-3 63-29 60-74-43 2-92-5-92 41" id="u"/><path d="M135-143c-3-34-86-38-87 0 15 53 115 12 119 90S17 21 10-45l28-5c4 36 97 45 98 0-10-56-113-15-118-90-4-57 82-63 122-42 12 7 21 19 24 35" id="v"/><g id="c"><use transform="matrix(0.06172839506172839,0,0,0.06172839506172839,0,0)" xlink:href="#t"/><use transform="matrix(0.06172839506172839,0,0,0.06172839506172839,18.456790123456788,0)" xlink:href="#u"/><use transform="matrix(0.06172839506172839,0,0,0.06172839506172839,30.80246913580247,0)" xlink:href="#m"/><use transform="matrix(0.06172839506172839,0,0,0.06172839506172839,43.148148148148145,0)" xlink:href="#s"/><use transform="matrix(0.06172839506172839,0,0,0.06172839506172839,49.32098765432099,0)" xlink:href="#k"/><use transform="matrix(0.06172839506172839,0,0,0.06172839506172839,54.19753086419753,0)" xlink:href="#v"/><use transform="matrix(0.06172839506172839,0,0,0.06172839506172839,65.30864197530865,0)" xlink:href="#v"/><use transform="matrix(0.06172839506172839,0,0,0.06172839506172839,76.41975308641976,0)" xlink:href="#u"/></g><path d="M27 0v-27h64v-190l-56 39v-29l58-41h29v221h61V0H27" id="w"/><use transform="matrix(0.04938271604938272,0,0,0.04938271604938272,0,0)" xlink:href="#w" id="d"/><path d="M115-194c53 0 69 39 70 98 0 66-23 100-70 100C84 3 66-7 56-30L54 0H23l1-261h32v101c10-23 28-34 59-34zm-8 174c40 0 45-34 45-75 0-40-5-75-45-74-42 0-51 32-51 76 0 43 10 73 51 73" id="x"/><g id="e"><use transform="matrix(0.04938271604938272,0,0,0.04938271604938272,0,0)" xlink:href="#x"/><use transform="matrix(0.04938271604938272,0,0,0.04938271604938272,9.876543209876544,0)" xlink:href="#k"/><use transform="matrix(0.04938271604938272,0,0,0.04938271604938272,13.777777777777779,0)" xlink:href="#s"/></g><path d="M134-131c28 9 52 24 51 62-1 50-34 73-85 73S17-19 16-69c0-36 21-54 49-61-75-25-45-126 34-121 46 3 78 18 79 63 0 33-17 51-44 57zm-34-11c31 1 46-15 46-44 0-28-17-43-47-42-29 0-46 13-45 42 1 28 16 44 46 44zm1 122c35 0 51-18 51-52 0-30-18-46-53-46-33 0-51 17-51 47 0 34 19 51 53 51" id="y"/><use transform="matrix(0.04938271604938272,0,0,0.04938271604938272,0,0)" xlink:href="#y" id="f"/><g id="g"><use transform="matrix(0.04938271604938272,0,0,0.04938271604938272,0,0)" xlink:href="#x"/><use transform="matrix(0.04938271604938272,0,0,0.04938271604938272,9.876543209876544,0)" xlink:href="#k"/><use transform="matrix(0.04938271604938272,0,0,0.04938271604938272,13.777777777777779,0)" xlink:href="#s"/><use transform="matrix(0.04938271604938272,0,0,0.04938271604938272,18.71604938271605,0)" xlink:href="#v"/></g><path d="M101-251c82-7 93 87 43 132L82-64C71-53 59-42 53-27h129V0H18c2-99 128-94 128-182 0-28-16-43-45-43s-46 15-49 41l-32-3c6-41 34-60 81-64" id="z"/><path d="M126-127c33 6 58 20 58 59 0 88-139 92-164 29-3-8-5-16-6-25l32-3c6 27 21 44 54 44 32 0 52-15 52-46 0-38-36-46-79-43v-28c39 1 72-4 72-42 0-27-17-43-46-43-28 0-47 15-49 41l-32-3c6-42 35-63 81-64 48-1 79 21 79 65 0 36-21 52-52 59" id="A"/><g id="h"><use transform="matrix(0.04938271604938272,0,0,0.04938271604938272,0,0)" xlink:href="#z"/><use transform="matrix(0.04938271604938272,0,0,0.04938271604938272,9.876543209876544,0)" xlink:href="#A"/></g><g id="i"><use transform="matrix(0.04938271604938272,0,0,0.04938271604938272,0,0)" xlink:href="#A"/><use transform="matrix(0.04938271604938272,0,0,0.04938271604938272,9.876543209876544,0)" xlink:href="#z"/></g></defs></g></svg>