<svg xmlns="http://www.w3.org/2000/svg" xmlns:xlink="http://www.w3.org/1999/xlink" xmlns:lucid="lucid" width="1579" height="694"><g transform="translate(-255 -603)" lucid:page-tab-id="0_0"><path d="M1046.65 873h-240.1v162.08h-8V865h248.1zm769.35 0h-495.65v-8H1816z" stroke="#ffdda6" stroke-width=".05" fill="#ffdda6"/><path d="M1820 873h-4.1v-8h4.1z" stroke="#ffdda6" stroke-width=".05" fill="#ffdda6"/><path d="M802.54 1053.34l-4.64-14.26h9.27z" fill="#ffdda6"/><path d="M802.54 1066.3l-10.14-31.22h20.28z" stroke="#ffdda6" stroke-width=".05" fill="#ffdda6"/><use xlink:href="#a" transform="matrix(1,0,0,1,1184.546227778565,849) translate(0 26.66666666666667)"/><path d="M1046.65 870h-241.1v169.32h-6V864h247.1zm770.35 0h-496.65v-6H1817z" stroke="#ffdda6" stroke-width=".05" fill="#ffdda6"/><path d="M1820 870h-3.08v-6h3.08z" stroke="#ffdda6" stroke-width=".05" fill="#ffdda6"/><path d="M802.54 1056.58l-4.64-14.26h9.27z" fill="#ffdda6"/><path d="M802.54 1066.3l-8.77-26.98h17.53zm-.5-20.98l.5 1.55.5-1.55z" stroke="#ffdda6" stroke-width=".05" fill="#ffdda6"/><use xlink:href="#b" transform="matrix(1,0,0,1,1046.6481481481483,847) translate(0 26.66666666666667)"/><use xlink:href="#c" transform="matrix(1,0,0,1,1046.6481481481483,847) translate(27.77777777777778 26.66666666666667)"/><use xlink:href="#d" transform="matrix(1,0,0,1,1046.6481481481483,847) translate(122.03703703703704 26.66666666666667)"/><use xlink:href="#e" transform="matrix(1,0,0,1,1046.6481481481483,847) translate(157.12962962962962 26.66666666666667)"/><path d="M1044.92 923.5h-42.42v115.82h-6V917.5h48.42zm772.08 0h-531.7v-6H1817z" stroke="#c3f7c8" stroke-width=".05" fill="#c3f7c8"/><path d="M1820 923.5h-3.08v-6h3.08z" stroke="#c3f7c8" stroke-width=".05" fill="#c3f7c8"/><path d="M999.5 1056.58l-4.63-14.26h9.26z" fill="#c3f7c8"/><path d="M999.5 1066.3l-8.76-26.98h17.52zm-.5-20.98l.5 1.55.5-1.55z" stroke="#c3f7c8" stroke-width=".05" fill="#c3f7c8"/><use xlink:href="#b" transform="matrix(1,0,0,1,1044.9202726072208,900.5) translate(0 26.66666666666667)"/><use xlink:href="#f" transform="matrix(1,0,0,1,1044.9202726072208,900.5) translate(27.77777777777778 26.66666666666667)"/><use xlink:href="#d" transform="matrix(1,0,0,1,1044.9202726072208,900.5) translate(149.90740740740742 26.66666666666667)"/><use xlink:href="#g" transform="matrix(1,0,0,1,1044.9202726072208,900.5) translate(185 26.66666666666667)"/><path d="M265.23 1067.45H420v109.34H265.23z" stroke="#3a414a" stroke-width="2" fill="#fff"/><use xlink:href="#h" transform="matrix(1,0,0,1,277.2264786396965,1079.4552590266874) translate(26.703703703703724 29.354166666666657)"/><use xlink:href="#i" transform="matrix(1,0,0,1,277.2264786396965,1079.4552590266874) translate(35.91666666666667 69.35416666666664)"/><path d="M420 1067.45h160v109.34H420z" stroke="#3a414a" stroke-width="2" fill="#fff"/><use xlink:href="#j" transform="matrix(1,0,0,1,432,1079.4552590266874) translate(23.175925925925938 29.354166666666657)"/><use xlink:href="#k" transform="matrix(1,0,0,1,432,1079.4552590266874) translate(37.01851851851853 69.35416666666664)"/><path d="M580 1067.45h220v109.17H580z" stroke="#3a414a" stroke-width="2" fill="#ffdda6"/><use xlink:href="#l" transform="matrix(1,0,0,1,592,1079.4552590266871) translate(24.064814814814838 29.354166666666657)"/><use xlink:href="#m" transform="matrix(1,0,0,1,592,1079.4552590266871) translate(51.84259259259261 29.354166666666657)"/><use xlink:href="#n" transform="matrix(1,0,0,1,592,1079.4552590266871) translate(146.10185185185185 29.354166666666657)"/><use xlink:href="#o" transform="matrix(1,0,0,1,592,1079.4552590266871) translate(3.6018518518519045 69.35416666666664)"/><use xlink:href="#p" transform="matrix(1,0,0,1,592,1079.4552590266871) translate(75.82407407407409 69.35416666666664)"/><path d="M800 1067.3h200v109.32H800z" stroke="#3a414a" stroke-width="2" fill="#c3f7c8"/><use xlink:href="#l" transform="matrix(1,0,0,1,812,1079.2885923600206) translate(0.12962962962967595 29.354166666666657)"/><use xlink:href="#q" transform="matrix(1,0,0,1,812,1079.2885923600206) translate(27.907407407407444 29.354166666666657)"/><use xlink:href="#n" transform="matrix(1,0,0,1,812,1079.2885923600206) translate(150.037037037037 29.354166666666657)"/><use xlink:href="#o" transform="matrix(1,0,0,1,812,1079.2885923600206) translate(24.20370370370373 69.35416666666664)"/><use xlink:href="#r" transform="matrix(1,0,0,1,812,1079.2885923600206) translate(96.42592592592592 69.35416666666664)"/><path d="M1000 1067.3h160v109.32h-160z" stroke="#3a414a" stroke-width="2" fill="#fff"/><use xlink:href="#l" transform="matrix(1,0,0,1,1012,1079.2885923600206) translate(6.981481481481509 29.354166666666657)"/><use xlink:href="#s" transform="matrix(1,0,0,1,1012,1079.2885923600206) translate(34.75925925925928 29.354166666666657)"/><use xlink:href="#t" transform="matrix(1,0,0,1,1012,1079.2885923600206) translate(6.009259259259281 69.35416666666664)"/><use xlink:href="#u" transform="matrix(1,0,0,1,1012,1079.2885923600206) translate(41.10185185185186 69.35416666666664)"/><path d="M1160 1067.3h205.78v109.32H1160z" stroke="#3a414a" stroke-width="2" fill="#fff"/><use xlink:href="#v" transform="matrix(1,0,0,1,1172,1079.2885923600206) translate(64.28703703703705 29.354166666666657)"/><use xlink:href="#w" transform="matrix(1,0,0,1,1172,1079.2885923600206) translate(13.314814814814852 69.35416666666664)"/><path d="M283.73 1200H561.5" stroke="#3a414a" stroke-width="2" fill="none"/><path d="M268.46 1200l14.27-4.63v9.27zM576.76 1200l-14.26 4.63v-9.27z" stroke="#3a414a" stroke-width="2" fill="#3a414a"/><use xlink:href="#x" transform="matrix(1,0,0,1,308.24286894947795,1204) translate(0 28.444444444444436)"/><use xlink:href="#y" transform="matrix(1,0,0,1,308.24286894947795,1204) translate(112.39506172839502 28.444444444444436)"/><path d="M598.5 1200h183" stroke="#3a414a" stroke-width="2" fill="none"/><path d="M583.24 1200l14.26-4.63v9.27zM796.76 1200l-14.26 4.63v-9.27z" stroke="#3a414a" stroke-width="2" fill="#3a414a"/><use xlink:href="#z" transform="matrix(1,0,0,1,625.8488518518518,1203.9999999999998) translate(0.0049999999999954525 28.444444444444436)"/><use xlink:href="#A" transform="matrix(1,0,0,1,625.8488518518518,1203.9999999999998) translate(5.980308641975313 71.11111111111109)"/><path d="M818.5 1200h163" stroke="#3a414a" stroke-width="2" fill="none"/><path d="M803.24 1200l14.26-4.63v9.27zM996.76 1200l-14.26 4.63v-9.27z" stroke="#3a414a" stroke-width="2" fill="#3a414a"/><use xlink:href="#B" transform="matrix(1,0,0,1,841.8236604938272,1203.9999999999998) translate(21.73339506172838 28.444444444444436)"/><use xlink:href="#A" transform="matrix(1,0,0,1,841.8236604938272,1203.9999999999998) translate(0.005000000000002558 71.11111111111109)"/><path d="M1018.5 1200h743" stroke="#3a414a" stroke-width="2" fill="none"/><path d="M1003.23 1200l14.27-4.63v9.27zM1776.76 1200l-14.26 4.63v-9.27z" stroke="#3a414a" stroke-width="2" fill="#3a414a"/><use xlink:href="#C" transform="matrix(1,0,0,1,1338.6873580246915,1204) translate(0 28.444444444444436)"/><path d="M1784.25 1175.88h-172.48L1698 1058.7z" stroke="#3a414a" stroke-width="2" fill="#fff"/><path d="M1568.65 1099.64h258.72v61.85h-258.72z" stroke="#000" stroke-opacity="0" stroke-width="2" fill="#fff" fill-opacity="0"/><use xlink:href="#D" transform="matrix(1,0,0,1,1573.654062907381,1104.6451557795679) translate(88.29012345679014 24.88888888888888)"/><use xlink:href="#E" transform="matrix(1,0,0,1,1573.654062907381,1104.6451557795679) translate(85.65432098765434 62.22222222222219)"/><path d="M1458.03 1118.7h237.16v81.38h-237.17z" stroke="#000" stroke-opacity="0" stroke-width="2" fill="#fff" fill-opacity="0"/><use xlink:href="#F" transform="matrix(1,0,0,1,1463.0306007854485,1123.7095199867892) translate(87.76543209876544 43.722222222222214)"/><use xlink:href="#G" transform="matrix(1,0,0,1,1463.0306007854485,1123.7095199867892) translate(108.75308641975309 43.722222222222214)"/><use xlink:href="#H" transform="matrix(1,0,0,1,1463.0306007854485,1123.7095199867892) translate(129.74074074074073 43.722222222222214)"/><g><path d="M1541.13 1175.88h-172.48l86.24-117.17z" stroke="#3a414a" stroke-width="2" fill="#fff"/></g><path d="M1324.85 1099.64h258.7v61.85h-258.7z" stroke="#000" stroke-opacity="0" stroke-width="2" fill="#fff" fill-opacity="0"/><g><use xlink:href="#D" transform="matrix(1,0,0,1,1329.8449900639093,1104.6451557795679) translate(88.29012345679014 24.88888888888888)"/><use xlink:href="#E" transform="matrix(1,0,0,1,1329.8449900639093,1104.6451557795679) translate(85.65432098765434 62.22222222222219)"/></g><g fill="none"><path d="M1408.44 1058.7v-33.3h336.33v33.3z"/><path d="M1744.77 1058.7c0-5.5-4.47-10-10-10H1586.6c-5.5 0-10-4.47-10-10 0 5.53-4.47 10-10 10h-148.16c-5.52 0-10 4.5-10 10" stroke="#3a414a" stroke-width="2"/></g><path d="M1436.47 958.7h280.27v60.22h-280.27z" stroke="#000" stroke-opacity="0" stroke-width="2" fill="#fff" fill-opacity="0"/><g><use xlink:href="#I" transform="matrix(1,0,0,1,1441.4710544276222,963.7095199867891) translate(51.69753086419756 28.444444444444436)"/><use xlink:href="#J" transform="matrix(1,0,0,1,1441.4710544276222,963.7095199867891) translate(81.32716049382718 28.444444444444436)"/><use xlink:href="#K" transform="matrix(1,0,0,1,1441.4710544276222,963.7095199867891) translate(191.74691358024688 28.444444444444436)"/><use xlink:href="#L" transform="matrix(1,0,0,1,1441.4710544276222,963.7095199867891) translate(88.09259259259261 71.11111111111109)"/></g><path d="M1823 1178.04h-20v-6h14v-354h-623.63v-6H1823zm-773.7-360H586.5v221.44h-6V812.04h468.8z" stroke="#4c535d" stroke-width=".05" fill="#4c535d"/><path d="M1803.08 1178.04H1800v-6h3.08z" stroke="#4c535d" stroke-width=".05" fill="#4c535d"/><path d="M583.5 1056.75l-4.63-14.27h9.26z" fill="#4c535d"/><path d="M583.5 1066.45l-8.76-26.97h17.52zm-.5-20.97l.5 1.56.5-1.56z" stroke="#4c535d" stroke-width=".05" fill="#4c535d"/><g><use xlink:href="#M" transform="matrix(1,0,0,1,1049.2962962962965,795.0383547800967) translate(0 26.66666666666667)"/><use xlink:href="#N" transform="matrix(1,0,0,1,1049.2962962962965,795.0383547800967) translate(75.64814814814815 26.66666666666667)"/></g><path d="M347.83 661H717.2v90.28H347.83z" stroke="#000" stroke-opacity="0" stroke-width="2" fill="#fff" fill-opacity="0"/><g><use xlink:href="#O" transform="matrix(1,0,0,1,352.8326618281334,666) translate(0 46.91666666666666)"/><use xlink:href="#P" transform="matrix(1,0,0,1,352.8326618281334,666) translate(18.518518518518512 46.91666666666666)"/><use xlink:href="#Q" transform="matrix(1,0,0,1,352.8326618281334,666) translate(118.42592592592587 46.91666666666666)"/><use xlink:href="#R" transform="matrix(1,0,0,1,352.8326618281334,666) translate(144.25925925925918 46.91666666666666)"/></g><path d="M347.62 596h524.6v90.28h-524.6z" stroke="#000" stroke-opacity="0" stroke-width="2" fill="#fff" fill-opacity="0"/><g><use xlink:href="#O" transform="matrix(1,0,0,1,352.61683532959114,601) translate(0 46.91666666666666)"/><use xlink:href="#P" transform="matrix(1,0,0,1,352.61683532959114,601) translate(18.518518518518512 46.91666666666666)"/><use xlink:href="#Q" transform="matrix(1,0,0,1,352.61683532959114,601) translate(118.42592592592587 46.91666666666666)"/><use xlink:href="#S" transform="matrix(1,0,0,1,352.61683532959114,601) translate(144.25925925925918 46.91666666666666)"/><use xlink:href="#T" transform="matrix(1,0,0,1,352.61683532959114,601) translate(273.7962962962962 46.91666666666666)"/><use xlink:href="#R" transform="matrix(1,0,0,1,352.61683532959114,601) translate(312.5925925925925 46.91666666666666)"/></g><path d="M272 616h62.95v43.7H272z" stroke="#3a414a" stroke-width="2" fill="#c3f7c8"/><path d="M272.18 680.53h62.95v43.7h-62.95z" stroke="#3a414a" stroke-width="2" fill="#ffdda6"/><path d="M332.5 751.25l.46.1.44.2.4.24.36.3.3.35.25.4.2.44.1.45.04.4v25.93l-.04.4-.1.45-.2.44-.23.4-.3.36-.37.3-.4.25-.44.18-.45.1-.4.04h-37.06v-4h36v-23.78H318.2v-4h13.9zm-40.96 3.97H282v5.93h-4v-7l.03-.4.1-.46.2-.44.24-.4.3-.37.36-.3.4-.26.44-.18.46-.1.4-.04h10.6z" stroke="#3a414a" stroke-width=".05" fill="#3a414a"/><path d="M284.63 763.15L280 777.42l-4.64-14.27z" fill="#3a414a"/><path d="M287.4 761.15L280 783.9l-7.4-22.75zm-7.4 9.8l1.88-5.8h-3.76zM295.1 783h-2.06v-4h2.05z" stroke="#3a414a" stroke-width=".05" fill="#3a414a"/><g><use xlink:href="#U" transform="matrix(1,0,0,1,291.539302950896,729.2200402527327) translate(0 31.99999999999999)"/></g><path d="M347.83 720h836.8v90.28h-836.8z" stroke="#000" stroke-opacity="0" stroke-width="6" fill="#fff" fill-opacity="0"/><g><use xlink:href="#O" transform="matrix(1,0,0,1,352.83266182813344,725) translate(0 46.91666666666666)"/><use xlink:href="#V" transform="matrix(1,0,0,1,352.83266182813344,725) translate(18.518518518518512 46.91666666666666)"/><use xlink:href="#W" transform="matrix(1,0,0,1,352.83266182813344,725) translate(172.12962962962956 46.91666666666666)"/><use xlink:href="#X" transform="matrix(1,0,0,1,352.83266182813344,725) translate(203.61111111111103 46.91666666666666)"/><use xlink:href="#T" transform="matrix(1,0,0,1,352.83266182813344,725) translate(292.31481481481467 46.91666666666666)"/><use xlink:href="#Y" transform="matrix(1,0,0,1,352.83266182813344,725) translate(331.111111111111 46.91666666666666)"/><use xlink:href="#Z" transform="matrix(1,0,0,1,352.83266182813344,725) translate(401.29629629629613 46.91666666666666)"/></g><defs><path d="M158-156l-14 65h45v19h-49L124 0h-19l15-72H56L41 0H22l15-72H2v-19h39l14-65H11v-19h48l15-71h20l-16 71h64l16-71h19l-16 71h37v19h-40zm-83 0L61-91h63l14-65H75" id="aa"/><use transform="matrix(0.0925925925925926,0,0,0.0925925925925926,0,0)" xlink:href="#aa" id="b"/><path d="M233-177c-1 41-23 64-60 70L243 0h-38l-65-103H63V0H30v-248c88 3 205-21 203 71zM63-129c60-2 137 13 137-47 0-61-80-42-137-45v92" id="ab"/><path d="M24-231v-30h32v30H24zM24 0v-190h32V0H24" id="ac"/><path d="M117-194c89-4 53 116 60 194h-32v-121c0-31-8-49-39-48C34-167 62-67 57 0H25l-1-190h30c1 10-1 24 2 32 11-22 29-35 61-36" id="ad"/><path d="M177-190C167-65 218 103 67 71c-23-6-38-20-44-43l32-5c15 47 100 32 89-28v-30C133-14 115 1 83 1 29 1 15-40 15-95c0-56 16-97 71-98 29-1 48 16 59 35 1-10 0-23 2-32h30zM94-22c36 0 50-32 50-73 0-42-14-75-50-75-39 0-46 34-46 75s6 73 46 73" id="ae"/><path d="M135-143c-3-34-86-38-87 0 15 53 115 12 119 90S17 21 10-45l28-5c4 36 97 45 98 0-10-56-113-15-118-90-4-57 82-63 122-42 12 7 21 19 24 35" id="af"/><g id="c"><use transform="matrix(0.0925925925925926,0,0,0.0925925925925926,0,0)" xlink:href="#ab"/><use transform="matrix(0.0925925925925926,0,0,0.0925925925925926,23.981481481481485,0)" xlink:href="#ac"/><use transform="matrix(0.0925925925925926,0,0,0.0925925925925926,31.296296296296298,0)" xlink:href="#ad"/><use transform="matrix(0.0925925925925926,0,0,0.0925925925925926,49.81481481481482,0)" xlink:href="#ae"/><use transform="matrix(0.0925925925925926,0,0,0.0925925925925926,68.33333333333334,0)" xlink:href="#af"/></g><g id="d"><use transform="matrix(0.0925925925925926,0,0,0.0925925925925926,0,0)" xlink:href="#ac"/><use transform="matrix(0.0925925925925926,0,0,0.0925925925925926,7.314814814814816,0)" xlink:href="#ad"/></g><path d="M115-194c55 1 70 41 70 98S169 2 115 4C84 4 66-9 55-30l1 105H24l-1-265h31l2 30c10-21 28-34 59-34zm-8 174c40 0 45-34 45-75s-6-73-45-74c-42 0-51 32-51 76 0 43 10 73 51 73" id="ag"/><path d="M100-194c62-1 85 37 85 99 1 63-27 99-86 99S16-35 15-95c0-66 28-99 85-99zM99-20c44 1 53-31 53-75 0-43-8-75-51-75s-53 32-53 75 10 74 51 75" id="ah"/><path d="M24 0v-261h32V0H24" id="ai"/><path d="M179-190L93 31C79 59 56 82 12 73V49c39 6 53-20 64-50L1-190h34L92-34l54-156h33" id="aj"/><g id="e"><use transform="matrix(0.0925925925925926,0,0,0.0925925925925926,0,0)" xlink:href="#ag"/><use transform="matrix(0.0925925925925926,0,0,0.0925925925925926,18.51851851851852,0)" xlink:href="#ah"/><use transform="matrix(0.0925925925925926,0,0,0.0925925925925926,37.03703703703704,0)" xlink:href="#ai"/><use transform="matrix(0.0925925925925926,0,0,0.0925925925925926,44.351851851851855,0)" xlink:href="#aj"/><use transform="matrix(0.0925925925925926,0,0,0.0925925925925926,61.018518518518526,0)" xlink:href="#ae"/><use transform="matrix(0.0925925925925926,0,0,0.0925925925925926,79.53703703703704,0)" xlink:href="#ah"/><use transform="matrix(0.0925925925925926,0,0,0.0925925925925926,98.05555555555557,0)" xlink:href="#ad"/></g><path d="M212-179c-10-28-35-45-73-45-59 0-87 40-87 99 0 60 29 101 89 101 43 0 62-24 78-52l27 14C228-24 195 4 139 4 59 4 22-46 18-125c-6-104 99-153 187-111 19 9 31 26 39 46" id="ak"/><path d="M106-169C34-169 62-67 57 0H25v-261h32l-1 103c12-21 28-36 61-36 89 0 53 116 60 194h-32v-121c2-32-8-49-39-48" id="al"/><path d="M84 4C-5 8 30-112 23-190h32v120c0 31 7 50 39 49 72-2 45-101 50-169h31l1 190h-30c-1-10 1-25-2-33-11 22-28 36-60 37" id="am"/><path d="M143 0L79-87 56-68V0H24v-261h32v163l83-92h37l-77 82L181 0h-38" id="an"/><g id="f"><use transform="matrix(0.0925925925925926,0,0,0.0925925925925926,0,0)" xlink:href="#ak"/><use transform="matrix(0.0925925925925926,0,0,0.0925925925925926,23.981481481481485,0)" xlink:href="#al"/><use transform="matrix(0.0925925925925926,0,0,0.0925925925925926,42.5,0)" xlink:href="#am"/><use transform="matrix(0.0925925925925926,0,0,0.0925925925925926,61.018518518518526,0)" xlink:href="#ad"/><use transform="matrix(0.0925925925925926,0,0,0.0925925925925926,79.53703703703704,0)" xlink:href="#an"/><use transform="matrix(0.0925925925925926,0,0,0.0925925925925926,96.20370370370371,0)" xlink:href="#af"/></g><path d="M114-163C36-179 61-72 57 0H25l-1-190h30c1 12-1 29 2 39 6-27 23-49 58-41v29" id="ao"/><g id="g"><use transform="matrix(0.0925925925925926,0,0,0.0925925925925926,0,0)" xlink:href="#ao"/><use transform="matrix(0.0925925925925926,0,0,0.0925925925925926,11.018518518518519,0)" xlink:href="#ac"/><use transform="matrix(0.0925925925925926,0,0,0.0925925925925926,18.333333333333336,0)" xlink:href="#ad"/><use transform="matrix(0.0925925925925926,0,0,0.0925925925925926,36.851851851851855,0)" xlink:href="#ae"/></g><path d="M30-248c118-7 216 8 213 122C240-48 200 0 122 0H30v-248zM63-27c89 8 146-16 146-99s-60-101-146-95v194" id="ap"/><path d="M100-194c63 0 86 42 84 106H49c0 40 14 67 53 68 26 1 43-12 49-29l28 8c-11 28-37 45-77 45C44 4 14-33 15-96c1-61 26-98 85-98zm52 81c6-60-76-77-97-28-3 7-6 17-6 28h103" id="aq"/><path d="M59-47c-2 24 18 29 38 22v24C64 9 27 4 27-40v-127H5v-23h24l9-43h21v43h35v23H59v120" id="ar"/><path d="M141-36C126-15 110 5 73 4 37 3 15-17 15-53c-1-64 63-63 125-63 3-35-9-54-41-54-24 1-41 7-42 31l-33-3c5-37 33-52 76-52 45 0 72 20 72 64v82c-1 20 7 32 28 27v20c-31 9-61-2-59-35zM48-53c0 20 12 33 32 33 41-3 63-29 60-74-43 2-92-5-92 41" id="as"/><g id="h"><use transform="matrix(0.09259259259259256,0,0,0.09259259259259256,0,0)" xlink:href="#ap"/><use transform="matrix(0.09259259259259256,0,0,0.09259259259259256,23.981481481481474,0)" xlink:href="#aq"/><use transform="matrix(0.09259259259259256,0,0,0.09259259259259256,42.499999999999986,0)" xlink:href="#ai"/><use transform="matrix(0.09259259259259256,0,0,0.09259259259259256,49.814814814814795,0)" xlink:href="#ar"/><use transform="matrix(0.09259259259259256,0,0,0.09259259259259256,59.07407407407404,0)" xlink:href="#as"/></g><path d="M9 0v-24l116-142H16v-24h144v24L44-24h123V0H9" id="at"/><g id="i"><use transform="matrix(0.09259259259259256,0,0,0.09259259259259256,0,0)" xlink:href="#af"/><use transform="matrix(0.09259259259259256,0,0,0.09259259259259256,16.66666666666666,0)" xlink:href="#ac"/><use transform="matrix(0.09259259259259256,0,0,0.09259259259259256,23.981481481481474,0)" xlink:href="#at"/><use transform="matrix(0.09259259259259256,0,0,0.09259259259259256,40.64814814814814,0)" xlink:href="#aq"/></g><path d="M143 4C61 4 22-44 18-125c-5-107 100-154 193-111 17 8 29 25 37 43l-32 9c-13-25-37-40-76-40-61 0-88 39-88 99 0 61 29 100 91 101 35 0 62-11 79-27v-45h-74v-28h105v86C228-13 192 4 143 4" id="au"/><path d="M210-169c-67 3-38 105-44 169h-31v-121c0-29-5-50-35-48C34-165 62-65 56 0H25l-1-190h30c1 10-1 24 2 32 10-44 99-50 107 0 11-21 27-35 58-36 85-2 47 119 55 194h-31v-121c0-29-5-49-35-48" id="av"/><g id="j"><use transform="matrix(0.09259259259259256,0,0,0.09259259259259256,0,0)" xlink:href="#au"/><use transform="matrix(0.09259259259259256,0,0,0.09259259259259256,25.925925925925917,0)" xlink:href="#aq"/><use transform="matrix(0.09259259259259256,0,0,0.09259259259259256,44.44444444444443,0)" xlink:href="#ah"/><use transform="matrix(0.09259259259259256,0,0,0.09259259259259256,62.96296296296294,0)" xlink:href="#av"/></g><g id="k"><use transform="matrix(0.09259259259259256,0,0,0.09259259259259256,0,0)" xlink:href="#ar"/><use transform="matrix(0.09259259259259256,0,0,0.09259259259259256,9.259259259259256,0)" xlink:href="#aj"/><use transform="matrix(0.09259259259259256,0,0,0.09259259259259256,25.925925925925917,0)" xlink:href="#ag"/><use transform="matrix(0.09259259259259256,0,0,0.09259259259259256,44.44444444444443,0)" xlink:href="#aq"/></g><use transform="matrix(0.09259259259259256,0,0,0.09259259259259256,0,0)" xlink:href="#aa" id="l"/><g id="m"><use transform="matrix(0.09259259259259256,0,0,0.09259259259259256,0,0)" xlink:href="#ab"/><use transform="matrix(0.09259259259259256,0,0,0.09259259259259256,23.981481481481474,0)" xlink:href="#ac"/><use transform="matrix(0.09259259259259256,0,0,0.09259259259259256,31.296296296296283,0)" xlink:href="#ad"/><use transform="matrix(0.09259259259259256,0,0,0.09259259259259256,49.814814814814795,0)" xlink:href="#ae"/><use transform="matrix(0.09259259259259256,0,0,0.09259259259259256,68.33333333333331,0)" xlink:href="#af"/></g><g id="n"><use transform="matrix(0.09259259259259256,0,0,0.09259259259259256,0,0)" xlink:href="#ac"/><use transform="matrix(0.09259259259259256,0,0,0.09259259259259256,7.314814814814812,0)" xlink:href="#ad"/></g><path d="M141 0L90-78 38 0H4l68-98-65-92h35l48 74 47-74h35l-64 92 68 98h-35" id="aw"/><g id="o"><use transform="matrix(0.09259259259259256,0,0,0.09259259259259256,0,0)" xlink:href="#ad"/><use transform="matrix(0.09259259259259256,0,0,0.09259259259259256,18.518518518518512,0)" xlink:href="#aq"/><use transform="matrix(0.09259259259259256,0,0,0.09259259259259256,37.037037037037024,0)" xlink:href="#aw"/><use transform="matrix(0.09259259259259256,0,0,0.09259259259259256,53.70370370370368,0)" xlink:href="#ar"/></g><g id="p"><use transform="matrix(0.09259259259259256,0,0,0.09259259259259256,0,0)" xlink:href="#ag"/><use transform="matrix(0.09259259259259256,0,0,0.09259259259259256,18.518518518518512,0)" xlink:href="#ah"/><use transform="matrix(0.09259259259259256,0,0,0.09259259259259256,37.037037037037024,0)" xlink:href="#ai"/><use transform="matrix(0.09259259259259256,0,0,0.09259259259259256,44.35185185185183,0)" xlink:href="#aj"/><use transform="matrix(0.09259259259259256,0,0,0.09259259259259256,61.01851851851848,0)" xlink:href="#ae"/><use transform="matrix(0.09259259259259256,0,0,0.09259259259259256,79.53703703703701,0)" xlink:href="#ah"/><use transform="matrix(0.09259259259259256,0,0,0.09259259259259256,98.05555555555551,0)" xlink:href="#ad"/></g><g id="q"><use transform="matrix(0.09259259259259256,0,0,0.09259259259259256,0,0)" xlink:href="#ak"/><use transform="matrix(0.09259259259259256,0,0,0.09259259259259256,23.981481481481474,0)" xlink:href="#al"/><use transform="matrix(0.09259259259259256,0,0,0.09259259259259256,42.499999999999986,0)" xlink:href="#am"/><use transform="matrix(0.09259259259259256,0,0,0.09259259259259256,61.0185185185185,0)" xlink:href="#ad"/><use transform="matrix(0.09259259259259256,0,0,0.09259259259259256,79.53703703703701,0)" xlink:href="#an"/><use transform="matrix(0.09259259259259256,0,0,0.09259259259259256,96.20370370370367,0)" xlink:href="#af"/></g><g id="r"><use transform="matrix(0.09259259259259256,0,0,0.09259259259259256,0,0)" xlink:href="#ao"/><use transform="matrix(0.09259259259259256,0,0,0.09259259259259256,11.018518518518515,0)" xlink:href="#ac"/><use transform="matrix(0.09259259259259256,0,0,0.09259259259259256,18.33333333333333,0)" xlink:href="#ad"/><use transform="matrix(0.09259259259259256,0,0,0.09259259259259256,36.85185185185184,0)" xlink:href="#ae"/></g><g id="s"><use transform="matrix(0.09259259259259256,0,0,0.09259259259259256,0,0)" xlink:href="#ap"/><use transform="matrix(0.09259259259259256,0,0,0.09259259259259256,23.981481481481474,0)" xlink:href="#aq"/><use transform="matrix(0.09259259259259256,0,0,0.09259259259259256,42.499999999999986,0)" xlink:href="#ai"/><use transform="matrix(0.09259259259259256,0,0,0.09259259259259256,49.814814814814795,0)" xlink:href="#ar"/><use transform="matrix(0.09259259259259256,0,0,0.09259259259259256,59.07407407407404,0)" xlink:href="#as"/><use transform="matrix(0.09259259259259256,0,0,0.09259259259259256,77.59259259259255,0)" xlink:href="#af"/></g><g id="t"><use transform="matrix(0.09259259259259256,0,0,0.09259259259259256,0,0)" xlink:href="#ac"/><use transform="matrix(0.09259259259259256,0,0,0.09259259259259256,7.314814814814812,0)" xlink:href="#ad"/></g><path d="M96-169c-40 0-48 33-48 73s9 75 48 75c24 0 41-14 43-38l32 2c-6 37-31 61-74 61-59 0-76-41-82-99-10-93 101-131 147-64 4 7 5 14 7 22l-32 3c-4-21-16-35-41-35" id="ax"/><g id="u"><use transform="matrix(0.09259259259259256,0,0,0.09259259259259256,0,0)" xlink:href="#ax"/><use transform="matrix(0.09259259259259256,0,0,0.09259259259259256,16.66666666666666,0)" xlink:href="#al"/><use transform="matrix(0.09259259259259256,0,0,0.09259259259259256,35.185185185185176,0)" xlink:href="#am"/><use transform="matrix(0.09259259259259256,0,0,0.09259259259259256,53.70370370370368,0)" xlink:href="#ad"/><use transform="matrix(0.09259259259259256,0,0,0.09259259259259256,72.2222222222222,0)" xlink:href="#an"/></g><path d="M63-220v92h138v28H63V0H30v-248h175v28H63" id="ay"/><g id="v"><use transform="matrix(0.09259259259259256,0,0,0.09259259259259256,0,0)" xlink:href="#ay"/><use transform="matrix(0.09259259259259256,0,0,0.09259259259259256,20.27777777777777,0)" xlink:href="#am"/><use transform="matrix(0.09259259259259256,0,0,0.09259259259259256,38.79629629629628,0)" xlink:href="#ai"/><use transform="matrix(0.09259259259259256,0,0,0.09259259259259256,46.11111111111109,0)" xlink:href="#ai"/></g><path d="M85-194c31 0 48 13 60 33l-1-100h32l1 261h-30c-2-10 0-23-3-31C134-8 116 4 85 4 32 4 16-35 15-94c0-66 23-100 70-100zm9 24c-40 0-46 34-46 75 0 40 6 74 45 74 42 0 51-32 51-76 0-42-9-74-50-73" id="az"/><g id="w"><use transform="matrix(0.09259259259259256,0,0,0.09259259259259256,0,0)" xlink:href="#ax"/><use transform="matrix(0.09259259259259256,0,0,0.09259259259259256,16.66666666666666,0)" xlink:href="#ah"/><use transform="matrix(0.09259259259259256,0,0,0.09259259259259256,35.185185185185176,0)" xlink:href="#ah"/><use transform="matrix(0.09259259259259256,0,0,0.09259259259259256,53.70370370370368,0)" xlink:href="#ao"/><use transform="matrix(0.09259259259259256,0,0,0.09259259259259256,64.7222222222222,0)" xlink:href="#az"/><use transform="matrix(0.09259259259259256,0,0,0.09259259259259256,83.2407407407407,0)" xlink:href="#ac"/><use transform="matrix(0.09259259259259256,0,0,0.09259259259259256,90.55555555555551,0)" xlink:href="#ad"/><use transform="matrix(0.09259259259259256,0,0,0.09259259259259256,109.07407407407402,0)" xlink:href="#as"/><use transform="matrix(0.09259259259259256,0,0,0.09259259259259256,127.59259259259252,0)" xlink:href="#ar"/><use transform="matrix(0.09259259259259256,0,0,0.09259259259259256,136.8518518518518,0)" xlink:href="#aq"/></g><path d="M115-194c53 0 69 39 70 98 0 66-23 100-70 100C84 3 66-7 56-30L54 0H23l1-261h32v101c10-23 28-34 59-34zm-8 174c40 0 45-34 45-75 0-40-5-75-45-74-42 0-51 32-51 76 0 43 10 73 51 73" id="aA"/><g id="x"><use transform="matrix(0.0987654320987654,0,0,0.0987654320987654,0,0)" xlink:href="#au"/><use transform="matrix(0.0987654320987654,0,0,0.0987654320987654,27.654320987654312,0)" xlink:href="#ai"/><use transform="matrix(0.0987654320987654,0,0,0.0987654320987654,35.45679012345678,0)" xlink:href="#ah"/><use transform="matrix(0.0987654320987654,0,0,0.0987654320987654,55.20987654320986,0)" xlink:href="#aA"/><use transform="matrix(0.0987654320987654,0,0,0.0987654320987654,74.96296296296293,0)" xlink:href="#as"/><use transform="matrix(0.0987654320987654,0,0,0.0987654320987654,94.71604938271601,0)" xlink:href="#ai"/></g><path d="M197 0v-115H63V0H30v-248h33v105h134v-105h34V0h-34" id="aB"/><g id="y"><use transform="matrix(0.0987654320987654,0,0,0.0987654320987654,0,0)" xlink:href="#aB"/><use transform="matrix(0.0987654320987654,0,0,0.0987654320987654,25.58024691358024,0)" xlink:href="#aq"/><use transform="matrix(0.0987654320987654,0,0,0.0987654320987654,45.333333333333314,0)" xlink:href="#as"/><use transform="matrix(0.0987654320987654,0,0,0.0987654320987654,65.08641975308639,0)" xlink:href="#az"/><use transform="matrix(0.0987654320987654,0,0,0.0987654320987654,84.83950617283946,0)" xlink:href="#aq"/><use transform="matrix(0.0987654320987654,0,0,0.0987654320987654,104.59259259259254,0)" xlink:href="#ao"/></g><path d="M30-248c87 1 191-15 191 75 0 78-77 80-158 76V0H30v-248zm33 125c57 0 124 11 124-50 0-59-68-47-124-48v98" id="aC"/><g id="z"><use transform="matrix(0.0987654320987654,0,0,0.0987654320987654,0,0)" xlink:href="#aC"/><use transform="matrix(0.0987654320987654,0,0,0.0987654320987654,23.703703703703695,0)" xlink:href="#ah"/><use transform="matrix(0.0987654320987654,0,0,0.0987654320987654,43.45679012345677,0)" xlink:href="#ai"/><use transform="matrix(0.0987654320987654,0,0,0.0987654320987654,51.259259259259245,0)" xlink:href="#aj"/><use transform="matrix(0.0987654320987654,0,0,0.0987654320987654,69.03703703703701,0)" xlink:href="#ae"/><use transform="matrix(0.0987654320987654,0,0,0.0987654320987654,88.79012345679008,0)" xlink:href="#ah"/><use transform="matrix(0.0987654320987654,0,0,0.0987654320987654,108.54320987654314,0)" xlink:href="#ad"/></g><g id="A"><use transform="matrix(0.0987654320987654,0,0,0.0987654320987654,0,0)" xlink:href="#aB"/><use transform="matrix(0.0987654320987654,0,0,0.0987654320987654,25.58024691358024,0)" xlink:href="#aq"/><use transform="matrix(0.0987654320987654,0,0,0.0987654320987654,45.333333333333314,0)" xlink:href="#as"/><use transform="matrix(0.0987654320987654,0,0,0.0987654320987654,65.08641975308639,0)" xlink:href="#az"/><use transform="matrix(0.0987654320987654,0,0,0.0987654320987654,84.83950617283946,0)" xlink:href="#aq"/><use transform="matrix(0.0987654320987654,0,0,0.0987654320987654,104.59259259259254,0)" xlink:href="#ao"/></g><g id="B"><use transform="matrix(0.0987654320987654,0,0,0.0987654320987654,0,0)" xlink:href="#ab"/><use transform="matrix(0.0987654320987654,0,0,0.0987654320987654,25.58024691358024,0)" xlink:href="#ac"/><use transform="matrix(0.0987654320987654,0,0,0.0987654320987654,33.38271604938271,0)" xlink:href="#ad"/><use transform="matrix(0.0987654320987654,0,0,0.0987654320987654,53.13580246913578,0)" xlink:href="#ae"/></g><g id="C"><use transform="matrix(0.0987654320987654,0,0,0.0987654320987654,0,0)" xlink:href="#ak"/><use transform="matrix(0.0987654320987654,0,0,0.0987654320987654,25.58024691358024,0)" xlink:href="#al"/><use transform="matrix(0.0987654320987654,0,0,0.0987654320987654,45.333333333333314,0)" xlink:href="#am"/><use transform="matrix(0.0987654320987654,0,0,0.0987654320987654,65.08641975308639,0)" xlink:href="#ad"/><use transform="matrix(0.0987654320987654,0,0,0.0987654320987654,84.83950617283946,0)" xlink:href="#an"/></g><g id="D"><use transform="matrix(0.0864197530864197,0,0,0.0864197530864197,0,0)" xlink:href="#ap"/><use transform="matrix(0.0864197530864197,0,0,0.0864197530864197,22.382716049382704,0)" xlink:href="#aq"/><use transform="matrix(0.0864197530864197,0,0,0.0864197530864197,39.66666666666664,0)" xlink:href="#ai"/><use transform="matrix(0.0864197530864197,0,0,0.0864197530864197,46.4938271604938,0)" xlink:href="#ar"/><use transform="matrix(0.0864197530864197,0,0,0.0864197530864197,55.135802469135776,0)" xlink:href="#as"/></g><g id="E"><use transform="matrix(0.0864197530864197,0,0,0.0864197530864197,0,0)" xlink:href="#ax"/><use transform="matrix(0.0864197530864197,0,0,0.0864197530864197,15.555555555555546,0)" xlink:href="#ah"/><use transform="matrix(0.0864197530864197,0,0,0.0864197530864197,32.83950617283949,0)" xlink:href="#ah"/><use transform="matrix(0.0864197530864197,0,0,0.0864197530864197,50.12345679012343,0)" xlink:href="#ao"/><use transform="matrix(0.0864197530864197,0,0,0.0864197530864197,60.407407407407376,0)" xlink:href="#az"/></g><path d="M24 0v-54h51V0H24" id="aD"/><use transform="matrix(0.10493827160493824,0,0,0.10493827160493824,0,0)" xlink:href="#aD" id="F"/><use transform="matrix(0.10493827160493824,0,0,0.10493827160493824,0,0)" xlink:href="#aD" id="G"/><use transform="matrix(0.10493827160493824,0,0,0.10493827160493824,0,0)" xlink:href="#aD" id="H"/><use transform="matrix(0.0987654320987654,0,0,0.0987654320987654,0,0)" xlink:href="#aa" id="I"/><g id="J"><use transform="matrix(0.0987654320987654,0,0,0.0987654320987654,0,0)" xlink:href="#ap"/><use transform="matrix(0.0987654320987654,0,0,0.0987654320987654,25.58024691358024,0)" xlink:href="#aq"/><use transform="matrix(0.0987654320987654,0,0,0.0987654320987654,45.333333333333314,0)" xlink:href="#ai"/><use transform="matrix(0.0987654320987654,0,0,0.0987654320987654,53.13580246913578,0)" xlink:href="#ar"/><use transform="matrix(0.0987654320987654,0,0,0.0987654320987654,63.01234567901233,0)" xlink:href="#as"/><use transform="matrix(0.0987654320987654,0,0,0.0987654320987654,82.7654320987654,0)" xlink:href="#af"/></g><g id="K"><use transform="matrix(0.0987654320987654,0,0,0.0987654320987654,0,0)" xlink:href="#ac"/><use transform="matrix(0.0987654320987654,0,0,0.0987654320987654,7.8024691358024665,0)" xlink:href="#ad"/></g><g id="L"><use transform="matrix(0.0987654320987654,0,0,0.0987654320987654,0,0)" xlink:href="#ax"/><use transform="matrix(0.0987654320987654,0,0,0.0987654320987654,17.77777777777777,0)" xlink:href="#al"/><use transform="matrix(0.0987654320987654,0,0,0.0987654320987654,37.530864197530846,0)" xlink:href="#am"/><use transform="matrix(0.0987654320987654,0,0,0.0987654320987654,57.28395061728392,0)" xlink:href="#ad"/><use transform="matrix(0.0987654320987654,0,0,0.0987654320987654,77.037037037037,0)" xlink:href="#an"/></g><path d="M232-93c-1 65-40 97-104 97C67 4 28-28 28-90v-158h33c8 89-33 224 67 224 102 0 64-133 71-224h33v155" id="aE"/><g id="M"><use transform="matrix(0.0925925925925926,0,0,0.0925925925925926,0,0)" xlink:href="#aE"/><use transform="matrix(0.0925925925925926,0,0,0.0925925925925926,23.981481481481485,0)" xlink:href="#ad"/><use transform="matrix(0.0925925925925926,0,0,0.0925925925925926,42.5,0)" xlink:href="#ar"/><use transform="matrix(0.0925925925925926,0,0,0.0925925925925926,51.75925925925927,0)" xlink:href="#ac"/><use transform="matrix(0.0925925925925926,0,0,0.0925925925925926,59.074074074074076,0)" xlink:href="#ai"/></g><path d="M30 0v-248h187v28H63v79h144v27H63v87h162V0H30" id="aF"/><path d="M140-251c81 0 123 46 123 126C263-46 219 4 140 4 59 4 17-45 17-125s42-126 123-126zm0 227c63 0 89-41 89-101s-29-99-89-99c-61 0-89 39-89 99S79-25 140-24" id="aG"/><g id="N"><use transform="matrix(0.0925925925925926,0,0,0.0925925925925926,0,0)" xlink:href="#aF"/><use transform="matrix(0.0925925925925926,0,0,0.0925925925925926,22.222222222222225,0)" xlink:href="#aG"/><use transform="matrix(0.0925925925925926,0,0,0.0925925925925926,48.14814814814815,0)" xlink:href="#ay"/></g><path d="M33-154v-36h34v36H33zM33 0v-36h34V0H33" id="aH"/><use transform="matrix(0.09259259259259256,0,0,0.09259259259259256,0,0)" xlink:href="#aH" id="O"/><path d="M205 0l-28-72H64L36 0H1l101-248h38L239 0h-34zm-38-99l-47-123c-12 45-31 82-46 123h93" id="aI"/><path d="M108 0H70L1-190h34L89-25l56-165h34" id="aJ"/><g id="P"><use transform="matrix(0.09259259259259256,0,0,0.09259259259259256,0,0)" xlink:href="#aI"/><use transform="matrix(0.09259259259259256,0,0,0.09259259259259256,22.222222222222214,0)" xlink:href="#ax"/><use transform="matrix(0.09259259259259256,0,0,0.09259259259259256,38.88888888888887,0)" xlink:href="#ar"/><use transform="matrix(0.09259259259259256,0,0,0.09259259259259256,48.148148148148124,0)" xlink:href="#ac"/><use transform="matrix(0.09259259259259256,0,0,0.09259259259259256,55.46296296296293,0)" xlink:href="#aJ"/><use transform="matrix(0.09259259259259256,0,0,0.09259259259259256,72.12962962962959,0)" xlink:href="#aq"/></g><path d="M101-234c-31-9-42 10-38 44h38v23H63V0H32v-167H5v-23h27c-7-52 17-82 69-68v24" id="aK"/><g id="Q"><use transform="matrix(0.09259259259259256,0,0,0.09259259259259256,0,0)" xlink:href="#ac"/><use transform="matrix(0.09259259259259256,0,0,0.09259259259259256,7.314814814814812,0)" xlink:href="#aK"/></g><path d="M240 0l2-218c-23 76-54 145-80 218h-23L58-218 59 0H30v-248h44l77 211c21-75 51-140 76-211h43V0h-30" id="aL"/><g id="R"><use transform="matrix(0.09259259259259256,0,0,0.09259259259259256,0,0)" xlink:href="#aL"/><use transform="matrix(0.09259259259259256,0,0,0.09259259259259256,27.685185185185176,0)" xlink:href="#am"/><use transform="matrix(0.09259259259259256,0,0,0.09259259259259256,46.20370370370369,0)" xlink:href="#ai"/><use transform="matrix(0.09259259259259256,0,0,0.09259259259259256,53.5185185185185,0)" xlink:href="#ar"/><use transform="matrix(0.09259259259259256,0,0,0.09259259259259256,62.77777777777776,0)" xlink:href="#ac"/><use transform="matrix(0.09259259259259256,0,0,0.09259259259259256,70.09259259259257,0)" xlink:href="#aC"/><use transform="matrix(0.09259259259259256,0,0,0.09259259259259256,92.31481481481478,0)" xlink:href="#ah"/><use transform="matrix(0.09259259259259256,0,0,0.09259259259259256,110.8333333333333,0)" xlink:href="#ai"/><use transform="matrix(0.09259259259259256,0,0,0.09259259259259256,118.14814814814808,0)" xlink:href="#aj"/><use transform="matrix(0.09259259259259256,0,0,0.09259259259259256,134.81481481481475,0)" xlink:href="#ae"/><use transform="matrix(0.09259259259259256,0,0,0.09259259259259256,153.33333333333326,0)" xlink:href="#ah"/><use transform="matrix(0.09259259259259256,0,0,0.09259259259259256,171.85185185185176,0)" xlink:href="#ad"/></g><g id="S"><use transform="matrix(0.09259259259259256,0,0,0.09259259259259256,0,0)" xlink:href="#aC"/><use transform="matrix(0.09259259259259256,0,0,0.09259259259259256,22.222222222222214,0)" xlink:href="#ah"/><use transform="matrix(0.09259259259259256,0,0,0.09259259259259256,40.740740740740726,0)" xlink:href="#ai"/><use transform="matrix(0.09259259259259256,0,0,0.09259259259259256,48.055555555555536,0)" xlink:href="#aj"/><use transform="matrix(0.09259259259259256,0,0,0.09259259259259256,64.7222222222222,0)" xlink:href="#ae"/><use transform="matrix(0.09259259259259256,0,0,0.09259259259259256,83.2407407407407,0)" xlink:href="#ah"/><use transform="matrix(0.09259259259259256,0,0,0.09259259259259256,101.7592592592592,0)" xlink:href="#ad"/></g><g id="T"><use transform="matrix(0.09259259259259256,0,0,0.09259259259259256,0,0)" xlink:href="#ah"/><use transform="matrix(0.09259259259259256,0,0,0.09259259259259256,18.518518518518512,0)" xlink:href="#ao"/></g><path d="M182 0l-62-99L58 0H3l86-130-79-118h55l55 88 55-88h55l-75 118L237 0h-55" id="aM"/><use transform="matrix(0.11111111111111108,0,0,0.11111111111111108,0,0)" xlink:href="#aM" id="U"/><g id="V"><use transform="matrix(0.09259259259259256,0,0,0.09259259259259256,0,0)" xlink:href="#ab"/><use transform="matrix(0.09259259259259256,0,0,0.09259259259259256,23.981481481481474,0)" xlink:href="#aq"/><use transform="matrix(0.09259259259259256,0,0,0.09259259259259256,42.499999999999986,0)" xlink:href="#ag"/><use transform="matrix(0.09259259259259256,0,0,0.09259259259259256,61.0185185185185,0)" xlink:href="#aq"/><use transform="matrix(0.09259259259259256,0,0,0.09259259259259256,79.53703703703701,0)" xlink:href="#as"/><use transform="matrix(0.09259259259259256,0,0,0.09259259259259256,98.05555555555551,0)" xlink:href="#ar"/><use transform="matrix(0.09259259259259256,0,0,0.09259259259259256,107.31481481481478,0)" xlink:href="#aq"/><use transform="matrix(0.09259259259259256,0,0,0.09259259259259256,125.83333333333329,0)" xlink:href="#az"/></g><use transform="matrix(0.09259259259259256,0,0,0.09259259259259256,0,0)" xlink:href="#aM" id="W"/><g id="X"><use transform="matrix(0.09259259259259256,0,0,0.09259259259259256,0,0)" xlink:href="#ar"/><use transform="matrix(0.09259259259259256,0,0,0.09259259259259256,9.259259259259256,0)" xlink:href="#ac"/><use transform="matrix(0.09259259259259256,0,0,0.09259259259259256,16.57407407407407,0)" xlink:href="#av"/><use transform="matrix(0.09259259259259256,0,0,0.09259259259259256,44.259259259259245,0)" xlink:href="#aq"/><use transform="matrix(0.09259259259259256,0,0,0.09259259259259256,62.77777777777776,0)" xlink:href="#af"/></g><g id="Y"><use transform="matrix(0.09259259259259256,0,0,0.09259259259259256,0,0)" xlink:href="#am"/><use transform="matrix(0.09259259259259256,0,0,0.09259259259259256,18.518518518518512,0)" xlink:href="#ad"/><use transform="matrix(0.09259259259259256,0,0,0.09259259259259256,37.037037037037024,0)" xlink:href="#ar"/><use transform="matrix(0.09259259259259256,0,0,0.09259259259259256,46.296296296296276,0)" xlink:href="#ac"/><use transform="matrix(0.09259259259259256,0,0,0.09259259259259256,53.61111111111108,0)" xlink:href="#ai"/></g><g id="Z"><use transform="matrix(0.09259259259259256,0,0,0.09259259259259256,0,0)" xlink:href="#aF"/><use transform="matrix(0.09259259259259256,0,0,0.09259259259259256,22.222222222222214,0)" xlink:href="#aG"/><use transform="matrix(0.09259259259259256,0,0,0.09259259259259256,48.14814814814813,0)" xlink:href="#ay"/></g></defs></g></svg>