<svg xmlns="http://www.w3.org/2000/svg" xmlns:xlink="http://www.w3.org/1999/xlink" xmlns:lucid="lucid" width="3172" height="729"><g transform="translate(-205 -592)" lucid:page-tab-id="0_0"><path d="M265.23 1071.27a6 6 0 0 1 6-6h203.6a6 6 0 0 1 6 6v95.4a6 6 0 0 1-6 6h-203.6a6 6 0 0 1-6-6z" stroke="#3a414a" fill="#fff"/><use xlink:href="#a" transform="matrix(1,0,0,1,277.2264786396965,1077.2694924123496) translate(47.327160493827165 33.52777777777778)"/><use xlink:href="#b" transform="matrix(1,0,0,1,277.2264786396965,1077.2694924123496) translate(105.2283950617284 33.52777777777778)"/><use xlink:href="#c" transform="matrix(1,0,0,1,277.2264786396965,1077.2694924123496) translate(41.18518518518518 60.19444444444445)"/><path d="M480.82 1071.27a6 6 0 0 1 6-6h203.6a6 6 0 0 1 6 6v95.4a6 6 0 0 1-6 6h-203.6a6 6 0 0 1-6-6z" stroke="#3a414a" fill="#fff"/><use xlink:href="#d" transform="matrix(1,0,0,1,492.8219422179607,1077.2694924123496) translate(23.22222222222223 46.65277777777778)"/><use xlink:href="#e" transform="matrix(1,0,0,1,492.8219422179607,1077.2694924123496) translate(126.80246913580247 46.65277777777778)"/><path d="M696.42 1071.27a6 6 0 0 1 6-6h225.15a6 6 0 0 1 6 6v95.4a6 6 0 0 1-6 6H702.42a6 6 0 0 1-6-6z" stroke="#3a414a" fill="#fff"/><use xlink:href="#f" transform="matrix(1,0,0,1,708.417405796225,1077.2694924123496) translate(42.24691358024691 20.40277777777778)"/><use xlink:href="#g" transform="matrix(1,0,0,1,708.417405796225,1077.2694924123496) translate(82.92592592592592 20.40277777777778)"/><use xlink:href="#h" transform="matrix(1,0,0,1,708.417405796225,1077.2694924123496) translate(107.61728395061728 20.40277777777778)"/><use xlink:href="#i" transform="matrix(1,0,0,1,708.417405796225,1077.2694924123496) translate(40.3641975308642 47.06944444444444)"/><use xlink:href="#j" transform="matrix(1,0,0,1,708.417405796225,1077.2694924123496) translate(137.83333333333334 47.06944444444444)"/><use xlink:href="#k" transform="matrix(1,0,0,1,708.417405796225,1077.2694924123496) translate(49.654320987654316 73.73611111111111)"/><path d="M933.57 1071.27a6 6 0 0 1 6-6h225.16a6 6 0 0 1 6 6v95.4a6 6 0 0 1-6 6H939.57a6 6 0 0 1-6-6z" stroke="#3a414a" fill="#fff"/><use xlink:href="#l" transform="matrix(1,0,0,1,945.5724157323157,1077.2694924123496) translate(30.580246913580254 33.52777777777778)"/><use xlink:href="#m" transform="matrix(1,0,0,1,945.5724157323157,1077.2694924123496) translate(83.54320987654322 33.52777777777778)"/><use xlink:href="#n" transform="matrix(1,0,0,1,945.5724157323157,1077.2694924123496) translate(164.90123456790124 33.52777777777778)"/><use xlink:href="#o" transform="matrix(1,0,0,1,945.5724157323157,1077.2694924123496) translate(49.654320987654316 60.19444444444445)"/><path d="M1170.73 1071.27a6 6 0 0 1 6-6h225.15a6 6 0 0 1 6 6v95.4a6 6 0 0 1-6 6h-225.15a6 6 0 0 1-6-6z" stroke="#3a414a" fill="#ffdda6"/><use xlink:href="#p" transform="matrix(1,0,0,1,1182.7274256684063,1077.2694924123496) translate(16.444444444444457 33.52777777777777)"/><use xlink:href="#q" transform="matrix(1,0,0,1,1182.7274256684063,1077.2694924123496) translate(101.44444444444444 33.52777777777777)"/><use xlink:href="#r" transform="matrix(1,0,0,1,1182.7274256684063,1077.2694924123496) translate(126.1358024691358 33.52777777777777)"/><use xlink:href="#s" transform="matrix(1,0,0,1,1182.7274256684063,1077.2694924123496) translate(180.33333333333331 33.52777777777777)"/><use xlink:href="#t" transform="matrix(1,0,0,1,1182.7274256684063,1077.2694924123496) translate(16.969135802469168 60.19444444444444)"/><use xlink:href="#u" transform="matrix(1,0,0,1,1182.7274256684063,1077.2694924123496) translate(119.31481481481481 60.19444444444444)"/><path d="M1407.88 1071.27a6 6 0 0 1 6-6h225.16a6 6 0 0 1 6 6v95.4a6 6 0 0 1-6 6h-225.16a6 6 0 0 1-6-6z" stroke="#3a414a" fill="#c3f7c8"/><use xlink:href="#p" transform="matrix(1,0,0,1,1419.882435604497,1077.2694924123496) translate(5.271604938271622 33.52777777777777)"/><use xlink:href="#q" transform="matrix(1,0,0,1,1419.882435604497,1077.2694924123496) translate(90.27160493827161 33.52777777777777)"/><use xlink:href="#v" transform="matrix(1,0,0,1,1419.882435604497,1077.2694924123496) translate(114.96296296296296 33.52777777777777)"/><use xlink:href="#s" transform="matrix(1,0,0,1,1419.882435604497,1077.2694924123496) translate(191.50617283950615 33.52777777777777)"/><use xlink:href="#t" transform="matrix(1,0,0,1,1419.882435604497,1077.2694924123496) translate(37.370370370370395 60.19444444444444)"/><use xlink:href="#w" transform="matrix(1,0,0,1,1419.882435604497,1077.2694924123496) translate(139.71604938271605 60.19444444444444)"/><path d="M1882.2 1071.27a6 6 0 0 1 6-6h225.15a6 6 0 0 1 6 6v95.4a6 6 0 0 1-6 6H1888.2a6 6 0 0 1-6-6z" stroke="#3a414a" fill="#fff"/><use xlink:href="#x" transform="matrix(1,0,0,1,1894.1924554766783,1077.2694924123496) translate(32.4320987654321 33.52777777777778)"/><use xlink:href="#g" transform="matrix(1,0,0,1,1894.1924554766783,1077.2694924123496) translate(74.28395061728395 33.52777777777778)"/><use xlink:href="#y" transform="matrix(1,0,0,1,1894.1924554766783,1077.2694924123496) translate(98.97530864197532 33.52777777777778)"/><use xlink:href="#z" transform="matrix(1,0,0,1,1894.1924554766783,1077.2694924123496) translate(164.34567901234567 33.52777777777778)"/><use xlink:href="#A" transform="matrix(1,0,0,1,1894.1924554766783,1077.2694924123496) translate(77.37037037037038 60.19444444444445)"/><path d="M2119.35 1071.27a6 6 0 0 1 6-6h225.15a6 6 0 0 1 6 6v95.4a6 6 0 0 1-6 6h-225.15a6 6 0 0 1-6-6z" stroke="#3a414a" fill="#fff"/><use xlink:href="#B" transform="matrix(1,0,0,1,2131.3474654127695,1077.2694924123496) translate(23.23456790123457 33.52777777777778)"/><use xlink:href="#C" transform="matrix(1,0,0,1,2131.3474654127695,1077.2694924123496) translate(65.0246913580247 33.52777777777778)"/><use xlink:href="#D" transform="matrix(1,0,0,1,2131.3474654127695,1077.2694924123496) translate(142.679012345679 33.52777777777778)"/><use xlink:href="#E" transform="matrix(1,0,0,1,2131.3474654127695,1077.2694924123496) translate(55.20987654320987 60.19444444444445)"/><path d="M1645.04 1072.57a6 6 0 0 1 6-6h225.15a6 6 0 0 1 6 6v94.1a6 6 0 0 1-6 6h-225.16a6 6 0 0 1-6-6z" stroke="#3a414a" fill="#ffd6f5"/><use xlink:href="#F" transform="matrix(1,0,0,1,1657.0374455405877,1078.56462585034) translate(28.049382716049394 46.30902777777778)"/><use xlink:href="#G" transform="matrix(1,0,0,1,1657.0374455405877,1078.56462585034) translate(98.35802469135803 46.30902777777778)"/><use xlink:href="#H" transform="matrix(1,0,0,1,1657.0374455405877,1078.56462585034) translate(146.50617283950618 46.30902777777778)"/><path d="M360.38 646a6 6 0 0 1 6-6h648a6 6 0 0 1 6 6v75.5a6 6 0 0 1-6 6h-648a6 6 0 0 1-6-6z" stroke="#000" stroke-opacity="0" fill="#fff" fill-opacity="0"/><use xlink:href="#I" transform="matrix(1,0,0,1,365.37806619821754,645) translate(0 45.0486111111111)"/><use xlink:href="#J" transform="matrix(1,0,0,1,365.37806619821754,645) translate(16.049382716049376 45.0486111111111)"/><use xlink:href="#K" transform="matrix(1,0,0,1,365.37806619821754,645) translate(173.17283950617275 45.0486111111111)"/><use xlink:href="#L" transform="matrix(1,0,0,1,365.37806619821754,645) translate(234.08024691358014 45.0486111111111)"/><use xlink:href="#M" transform="matrix(1,0,0,1,365.37806619821754,645) translate(317.45679012345664 45.0486111111111)"/><use xlink:href="#N" transform="matrix(1,0,0,1,365.37806619821754,645) translate(339.8456790123455 45.0486111111111)"/><use xlink:href="#O" transform="matrix(1,0,0,1,365.37806619821754,645) translate(452.0308641975306 45.0486111111111)"/><use xlink:href="#P" transform="matrix(1,0,0,1,365.37806619821754,645) translate(480.83950617283926 45.0486111111111)"/><path d="M360.38 755.84a6 6 0 0 1 6-6h828a6 6 0 0 1 6 6v48a6 6 0 0 1-6 6h-828a6 6 0 0 1-6-6z" stroke="#000" stroke-opacity="0" fill="#fff" fill-opacity="0"/><use xlink:href="#I" transform="matrix(1,0,0,1,365.37806619821754,754.8429220283574) translate(0 32.6736111111111)"/><use xlink:href="#J" transform="matrix(1,0,0,1,365.37806619821754,754.8429220283574) translate(16.049382716049376 32.6736111111111)"/><use xlink:href="#K" transform="matrix(1,0,0,1,365.37806619821754,754.8429220283574) translate(173.17283950617275 32.6736111111111)"/><use xlink:href="#L" transform="matrix(1,0,0,1,365.37806619821754,754.8429220283574) translate(234.08024691358014 32.6736111111111)"/><use xlink:href="#M" transform="matrix(1,0,0,1,365.37806619821754,754.8429220283574) translate(317.45679012345664 32.6736111111111)"/><use xlink:href="#N" transform="matrix(1,0,0,1,365.37806619821754,754.8429220283574) translate(339.8456790123455 32.6736111111111)"/><use xlink:href="#O" transform="matrix(1,0,0,1,365.37806619821754,754.8429220283574) translate(452.0308641975306 32.6736111111111)"/><use xlink:href="#Q" transform="matrix(1,0,0,1,365.37806619821754,754.8429220283574) translate(480.83950617283926 32.6736111111111)"/><use xlink:href="#R" transform="matrix(1,0,0,1,365.37806619821754,754.8429220283574) translate(593.1049382716046 32.6736111111111)"/><use xlink:href="#P" transform="matrix(1,0,0,1,365.37806619821754,754.8429220283574) translate(626.7283950617281 32.6736111111111)"/><path d="M265.23 853.5a6 6 0 0 1 6-6h68a6 6 0 0 1 6 6v50.34a6 6 0 0 1-6 6h-68a6 6 0 0 1-6-6z" stroke="#3a414a" fill="#ffd6f5"/><path d="M360.38 853.84a6 6 0 0 1 6-6h718.3a6 6 0 0 1 6 6v50.36a6 6 0 0 1-6 6h-718.3a6 6 0 0 1-6-6z" stroke="#000" stroke-opacity="0" fill="#fff" fill-opacity="0"/><use xlink:href="#I" transform="matrix(1,0,0,1,365.37806619821754,852.8429220283574) translate(0 33.0486111111111)"/><use xlink:href="#S" transform="matrix(1,0,0,1,365.37806619821754,852.8429220283574) translate(16.049382716049376 33.0486111111111)"/><use xlink:href="#K" transform="matrix(1,0,0,1,365.37806619821754,852.8429220283574) translate(73.82716049382714 33.0486111111111)"/><use xlink:href="#L" transform="matrix(1,0,0,1,365.37806619821754,852.8429220283574) translate(134.73456790123453 33.0486111111111)"/><use xlink:href="#M" transform="matrix(1,0,0,1,365.37806619821754,852.8429220283574) translate(218.11111111111103 33.0486111111111)"/><use xlink:href="#T" transform="matrix(1,0,0,1,365.37806619821754,852.8429220283574) translate(240.49999999999991 33.0486111111111)"/><use xlink:href="#U" transform="matrix(1,0,0,1,365.37806619821754,852.8429220283574) translate(325.48148148148135 33.0486111111111)"/><use xlink:href="#V" transform="matrix(1,0,0,1,365.37806619821754,852.8429220283574) translate(375.15432098765416 33.0486111111111)"/><use xlink:href="#W" transform="matrix(1,0,0,1,365.37806619821754,852.8429220283574) translate(479.39506172839486 33.0486111111111)"/><path d="M280.62 1214.67h869.5" stroke="#3a414a" stroke-width="3" fill="none"/><path d="M264.85 1214.67l14.27-4.64v9.27zM1165.87 1214.67l-14.26 4.63v-9.27z" stroke="#3a414a" stroke-width="3" fill="#3a414a"/><use xlink:href="#X" transform="matrix(1,0,0,1,617.6229720934624,1218.6666666666665) translate(0 23.11111111111111)"/><use xlink:href="#Y" transform="matrix(1,0,0,1,617.6229720934624,1218.6666666666665) translate(97.74074074074075 23.11111111111111)"/><path d="M1191.35 1214.67h195.9" stroke="#3a414a" stroke-width="3" fill="none"/><path d="M1175.58 1214.67l14.27-4.64v9.27zM1403.03 1214.67l-14.27 4.63v-9.27z" stroke="#3a414a" stroke-width="3" fill="#3a414a"/><g><use xlink:href="#Z" transform="matrix(1,0,0,1,1241.2308565623775,1218.6666666666665) translate(0.005000000000002558 19.555555555555554)"/><use xlink:href="#aa" transform="matrix(1,0,0,1,1241.2308565623775,1218.6666666666665) translate(6.727222222222231 48.888888888888886)"/></g><path d="M1428.5 1214.67h195.92" stroke="#3a414a" stroke-width="3" fill="none"/><path d="M1412.74 1214.67l14.26-4.64v9.27zM1640.18 1214.67l-14.26 4.63v-9.27z" stroke="#3a414a" stroke-width="3" fill="#3a414a"/><g><use xlink:href="#ab" transform="matrix(1,0,0,1,1485.1050887206907,1218.6666666666667) translate(14.298209876543197 19.555555555555546)"/><use xlink:href="#ac" transform="matrix(1,0,0,1,1485.1050887206907,1218.6666666666667) translate(0.005000000000002558 48.88888888888887)"/></g><path d="M1665.65 1214.67h1122.98" stroke="#3a414a" stroke-width="3" fill="none"/><path d="M1649.9 1214.67l14.26-4.64v9.27zM2804.4 1214.67l-14.27 4.63v-9.27z" stroke="#3a414a" stroke-width="3" fill="#3a414a"/><g><use xlink:href="#ad" transform="matrix(1,0,0,1,2182.3639194241237,1218.6666666666665) translate(0 23.11111111111111)"/></g><g><path d="M2805.7 1167.85a3.03 3.03 0 0 1-2.45 4.83h-160.47a3.03 3.03 0 0 1-2.45-4.83l79.13-107.5a4.42 4.42 0 0 1 7.1 0z" stroke="#3a414a" fill="#fff"/></g><path d="M2593.66 1098.94a6 6 0 0 1 6-6h246.7a6 6 0 0 1 6 6v49.84a6 6 0 0 1-6 6h-246.7a6 6 0 0 1-6-6z" stroke="#000" stroke-opacity="0" fill="#fff" fill-opacity="0"/><g><use xlink:href="#ae" transform="matrix(1,0,0,1,2598.657485284951,1097.9356357927786) translate(98.6358024691358 21.02777777777778)"/><use xlink:href="#af" transform="matrix(1,0,0,1,2598.657485284951,1097.9356357927786) translate(72.70987654320987 47.69444444444444)"/></g><path d="M2464.3 1129.86a6 6 0 0 1 6-6h225.15a6 6 0 0 1 6 6v69.37a6 6 0 0 1-6 6H2470.3a6 6 0 0 1-6-6z" stroke="#000" stroke-opacity="0" fill="#fff" fill-opacity="0"/><g><use xlink:href="#ag" transform="matrix(1,0,0,1,2469.3002071379915,1128.8566195709052) translate(95.48148148148148 41.58333333333333)"/><use xlink:href="#ah" transform="matrix(1,0,0,1,2469.3002071379915,1128.8566195709052) translate(110.29629629629629 41.58333333333333)"/><use xlink:href="#ai" transform="matrix(1,0,0,1,2469.3002071379915,1128.8566195709052) translate(125.11111111111111 41.58333333333333)"/></g><g><path d="M2525.42 1167.85a3.03 3.03 0 0 1-2.44 4.83H2362.5a3.03 3.03 0 0 1-2.44-4.83l79.12-107.5a4.42 4.42 0 0 1 7.12 0z" stroke="#3a414a" fill="#fff"/></g><path d="M2313.38 1098.94a6 6 0 0 1 6-6h246.72a6 6 0 0 1 6 6v49.84a6 6 0 0 1-6 6h-246.72a6 6 0 0 1-6-6z" stroke="#000" stroke-opacity="0" fill="#fff" fill-opacity="0"/><g><use xlink:href="#ae" transform="matrix(1,0,0,1,2318.383382633207,1097.9356357927786) translate(98.6358024691358 21.02777777777778)"/><use xlink:href="#af" transform="matrix(1,0,0,1,2318.383382633207,1097.9356357927786) translate(72.70987654320987 47.69444444444444)"/></g><g fill="none"><path d="M2362.5 1045.74a6 6 0 0 1-6-6v-27.06a6 6 0 0 1 6-6h419.2a6 6 0 0 1 6 6v27.06a6 6 0 0 1-6 6z"/><path d="M2787.7 1045.74c0-5.52-4.48-10-10-10h-195.6c-5.52 0-10-4.48-10-10 0 5.52-4.48 10-10 10h-195.6c-5.52 0-10 4.48-10 10" stroke="#3a414a"/></g><path d="M2431.96 972a6 6 0 0 1 6-6h268.28a6 6 0 0 1 6 6v48.2a6 6 0 0 1-6 6h-268.28a6 6 0 0 1-6-6z" stroke="#000" stroke-opacity="0" fill="#fff" fill-opacity="0"/><g><use xlink:href="#aj" transform="matrix(1,0,0,1,2436.960887601252,970.9968602825745) translate(20.37654320987656 20.96527777777778)"/><use xlink:href="#g" transform="matrix(1,0,0,1,2436.960887601252,970.9968602825745) translate(70.06790123456791 20.96527777777778)"/><use xlink:href="#y" transform="matrix(1,0,0,1,2436.960887601252,970.9968602825745) translate(94.75925925925927 20.96527777777778)"/><use xlink:href="#ak" transform="matrix(1,0,0,1,2436.960887601252,970.9968602825745) translate(160.12962962962962 20.96527777777778)"/><use xlink:href="#al" transform="matrix(1,0,0,1,2436.960887601252,970.9968602825745) translate(183.52469135802468 20.96527777777778)"/><use xlink:href="#am" transform="matrix(1,0,0,1,2436.960887601252,970.9968602825745) translate(109.01851851851852 47.63194444444444)"/></g><path d="M2905.4 857.1l1.38.33 1.3.54 1.22.74 1.07.93.92 1.07.73 1.2.54 1.32.33 1.37.1 1.28v298.24l-.1 1.3-.33 1.36-.54 1.3-.74 1.22-.93 1.07-1.07.92-1.2.73-1.32.54-1.37.33-1.28.1H2883v-6h20.88l.6-.05.44-.1.44-.18.4-.25.35-.3.32-.36.24-.4.18-.44.1-.45.06-.6V866.13l-.05-.6-.1-.44-.18-.44-.25-.4-.3-.36-.36-.3-.4-.25-.44-.17-.45-.1-.6-.06h-629.2v-6h629.45zm-979.73 5.9h-497.45l-.58.05-.46.1-.43.2-.4.23-.36.3-.32.36-.24.4-.18.44-.1.45-.06.6v171.67h-6V865.88l.1-1.3.34-1.36.54-1.3.74-1.22.9-1.07 1.1-.92 1.2-.73 1.3-.54 1.38-.33 1.3-.1h497.67z" stroke="#c3f7c8" stroke-width=".05" fill="#c3f7c8"/><path d="M2883.08 1173H2880v-6h3.08z" stroke="#c3f7c8" stroke-width=".05" fill="#c3f7c8"/><path d="M1422.1 1055.06l-4.63-14.26h9.27z" fill="#c3f7c8"/><path d="M1422.1 1064.77l-8.76-26.97h17.53zm-.5-20.97l.5 1.55.5-1.55z" stroke="#c3f7c8" stroke-width=".05" fill="#c3f7c8"/><g><use xlink:href="#an" transform="matrix(1,0,0,1,1925.6740589982649,842.6666666666666) translate(0 23.11111111111111)"/><use xlink:href="#ao" transform="matrix(1,0,0,1,1925.6740589982649,842.6666666666666) translate(116.91975308641976 23.11111111111111)"/><use xlink:href="#ap" transform="matrix(1,0,0,1,1925.6740589982649,842.6666666666666) translate(152.0679012345679 23.11111111111111)"/><use xlink:href="#aq" transform="matrix(1,0,0,1,1925.6740589982649,842.6666666666666) translate(260.96296296296293 23.11111111111111)"/><use xlink:href="#ar" transform="matrix(1,0,0,1,1925.6740589982649,842.6666666666666) translate(294.5864197530864 23.11111111111111)"/></g><path d="M350.33 944.6l1.38.32 1.3.54 1.22.74 1.07.92.9 1.08.75 1.2.54 1.3.32 1.38.1 1.3v48.23l-.1 1.3-.33 1.37-.55 1.3-.74 1.22-.9 1.06-1.08.92-1.2.74-1.3.54-1.4.33-1.28.1h-55.97v-6h55.74l.6-.06.45-.1.43-.2.4-.23.36-.3.3-.35.25-.4.17-.44.1-.44.05-.6v-47.75l-.04-.58-.1-.45-.2-.44-.24-.4-.3-.35-.36-.3-.4-.25-.43-.18-.46-.1-.6-.06h-27.6v-6h27.84zm-55.8 5.9h-23.2l-.57.04-.46.1-.43.2-.4.23-.36.3-.3.36-.24.4-.18.44-.1.45-.05.6v26.9h-6v-27.15l.1-1.3.33-1.36.54-1.3.74-1.2.92-1.08 1.07-.92 1.2-.74 1.3-.54 1.4-.33 1.28-.1h23.44z" stroke="#3a414a" stroke-width=".05" fill="#3a414a"/><path d="M265.23 997.78l-4.64-14.26h9.26z" fill="#3a414a"/><path d="M265.23 1007.5l-8.77-26.98H274zm-.5-20.98l.5 1.55.5-1.55zM293.15 1010.5h-3.07v-6h3.07z" stroke="#3a414a" stroke-width=".05" fill="#3a414a"/><g><use xlink:href="#as" transform="matrix(1,0,0,1,294.543072762039,923.4904113049757) translate(0 31.99999999999999)"/></g><path d="M265.23 753.5a6 6 0 0 1 6-6h68a6 6 0 0 1 6 6v50.34a6 6 0 0 1-6 6h-68a6 6 0 0 1-6-6z" stroke="#3a414a" fill="#c3f7c8"/><path d="M265.23 653.5a6 6 0 0 1 6-6h68a6 6 0 0 1 6 6v50.34a6 6 0 0 1-6 6h-68a6 6 0 0 1-6-6z" stroke="#3a414a" fill="#ffdda6"/><path d="M360.38 954.2a6 6 0 0 1 6-6h718.3a6 6 0 0 1 6 6v50.35a6 6 0 0 1-6 6h-718.3a6 6 0 0 1-6-6z" stroke="#000" stroke-opacity="0" fill="#fff" fill-opacity="0"/><g><use xlink:href="#I" transform="matrix(1,0,0,1,365.37806619821754,953.1954327517392) translate(0 33.0486111111111)"/><use xlink:href="#at" transform="matrix(1,0,0,1,365.37806619821754,953.1954327517392) translate(16.049382716049376 33.0486111111111)"/><use xlink:href="#au" transform="matrix(1,0,0,1,365.37806619821754,953.1954327517392) translate(149.17901234567896 33.0486111111111)"/><use xlink:href="#av" transform="matrix(1,0,0,1,365.37806619821754,953.1954327517392) translate(282.3888888888888 33.0486111111111)"/><use xlink:href="#aw" transform="matrix(1,0,0,1,365.37806619821754,953.1954327517392) translate(309.67283950617275 33.0486111111111)"/><use xlink:href="#R" transform="matrix(1,0,0,1,365.37806619821754,953.1954327517392) translate(386.54938271604925 33.0486111111111)"/><use xlink:href="#ax" transform="matrix(1,0,0,1,365.37806619821754,953.1954327517392) translate(420.1728395061727 33.0486111111111)"/><use xlink:href="#ay" transform="matrix(1,0,0,1,365.37806619821754,953.1954327517392) translate(565.9814814814813 33.0486111111111)"/><use xlink:href="#az" transform="matrix(1,0,0,1,365.37806619821754,953.1954327517392) translate(612.364197530864 33.0486111111111)"/></g><path d="M2845.4 787.1l1.38.33 1.3.54 1.22.74 1.07.93.92 1.07.73 1.2.54 1.32.33 1.37.1 1.28v368.24l-.1 1.3-.33 1.36-.54 1.3-.74 1.22-.93 1.07-1.07.92-1.2.73-1.32.54-1.37.33-1.28.1H2823v-6h20.88l.6-.05.44-.1.44-.18.4-.25.35-.3.32-.36.24-.4.18-.44.1-.45.06-.6V796.13l-.05-.6-.1-.44-.18-.44-.25-.4-.3-.36-.36-.3-.4-.25-.44-.17-.45-.1-.6-.06h-550.8v-6h551.05zm-928.46 5.9h-734.8l-.58.05-.46.1-.43.2-.4.23-.36.3-.3.36-.24.4-.18.44-.1.45-.05.6v241.72h-6V795.88l.1-1.3.33-1.36.54-1.3.74-1.22.92-1.07 1.07-.92 1.2-.73 1.3-.54 1.4-.33 1.28-.1h735.04z" stroke="#ffdda6" stroke-width=".05" fill="#ffdda6"/><path d="M2823.08 1173H2820v-6h3.08z" stroke="#ffdda6" stroke-width=".05" fill="#ffdda6"/><path d="M1176.03 1055.12l-4.64-14.27h9.26z" fill="#ffdda6"/><path d="M1176.03 1064.82l-8.77-26.97h17.53zm-.5-20.97l.5 1.56.5-1.55z" stroke="#ffdda6" stroke-width=".05" fill="#ffdda6"/><g><use xlink:href="#an" transform="matrix(1,0,0,1,1916.9413580246915,772.6666666666666) translate(0 23.11111111111111)"/><use xlink:href="#ao" transform="matrix(1,0,0,1,1916.9413580246915,772.6666666666666) translate(116.91975308641976 23.11111111111111)"/><use xlink:href="#aA" transform="matrix(1,0,0,1,1916.9413580246915,772.6666666666666) translate(152.0679012345679 23.11111111111111)"/><use xlink:href="#aq" transform="matrix(1,0,0,1,1916.9413580246915,772.6666666666666) translate(230.54938271604937 23.11111111111111)"/><use xlink:href="#aB" transform="matrix(1,0,0,1,1916.9413580246915,772.6666666666666) translate(264.1728395061728 23.11111111111111)"/></g><path d="M2975.4 927.1l1.38.33 1.3.54 1.22.74 1.07.93.92 1.07.73 1.2.54 1.32.33 1.37.1 1.28v228.24l-.1 1.3-.33 1.36-.54 1.3-.74 1.22-.93 1.07-1.07.92-1.2.73-1.32.54-1.37.33-1.28.1H2943v-6h30.88l.6-.05.44-.1.44-.18.4-.25.35-.3.32-.36.24-.4.18-.44.1-.45.06-.6V936.13l-.05-.6-.1-.44-.18-.44-.25-.4-.3-.36-.36-.3-.4-.25-.44-.17-.45-.1-.6-.06h-753.15v-6h753.4zM1987.3 933H1658.1l-.57.05-.46.1-.43.2-.4.23-.36.3-.3.36-.25.4-.18.44-.1.45-.06.6v102.96h-6V935.87l.1-1.3.33-1.36.54-1.3.74-1.22.92-1.07 1.08-.92 1.2-.73 1.3-.54 1.38-.33 1.3-.1h329.4z" stroke="#3a414a" stroke-width=".05" fill="#3a414a"/><path d="M2943.08 1173H2940v-6h3.08z" stroke="#3a414a" stroke-width=".05" fill="#3a414a"/><path d="M1652 1056.36l-4.64-14.27h9.27z" fill="#3a414a"/><path d="M1652 1066.07l-8.77-26.98h17.53zm-.5-20.98l.5 1.55.5-1.56z" stroke="#3a414a" stroke-width=".05" fill="#3a414a"/><g><use xlink:href="#aC" transform="matrix(1,0,0,1,1987.280864197531,912.6666666666666) translate(0 23.11111111111111)"/><use xlink:href="#aD" transform="matrix(1,0,0,1,1987.280864197531,912.6666666666666) translate(25.598765432098766 23.11111111111111)"/><use xlink:href="#aE" transform="matrix(1,0,0,1,1987.280864197531,912.6666666666666) translate(87.87037037037037 23.11111111111111)"/><use xlink:href="#aF" transform="matrix(1,0,0,1,1987.280864197531,912.6666666666666) translate(147.09259259259258 23.11111111111111)"/><use xlink:href="#aG" transform="matrix(1,0,0,1,1987.280864197531,912.6666666666666) translate(182.24074074074073 23.11111111111111)"/></g><path d="M2824.63 1106a6 6 0 0 1 6-6h228a6 6 0 0 1 6 6v71.33a6 6 0 0 1-6 6h-228a6 6 0 0 1-6-6z" stroke="#000" stroke-opacity="0" fill="#fff" fill-opacity="0"/><g><use xlink:href="#aH" transform="matrix(1,0,0,1,2829.6264744316077,1105) translate(94.93827160493828 43.9236111111111)"/><use xlink:href="#aI" transform="matrix(1,0,0,1,2829.6264744316077,1105) translate(110.98765432098766 43.9236111111111)"/><use xlink:href="#aJ" transform="matrix(1,0,0,1,2829.6264744316077,1105) translate(127.03703703703704 43.9236111111111)"/></g><path d="M3080 888.66a6 6 0 0 1 6-6h225.16a6 6 0 0 1 6 6V960a6 6 0 0 1-6 6H3086a6 6 0 0 1-6-6z" stroke="#000" stroke-opacity="0" fill="#fff" fill-opacity="0"/><g><use xlink:href="#aK" transform="matrix(1,0,0,1,3085,887.6635269492413) translate(114 43.388888888888886)"/></g><path d="M3058.55 1058.68a6 6 0 0 1 6-6h108a6 6 0 0 1 6 6v60a12.48 12.48 0 0 1-4.7 9.75l-50.62 40.5a7.5 7.5 0 0 1-9.37 0l-50.63-40.5a12.48 12.48 0 0 1-4.68-9.75z" stroke="#3a414a" stroke-width="6" fill="#fff"/><g><use xlink:href="#aL" transform="matrix(1,0,0,1,3063.544782925918,1057.6792255363682) translate(13.117283950617285 45.27777777777778)"/><use xlink:href="#aM" transform="matrix(1,0,0,1,3063.544782925918,1057.6792255363682) translate(66.08024691358025 45.27777777777778)"/><use xlink:href="#aN" transform="matrix(1,0,0,1,3063.544782925918,1057.6792255363682) translate(31.57907407407408 71.94444444444446)"/></g><path d="M2760 1106a6 6 0 0 1 6-6h228a6 6 0 0 1 6 6v71.33a6 6 0 0 1-6 6h-228a6 6 0 0 1-6-6z" stroke="#000" stroke-opacity="0" fill="#fff" fill-opacity="0"/><g><use xlink:href="#aH" transform="matrix(1,0,0,1,2765,1105) translate(94.93827160493828 43.9236111111111)"/><use xlink:href="#aI" transform="matrix(1,0,0,1,2765,1105) translate(110.98765432098766 43.9236111111111)"/><use xlink:href="#aJ" transform="matrix(1,0,0,1,2765,1105) translate(127.03703703703704 43.9236111111111)"/></g><path d="M2900 1106a6 6 0 0 1 6-6h228a6 6 0 0 1 6 6v71.33a6 6 0 0 1-6 6h-228a6 6 0 0 1-6-6z" stroke="#000" stroke-opacity="0" fill="#fff" fill-opacity="0"/><g><use xlink:href="#aH" transform="matrix(1,0,0,1,2905,1105) translate(94.93827160493828 43.9236111111111)"/><use xlink:href="#aI" transform="matrix(1,0,0,1,2905,1105) translate(110.98765432098766 43.9236111111111)"/><use xlink:href="#aJ" transform="matrix(1,0,0,1,2905,1105) translate(127.03703703703704 43.9236111111111)"/></g><defs><path fill="#3a414a" d="M30-248c118-7 216 8 213 122C240-48 200 0 122 0H30v-248zM63-27c89 8 146-16 146-99s-60-101-146-95v194" id="aO"/><path fill="#3a414a" d="M100-194c63 0 86 42 84 106H49c0 40 14 67 53 68 26 1 43-12 49-29l28 8c-11 28-37 45-77 45C44 4 14-33 15-96c1-61 26-98 85-98zm52 81c6-60-76-77-97-28-3 7-6 17-6 28h103" id="aP"/><path fill="#3a414a" d="M24 0v-261h32V0H24" id="aQ"/><path fill="#3a414a" d="M59-47c-2 24 18 29 38 22v24C64 9 27 4 27-40v-127H5v-23h24l9-43h21v43h35v23H59v120" id="aR"/><path fill="#3a414a" d="M141-36C126-15 110 5 73 4 37 3 15-17 15-53c-1-64 63-63 125-63 3-35-9-54-41-54-24 1-41 7-42 31l-33-3c5-37 33-52 76-52 45 0 72 20 72 64v82c-1 20 7 32 28 27v20c-31 9-61-2-59-35zM48-53c0 20 12 33 32 33 41-3 63-29 60-74-43 2-92-5-92 41" id="aS"/><g id="a"><use transform="matrix(0.06172839506172839,0,0,0.06172839506172839,0,0)" xlink:href="#aO"/><use transform="matrix(0.06172839506172839,0,0,0.06172839506172839,15.987654320987653,0)" xlink:href="#aP"/><use transform="matrix(0.06172839506172839,0,0,0.06172839506172839,28.333333333333332,0)" xlink:href="#aQ"/><use transform="matrix(0.06172839506172839,0,0,0.06172839506172839,33.20987654320987,0)" xlink:href="#aR"/><use transform="matrix(0.06172839506172839,0,0,0.06172839506172839,39.382716049382715,0)" xlink:href="#aS"/></g><path fill="#3a414a" d="M135-143c-3-34-86-38-87 0 15 53 115 12 119 90S17 21 10-45l28-5c4 36 97 45 98 0-10-56-113-15-118-90-4-57 82-63 122-42 12 7 21 19 24 35" id="aT"/><path fill="#3a414a" d="M24-231v-30h32v30H24zM24 0v-190h32V0H24" id="aU"/><path fill="#3a414a" d="M9 0v-24l116-142H16v-24h144v24L44-24h123V0H9" id="aV"/><g id="b"><use transform="matrix(0.06172839506172839,0,0,0.06172839506172839,0,0)" xlink:href="#aT"/><use transform="matrix(0.06172839506172839,0,0,0.06172839506172839,11.11111111111111,0)" xlink:href="#aU"/><use transform="matrix(0.06172839506172839,0,0,0.06172839506172839,15.987654320987653,0)" xlink:href="#aV"/><use transform="matrix(0.06172839506172839,0,0,0.06172839506172839,27.098765432098766,0)" xlink:href="#aP"/></g><path fill="#3a414a" d="M117-194c89-4 53 116 60 194h-32v-121c0-31-8-49-39-48C34-167 62-67 57 0H25l-1-190h30c1 10-1 24 2 32 11-22 29-35 61-36" id="aW"/><path fill="#3a414a" d="M101-234c-31-9-42 10-38 44h38v23H63V0H32v-167H5v-23h27c-7-52 17-82 69-68v24" id="aX"/><path fill="#3a414a" d="M100-194c62-1 85 37 85 99 1 63-27 99-86 99S16-35 15-95c0-66 28-99 85-99zM99-20c44 1 53-31 53-75 0-43-8-75-51-75s-53 32-53 75 10 74 51 75" id="aY"/><path fill="#3a414a" d="M114-163C36-179 61-72 57 0H25l-1-190h30c1 12-1 29 2 39 6-27 23-49 58-41v29" id="aZ"/><path fill="#3a414a" d="M210-169c-67 3-38 105-44 169h-31v-121c0-29-5-50-35-48C34-165 62-65 56 0H25l-1-190h30c1 10-1 24 2 32 10-44 99-50 107 0 11-21 27-35 58-36 85-2 47 119 55 194h-31v-121c0-29-5-49-35-48" id="ba"/><g id="c"><use transform="matrix(0.06172839506172839,0,0,0.06172839506172839,0,0)" xlink:href="#aU"/><use transform="matrix(0.06172839506172839,0,0,0.06172839506172839,4.876543209876543,0)" xlink:href="#aW"/><use transform="matrix(0.06172839506172839,0,0,0.06172839506172839,17.22222222222222,0)" xlink:href="#aX"/><use transform="matrix(0.06172839506172839,0,0,0.06172839506172839,23.39506172839506,0)" xlink:href="#aY"/><use transform="matrix(0.06172839506172839,0,0,0.06172839506172839,35.74074074074074,0)" xlink:href="#aZ"/><use transform="matrix(0.06172839506172839,0,0,0.06172839506172839,43.08641975308642,0)" xlink:href="#ba"/><use transform="matrix(0.06172839506172839,0,0,0.06172839506172839,61.5432098765432,0)" xlink:href="#aS"/><use transform="matrix(0.06172839506172839,0,0,0.06172839506172839,73.88888888888889,0)" xlink:href="#aR"/><use transform="matrix(0.06172839506172839,0,0,0.06172839506172839,80.06172839506172,0)" xlink:href="#aU"/><use transform="matrix(0.06172839506172839,0,0,0.06172839506172839,84.93827160493827,0)" xlink:href="#aY"/><use transform="matrix(0.06172839506172839,0,0,0.06172839506172839,97.28395061728395,0)" xlink:href="#aW"/></g><path fill="#3a414a" d="M143 4C61 4 22-44 18-125c-5-107 100-154 193-111 17 8 29 25 37 43l-32 9c-13-25-37-40-76-40-61 0-88 39-88 99 0 61 29 100 91 101 35 0 62-11 79-27v-45h-74v-28h105v86C228-13 192 4 143 4" id="bb"/><path fill="#3a414a" d="M179-190L93 31C79 59 56 82 12 73V49c39 6 53-20 64-50L1-190h34L92-34l54-156h33" id="bc"/><g id="d"><use transform="matrix(0.06172839506172839,0,0,0.06172839506172839,0,0)" xlink:href="#bb"/><use transform="matrix(0.06172839506172839,0,0,0.06172839506172839,17.28395061728395,0)" xlink:href="#aP"/><use transform="matrix(0.06172839506172839,0,0,0.06172839506172839,29.629629629629626,0)" xlink:href="#aY"/><use transform="matrix(0.06172839506172839,0,0,0.06172839506172839,41.9753086419753,0)" xlink:href="#ba"/><use transform="matrix(0.06172839506172839,0,0,0.06172839506172839,60.43209876543209,0)" xlink:href="#aP"/><use transform="matrix(0.06172839506172839,0,0,0.06172839506172839,72.77777777777777,0)" xlink:href="#aR"/><use transform="matrix(0.06172839506172839,0,0,0.06172839506172839,78.9506172839506,0)" xlink:href="#aZ"/><use transform="matrix(0.06172839506172839,0,0,0.06172839506172839,86.29629629629629,0)" xlink:href="#bc"/></g><path fill="#3a414a" d="M115-194c55 1 70 41 70 98S169 2 115 4C84 4 66-9 55-30l1 105H24l-1-265h31l2 30c10-21 28-34 59-34zm-8 174c40 0 45-34 45-75s-6-73-45-74c-42 0-51 32-51 76 0 43 10 73 51 73" id="bd"/><g id="e"><use transform="matrix(0.06172839506172839,0,0,0.06172839506172839,0,0)" xlink:href="#aR"/><use transform="matrix(0.06172839506172839,0,0,0.06172839506172839,6.172839506172839,0)" xlink:href="#bc"/><use transform="matrix(0.06172839506172839,0,0,0.06172839506172839,17.28395061728395,0)" xlink:href="#bd"/><use transform="matrix(0.06172839506172839,0,0,0.06172839506172839,29.629629629629626,0)" xlink:href="#aP"/></g><path fill="#3a414a" d="M30 0v-248h33v221h125V0H30" id="be"/><g id="f"><use transform="matrix(0.06172839506172839,0,0,0.06172839506172839,0,0)" xlink:href="#be"/><use transform="matrix(0.06172839506172839,0,0,0.06172839506172839,12.345679012345679,0)" xlink:href="#aU"/><use transform="matrix(0.06172839506172839,0,0,0.06172839506172839,17.22222222222222,0)" xlink:href="#aT"/><use transform="matrix(0.06172839506172839,0,0,0.06172839506172839,28.333333333333332,0)" xlink:href="#aR"/></g><g id="g"><use transform="matrix(0.06172839506172839,0,0,0.06172839506172839,0,0)" xlink:href="#aY"/><use transform="matrix(0.06172839506172839,0,0,0.06172839506172839,12.345679012345679,0)" xlink:href="#aX"/></g><path fill="#3a414a" d="M212-179c-10-28-35-45-73-45-59 0-87 40-87 99 0 60 29 101 89 101 43 0 62-24 78-52l27 14C228-24 195 4 139 4 59 4 22-46 18-125c-6-104 99-153 187-111 19 9 31 26 39 46" id="bf"/><path fill="#3a414a" d="M106-169C34-169 62-67 57 0H25v-261h32l-1 103c12-21 28-36 61-36 89 0 53 116 60 194h-32v-121c2-32-8-49-39-48" id="bg"/><path fill="#3a414a" d="M84 4C-5 8 30-112 23-190h32v120c0 31 7 50 39 49 72-2 45-101 50-169h31l1 190h-30c-1-10 1-25-2-33-11 22-28 36-60 37" id="bh"/><path fill="#3a414a" d="M143 0L79-87 56-68V0H24v-261h32v163l83-92h37l-77 82L181 0h-38" id="bi"/><g id="h"><use transform="matrix(0.06172839506172839,0,0,0.06172839506172839,0,0)" xlink:href="#bf"/><use transform="matrix(0.06172839506172839,0,0,0.06172839506172839,15.987654320987653,0)" xlink:href="#bg"/><use transform="matrix(0.06172839506172839,0,0,0.06172839506172839,28.333333333333332,0)" xlink:href="#bh"/><use transform="matrix(0.06172839506172839,0,0,0.06172839506172839,40.67901234567901,0)" xlink:href="#aW"/><use transform="matrix(0.06172839506172839,0,0,0.06172839506172839,53.02469135802469,0)" xlink:href="#bi"/></g><path fill="#3a414a" d="M115-194c53 0 69 39 70 98 0 66-23 100-70 100C84 3 66-7 56-30L54 0H23l1-261h32v101c10-23 28-34 59-34zm-8 174c40 0 45-34 45-75 0-40-5-75-45-74-42 0-51 32-51 76 0 43 10 73 51 73" id="bj"/><path fill="#3a414a" d="M85-194c31 0 48 13 60 33l-1-100h32l1 261h-30c-2-10 0-23-3-31C134-8 116 4 85 4 32 4 16-35 15-94c0-66 23-100 70-100zm9 24c-40 0-46 34-46 75 0 40 6 74 45 74 42 0 51-32 51-76 0-42-9-74-50-73" id="bk"/><path fill="#3a414a" d="M177-190C167-65 218 103 67 71c-23-6-38-20-44-43l32-5c15 47 100 32 89-28v-30C133-14 115 1 83 1 29 1 15-40 15-95c0-56 16-97 71-98 29-1 48 16 59 35 1-10 0-23 2-32h30zM94-22c36 0 50-32 50-73 0-42-14-75-50-75-39 0-46 34-46 75s6 73 46 73" id="bl"/><g id="i"><use transform="matrix(0.06172839506172839,0,0,0.06172839506172839,0,0)" xlink:href="#bj"/><use transform="matrix(0.06172839506172839,0,0,0.06172839506172839,12.345679012345679,0)" xlink:href="#aY"/><use transform="matrix(0.06172839506172839,0,0,0.06172839506172839,24.691358024691358,0)" xlink:href="#bh"/><use transform="matrix(0.06172839506172839,0,0,0.06172839506172839,37.03703703703704,0)" xlink:href="#aW"/><use transform="matrix(0.06172839506172839,0,0,0.06172839506172839,49.382716049382715,0)" xlink:href="#bk"/><use transform="matrix(0.06172839506172839,0,0,0.06172839506172839,61.72839506172839,0)" xlink:href="#aU"/><use transform="matrix(0.06172839506172839,0,0,0.06172839506172839,66.60493827160494,0)" xlink:href="#aW"/><use transform="matrix(0.06172839506172839,0,0,0.06172839506172839,78.95061728395062,0)" xlink:href="#bl"/></g><path fill="#3a414a" d="M141 0L90-78 38 0H4l68-98-65-92h35l48 74 47-74h35l-64 92 68 98h-35" id="bm"/><g id="j"><use transform="matrix(0.06172839506172839,0,0,0.06172839506172839,0,0)" xlink:href="#bj"/><use transform="matrix(0.06172839506172839,0,0,0.06172839506172839,12.345679012345679,0)" xlink:href="#aY"/><use transform="matrix(0.06172839506172839,0,0,0.06172839506172839,24.691358024691358,0)" xlink:href="#bm"/></g><path fill="#3a414a" d="M96-169c-40 0-48 33-48 73s9 75 48 75c24 0 41-14 43-38l32 2c-6 37-31 61-74 61-59 0-76-41-82-99-10-93 101-131 147-64 4 7 5 14 7 22l-32 3c-4-21-16-35-41-35" id="bn"/><g id="k"><use transform="matrix(0.06172839506172839,0,0,0.06172839506172839,0,0)" xlink:href="#bn"/><use transform="matrix(0.06172839506172839,0,0,0.06172839506172839,11.11111111111111,0)" xlink:href="#aY"/><use transform="matrix(0.06172839506172839,0,0,0.06172839506172839,23.45679012345679,0)" xlink:href="#aY"/><use transform="matrix(0.06172839506172839,0,0,0.06172839506172839,35.80246913580247,0)" xlink:href="#aZ"/><use transform="matrix(0.06172839506172839,0,0,0.06172839506172839,43.148148148148145,0)" xlink:href="#bk"/><use transform="matrix(0.06172839506172839,0,0,0.06172839506172839,55.49382716049382,0)" xlink:href="#aU"/><use transform="matrix(0.06172839506172839,0,0,0.06172839506172839,60.37037037037037,0)" xlink:href="#aW"/><use transform="matrix(0.06172839506172839,0,0,0.06172839506172839,72.71604938271605,0)" xlink:href="#aS"/><use transform="matrix(0.06172839506172839,0,0,0.06172839506172839,85.06172839506173,0)" xlink:href="#aR"/><use transform="matrix(0.06172839506172839,0,0,0.06172839506172839,91.23456790123457,0)" xlink:href="#aP"/><use transform="matrix(0.06172839506172839,0,0,0.06172839506172839,103.58024691358025,0)" xlink:href="#aT"/></g><path fill="#3a414a" d="M127-220V0H93v-220H8v-28h204v28h-85" id="bo"/><g id="l"><use transform="matrix(0.06172839506172839,0,0,0.06172839506172839,0,0)" xlink:href="#bo"/><use transform="matrix(0.06172839506172839,0,0,0.06172839506172839,11.049382716049381,0)" xlink:href="#aY"/><use transform="matrix(0.06172839506172839,0,0,0.06172839506172839,23.39506172839506,0)" xlink:href="#aR"/><use transform="matrix(0.06172839506172839,0,0,0.06172839506172839,29.5679012345679,0)" xlink:href="#aS"/><use transform="matrix(0.06172839506172839,0,0,0.06172839506172839,41.913580246913575,0)" xlink:href="#aQ"/></g><g id="m"><use transform="matrix(0.06172839506172839,0,0,0.06172839506172839,0,0)" xlink:href="#aW"/><use transform="matrix(0.06172839506172839,0,0,0.06172839506172839,12.345679012345679,0)" xlink:href="#bh"/><use transform="matrix(0.06172839506172839,0,0,0.06172839506172839,24.691358024691358,0)" xlink:href="#ba"/><use transform="matrix(0.06172839506172839,0,0,0.06172839506172839,43.148148148148145,0)" xlink:href="#bj"/><use transform="matrix(0.06172839506172839,0,0,0.06172839506172839,55.49382716049382,0)" xlink:href="#aP"/><use transform="matrix(0.06172839506172839,0,0,0.06172839506172839,67.8395061728395,0)" xlink:href="#aZ"/></g><g id="n"><use transform="matrix(0.06172839506172839,0,0,0.06172839506172839,0,0)" xlink:href="#aY"/><use transform="matrix(0.06172839506172839,0,0,0.06172839506172839,12.345679012345679,0)" xlink:href="#aX"/></g><g id="o"><use transform="matrix(0.06172839506172839,0,0,0.06172839506172839,0,0)" xlink:href="#bn"/><use transform="matrix(0.06172839506172839,0,0,0.06172839506172839,11.11111111111111,0)" xlink:href="#aY"/><use transform="matrix(0.06172839506172839,0,0,0.06172839506172839,23.45679012345679,0)" xlink:href="#aY"/><use transform="matrix(0.06172839506172839,0,0,0.06172839506172839,35.80246913580247,0)" xlink:href="#aZ"/><use transform="matrix(0.06172839506172839,0,0,0.06172839506172839,43.148148148148145,0)" xlink:href="#bk"/><use transform="matrix(0.06172839506172839,0,0,0.06172839506172839,55.49382716049382,0)" xlink:href="#aU"/><use transform="matrix(0.06172839506172839,0,0,0.06172839506172839,60.37037037037037,0)" xlink:href="#aW"/><use transform="matrix(0.06172839506172839,0,0,0.06172839506172839,72.71604938271605,0)" xlink:href="#aS"/><use transform="matrix(0.06172839506172839,0,0,0.06172839506172839,85.06172839506173,0)" xlink:href="#aR"/><use transform="matrix(0.06172839506172839,0,0,0.06172839506172839,91.23456790123457,0)" xlink:href="#aP"/><use transform="matrix(0.06172839506172839,0,0,0.06172839506172839,103.58024691358025,0)" xlink:href="#aT"/></g><path fill="#3a414a" d="M190 0L58-211 59 0H30v-248h39L202-35l-2-213h31V0h-41" id="bp"/><g id="p"><use transform="matrix(0.061728395061728385,0,0,0.061728395061728385,0,0)" xlink:href="#bp"/><use transform="matrix(0.061728395061728385,0,0,0.061728395061728385,15.987654320987652,0)" xlink:href="#bh"/><use transform="matrix(0.061728395061728385,0,0,0.061728395061728385,28.33333333333333,0)" xlink:href="#ba"/><use transform="matrix(0.061728395061728385,0,0,0.061728395061728385,46.79012345679011,0)" xlink:href="#bj"/><use transform="matrix(0.061728395061728385,0,0,0.061728395061728385,59.13580246913579,0)" xlink:href="#aP"/><use transform="matrix(0.061728395061728385,0,0,0.061728395061728385,71.48148148148147,0)" xlink:href="#aZ"/></g><g id="q"><use transform="matrix(0.061728395061728385,0,0,0.061728395061728385,0,0)" xlink:href="#aY"/><use transform="matrix(0.061728395061728385,0,0,0.061728395061728385,12.345679012345677,0)" xlink:href="#aX"/></g><g id="r"><use transform="matrix(0.061728395061728385,0,0,0.061728395061728385,0,0)" xlink:href="#aZ"/><use transform="matrix(0.061728395061728385,0,0,0.061728395061728385,7.345679012345678,0)" xlink:href="#aU"/><use transform="matrix(0.061728395061728385,0,0,0.061728395061728385,12.222222222222221,0)" xlink:href="#aW"/><use transform="matrix(0.061728395061728385,0,0,0.061728395061728385,24.5679012345679,0)" xlink:href="#bl"/><use transform="matrix(0.061728395061728385,0,0,0.061728395061728385,36.913580246913575,0)" xlink:href="#aT"/></g><g id="s"><use transform="matrix(0.061728395061728385,0,0,0.061728395061728385,0,0)" xlink:href="#aU"/><use transform="matrix(0.061728395061728385,0,0,0.061728395061728385,4.876543209876543,0)" xlink:href="#aW"/></g><g id="t"><use transform="matrix(0.061728395061728385,0,0,0.061728395061728385,0,0)" xlink:href="#bh"/><use transform="matrix(0.061728395061728385,0,0,0.061728395061728385,12.345679012345677,0)" xlink:href="#bd"/><use transform="matrix(0.061728395061728385,0,0,0.061728395061728385,24.691358024691354,0)" xlink:href="#bn"/><use transform="matrix(0.061728395061728385,0,0,0.061728395061728385,35.80246913580246,0)" xlink:href="#aY"/><use transform="matrix(0.061728395061728385,0,0,0.061728395061728385,48.14814814814814,0)" xlink:href="#ba"/><use transform="matrix(0.061728395061728385,0,0,0.061728395061728385,66.60493827160492,0)" xlink:href="#aU"/><use transform="matrix(0.061728395061728385,0,0,0.061728395061728385,71.48148148148147,0)" xlink:href="#aW"/><use transform="matrix(0.061728395061728385,0,0,0.061728395061728385,83.82716049382714,0)" xlink:href="#bl"/></g><g id="u"><use transform="matrix(0.061728395061728385,0,0,0.061728395061728385,0,0)" xlink:href="#bd"/><use transform="matrix(0.061728395061728385,0,0,0.061728395061728385,12.345679012345677,0)" xlink:href="#aY"/><use transform="matrix(0.061728395061728385,0,0,0.061728395061728385,24.691358024691354,0)" xlink:href="#aQ"/><use transform="matrix(0.061728395061728385,0,0,0.061728395061728385,29.5679012345679,0)" xlink:href="#bc"/><use transform="matrix(0.061728395061728385,0,0,0.061728395061728385,40.679012345679006,0)" xlink:href="#bl"/><use transform="matrix(0.061728395061728385,0,0,0.061728395061728385,53.02469135802468,0)" xlink:href="#aY"/><use transform="matrix(0.061728395061728385,0,0,0.061728395061728385,65.37037037037035,0)" xlink:href="#aW"/></g><g id="v"><use transform="matrix(0.061728395061728385,0,0,0.061728395061728385,0,0)" xlink:href="#bn"/><use transform="matrix(0.061728395061728385,0,0,0.061728395061728385,11.111111111111109,0)" xlink:href="#bg"/><use transform="matrix(0.061728395061728385,0,0,0.061728395061728385,23.456790123456784,0)" xlink:href="#bh"/><use transform="matrix(0.061728395061728385,0,0,0.061728395061728385,35.80246913580246,0)" xlink:href="#aW"/><use transform="matrix(0.061728395061728385,0,0,0.061728395061728385,48.14814814814814,0)" xlink:href="#bi"/><use transform="matrix(0.061728395061728385,0,0,0.061728395061728385,59.259259259259245,0)" xlink:href="#aT"/></g><g id="w"><use transform="matrix(0.061728395061728385,0,0,0.061728395061728385,0,0)" xlink:href="#aZ"/><use transform="matrix(0.061728395061728385,0,0,0.061728395061728385,7.345679012345678,0)" xlink:href="#aU"/><use transform="matrix(0.061728395061728385,0,0,0.061728395061728385,12.222222222222221,0)" xlink:href="#aW"/><use transform="matrix(0.061728395061728385,0,0,0.061728395061728385,24.5679012345679,0)" xlink:href="#bl"/></g><g id="x"><use transform="matrix(0.06172839506172839,0,0,0.06172839506172839,0,0)" xlink:href="#bp"/><use transform="matrix(0.06172839506172839,0,0,0.06172839506172839,15.987654320987653,0)" xlink:href="#bj"/><use transform="matrix(0.06172839506172839,0,0,0.06172839506172839,28.333333333333332,0)" xlink:href="#aZ"/></g><g id="y"><use transform="matrix(0.06172839506172839,0,0,0.06172839506172839,0,0)" xlink:href="#bk"/><use transform="matrix(0.06172839506172839,0,0,0.06172839506172839,12.345679012345679,0)" xlink:href="#aP"/><use transform="matrix(0.06172839506172839,0,0,0.06172839506172839,24.691358024691358,0)" xlink:href="#aQ"/><use transform="matrix(0.06172839506172839,0,0,0.06172839506172839,29.5679012345679,0)" xlink:href="#aR"/><use transform="matrix(0.06172839506172839,0,0,0.06172839506172839,35.74074074074074,0)" xlink:href="#aS"/><use transform="matrix(0.06172839506172839,0,0,0.06172839506172839,48.08641975308642,0)" xlink:href="#aT"/></g><g id="z"><use transform="matrix(0.06172839506172839,0,0,0.06172839506172839,0,0)" xlink:href="#aU"/><use transform="matrix(0.06172839506172839,0,0,0.06172839506172839,4.876543209876543,0)" xlink:href="#aW"/></g><g id="A"><use transform="matrix(0.06172839506172839,0,0,0.06172839506172839,0,0)" xlink:href="#bn"/><use transform="matrix(0.06172839506172839,0,0,0.06172839506172839,11.11111111111111,0)" xlink:href="#bg"/><use transform="matrix(0.06172839506172839,0,0,0.06172839506172839,23.45679012345679,0)" xlink:href="#bh"/><use transform="matrix(0.06172839506172839,0,0,0.06172839506172839,35.80246913580247,0)" xlink:href="#aW"/><use transform="matrix(0.06172839506172839,0,0,0.06172839506172839,48.148148148148145,0)" xlink:href="#bi"/></g><path fill="#3a414a" d="M63-220v92h138v28H63V0H30v-248h175v28H63" id="bq"/><g id="B"><use transform="matrix(0.06172839506172839,0,0,0.06172839506172839,0,0)" xlink:href="#bq"/><use transform="matrix(0.06172839506172839,0,0,0.06172839506172839,13.518518518518517,0)" xlink:href="#bh"/><use transform="matrix(0.06172839506172839,0,0,0.06172839506172839,25.864197530864196,0)" xlink:href="#aQ"/><use transform="matrix(0.06172839506172839,0,0,0.06172839506172839,30.74074074074074,0)" xlink:href="#aQ"/></g><g id="C"><use transform="matrix(0.06172839506172839,0,0,0.06172839506172839,0,0)" xlink:href="#aX"/><use transform="matrix(0.06172839506172839,0,0,0.06172839506172839,6.172839506172839,0)" xlink:href="#aQ"/><use transform="matrix(0.06172839506172839,0,0,0.06172839506172839,11.049382716049383,0)" xlink:href="#aY"/><use transform="matrix(0.06172839506172839,0,0,0.06172839506172839,23.395061728395063,0)" xlink:href="#aS"/><use transform="matrix(0.06172839506172839,0,0,0.06172839506172839,35.74074074074074,0)" xlink:href="#aR"/><use transform="matrix(0.06172839506172839,0,0,0.06172839506172839,41.91358024691358,0)" xlink:href="#aU"/><use transform="matrix(0.06172839506172839,0,0,0.06172839506172839,46.79012345679013,0)" xlink:href="#aW"/><use transform="matrix(0.06172839506172839,0,0,0.06172839506172839,59.135802469135804,0)" xlink:href="#bl"/></g><g id="D"><use transform="matrix(0.06172839506172839,0,0,0.06172839506172839,0,0)" xlink:href="#bd"/><use transform="matrix(0.06172839506172839,0,0,0.06172839506172839,12.345679012345679,0)" xlink:href="#aY"/><use transform="matrix(0.06172839506172839,0,0,0.06172839506172839,24.691358024691358,0)" xlink:href="#aU"/><use transform="matrix(0.06172839506172839,0,0,0.06172839506172839,29.5679012345679,0)" xlink:href="#aW"/><use transform="matrix(0.06172839506172839,0,0,0.06172839506172839,41.913580246913575,0)" xlink:href="#aR"/></g><g id="E"><use transform="matrix(0.06172839506172839,0,0,0.06172839506172839,0,0)" xlink:href="#bn"/><use transform="matrix(0.06172839506172839,0,0,0.06172839506172839,11.11111111111111,0)" xlink:href="#aY"/><use transform="matrix(0.06172839506172839,0,0,0.06172839506172839,23.45679012345679,0)" xlink:href="#aY"/><use transform="matrix(0.06172839506172839,0,0,0.06172839506172839,35.80246913580247,0)" xlink:href="#aZ"/><use transform="matrix(0.06172839506172839,0,0,0.06172839506172839,43.148148148148145,0)" xlink:href="#bk"/><use transform="matrix(0.06172839506172839,0,0,0.06172839506172839,55.49382716049382,0)" xlink:href="#aU"/><use transform="matrix(0.06172839506172839,0,0,0.06172839506172839,60.37037037037037,0)" xlink:href="#aW"/><use transform="matrix(0.06172839506172839,0,0,0.06172839506172839,72.71604938271605,0)" xlink:href="#aS"/><use transform="matrix(0.06172839506172839,0,0,0.06172839506172839,85.06172839506173,0)" xlink:href="#aR"/><use transform="matrix(0.06172839506172839,0,0,0.06172839506172839,91.23456790123457,0)" xlink:href="#aP"/></g><g id="F"><use transform="matrix(0.06172839506172839,0,0,0.06172839506172839,0,0)" xlink:href="#bf"/><use transform="matrix(0.06172839506172839,0,0,0.06172839506172839,15.987654320987653,0)" xlink:href="#bg"/><use transform="matrix(0.06172839506172839,0,0,0.06172839506172839,28.333333333333332,0)" xlink:href="#bh"/><use transform="matrix(0.06172839506172839,0,0,0.06172839506172839,40.67901234567901,0)" xlink:href="#aW"/><use transform="matrix(0.06172839506172839,0,0,0.06172839506172839,53.02469135802469,0)" xlink:href="#bi"/></g><g id="G"><use transform="matrix(0.06172839506172839,0,0,0.06172839506172839,0,0)" xlink:href="#bj"/><use transform="matrix(0.06172839506172839,0,0,0.06172839506172839,12.345679012345679,0)" xlink:href="#bc"/><use transform="matrix(0.06172839506172839,0,0,0.06172839506172839,23.45679012345679,0)" xlink:href="#aR"/><use transform="matrix(0.06172839506172839,0,0,0.06172839506172839,29.62962962962963,0)" xlink:href="#aP"/></g><g id="H"><use transform="matrix(0.06172839506172839,0,0,0.06172839506172839,0,0)" xlink:href="#aT"/><use transform="matrix(0.06172839506172839,0,0,0.06172839506172839,11.11111111111111,0)" xlink:href="#aU"/><use transform="matrix(0.06172839506172839,0,0,0.06172839506172839,15.987654320987653,0)" xlink:href="#aV"/><use transform="matrix(0.06172839506172839,0,0,0.06172839506172839,27.098765432098766,0)" xlink:href="#aP"/></g><path fill="#3a414a" d="M33-154v-36h34v36H33zM33 0v-36h34V0H33" id="br"/><use transform="matrix(0.08024691358024688,0,0,0.08024691358024688,0,0)" xlink:href="#br" id="I"/><g id="J"><use transform="matrix(0.08024691358024688,0,0,0.08024691358024688,0,0)" xlink:href="#bf"/><use transform="matrix(0.08024691358024688,0,0,0.08024691358024688,20.783950617283942,0)" xlink:href="#aY"/><use transform="matrix(0.08024691358024688,0,0,0.08024691358024688,36.833333333333314,0)" xlink:href="#ba"/><use transform="matrix(0.08024691358024688,0,0,0.08024691358024688,60.82716049382714,0)" xlink:href="#bd"/><use transform="matrix(0.08024691358024688,0,0,0.08024691358024688,76.87654320987652,0)" xlink:href="#aY"/><use transform="matrix(0.08024691358024688,0,0,0.08024691358024688,92.9259259259259,0)" xlink:href="#aW"/><use transform="matrix(0.08024691358024688,0,0,0.08024691358024688,108.97530864197529,0)" xlink:href="#aP"/><use transform="matrix(0.08024691358024688,0,0,0.08024691358024688,125.02469135802465,0)" xlink:href="#aW"/><use transform="matrix(0.08024691358024688,0,0,0.08024691358024688,141.07407407407402,0)" xlink:href="#aR"/></g><g id="K"><use transform="matrix(0.08024691358024688,0,0,0.08024691358024688,0,0)" xlink:href="#aY"/><use transform="matrix(0.08024691358024688,0,0,0.08024691358024688,16.049382716049376,0)" xlink:href="#aW"/><use transform="matrix(0.08024691358024688,0,0,0.08024691358024688,32.09876543209875,0)" xlink:href="#aQ"/><use transform="matrix(0.08024691358024688,0,0,0.08024691358024688,38.43827160493826,0)" xlink:href="#bc"/></g><path fill="#3a414a" d="M108 0H70L1-190h34L89-25l56-165h34" id="bs"/><g id="L"><use transform="matrix(0.08024691358024688,0,0,0.08024691358024688,0,0)" xlink:href="#aS"/><use transform="matrix(0.08024691358024688,0,0,0.08024691358024688,16.049382716049376,0)" xlink:href="#bn"/><use transform="matrix(0.08024691358024688,0,0,0.08024691358024688,30.493827160493815,0)" xlink:href="#aR"/><use transform="matrix(0.08024691358024688,0,0,0.08024691358024688,38.518518518518505,0)" xlink:href="#aU"/><use transform="matrix(0.08024691358024688,0,0,0.08024691358024688,44.858024691358004,0)" xlink:href="#bs"/><use transform="matrix(0.08024691358024688,0,0,0.08024691358024688,59.302469135802454,0)" xlink:href="#aP"/></g><g id="M"><use transform="matrix(0.08024691358024688,0,0,0.08024691358024688,0,0)" xlink:href="#aU"/><use transform="matrix(0.08024691358024688,0,0,0.08024691358024688,6.339506172839504,0)" xlink:href="#aX"/></g><g id="N"><use transform="matrix(0.08024691358024688,0,0,0.08024691358024688,0,0)" xlink:href="#bl"/><use transform="matrix(0.08024691358024688,0,0,0.08024691358024688,16.049382716049376,0)" xlink:href="#aP"/><use transform="matrix(0.08024691358024688,0,0,0.08024691358024688,32.09876543209875,0)" xlink:href="#aY"/><use transform="matrix(0.08024691358024688,0,0,0.08024691358024688,48.14814814814812,0)" xlink:href="#ba"/><use transform="matrix(0.08024691358024688,0,0,0.08024691358024688,72.14197530864195,0)" xlink:href="#aR"/><use transform="matrix(0.08024691358024688,0,0,0.08024691358024688,80.16666666666663,0)" xlink:href="#aZ"/><use transform="matrix(0.08024691358024688,0,0,0.08024691358024688,89.71604938271601,0)" xlink:href="#bc"/></g><g id="O"><use transform="matrix(0.08024691358024688,0,0,0.08024691358024688,0,0)" xlink:href="#aU"/><use transform="matrix(0.08024691358024688,0,0,0.08024691358024688,6.339506172839504,0)" xlink:href="#aT"/></g><path fill="#3a414a" d="M240 0l2-218c-23 76-54 145-80 218h-23L58-218 59 0H30v-248h44l77 211c21-75 51-140 76-211h43V0h-30" id="bt"/><g id="P"><use transform="matrix(0.08024691358024688,0,0,0.08024691358024688,0,0)" xlink:href="#bt"/><use transform="matrix(0.08024691358024688,0,0,0.08024691358024688,23.99382716049382,0)" xlink:href="#bh"/><use transform="matrix(0.08024691358024688,0,0,0.08024691358024688,40.043209876543195,0)" xlink:href="#aQ"/><use transform="matrix(0.08024691358024688,0,0,0.08024691358024688,46.3827160493827,0)" xlink:href="#aR"/><use transform="matrix(0.08024691358024688,0,0,0.08024691358024688,54.4074074074074,0)" xlink:href="#aU"/><use transform="matrix(0.08024691358024688,0,0,0.08024691358024688,60.7469135802469,0)" xlink:href="#bd"/><use transform="matrix(0.08024691358024688,0,0,0.08024691358024688,76.79629629629628,0)" xlink:href="#aY"/><use transform="matrix(0.08024691358024688,0,0,0.08024691358024688,92.84567901234566,0)" xlink:href="#aQ"/><use transform="matrix(0.08024691358024688,0,0,0.08024691358024688,99.18518518518516,0)" xlink:href="#bc"/><use transform="matrix(0.08024691358024688,0,0,0.08024691358024688,113.6296296296296,0)" xlink:href="#bl"/><use transform="matrix(0.08024691358024688,0,0,0.08024691358024688,129.67901234567898,0)" xlink:href="#aY"/><use transform="matrix(0.08024691358024688,0,0,0.08024691358024688,145.72839506172835,0)" xlink:href="#aW"/></g><path fill="#3a414a" d="M30-248c87 1 191-15 191 75 0 78-77 80-158 76V0H30v-248zm33 125c57 0 124 11 124-50 0-59-68-47-124-48v98" id="bu"/><g id="Q"><use transform="matrix(0.08024691358024688,0,0,0.08024691358024688,0,0)" xlink:href="#bu"/><use transform="matrix(0.08024691358024688,0,0,0.08024691358024688,19.259259259259252,0)" xlink:href="#aY"/><use transform="matrix(0.08024691358024688,0,0,0.08024691358024688,35.30864197530863,0)" xlink:href="#aQ"/><use transform="matrix(0.08024691358024688,0,0,0.08024691358024688,41.64814814814814,0)" xlink:href="#bc"/><use transform="matrix(0.08024691358024688,0,0,0.08024691358024688,56.09259259259258,0)" xlink:href="#bl"/><use transform="matrix(0.08024691358024688,0,0,0.08024691358024688,72.14197530864196,0)" xlink:href="#aY"/><use transform="matrix(0.08024691358024688,0,0,0.08024691358024688,88.19135802469134,0)" xlink:href="#aW"/></g><g id="R"><use transform="matrix(0.08024691358024688,0,0,0.08024691358024688,0,0)" xlink:href="#aY"/><use transform="matrix(0.08024691358024688,0,0,0.08024691358024688,16.049382716049376,0)" xlink:href="#aZ"/></g><path fill="#3a414a" d="M160-131c35 5 61 23 61 61C221 17 115-2 30 0v-248c76 3 177-17 177 60 0 33-19 50-47 57zm-97-11c50-1 110 9 110-42 0-47-63-36-110-37v79zm0 115c55-2 124 14 124-45 0-56-70-42-124-44v89" id="bv"/><g id="S"><use transform="matrix(0.08024691358024688,0,0,0.08024691358024688,0,0)" xlink:href="#bv"/><use transform="matrix(0.08024691358024688,0,0,0.08024691358024688,19.259259259259252,0)" xlink:href="#aY"/><use transform="matrix(0.08024691358024688,0,0,0.08024691358024688,35.30864197530863,0)" xlink:href="#bm"/></g><g id="T"><use transform="matrix(0.08024691358024688,0,0,0.08024691358024688,0,0)" xlink:href="#bk"/><use transform="matrix(0.08024691358024688,0,0,0.08024691358024688,16.049382716049376,0)" xlink:href="#aP"/><use transform="matrix(0.08024691358024688,0,0,0.08024691358024688,32.09876543209875,0)" xlink:href="#aQ"/><use transform="matrix(0.08024691358024688,0,0,0.08024691358024688,38.43827160493826,0)" xlink:href="#aR"/><use transform="matrix(0.08024691358024688,0,0,0.08024691358024688,46.46296296296295,0)" xlink:href="#aS"/><use transform="matrix(0.08024691358024688,0,0,0.08024691358024688,62.51234567901233,0)" xlink:href="#aT"/></g><g id="U"><use transform="matrix(0.08024691358024688,0,0,0.08024691358024688,0,0)" xlink:href="#aS"/><use transform="matrix(0.08024691358024688,0,0,0.08024691358024688,16.049382716049376,0)" xlink:href="#aZ"/><use transform="matrix(0.08024691358024688,0,0,0.08024691358024688,25.598765432098755,0)" xlink:href="#aP"/></g><g id="V"><use transform="matrix(0.08024691358024688,0,0,0.08024691358024688,0,0)" xlink:href="#aP"/><use transform="matrix(0.08024691358024688,0,0,0.08024691358024688,16.049382716049376,0)" xlink:href="#aW"/><use transform="matrix(0.08024691358024688,0,0,0.08024691358024688,32.09876543209875,0)" xlink:href="#aR"/><use transform="matrix(0.08024691358024688,0,0,0.08024691358024688,40.12345679012344,0)" xlink:href="#aZ"/><use transform="matrix(0.08024691358024688,0,0,0.08024691358024688,49.67283950617282,0)" xlink:href="#aY"/><use transform="matrix(0.08024691358024688,0,0,0.08024691358024688,65.7222222222222,0)" xlink:href="#bd"/><use transform="matrix(0.08024691358024688,0,0,0.08024691358024688,81.77160493827158,0)" xlink:href="#bc"/></g><g id="W"><use transform="matrix(0.08024691358024688,0,0,0.08024691358024688,0,0)" xlink:href="#aP"/><use transform="matrix(0.08024691358024688,0,0,0.08024691358024688,16.049382716049376,0)" xlink:href="#aW"/><use transform="matrix(0.08024691358024688,0,0,0.08024691358024688,32.09876543209875,0)" xlink:href="#bn"/><use transform="matrix(0.08024691358024688,0,0,0.08024691358024688,46.543209876543195,0)" xlink:href="#aY"/><use transform="matrix(0.08024691358024688,0,0,0.08024691358024688,62.59259259259257,0)" xlink:href="#bk"/><use transform="matrix(0.08024691358024688,0,0,0.08024691358024688,78.64197530864195,0)" xlink:href="#aP"/><use transform="matrix(0.08024691358024688,0,0,0.08024691358024688,94.69135802469133,0)" xlink:href="#bk"/></g><path fill="#333" d="M67-125c0 54 23 88 75 88 28 0 53-7 68-21v-34h-60v-39h108v91C232-14 192 4 140 4 58 4 20-42 15-125 8-236 126-280 215-234c19 10 29 26 37 47l-47 15c-11-23-29-39-63-39-53 1-75 33-75 86" id="bw"/><path fill="#333" d="M25 0v-261h50V0H25" id="bx"/><path fill="#333" d="M110-194c64 0 96 36 96 99 0 64-35 99-97 99-61 0-95-36-95-99 0-62 34-99 96-99zm-1 164c35 0 45-28 45-65 0-40-10-65-43-65-34 0-45 26-45 65 0 36 10 65 43 65" id="by"/><path fill="#333" d="M135-194c52 0 70 43 70 98 0 56-19 99-73 100-30 1-46-15-58-35L72 0H24l1-261h50v104c11-23 29-37 60-37zM114-30c31 0 40-27 40-66 0-37-7-63-39-63s-41 28-41 65c0 36 8 64 40 64" id="bz"/><path fill="#333" d="M133-34C117-15 103 5 69 4 32 3 11-16 11-54c-1-60 55-63 116-61 1-26-3-47-28-47-18 1-26 9-28 27l-52-2c7-38 36-58 82-57s74 22 75 68l1 82c-1 14 12 18 25 15v27c-30 8-71 5-69-32zm-48 3c29 0 43-24 42-57-32 0-66-3-65 30 0 17 8 27 23 27" id="bA"/><g id="X"><use transform="matrix(0.08024691358024691,0,0,0.08024691358024691,0,0)" xlink:href="#bw"/><use transform="matrix(0.08024691358024691,0,0,0.08024691358024691,22.469135802469136,0)" xlink:href="#bx"/><use transform="matrix(0.08024691358024691,0,0,0.08024691358024691,30.49382716049383,0)" xlink:href="#by"/><use transform="matrix(0.08024691358024691,0,0,0.08024691358024691,48.0679012345679,0)" xlink:href="#bz"/><use transform="matrix(0.08024691358024691,0,0,0.08024691358024691,65.64197530864197,0)" xlink:href="#bA"/><use transform="matrix(0.08024691358024691,0,0,0.08024691358024691,81.69135802469135,0)" xlink:href="#bx"/></g><path fill="#333" d="M186 0v-106H76V0H24v-248h52v99h110v-99h50V0h-50" id="bB"/><path fill="#333" d="M185-48c-13 30-37 53-82 52C43 2 14-33 14-96s30-98 90-98c62 0 83 45 84 108H66c0 31 8 55 39 56 18 0 30-7 34-22zm-45-69c5-46-57-63-70-21-2 6-4 13-4 21h74" id="bC"/><path fill="#333" d="M88-194c31-1 46 15 58 34l-1-101h50l1 261h-48c-2-10 0-23-3-31C134-8 116 4 84 4 32 4 16-41 15-95c0-56 19-97 73-99zm17 164c33 0 40-30 41-66 1-37-9-64-41-64s-38 30-39 65c0 43 13 65 39 65" id="bD"/><path fill="#333" d="M135-150c-39-12-60 13-60 57V0H25l-1-190h47c2 13-1 29 3 40 6-28 27-53 61-41v41" id="bE"/><g id="Y"><use transform="matrix(0.08024691358024691,0,0,0.08024691358024691,0,0)" xlink:href="#bB"/><use transform="matrix(0.08024691358024691,0,0,0.08024691358024691,20.78395061728395,0)" xlink:href="#bC"/><use transform="matrix(0.08024691358024691,0,0,0.08024691358024691,36.83333333333333,0)" xlink:href="#bA"/><use transform="matrix(0.08024691358024691,0,0,0.08024691358024691,52.8827160493827,0)" xlink:href="#bD"/><use transform="matrix(0.08024691358024691,0,0,0.08024691358024691,70.45679012345678,0)" xlink:href="#bC"/><use transform="matrix(0.08024691358024691,0,0,0.08024691358024691,86.50617283950616,0)" xlink:href="#bE"/></g><path fill="#333" d="M24-248c93 1 206-16 204 79-1 75-69 88-152 82V0H24v-248zm52 121c47 0 100 7 100-41 0-47-54-39-100-39v80" id="bF"/><path fill="#333" d="M123 10C108 53 80 86 19 72V37c35 8 53-11 59-39L3-190h52l48 148c12-52 28-100 44-148h51" id="bG"/><path fill="#333" d="M195-6C206 82 75 100 31 46c-4-6-6-13-8-21l49-6c3 16 16 24 34 25 40 0 42-37 40-79-11 22-30 35-61 35-53 0-70-43-70-97 0-56 18-96 73-97 30 0 46 14 59 34l2-30h47zm-90-29c32 0 41-27 41-63 0-35-9-62-40-62-32 0-39 29-40 63 0 36 9 62 39 62" id="bH"/><path fill="#333" d="M135-194c87-1 58 113 63 194h-50c-7-57 23-157-34-157-59 0-34 97-39 157H25l-1-190h47c2 12-1 28 3 38 12-26 28-41 61-42" id="bI"/><g id="Z"><use transform="matrix(0.06790123456790122,0,0,0.06790123456790122,0,0)" xlink:href="#bF"/><use transform="matrix(0.06790123456790122,0,0,0.06790123456790122,16.29629629629629,0)" xlink:href="#by"/><use transform="matrix(0.06790123456790122,0,0,0.06790123456790122,31.166666666666657,0)" xlink:href="#bx"/><use transform="matrix(0.06790123456790122,0,0,0.06790123456790122,37.95679012345678,0)" xlink:href="#bG"/><use transform="matrix(0.06790123456790122,0,0,0.06790123456790122,51.537037037037024,0)" xlink:href="#bH"/><use transform="matrix(0.06790123456790122,0,0,0.06790123456790122,66.40740740740739,0)" xlink:href="#by"/><use transform="matrix(0.06790123456790122,0,0,0.06790123456790122,81.27777777777776,0)" xlink:href="#bI"/></g><g id="aa"><use transform="matrix(0.06790123456790122,0,0,0.06790123456790122,0,0)" xlink:href="#bB"/><use transform="matrix(0.06790123456790122,0,0,0.06790123456790122,17.586419753086414,0)" xlink:href="#bC"/><use transform="matrix(0.06790123456790122,0,0,0.06790123456790122,31.166666666666657,0)" xlink:href="#bA"/><use transform="matrix(0.06790123456790122,0,0,0.06790123456790122,44.7469135802469,0)" xlink:href="#bD"/><use transform="matrix(0.06790123456790122,0,0,0.06790123456790122,59.617283950617264,0)" xlink:href="#bC"/><use transform="matrix(0.06790123456790122,0,0,0.06790123456790122,73.1975308641975,0)" xlink:href="#bE"/></g><path fill="#333" d="M240-174c0 40-23 61-54 70L253 0h-59l-57-94H76V0H24v-248c93 4 217-23 216 74zM76-134c48-2 112 12 112-38 0-48-66-32-112-35v73" id="bJ"/><path fill="#333" d="M25-224v-37h50v37H25zM25 0v-190h50V0H25" id="bK"/><g id="ab"><use transform="matrix(0.0679012345679012,0,0,0.0679012345679012,0,0)" xlink:href="#bJ"/><use transform="matrix(0.0679012345679012,0,0,0.0679012345679012,17.58641975308641,0)" xlink:href="#bK"/><use transform="matrix(0.0679012345679012,0,0,0.0679012345679012,24.37654320987653,0)" xlink:href="#bI"/><use transform="matrix(0.0679012345679012,0,0,0.0679012345679012,39.2469135802469,0)" xlink:href="#bH"/></g><g id="ac"><use transform="matrix(0.0679012345679012,0,0,0.0679012345679012,0,0)" xlink:href="#bB"/><use transform="matrix(0.0679012345679012,0,0,0.0679012345679012,17.58641975308641,0)" xlink:href="#bC"/><use transform="matrix(0.0679012345679012,0,0,0.0679012345679012,31.16666666666665,0)" xlink:href="#bA"/><use transform="matrix(0.0679012345679012,0,0,0.0679012345679012,44.74691358024689,0)" xlink:href="#bD"/><use transform="matrix(0.0679012345679012,0,0,0.0679012345679012,59.61728395061725,0)" xlink:href="#bC"/><use transform="matrix(0.0679012345679012,0,0,0.0679012345679012,73.19753086419747,0)" xlink:href="#bE"/></g><path fill="#333" d="M67-125c0 53 21 87 73 88 37 1 54-22 65-47l45 17C233-25 199 4 140 4 58 4 20-42 15-125 8-235 124-281 211-232c18 10 29 29 36 50l-46 12c-8-25-30-41-62-41-52 0-71 34-72 86" id="bL"/><path fill="#333" d="M114-157C55-157 80-60 75 0H25v-261h50l-1 109c12-26 28-41 61-42 86-1 58 113 63 194h-50c-7-57 23-157-34-157" id="bM"/><path fill="#333" d="M85 4C-2 5 27-109 22-190h50c7 57-23 150 33 157 60-5 35-97 40-157h50l1 190h-47c-2-12 1-28-3-38-12 25-28 42-61 42" id="bN"/><path fill="#333" d="M147 0L96-86 75-71V0H25v-261h50v150l67-79h53l-66 74L201 0h-54" id="bO"/><g id="ad"><use transform="matrix(0.08024691358024691,0,0,0.08024691358024691,0,0)" xlink:href="#bL"/><use transform="matrix(0.08024691358024691,0,0,0.08024691358024691,20.78395061728395,0)" xlink:href="#bM"/><use transform="matrix(0.08024691358024691,0,0,0.08024691358024691,38.358024691358025,0)" xlink:href="#bN"/><use transform="matrix(0.08024691358024691,0,0,0.08024691358024691,55.9320987654321,0)" xlink:href="#bI"/><use transform="matrix(0.08024691358024691,0,0,0.08024691358024691,73.50617283950618,0)" xlink:href="#bO"/></g><g id="ae"><use transform="matrix(0.06172839506172839,0,0,0.06172839506172839,0,0)" xlink:href="#aO"/><use transform="matrix(0.06172839506172839,0,0,0.06172839506172839,15.987654320987653,0)" xlink:href="#aP"/><use transform="matrix(0.06172839506172839,0,0,0.06172839506172839,28.333333333333332,0)" xlink:href="#aQ"/><use transform="matrix(0.06172839506172839,0,0,0.06172839506172839,33.20987654320987,0)" xlink:href="#aR"/><use transform="matrix(0.06172839506172839,0,0,0.06172839506172839,39.382716049382715,0)" xlink:href="#aS"/></g><g id="af"><use transform="matrix(0.06172839506172839,0,0,0.06172839506172839,0,0)" xlink:href="#bn"/><use transform="matrix(0.06172839506172839,0,0,0.06172839506172839,11.11111111111111,0)" xlink:href="#aY"/><use transform="matrix(0.06172839506172839,0,0,0.06172839506172839,23.45679012345679,0)" xlink:href="#aY"/><use transform="matrix(0.06172839506172839,0,0,0.06172839506172839,35.80246913580247,0)" xlink:href="#aZ"/><use transform="matrix(0.06172839506172839,0,0,0.06172839506172839,43.148148148148145,0)" xlink:href="#bk"/><use transform="matrix(0.06172839506172839,0,0,0.06172839506172839,55.49382716049382,0)" xlink:href="#aU"/><use transform="matrix(0.06172839506172839,0,0,0.06172839506172839,60.37037037037037,0)" xlink:href="#aW"/><use transform="matrix(0.06172839506172839,0,0,0.06172839506172839,72.71604938271605,0)" xlink:href="#aS"/><use transform="matrix(0.06172839506172839,0,0,0.06172839506172839,85.06172839506173,0)" xlink:href="#aR"/><use transform="matrix(0.06172839506172839,0,0,0.06172839506172839,91.23456790123457,0)" xlink:href="#aP"/></g><path fill="#3a414a" d="M24 0v-54h51V0H24" id="bP"/><use transform="matrix(0.07407407407407407,0,0,0.07407407407407407,0,0)" xlink:href="#bP" id="ag"/><use transform="matrix(0.07407407407407407,0,0,0.07407407407407407,0,0)" xlink:href="#bP" id="ah"/><use transform="matrix(0.07407407407407407,0,0,0.07407407407407407,0,0)" xlink:href="#bP" id="ai"/><path fill="#3a414a" d="M109-170H84l-4-78h32zm-65 0H19l-4-78h33" id="bQ"/><g id="aj"><use transform="matrix(0.06172839506172839,0,0,0.06172839506172839,0,0)" xlink:href="#bQ"/><use transform="matrix(0.06172839506172839,0,0,0.06172839506172839,7.8395061728395055,0)" xlink:href="#bp"/><use transform="matrix(0.06172839506172839,0,0,0.06172839506172839,23.827160493827158,0)" xlink:href="#bj"/><use transform="matrix(0.06172839506172839,0,0,0.06172839506172839,36.172839506172835,0)" xlink:href="#aZ"/></g><g id="ak"><use transform="matrix(0.06172839506172839,0,0,0.06172839506172839,0,0)" xlink:href="#aU"/><use transform="matrix(0.06172839506172839,0,0,0.06172839506172839,4.876543209876543,0)" xlink:href="#aW"/></g><g id="al"><use transform="matrix(0.06172839506172839,0,0,0.06172839506172839,0,0)" xlink:href="#bn"/><use transform="matrix(0.06172839506172839,0,0,0.06172839506172839,11.11111111111111,0)" xlink:href="#bg"/><use transform="matrix(0.06172839506172839,0,0,0.06172839506172839,23.45679012345679,0)" xlink:href="#bh"/><use transform="matrix(0.06172839506172839,0,0,0.06172839506172839,35.80246913580247,0)" xlink:href="#aW"/><use transform="matrix(0.06172839506172839,0,0,0.06172839506172839,48.148148148148145,0)" xlink:href="#bi"/><use transform="matrix(0.06172839506172839,0,0,0.06172839506172839,59.25925925925925,0)" xlink:href="#bQ"/></g><g id="am"><use transform="matrix(0.06172839506172839,0,0,0.06172839506172839,0,0)" xlink:href="#aR"/><use transform="matrix(0.06172839506172839,0,0,0.06172839506172839,6.172839506172839,0)" xlink:href="#aU"/><use transform="matrix(0.06172839506172839,0,0,0.06172839506172839,11.049382716049383,0)" xlink:href="#ba"/><use transform="matrix(0.06172839506172839,0,0,0.06172839506172839,29.50617283950617,0)" xlink:href="#aP"/><use transform="matrix(0.06172839506172839,0,0,0.06172839506172839,41.85185185185185,0)" xlink:href="#aT"/></g><path fill="#333" d="M175 0L67-191c6 58 2 128 3 191H24v-248h59L193-55c-6-58-2-129-3-193h46V0h-61" id="bR"/><path fill="#333" d="M220-157c-53 9-28 100-34 157h-49v-107c1-27-5-49-29-50C55-147 81-57 75 0H25l-1-190h47c2 12-1 28 3 38 10-53 101-56 108 0 13-22 24-43 59-42 82 1 51 116 57 194h-49v-107c-1-25-5-48-29-50" id="bS"/><g id="an"><use transform="matrix(0.08024691358024691,0,0,0.08024691358024691,0,0)" xlink:href="#bR"/><use transform="matrix(0.08024691358024691,0,0,0.08024691358024691,20.78395061728395,0)" xlink:href="#bN"/><use transform="matrix(0.08024691358024691,0,0,0.08024691358024691,38.358024691358025,0)" xlink:href="#bS"/><use transform="matrix(0.08024691358024691,0,0,0.08024691358024691,64.03703703703704,0)" xlink:href="#bz"/><use transform="matrix(0.08024691358024691,0,0,0.08024691358024691,81.61111111111111,0)" xlink:href="#bC"/><use transform="matrix(0.08024691358024691,0,0,0.08024691358024691,97.6604938271605,0)" xlink:href="#bE"/></g><path fill="#333" d="M121-226c-27-7-43 5-38 36h38v33H83V0H34v-157H6v-33h28c-9-59 32-81 87-68v32" id="bT"/><g id="ao"><use transform="matrix(0.08024691358024691,0,0,0.08024691358024691,0,0)" xlink:href="#by"/><use transform="matrix(0.08024691358024691,0,0,0.08024691358024691,17.574074074074073,0)" xlink:href="#bT"/></g><path fill="#333" d="M190-63c-7 42-38 67-86 67-59 0-84-38-90-98-12-110 154-137 174-36l-49 2c-2-19-15-32-35-32-30 0-35 28-38 64-6 74 65 87 74 30" id="bU"/><path fill="#333" d="M137-138c1-29-70-34-71-4 15 46 118 7 119 86 1 83-164 76-172 9l43-7c4 19 20 25 44 25 33 8 57-30 24-41C81-84 22-81 20-136c-2-80 154-74 161-7" id="bV"/><g id="ap"><use transform="matrix(0.08024691358024691,0,0,0.08024691358024691,0,0)" xlink:href="#bU"/><use transform="matrix(0.08024691358024691,0,0,0.08024691358024691,16.049382716049383,0)" xlink:href="#bM"/><use transform="matrix(0.08024691358024691,0,0,0.08024691358024691,33.623456790123456,0)" xlink:href="#bN"/><use transform="matrix(0.08024691358024691,0,0,0.08024691358024691,51.197530864197525,0)" xlink:href="#bI"/><use transform="matrix(0.08024691358024691,0,0,0.08024691358024691,68.77160493827161,0)" xlink:href="#bO"/><use transform="matrix(0.08024691358024691,0,0,0.08024691358024691,84.82098765432099,0)" xlink:href="#bV"/></g><g id="aq"><use transform="matrix(0.08024691358024691,0,0,0.08024691358024691,0,0)" xlink:href="#bK"/><use transform="matrix(0.08024691358024691,0,0,0.08024691358024691,8.024691358024691,0)" xlink:href="#bI"/></g><g id="ar"><use transform="matrix(0.08024691358024691,0,0,0.08024691358024691,0,0)" xlink:href="#bE"/><use transform="matrix(0.08024691358024691,0,0,0.08024691358024691,11.234567901234568,0)" xlink:href="#bK"/><use transform="matrix(0.08024691358024691,0,0,0.08024691358024691,19.25925925925926,0)" xlink:href="#bI"/><use transform="matrix(0.08024691358024691,0,0,0.08024691358024691,36.83333333333333,0)" xlink:href="#bH"/></g><path fill="#333" d="M182 0l-62-99L58 0H3l86-130-79-118h55l55 88 55-88h55l-75 118L237 0h-55" id="bW"/><use transform="matrix(0.11111111111111108,0,0,0.11111111111111108,0,0)" xlink:href="#bW" id="as"/><path fill="#3a414a" d="M233-177c-1 41-23 64-60 70L243 0h-38l-65-103H63V0H30v-248c88 3 205-21 203 71zM63-129c60-2 137 13 137-47 0-61-80-42-137-45v92" id="bX"/><g id="at"><use transform="matrix(0.08024691358024688,0,0,0.08024691358024688,0,0)" xlink:href="#bX"/><use transform="matrix(0.08024691358024688,0,0,0.08024691358024688,20.783950617283942,0)" xlink:href="#aP"/><use transform="matrix(0.08024691358024688,0,0,0.08024691358024688,36.833333333333314,0)" xlink:href="#bd"/><use transform="matrix(0.08024691358024688,0,0,0.08024691358024688,52.882716049382694,0)" xlink:href="#aP"/><use transform="matrix(0.08024691358024688,0,0,0.08024691358024688,68.93209876543207,0)" xlink:href="#aS"/><use transform="matrix(0.08024691358024688,0,0,0.08024691358024688,84.98148148148145,0)" xlink:href="#aR"/><use transform="matrix(0.08024691358024688,0,0,0.08024691358024688,93.00617283950614,0)" xlink:href="#aP"/><use transform="matrix(0.08024691358024688,0,0,0.08024691358024688,109.05555555555551,0)" xlink:href="#bk"/></g><path fill="#3a414a" d="M145-31C134-9 116 4 85 4 32 4 16-35 15-94c0-59 17-99 70-100 32-1 48 14 60 33 0-11-1-24 2-32h30l-1 268h-32zM93-21c41 0 51-33 51-76s-8-73-50-73c-40 0-46 35-46 75s5 74 45 74" id="bY"/><g id="au"><use transform="matrix(0.08024691358024688,0,0,0.08024691358024688,0,0)" xlink:href="#aT"/><use transform="matrix(0.08024691358024688,0,0,0.08024691358024688,14.44444444444444,0)" xlink:href="#aP"/><use transform="matrix(0.08024691358024688,0,0,0.08024691358024688,30.493827160493815,0)" xlink:href="#bY"/><use transform="matrix(0.08024691358024688,0,0,0.08024691358024688,46.543209876543195,0)" xlink:href="#bh"/><use transform="matrix(0.08024691358024688,0,0,0.08024691358024688,62.59259259259257,0)" xlink:href="#aP"/><use transform="matrix(0.08024691358024688,0,0,0.08024691358024688,78.64197530864195,0)" xlink:href="#aW"/><use transform="matrix(0.08024691358024688,0,0,0.08024691358024688,94.69135802469133,0)" xlink:href="#bn"/><use transform="matrix(0.08024691358024688,0,0,0.08024691358024688,109.13580246913578,0)" xlink:href="#aP"/></g><path fill="#3a414a" d="M182 0l-62-99L58 0H3l86-130-79-118h55l55 88 55-88h55l-75 118L237 0h-55" id="bZ"/><use transform="matrix(0.08024691358024688,0,0,0.08024691358024688,0,0)" xlink:href="#bZ" id="av"/><g id="aw"><use transform="matrix(0.08024691358024688,0,0,0.08024691358024688,0,0)" xlink:href="#aR"/><use transform="matrix(0.08024691358024688,0,0,0.08024691358024688,8.024691358024688,0)" xlink:href="#aU"/><use transform="matrix(0.08024691358024688,0,0,0.08024691358024688,14.364197530864192,0)" xlink:href="#ba"/><use transform="matrix(0.08024691358024688,0,0,0.08024691358024688,38.35802469135801,0)" xlink:href="#aP"/><use transform="matrix(0.08024691358024688,0,0,0.08024691358024688,54.4074074074074,0)" xlink:href="#aT"/></g><g id="ax"><use transform="matrix(0.08024691358024688,0,0,0.08024691358024688,0,0)" xlink:href="#bn"/><use transform="matrix(0.08024691358024688,0,0,0.08024691358024688,14.44444444444444,0)" xlink:href="#aY"/><use transform="matrix(0.08024691358024688,0,0,0.08024691358024688,30.493827160493815,0)" xlink:href="#aW"/><use transform="matrix(0.08024691358024688,0,0,0.08024691358024688,46.543209876543195,0)" xlink:href="#bk"/><use transform="matrix(0.08024691358024688,0,0,0.08024691358024688,62.59259259259257,0)" xlink:href="#aU"/><use transform="matrix(0.08024691358024688,0,0,0.08024691358024688,68.93209876543207,0)" xlink:href="#aR"/><use transform="matrix(0.08024691358024688,0,0,0.08024691358024688,76.95679012345676,0)" xlink:href="#aU"/><use transform="matrix(0.08024691358024688,0,0,0.08024691358024688,83.29629629629626,0)" xlink:href="#aY"/><use transform="matrix(0.08024691358024688,0,0,0.08024691358024688,99.34567901234564,0)" xlink:href="#aW"/><use transform="matrix(0.08024691358024688,0,0,0.08024691358024688,115.39506172839502,0)" xlink:href="#aS"/><use transform="matrix(0.08024691358024688,0,0,0.08024691358024688,131.4444444444444,0)" xlink:href="#aQ"/></g><path fill="#3a414a" d="M87 75C49 33 22-17 22-94c0-76 28-126 65-167h31c-38 41-64 92-64 168S80 34 118 75H87" id="ca"/><path fill="#3a414a" d="M33-261c38 41 65 92 65 168S71 34 33 75H2C39 34 66-17 66-93S39-220 2-261h31" id="cb"/><g id="ay"><use transform="matrix(0.08024691358024688,0,0,0.08024691358024688,0,0)" xlink:href="#ca"/><use transform="matrix(0.08024691358024688,0,0,0.08024691358024688,9.54938271604938,0)" xlink:href="#bZ"/><use transform="matrix(0.08024691358024688,0,0,0.08024691358024688,28.808641975308632,0)" xlink:href="#cb"/></g><path fill="#3a414a" d="M24-231v-30h32v30H24zM-9 49c24 4 33-6 33-30v-209h32V24c2 40-23 58-65 49V49" id="cc"/><g id="az"><use transform="matrix(0.08024691358024688,0,0,0.08024691358024688,0,0)" xlink:href="#cc"/><use transform="matrix(0.08024691358024688,0,0,0.08024691358024688,6.339506172839504,0)" xlink:href="#bh"/><use transform="matrix(0.08024691358024688,0,0,0.08024691358024688,22.38888888888888,0)" xlink:href="#ba"/><use transform="matrix(0.08024691358024688,0,0,0.08024691358024688,46.3827160493827,0)" xlink:href="#bd"/></g><g id="aA"><use transform="matrix(0.08024691358024691,0,0,0.08024691358024691,0,0)" xlink:href="#bE"/><use transform="matrix(0.08024691358024691,0,0,0.08024691358024691,11.234567901234568,0)" xlink:href="#bK"/><use transform="matrix(0.08024691358024691,0,0,0.08024691358024691,19.25925925925926,0)" xlink:href="#bI"/><use transform="matrix(0.08024691358024691,0,0,0.08024691358024691,36.83333333333333,0)" xlink:href="#bH"/><use transform="matrix(0.08024691358024691,0,0,0.08024691358024691,54.407407407407405,0)" xlink:href="#bV"/></g><path fill="#333" d="M135-194c53 0 70 44 70 98 0 56-19 98-73 100-31 1-45-17-59-34 3 33 2 69 2 105H25l-1-265h48c2 10 0 23 3 31 11-24 29-35 60-35zM114-30c33 0 39-31 40-66 0-38-9-64-40-64-56 0-55 130 0 130" id="cd"/><g id="aB"><use transform="matrix(0.08024691358024691,0,0,0.08024691358024691,0,0)" xlink:href="#cd"/><use transform="matrix(0.08024691358024691,0,0,0.08024691358024691,17.574074074074073,0)" xlink:href="#by"/><use transform="matrix(0.08024691358024691,0,0,0.08024691358024691,35.148148148148145,0)" xlink:href="#bx"/><use transform="matrix(0.08024691358024691,0,0,0.08024691358024691,43.172839506172835,0)" xlink:href="#bG"/><use transform="matrix(0.08024691358024691,0,0,0.08024691358024691,59.22222222222221,0)" xlink:href="#bH"/><use transform="matrix(0.08024691358024691,0,0,0.08024691358024691,76.79629629629629,0)" xlink:href="#by"/><use transform="matrix(0.08024691358024691,0,0,0.08024691358024691,94.37037037037037,0)" xlink:href="#bI"/></g><path fill="#333" d="M24 0v-248h52V0H24" id="ce"/><g id="aC"><use transform="matrix(0.08024691358024691,0,0,0.08024691358024691,0,0)" xlink:href="#ce"/><use transform="matrix(0.08024691358024691,0,0,0.08024691358024691,8.024691358024691,0)" xlink:href="#bT"/></g><path fill="#333" d="M67-93c0 74 22 123 53 168H70C40 30 18-18 18-93s22-123 52-168h50c-32 44-53 94-53 168" id="cf"/><path fill="#333" d="M115-3C79 11 28 4 28-45v-112H4v-33h27l15-45h31v45h36v33H77v99c-1 23 16 31 38 25v30" id="cg"/><g id="aD"><use transform="matrix(0.08024691358024691,0,0,0.08024691358024691,0,0)" xlink:href="#cf"/><use transform="matrix(0.08024691358024691,0,0,0.08024691358024691,9.549382716049383,0)" xlink:href="#bI"/><use transform="matrix(0.08024691358024691,0,0,0.08024691358024691,27.123456790123456,0)" xlink:href="#by"/><use transform="matrix(0.08024691358024691,0,0,0.08024691358024691,44.69753086419753,0)" xlink:href="#cg"/></g><g id="aE"><use transform="matrix(0.08024691358024691,0,0,0.08024691358024691,0,0)" xlink:href="#bC"/><use transform="matrix(0.08024691358024691,0,0,0.08024691358024691,16.049382716049383,0)" xlink:href="#bI"/><use transform="matrix(0.08024691358024691,0,0,0.08024691358024691,33.623456790123456,0)" xlink:href="#bD"/></g><g id="aF"><use transform="matrix(0.08024691358024691,0,0,0.08024691358024691,0,0)" xlink:href="#by"/><use transform="matrix(0.08024691358024691,0,0,0.08024691358024691,17.574074074074073,0)" xlink:href="#bT"/></g><path fill="#333" d="M102-93c0 74-22 123-52 168H0C30 29 54-18 53-93c0-74-22-123-53-168h50c30 45 52 94 52 168" id="ch"/><g id="aG"><use transform="matrix(0.08024691358024691,0,0,0.08024691358024691,0,0)" xlink:href="#bT"/><use transform="matrix(0.08024691358024691,0,0,0.08024691358024691,9.549382716049383,0)" xlink:href="#bK"/><use transform="matrix(0.08024691358024691,0,0,0.08024691358024691,17.574074074074076,0)" xlink:href="#bx"/><use transform="matrix(0.08024691358024691,0,0,0.08024691358024691,25.598765432098762,0)" xlink:href="#bC"/><use transform="matrix(0.08024691358024691,0,0,0.08024691358024691,41.64814814814815,0)" xlink:href="#ch"/></g><use transform="matrix(0.08024691358024688,0,0,0.08024691358024688,0,0)" xlink:href="#bP" id="aH"/><use transform="matrix(0.08024691358024688,0,0,0.08024691358024688,0,0)" xlink:href="#bP" id="aI"/><use transform="matrix(0.08024691358024688,0,0,0.08024691358024688,0,0)" xlink:href="#bP" id="aJ"/><path fill="#3a414a" d="M30 0v-248h187v28H63v79h144v27H63v87h162V0H30" id="ci"/><g id="aL"><use transform="matrix(0.06172839506172839,0,0,0.06172839506172839,0,0)" xlink:href="#ci"/><use transform="matrix(0.06172839506172839,0,0,0.06172839506172839,14.814814814814813,0)" xlink:href="#bp"/><use transform="matrix(0.06172839506172839,0,0,0.06172839506172839,30.80246913580247,0)" xlink:href="#aO"/></g><path fill="#3a414a" d="M140-251c81 0 123 46 123 126C263-46 219 4 140 4 59 4 17-45 17-125s42-126 123-126zm0 227c63 0 89-41 89-101s-29-99-89-99c-61 0-89 39-89 99S79-25 140-24" id="cj"/><g id="aM"><use transform="matrix(0.06172839506172839,0,0,0.06172839506172839,0,0)" xlink:href="#cj"/><use transform="matrix(0.06172839506172839,0,0,0.06172839506172839,17.28395061728395,0)" xlink:href="#bq"/></g><path fill="#3a414a" d="M33 0v-248h34V0H33" id="ck"/><g id="aN"><use transform="matrix(0.06172839506172839,0,0,0.06172839506172839,0,0)" xlink:href="#bq"/><use transform="matrix(0.06172839506172839,0,0,0.06172839506172839,13.518518518518517,0)" xlink:href="#ck"/><use transform="matrix(0.06172839506172839,0,0,0.06172839506172839,19.691358024691358,0)" xlink:href="#be"/><use transform="matrix(0.06172839506172839,0,0,0.06172839506172839,32.03703703703704,0)" xlink:href="#ci"/></g></defs></g></svg>