<svg xmlns="http://www.w3.org/2000/svg" xmlns:xlink="http://www.w3.org/1999/xlink" xmlns:lucid="lucid" width="1761" height="803"><g transform="translate(-244 -519)" lucid:page-tab-id="6MK.Vty_YM.Y"><path d="M1211.36 974.67h-82.67v94.24h-6V968.67h88.66zm765.64 0h-525.27v-6H1977z" stroke="#c3f7c8" stroke-width=".05" fill="#c3f7c8"/><path d="M1980 974.67h-3.08v-6h3.08z" stroke="#c3f7c8" stroke-width=".05" fill="#c3f7c8"/><path d="M1125.7 1086.17l-4.64-14.27h9.27z" fill="#c3f7c8"/><path d="M1125.7 1095.88l-8.77-26.98h17.52zm-.52-20.98l.5 1.56.52-1.56z" stroke="#c3f7c8" stroke-width=".05" fill="#c3f7c8"/><use xlink:href="#a" transform="matrix(1,0,0,1,1211.3641522329483,951.6661193768855) translate(0 26.66666666666667)"/><use xlink:href="#b" transform="matrix(1,0,0,1,1211.3641522329483,951.6661193768855) translate(27.77777777777778 26.66666666666667)"/><use xlink:href="#c" transform="matrix(1,0,0,1,1211.3641522329483,951.6661193768855) translate(149.90740740740742 26.66666666666667)"/><use xlink:href="#d" transform="matrix(1,0,0,1,1211.3641522329483,951.6661193768855) translate(185 26.66666666666667)"/><path d="M260 1096.33h362.85v109.16H260z" stroke="#3a414a" stroke-width="2" fill="#fff"/><use xlink:href="#e" transform="matrix(1,0,0,1,272,1108.3269471401177) translate(62.27777777777783 50.85416666666666)"/><use xlink:href="#f" transform="matrix(1,0,0,1,272,1108.3269471401177) translate(167.64814814814815 50.85416666666666)"/><path d="M622.85 1096.5H840v109.16H622.85z" stroke="#3a414a" stroke-width="2" fill="#ffdda6"/><use xlink:href="#g" transform="matrix(1,0,0,1,634.8449900639093,1108.4936138067837) translate(23.064814814814838 29.354166666666657)"/><use xlink:href="#h" transform="matrix(1,0,0,1,634.8449900639093,1108.4936138067837) translate(50.84259259259261 29.354166666666657)"/><use xlink:href="#i" transform="matrix(1,0,0,1,634.8449900639093,1108.4936138067837) translate(145.10185185185185 29.354166666666657)"/><use xlink:href="#j" transform="matrix(1,0,0,1,634.8449900639093,1108.4936138067837) translate(2.6018518518519045 69.35416666666664)"/><use xlink:href="#k" transform="matrix(1,0,0,1,634.8449900639093,1108.4936138067837) translate(74.82407407407409 69.35416666666664)"/><path d="M840 1096.5h200v109.16H840z" stroke="#3a414a" stroke-width="2" fill="#c3f7c8"/><use xlink:href="#g" transform="matrix(1,0,0,1,852,1108.4936138067837) translate(0.12962962962967595 29.354166666666657)"/><use xlink:href="#l" transform="matrix(1,0,0,1,852,1108.4936138067837) translate(27.907407407407444 29.354166666666657)"/><use xlink:href="#i" transform="matrix(1,0,0,1,852,1108.4936138067837) translate(150.037037037037 29.354166666666657)"/><use xlink:href="#j" transform="matrix(1,0,0,1,852,1108.4936138067837) translate(24.20370370370373 69.35416666666664)"/><use xlink:href="#m" transform="matrix(1,0,0,1,852,1108.4936138067837) translate(96.42592592592592 69.35416666666664)"/><path d="M1211.38 1097.05h151.46v109.16h-151.46z" stroke="#3a414a" stroke-width="2" fill="#fff"/><use xlink:href="#g" transform="matrix(1,0,0,1,1223.3799602556373,1109.0459424305418) translate(2.9814814814815094 29.354166666666657)"/><use xlink:href="#n" transform="matrix(1,0,0,1,1223.3799602556373,1109.0459424305418) translate(30.759259259259277 29.354166666666657)"/><use xlink:href="#o" transform="matrix(1,0,0,1,1223.3799602556373,1109.0459424305418) translate(2.009259259259281 69.35416666666664)"/><use xlink:href="#p" transform="matrix(1,0,0,1,1223.3799602556373,1109.0459424305418) translate(37.10185185185186 69.35416666666664)"/><path d="M1362.85 1096.88h160.08v109.33h-160.1z" stroke="#3a414a" stroke-width="2" fill="#fff"/><use xlink:href="#q" transform="matrix(1,0,0,1,1374.8449900639096,1108.8792757638746) translate(41.78703703703705 29.66666666666667)"/><use xlink:href="#r" transform="matrix(1,0,0,1,1374.8449900639096,1108.8792757638746) translate(-9.185185185185148 69.66666666666666)"/><path d="M1040 1096.88h171.38v109.33H1040z" stroke="#3a414a" stroke-width="2" fill="#ffd6f5"/><use xlink:href="#s" transform="matrix(1,0,0,1,1052,1108.879275763875) translate(25.898148148148167 29.354166666666657)"/><use xlink:href="#t" transform="matrix(1,0,0,1,1052,1108.879275763875) translate(8.305555555555571 69.35416666666664)"/><use xlink:href="#u" transform="matrix(1,0,0,1,1052,1108.879275763875) translate(80.52777777777777 69.35416666666664)"/><path d="M1474.8 589.7h369.37v90.27H1474.8z" stroke="#000" stroke-opacity="0" stroke-width="2" fill="#fff" fill-opacity="0"/><use xlink:href="#v" transform="matrix(1,0,0,1,1479.7977519538067,594.689457200477) translate(0 46.91666666666666)"/><use xlink:href="#w" transform="matrix(1,0,0,1,1479.7977519538067,594.689457200477) translate(18.518518518518512 46.91666666666666)"/><use xlink:href="#x" transform="matrix(1,0,0,1,1479.7977519538067,594.689457200477) translate(118.42592592592587 46.91666666666666)"/><use xlink:href="#y" transform="matrix(1,0,0,1,1479.7977519538067,594.689457200477) translate(144.25925925925918 46.91666666666666)"/><path d="M1473.62 525h524.6v90.28h-524.6z" stroke="#000" stroke-opacity="0" stroke-width="2" fill="#fff" fill-opacity="0"/><use xlink:href="#v" transform="matrix(1,0,0,1,1478.6168353295911,529.9999999999999) translate(0 46.91666666666666)"/><use xlink:href="#w" transform="matrix(1,0,0,1,1478.6168353295911,529.9999999999999) translate(18.518518518518512 46.91666666666666)"/><use xlink:href="#x" transform="matrix(1,0,0,1,1478.6168353295911,529.9999999999999) translate(118.42592592592587 46.91666666666666)"/><use xlink:href="#z" transform="matrix(1,0,0,1,1478.6168353295911,529.9999999999999) translate(144.25925925925918 46.91666666666666)"/><use xlink:href="#A" transform="matrix(1,0,0,1,1478.6168353295911,529.9999999999999) translate(273.7962962962962 46.91666666666666)"/><use xlink:href="#y" transform="matrix(1,0,0,1,1478.6168353295911,529.9999999999999) translate(312.5925925925925 46.91666666666666)"/><path d="M1398.96 676.15h62.95v43.7h-62.94z" stroke="#3a414a" stroke-width="2" fill="#ffd6f5"/><path d="M1473.62 657.28h561.94v90.27h-561.94z" stroke="#000" stroke-opacity="0" stroke-width="2" fill="#fff" fill-opacity="0"/><use xlink:href="#v" transform="matrix(1,0,0,1,1478.6168353295911,662.2761193213944) translate(0 46.91666666666666)"/><use xlink:href="#w" transform="matrix(1,0,0,1,1478.6168353295911,662.2761193213944) translate(18.518518518518512 46.91666666666666)"/><use xlink:href="#x" transform="matrix(1,0,0,1,1478.6168353295911,662.2761193213944) translate(118.42592592592587 46.91666666666666)"/><use xlink:href="#B" transform="matrix(1,0,0,1,1478.6168353295911,662.2761193213944) translate(144.25925925925918 46.91666666666666)"/><use xlink:href="#C" transform="matrix(1,0,0,1,1478.6168353295911,662.2761193213944) translate(264.5370370370369 46.91666666666666)"/><use xlink:href="#D" transform="matrix(1,0,0,1,1478.6168353295911,662.2761193213944) translate(408.8888888888887 46.91666666666666)"/><path d="M638.5 1226.04h183" stroke="#3a414a" stroke-width="2" fill="none"/><path d="M623.24 1226.04l14.26-4.64v9.27zM836.76 1226.04l-14.26 4.63v-9.27z" stroke="#3a414a" stroke-width="2" fill="#3a414a"/><use xlink:href="#E" transform="matrix(1,0,0,1,665.8518518518518,1230.0383547800966) translate(0.0049999999999954525 28.444444444444436)"/><use xlink:href="#F" transform="matrix(1,0,0,1,665.8518518518518,1230.0383547800966) translate(5.980308641975313 71.11111111111109)"/><path d="M858.5 1226.04h163" stroke="#3a414a" stroke-width="2" fill="none"/><path d="M843.24 1226.04l14.26-4.64v9.27zM1036.76 1226.04l-14.26 4.63v-9.27z" stroke="#3a414a" stroke-width="2" fill="#3a414a"/><use xlink:href="#G" transform="matrix(1,0,0,1,881.8241604938271,1230.0383547800966) translate(21.73339506172838 28.444444444444436)"/><use xlink:href="#F" transform="matrix(1,0,0,1,881.8241604938271,1230.0383547800966) translate(0.005000000000002558 71.11111111111109)"/><path d="M1058.5 1226.04h863" stroke="#3a414a" stroke-width="2" fill="none"/><path d="M1043.23 1226.04l14.27-4.64v9.27zM1936.76 1226.04l-14.26 4.63v-9.27z" stroke="#3a414a" stroke-width="2" fill="#3a414a"/><use xlink:href="#H" transform="matrix(1,0,0,1,1438.6878580246916,1230.0383547800966) translate(0 28.444444444444436)"/><path d="M1935.9 1206.2h-172.47l86.24-117.16z" stroke="#3a414a" stroke-width="2" fill="#fff"/><path d="M1720.3 1129.97h258.73v61.85H1720.3z" stroke="#000" stroke-opacity="0" stroke-width="2" fill="#fff" fill-opacity="0"/><use xlink:href="#I" transform="matrix(1,0,0,1,1725.310019872182,1134.9739905728754) translate(88.29012345679014 24.88888888888888)"/><use xlink:href="#J" transform="matrix(1,0,0,1,1725.310019872182,1134.9739905728754) translate(85.65432098765434 62.22222222222219)"/><path d="M1610 1139h237.15v81.37H1610z" stroke="#000" stroke-opacity="0" stroke-width="2" fill="#fff" fill-opacity="0"/><use xlink:href="#K" transform="matrix(1,0,0,1,1615,1144) translate(87.76543209876544 43.722222222222214)"/><use xlink:href="#L" transform="matrix(1,0,0,1,1615,1144) translate(108.75308641975309 43.722222222222214)"/><use xlink:href="#M" transform="matrix(1,0,0,1,1615,1144) translate(129.74074074074073 43.722222222222214)"/><path d="M1695.6 1206.2h-172.48l86.24-117.16z" stroke="#3a414a" stroke-width="2" fill="#fff"/><path d="M1480 1129.97h258.7v61.85H1480z" stroke="#000" stroke-opacity="0" stroke-width="2" fill="#fff" fill-opacity="0"/><use xlink:href="#I" transform="matrix(1,0,0,1,1485,1134.9739905728754) translate(88.29012345679014 24.88888888888888)"/><use xlink:href="#J" transform="matrix(1,0,0,1,1485,1134.9739905728754) translate(85.65432098765434 62.22222222222219)"/><g fill="none"><path d="M1557.07 1089.04v-33.32h320v33.32z"/><path d="M1877.07 1089.04c0-5.52-4.48-10-10-10h-140c-5.52 0-10-4.48-10-10 0 5.52-4.48 10-10 10h-140c-5.52 0-10 4.48-10 10" stroke="#3a414a" stroke-width="2"/></g><path d="M1576.93 976.48h280.28v95.33h-280.27z" stroke="#000" stroke-opacity="0" stroke-width="2" fill="#fff" fill-opacity="0"/><use xlink:href="#N" transform="matrix(1,0,0,1,1581.9328890575844,981.4789617921323) translate(51.69753086419756 31.131944444444436)"/><use xlink:href="#O" transform="matrix(1,0,0,1,1581.9328890575844,981.4789617921323) translate(81.32716049382718 31.131944444444436)"/><use xlink:href="#P" transform="matrix(1,0,0,1,1581.9328890575844,981.4789617921323) translate(191.74691358024688 31.131944444444436)"/><use xlink:href="#Q" transform="matrix(1,0,0,1,1581.9328890575844,981.4789617921323) translate(88.09259259259261 73.79861111111109)"/><path d="M1200.88 913H943v155.52h-6V907h263.88zm742.12-5.5h34v6h-40v-.5h-462.4v-6H1943z" stroke="#ffdda6" stroke-width=".05" fill="#ffdda6"/><path d="M1980 913.5h-3.08v-6h3.08z" stroke="#ffdda6" stroke-width=".05" fill="#ffdda6"/><path d="M940 1085.8l-4.63-14.28h9.26z" fill="#ffdda6"/><path d="M940 1095.5l-8.76-26.98h17.52zm-.5-20.98l.5 1.56.5-1.56z" stroke="#ffdda6" stroke-width=".05" fill="#ffdda6"/><g><use xlink:href="#a" transform="matrix(1,0,0,1,1200.8822734135624,890) translate(0 26.66666666666667)"/><use xlink:href="#R" transform="matrix(1,0,0,1,1200.8822734135624,890) translate(27.77777777777778 26.66666666666667)"/><use xlink:href="#c" transform="matrix(1,0,0,1,1200.8822734135624,890) translate(122.03703703703704 26.66666666666667)"/><use xlink:href="#S" transform="matrix(1,0,0,1,1200.8822734135624,890) translate(157.12962962962962 26.66666666666667)"/></g><path d="M1459.47 747.25l.46.1.43.2.4.24.37.3.3.35.25.4.18.44.1.45.04.4v25.93l-.03.4-.1.45-.2.44-.24.4-.3.36-.36.3-.4.25-.44.18-.46.1-.4.04H1422v-4h36v-23.78h-12.9v-4h13.98zm-41.03 3.97h-9.48v6.04h-4v-7.12l.04-.4.1-.45.2-.44.23-.4.3-.37.37-.3.4-.26.44-.18.45-.1.4-.04h10.54z" stroke="#3a414a" stroke-width=".05" fill="#3a414a"/><path d="M1406.96 773.53l-4.63-14.27h9.27z" fill="#3a414a"/><path d="M1406.96 780l-7.38-22.74h14.77zm-1.88-18.74l1.88 5.8 1.9-5.8zM1422.05 779H1420v-4h2.05z" stroke="#3a414a" stroke-width=".05" fill="#3a414a"/><g><use xlink:href="#T" transform="matrix(1,0,0,1,1418.435744218381,725.2200402527328) translate(0 31.99999999999999)"/></g><path d="M1398 545h62.95v43.7H1398z" stroke="#3a414a" stroke-width="2" fill="#c3f7c8"/><path d="M1398.18 609.53h62.95v43.7h-62.95z" stroke="#3a414a" stroke-width="2" fill="#ffdda6"/><path d="M1474.8 716.84h836.8v90.28h-836.8z" stroke="#000" stroke-opacity="0" stroke-width="6" fill="#fff" fill-opacity="0"/><g><use xlink:href="#v" transform="matrix(1,0,0,1,1479.7977519538067,721.8410163389544) translate(0 46.91666666666666)"/><use xlink:href="#U" transform="matrix(1,0,0,1,1479.7977519538067,721.8410163389544) translate(18.518518518518512 46.91666666666666)"/><use xlink:href="#V" transform="matrix(1,0,0,1,1479.7977519538067,721.8410163389544) translate(172.12962962962956 46.91666666666666)"/><use xlink:href="#W" transform="matrix(1,0,0,1,1479.7977519538067,721.8410163389544) translate(203.61111111111103 46.91666666666666)"/><use xlink:href="#A" transform="matrix(1,0,0,1,1479.7977519538067,721.8410163389544) translate(292.31481481481467 46.91666666666666)"/><use xlink:href="#X" transform="matrix(1,0,0,1,1479.7977519538067,721.8410163389544) translate(331.111111111111 46.91666666666666)"/><use xlink:href="#Y" transform="matrix(1,0,0,1,1479.7977519538067,721.8410163389544) translate(401.29629629629613 46.91666666666666)"/></g><path d="M1983 1212.04h-20v-6h14v-354h-628.54v-6H1983zm-778.6-360H734.4v216.48h-6V846.04h475.97z" stroke="#4c535d" stroke-width=".05" fill="#4c535d"/><path d="M1963.08 1212.04H1960v-6h3.08z" stroke="#4c535d" stroke-width=".05" fill="#4c535d"/><path d="M731.42 1085.8l-4.63-14.28h9.26z" fill="#4c535d"/><path d="M731.42 1095.5l-8.76-26.98h17.53zm-.5-20.98l.5 1.56.5-1.56z" stroke="#4c535d" stroke-width=".05" fill="#4c535d"/><g><use xlink:href="#Z" transform="matrix(1,0,0,1,1204.3863516707543,829.0383547800967) translate(0 26.66666666666667)"/><use xlink:href="#aa" transform="matrix(1,0,0,1,1204.3863516707543,829.0383547800967) translate(75.64814814814815 26.66666666666667)"/></g><path d="M260 639.7h120v109.34H260z" stroke="#3a414a" stroke-width="2" fill="#fff"/><g><use xlink:href="#ab" transform="matrix(1,0,0,1,272.0000000000001,651.7094986957699) translate(9.203703703703724 29.354166666666657)"/><use xlink:href="#u" transform="matrix(1,0,0,1,272.0000000000001,651.7094986957699) translate(18.416666666666675 69.35416666666664)"/></g><path d="M380 639.7h120v109.34H380z" stroke="#3a414a" stroke-width="2" fill="#fff"/><g><use xlink:href="#ac" transform="matrix(1,0,0,1,392,651.7094986957699) translate(3.175925925925938 29.354166666666657)"/><use xlink:href="#ad" transform="matrix(1,0,0,1,392,651.7094986957699) translate(17.01851851851853 69.35416666666664)"/></g><path d="M828.53 639.6h143.5v109.16h-143.5z" stroke="#3a414a" stroke-width="2" fill="#fff"/><g><use xlink:href="#ae" transform="matrix(1,0,0,1,840.527725757605,651.5951606528605) translate(7.26851851851854 29.354166666666657)"/><use xlink:href="#af" transform="matrix(1,0,0,1,840.527725757605,651.5951606528605) translate(16.527777777777796 29.354166666666657)"/><use xlink:href="#ag" transform="matrix(1,0,0,1,840.527725757605,651.5951606528605) translate(37.777777777777786 69.35416666666664)"/></g><path d="M500 639.6h163.95v109.16H500z" stroke="#3a414a" stroke-width="2" fill="#fff"/><g><use xlink:href="#ah" transform="matrix(1,0,0,1,512,651.5951606528605) translate(12.638888888888914 29.66666666666667)"/><use xlink:href="#ai" transform="matrix(1,0,0,1,512,651.5951606528605) translate(-5.78703703703701 69.66666666666666)"/></g><path d="M972.04 639.7h143.5v109.06h-143.5z" stroke="#3a414a" stroke-width="2" fill="#fff"/><g><use xlink:href="#ae" transform="matrix(1,0,0,1,984.0362257258155,651.7094986957699) translate(7.22222222222225 29.354166666666657)"/><use xlink:href="#aj" transform="matrix(1,0,0,1,984.0362257258155,651.7094986957699) translate(16.481481481481506 29.354166666666657)"/><use xlink:href="#ag" transform="matrix(1,0,0,1,984.0362257258155,651.7094986957699) translate(37.777777777777786 69.35416666666664)"/></g><path d="M663.95 639.7h164.58V748.9H663.95z" stroke="#3a414a" stroke-width="2" fill="#fff"/><g><use xlink:href="#g" transform="matrix(1,0,0,1,675.9502663763632,651.7094986957699) translate(0.17592592592595224 50.85416666666666)"/><use xlink:href="#ak" transform="matrix(1,0,0,1,675.9502663763632,651.7094986957699) translate(27.95370370370372 50.85416666666666)"/></g><path d="M972.1 630.2V582h-143v24.53M972.1 630.12v3.08" stroke="#4c535d" stroke-width="6" fill="none"/><path d="M829.1 623.8l-4.64-14.27h9.27z" stroke="#4c535d" stroke-width="6" fill="#4c535d"/><g><use xlink:href="#al" transform="matrix(1,0,0,1,834.8141613518161,540.6666666666667) translate(0 24.888888888888886)"/><use xlink:href="#am" transform="matrix(1,0,0,1,834.8141613518161,540.6666666666667) translate(25.925925925925917 24.888888888888886)"/></g><g fill="none"><path d="M1109.54 749.04a6 6 0 0 1 6 6v61.24a6 6 0 0 1-6 6H266a6 6 0 0 1-6-6v-61.24a6 6 0 0 1 6-6z"/><path d="M260 749.04c0 15.64 12.67 28.3 28.3 28.3h371.16c15.64 0 28.3 12.7 28.3 28.32 0-15.63 12.7-28.3 28.32-28.3h371.16c15.63 0 28.3-12.68 28.3-28.32"/><path d="M260 749.04l.33 3.7m1.9 7.1l1.63 3.5 2.06 2.88m5.2 5.23l3.36 2.3 3.03 1.37m7.12 1.94l3.7.3h4.02m8.07 0h8.08m8.07 0h8.07m8.07 0h8.06m8.06 0h8.07m8.06 0h8.07m8.07 0h8.07m8.07 0h8.06m8.07 0h8.07m8.07 0h8.08m8.07 0h8.07m8.06 0h8.07m8.07 0H486m8.06 0h8.07m8.06 0h8.06m8.07 0h8.07m8.07 0h8.07m8.07 0h8.07m8.07 0h8.07m8.08 0h8.07m8.07 0h8.07m8.05 0h8.07m8.07 0h8.06m8.07 0h4.03l3.7.32m7.1 1.9l3.5 1.64 2.88 2.05m5.23 5.2l2.3 3.37 1.37 3.03m1.94 7.1l.3 3.7.32-3.7m1.9-7.1l1.64-3.5 2.06-2.9m5.2-5.22l3.36-2.3 3.03-1.36m7.1-1.96l3.68-.3h4.04m8.06 0h8.07m8.07 0h8.07m8.06 0h8.07m8.07 0h8.06m8.07 0h8.07m8.07 0h8.07m8.07 0h8.08m8.06 0h8.07m8.08 0h8.07m8.07 0h8.07m8.06 0h8.06m8.07 0h8.06m8.07 0h8.07m8.07 0h8.07m8.06 0h8.07m8.07 0h8.07m8.08 0h8.07m8.07 0h8.06m8.07 0h8.07m8.07 0h8.06m8.07 0h8.07m8.06 0h8.07m8.07 0h4.04l3.68-.3m7.12-1.9l3.48-1.65 2.9-2.07m5.22-5.2l2.3-3.36 1.37-3.03m1.95-7.1l.3-3.7" stroke="#4c535d" stroke-width="2"/></g><g fill="none"><path d="M266 1100a6 6 0 0 1-6-6v-64.2a6 6 0 0 1 6-6h350.84a6 6 0 0 1 6 6v64.2a6 6 0 0 1-6 6z"/><path d="M622.84 1100c0-15.63-12.67-28.3-28.3-28.3h-124.8c-15.64 0-28.32-12.68-28.32-28.32 0 15.64-12.67 28.3-28.3 28.3H288.3c-15.65 0-28.32 12.7-28.32 28.32"/><path d="M622.84 1100l-.32-3.7m-1.9-7.1l-1.64-3.5-2.06-2.88m-5.2-5.23l-3.36-2.3-3.03-1.37m-7.1-1.95l-3.7-.3h-3.9m-7.8 0h-7.8m-7.8 0h-7.8m-7.8 0h-7.8m-7.8 0h-7.8m-7.8 0h-7.8m-7.8 0h-7.8m-7.8 0h-7.8m-7.8 0h-3.9l-3.7-.3m-7.1-1.9l-3.5-1.65-2.88-2.06m-5.23-5.2l-2.3-3.36-1.36-3.02m-1.95-7.1l-.28-3.7-.32 3.7m-1.9 7.1l-1.64 3.5-2.06 2.88m-5.2 5.23l-3.36 2.3-3.03 1.35m-7.1 1.95l-3.7.3h-3.9m-7.8 0h-7.8m-7.8 0H378m-7.8 0h-7.8m-7.8 0h-7.8m-7.8 0h-7.8m-7.8 0h-7.8m-7.8 0H300m-7.8 0h-3.9l-3.68.32m-7.12 1.9l-3.48 1.64-2.9 2.05m-5.22 5.2l-2.3 3.37-1.36 3.03m-1.95 7.1l-.3 3.7" stroke="#4c535d" stroke-width="2"/></g><path d="M441.44 1041.38l.08-3.6.02-.36m.66-7.88l.02-.2.58-3.9.7-3.7m2-7.64l.9-2.8 1.23-3.3.56-1.34m3.38-7.14l.5-.97 1.78-3.08 1.75-2.75m4.64-6.4l.03-.06 2.58-3.1 2.55-2.84m5.6-5.57l1.38-1.28 3.97-3.43.62-.5m6.27-4.8l2.86-2.08 3.65-2.42m6.7-4.2l3.14-1.9 3.7-2.04m6.97-3.74l7.1-3.5m7.14-3.38l7.25-3.2m7.23-3.2l3.03-1.33 4.25-1.78m7.3-3.06l7.3-3.05m7.28-3.06l7.3-3.07m7.3-3.06l7.28-3.06m7.3-3.05l7.3-3.05m7.18-3.3l7.1-3.52m6.96-3.74l3.7-2.04 3.15-1.9m6.7-4.2l3.64-2.42 2.86-2.08m6.27-4.8l.62-.5 3.96-3.42 1.37-1.3m5.6-5.56l2.56-2.83 2.56-3.12.04-.05m4.63-6.4l1.75-2.76 1.78-3.08.5-.98m3.38-7.14l.57-1.35 1.23-3.28.9-2.8m2-7.66l.7-3.7.6-3.9v-.2m.67-7.88l.02-.36.08-3.6" stroke="#4c535d" stroke-width="2" stroke-linejoin="round" fill="none"/><path d="M441.44 1041.35l-.08 4.03M687.72 807.7v-4.04" stroke="#4c535d" stroke-width="2" fill="none"/><defs><path d="M158-156l-14 65h45v19h-49L124 0h-19l15-72H56L41 0H22l15-72H2v-19h39l14-65H11v-19h48l15-71h20l-16 71h64l16-71h19l-16 71h37v19h-40zm-83 0L61-91h63l14-65H75" id="an"/><use transform="matrix(0.0925925925925926,0,0,0.0925925925925926,0,0)" xlink:href="#an" id="a"/><path d="M212-179c-10-28-35-45-73-45-59 0-87 40-87 99 0 60 29 101 89 101 43 0 62-24 78-52l27 14C228-24 195 4 139 4 59 4 22-46 18-125c-6-104 99-153 187-111 19 9 31 26 39 46" id="ao"/><path d="M106-169C34-169 62-67 57 0H25v-261h32l-1 103c12-21 28-36 61-36 89 0 53 116 60 194h-32v-121c2-32-8-49-39-48" id="ap"/><path d="M84 4C-5 8 30-112 23-190h32v120c0 31 7 50 39 49 72-2 45-101 50-169h31l1 190h-30c-1-10 1-25-2-33-11 22-28 36-60 37" id="aq"/><path d="M117-194c89-4 53 116 60 194h-32v-121c0-31-8-49-39-48C34-167 62-67 57 0H25l-1-190h30c1 10-1 24 2 32 11-22 29-35 61-36" id="ar"/><path d="M143 0L79-87 56-68V0H24v-261h32v163l83-92h37l-77 82L181 0h-38" id="as"/><path d="M135-143c-3-34-86-38-87 0 15 53 115 12 119 90S17 21 10-45l28-5c4 36 97 45 98 0-10-56-113-15-118-90-4-57 82-63 122-42 12 7 21 19 24 35" id="at"/><g id="b"><use transform="matrix(0.0925925925925926,0,0,0.0925925925925926,0,0)" xlink:href="#ao"/><use transform="matrix(0.0925925925925926,0,0,0.0925925925925926,23.981481481481485,0)" xlink:href="#ap"/><use transform="matrix(0.0925925925925926,0,0,0.0925925925925926,42.5,0)" xlink:href="#aq"/><use transform="matrix(0.0925925925925926,0,0,0.0925925925925926,61.018518518518526,0)" xlink:href="#ar"/><use transform="matrix(0.0925925925925926,0,0,0.0925925925925926,79.53703703703704,0)" xlink:href="#as"/><use transform="matrix(0.0925925925925926,0,0,0.0925925925925926,96.20370370370371,0)" xlink:href="#at"/></g><path d="M24-231v-30h32v30H24zM24 0v-190h32V0H24" id="au"/><g id="c"><use transform="matrix(0.0925925925925926,0,0,0.0925925925925926,0,0)" xlink:href="#au"/><use transform="matrix(0.0925925925925926,0,0,0.0925925925925926,7.314814814814816,0)" xlink:href="#ar"/></g><path d="M114-163C36-179 61-72 57 0H25l-1-190h30c1 12-1 29 2 39 6-27 23-49 58-41v29" id="av"/><path d="M177-190C167-65 218 103 67 71c-23-6-38-20-44-43l32-5c15 47 100 32 89-28v-30C133-14 115 1 83 1 29 1 15-40 15-95c0-56 16-97 71-98 29-1 48 16 59 35 1-10 0-23 2-32h30zM94-22c36 0 50-32 50-73 0-42-14-75-50-75-39 0-46 34-46 75s6 73 46 73" id="aw"/><g id="d"><use transform="matrix(0.0925925925925926,0,0,0.0925925925925926,0,0)" xlink:href="#av"/><use transform="matrix(0.0925925925925926,0,0,0.0925925925925926,11.018518518518519,0)" xlink:href="#au"/><use transform="matrix(0.0925925925925926,0,0,0.0925925925925926,18.333333333333336,0)" xlink:href="#ar"/><use transform="matrix(0.0925925925925926,0,0,0.0925925925925926,36.851851851851855,0)" xlink:href="#aw"/></g><path d="M143 4C61 4 22-44 18-125c-5-107 100-154 193-111 17 8 29 25 37 43l-32 9c-13-25-37-40-76-40-61 0-88 39-88 99 0 61 29 100 91 101 35 0 62-11 79-27v-45h-74v-28h105v86C228-13 192 4 143 4" id="ax"/><path d="M24 0v-261h32V0H24" id="ay"/><path d="M100-194c62-1 85 37 85 99 1 63-27 99-86 99S16-35 15-95c0-66 28-99 85-99zM99-20c44 1 53-31 53-75 0-43-8-75-51-75s-53 32-53 75 10 74 51 75" id="az"/><path d="M115-194c53 0 69 39 70 98 0 66-23 100-70 100C84 3 66-7 56-30L54 0H23l1-261h32v101c10-23 28-34 59-34zm-8 174c40 0 45-34 45-75 0-40-5-75-45-74-42 0-51 32-51 76 0 43 10 73 51 73" id="aA"/><path d="M141-36C126-15 110 5 73 4 37 3 15-17 15-53c-1-64 63-63 125-63 3-35-9-54-41-54-24 1-41 7-42 31l-33-3c5-37 33-52 76-52 45 0 72 20 72 64v82c-1 20 7 32 28 27v20c-31 9-61-2-59-35zM48-53c0 20 12 33 32 33 41-3 63-29 60-74-43 2-92-5-92 41" id="aB"/><g id="e"><use transform="matrix(0.09259259259259256,0,0,0.09259259259259256,0,0)" xlink:href="#ax"/><use transform="matrix(0.09259259259259256,0,0,0.09259259259259256,25.925925925925917,0)" xlink:href="#ay"/><use transform="matrix(0.09259259259259256,0,0,0.09259259259259256,33.240740740740726,0)" xlink:href="#az"/><use transform="matrix(0.09259259259259256,0,0,0.09259259259259256,51.75925925925924,0)" xlink:href="#aA"/><use transform="matrix(0.09259259259259256,0,0,0.09259259259259256,70.27777777777774,0)" xlink:href="#aB"/><use transform="matrix(0.09259259259259256,0,0,0.09259259259259256,88.79629629629625,0)" xlink:href="#ay"/></g><path d="M197 0v-115H63V0H30v-248h33v105h134v-105h34V0h-34" id="aC"/><path d="M100-194c63 0 86 42 84 106H49c0 40 14 67 53 68 26 1 43-12 49-29l28 8c-11 28-37 45-77 45C44 4 14-33 15-96c1-61 26-98 85-98zm52 81c6-60-76-77-97-28-3 7-6 17-6 28h103" id="aD"/><path d="M85-194c31 0 48 13 60 33l-1-100h32l1 261h-30c-2-10 0-23-3-31C134-8 116 4 85 4 32 4 16-35 15-94c0-66 23-100 70-100zm9 24c-40 0-46 34-46 75 0 40 6 74 45 74 42 0 51-32 51-76 0-42-9-74-50-73" id="aE"/><g id="f"><use transform="matrix(0.09259259259259256,0,0,0.09259259259259256,0,0)" xlink:href="#aC"/><use transform="matrix(0.09259259259259256,0,0,0.09259259259259256,23.981481481481474,0)" xlink:href="#aD"/><use transform="matrix(0.09259259259259256,0,0,0.09259259259259256,42.499999999999986,0)" xlink:href="#aB"/><use transform="matrix(0.09259259259259256,0,0,0.09259259259259256,61.0185185185185,0)" xlink:href="#aE"/><use transform="matrix(0.09259259259259256,0,0,0.09259259259259256,79.53703703703701,0)" xlink:href="#aD"/><use transform="matrix(0.09259259259259256,0,0,0.09259259259259256,98.05555555555551,0)" xlink:href="#av"/></g><use transform="matrix(0.09259259259259256,0,0,0.09259259259259256,0,0)" xlink:href="#an" id="g"/><path d="M233-177c-1 41-23 64-60 70L243 0h-38l-65-103H63V0H30v-248c88 3 205-21 203 71zM63-129c60-2 137 13 137-47 0-61-80-42-137-45v92" id="aF"/><g id="h"><use transform="matrix(0.09259259259259256,0,0,0.09259259259259256,0,0)" xlink:href="#aF"/><use transform="matrix(0.09259259259259256,0,0,0.09259259259259256,23.981481481481474,0)" xlink:href="#au"/><use transform="matrix(0.09259259259259256,0,0,0.09259259259259256,31.296296296296283,0)" xlink:href="#ar"/><use transform="matrix(0.09259259259259256,0,0,0.09259259259259256,49.814814814814795,0)" xlink:href="#aw"/><use transform="matrix(0.09259259259259256,0,0,0.09259259259259256,68.33333333333331,0)" xlink:href="#at"/></g><g id="i"><use transform="matrix(0.09259259259259256,0,0,0.09259259259259256,0,0)" xlink:href="#au"/><use transform="matrix(0.09259259259259256,0,0,0.09259259259259256,7.314814814814812,0)" xlink:href="#ar"/></g><path d="M141 0L90-78 38 0H4l68-98-65-92h35l48 74 47-74h35l-64 92 68 98h-35" id="aG"/><path d="M59-47c-2 24 18 29 38 22v24C64 9 27 4 27-40v-127H5v-23h24l9-43h21v43h35v23H59v120" id="aH"/><g id="j"><use transform="matrix(0.09259259259259256,0,0,0.09259259259259256,0,0)" xlink:href="#ar"/><use transform="matrix(0.09259259259259256,0,0,0.09259259259259256,18.518518518518512,0)" xlink:href="#aD"/><use transform="matrix(0.09259259259259256,0,0,0.09259259259259256,37.037037037037024,0)" xlink:href="#aG"/><use transform="matrix(0.09259259259259256,0,0,0.09259259259259256,53.70370370370368,0)" xlink:href="#aH"/></g><path d="M115-194c55 1 70 41 70 98S169 2 115 4C84 4 66-9 55-30l1 105H24l-1-265h31l2 30c10-21 28-34 59-34zm-8 174c40 0 45-34 45-75s-6-73-45-74c-42 0-51 32-51 76 0 43 10 73 51 73" id="aI"/><path d="M179-190L93 31C79 59 56 82 12 73V49c39 6 53-20 64-50L1-190h34L92-34l54-156h33" id="aJ"/><g id="k"><use transform="matrix(0.09259259259259256,0,0,0.09259259259259256,0,0)" xlink:href="#aI"/><use transform="matrix(0.09259259259259256,0,0,0.09259259259259256,18.518518518518512,0)" xlink:href="#az"/><use transform="matrix(0.09259259259259256,0,0,0.09259259259259256,37.037037037037024,0)" xlink:href="#ay"/><use transform="matrix(0.09259259259259256,0,0,0.09259259259259256,44.35185185185183,0)" xlink:href="#aJ"/><use transform="matrix(0.09259259259259256,0,0,0.09259259259259256,61.01851851851848,0)" xlink:href="#aw"/><use transform="matrix(0.09259259259259256,0,0,0.09259259259259256,79.53703703703701,0)" xlink:href="#az"/><use transform="matrix(0.09259259259259256,0,0,0.09259259259259256,98.05555555555551,0)" xlink:href="#ar"/></g><g id="l"><use transform="matrix(0.09259259259259256,0,0,0.09259259259259256,0,0)" xlink:href="#ao"/><use transform="matrix(0.09259259259259256,0,0,0.09259259259259256,23.981481481481474,0)" xlink:href="#ap"/><use transform="matrix(0.09259259259259256,0,0,0.09259259259259256,42.499999999999986,0)" xlink:href="#aq"/><use transform="matrix(0.09259259259259256,0,0,0.09259259259259256,61.0185185185185,0)" xlink:href="#ar"/><use transform="matrix(0.09259259259259256,0,0,0.09259259259259256,79.53703703703701,0)" xlink:href="#as"/><use transform="matrix(0.09259259259259256,0,0,0.09259259259259256,96.20370370370367,0)" xlink:href="#at"/></g><g id="m"><use transform="matrix(0.09259259259259256,0,0,0.09259259259259256,0,0)" xlink:href="#av"/><use transform="matrix(0.09259259259259256,0,0,0.09259259259259256,11.018518518518515,0)" xlink:href="#au"/><use transform="matrix(0.09259259259259256,0,0,0.09259259259259256,18.33333333333333,0)" xlink:href="#ar"/><use transform="matrix(0.09259259259259256,0,0,0.09259259259259256,36.85185185185184,0)" xlink:href="#aw"/></g><path d="M30-248c118-7 216 8 213 122C240-48 200 0 122 0H30v-248zM63-27c89 8 146-16 146-99s-60-101-146-95v194" id="aK"/><g id="n"><use transform="matrix(0.09259259259259256,0,0,0.09259259259259256,0,0)" xlink:href="#aK"/><use transform="matrix(0.09259259259259256,0,0,0.09259259259259256,23.981481481481474,0)" xlink:href="#aD"/><use transform="matrix(0.09259259259259256,0,0,0.09259259259259256,42.499999999999986,0)" xlink:href="#ay"/><use transform="matrix(0.09259259259259256,0,0,0.09259259259259256,49.814814814814795,0)" xlink:href="#aH"/><use transform="matrix(0.09259259259259256,0,0,0.09259259259259256,59.07407407407404,0)" xlink:href="#aB"/><use transform="matrix(0.09259259259259256,0,0,0.09259259259259256,77.59259259259255,0)" xlink:href="#at"/></g><g id="o"><use transform="matrix(0.09259259259259256,0,0,0.09259259259259256,0,0)" xlink:href="#au"/><use transform="matrix(0.09259259259259256,0,0,0.09259259259259256,7.314814814814812,0)" xlink:href="#ar"/></g><path d="M96-169c-40 0-48 33-48 73s9 75 48 75c24 0 41-14 43-38l32 2c-6 37-31 61-74 61-59 0-76-41-82-99-10-93 101-131 147-64 4 7 5 14 7 22l-32 3c-4-21-16-35-41-35" id="aL"/><g id="p"><use transform="matrix(0.09259259259259256,0,0,0.09259259259259256,0,0)" xlink:href="#aL"/><use transform="matrix(0.09259259259259256,0,0,0.09259259259259256,16.66666666666666,0)" xlink:href="#ap"/><use transform="matrix(0.09259259259259256,0,0,0.09259259259259256,35.185185185185176,0)" xlink:href="#aq"/><use transform="matrix(0.09259259259259256,0,0,0.09259259259259256,53.70370370370368,0)" xlink:href="#ar"/><use transform="matrix(0.09259259259259256,0,0,0.09259259259259256,72.2222222222222,0)" xlink:href="#as"/></g><path d="M63-220v92h138v28H63V0H30v-248h175v28H63" id="aM"/><g id="q"><use transform="matrix(0.09259259259259256,0,0,0.09259259259259256,0,0)" xlink:href="#aM"/><use transform="matrix(0.09259259259259256,0,0,0.09259259259259256,20.27777777777777,0)" xlink:href="#aq"/><use transform="matrix(0.09259259259259256,0,0,0.09259259259259256,38.79629629629628,0)" xlink:href="#ay"/><use transform="matrix(0.09259259259259256,0,0,0.09259259259259256,46.11111111111109,0)" xlink:href="#ay"/></g><g id="r"><use transform="matrix(0.09259259259259256,0,0,0.09259259259259256,0,0)" xlink:href="#aL"/><use transform="matrix(0.09259259259259256,0,0,0.09259259259259256,16.66666666666666,0)" xlink:href="#az"/><use transform="matrix(0.09259259259259256,0,0,0.09259259259259256,35.185185185185176,0)" xlink:href="#az"/><use transform="matrix(0.09259259259259256,0,0,0.09259259259259256,53.70370370370368,0)" xlink:href="#av"/><use transform="matrix(0.09259259259259256,0,0,0.09259259259259256,64.7222222222222,0)" xlink:href="#aE"/><use transform="matrix(0.09259259259259256,0,0,0.09259259259259256,83.2407407407407,0)" xlink:href="#au"/><use transform="matrix(0.09259259259259256,0,0,0.09259259259259256,90.55555555555551,0)" xlink:href="#ar"/><use transform="matrix(0.09259259259259256,0,0,0.09259259259259256,109.07407407407402,0)" xlink:href="#aB"/><use transform="matrix(0.09259259259259256,0,0,0.09259259259259256,127.59259259259252,0)" xlink:href="#aH"/><use transform="matrix(0.09259259259259256,0,0,0.09259259259259256,136.8518518518518,0)" xlink:href="#aD"/></g><g id="s"><use transform="matrix(0.09259259259259256,0,0,0.09259259259259256,0,0)" xlink:href="#ao"/><use transform="matrix(0.09259259259259256,0,0,0.09259259259259256,23.981481481481474,0)" xlink:href="#ap"/><use transform="matrix(0.09259259259259256,0,0,0.09259259259259256,42.499999999999986,0)" xlink:href="#aq"/><use transform="matrix(0.09259259259259256,0,0,0.09259259259259256,61.0185185185185,0)" xlink:href="#ar"/><use transform="matrix(0.09259259259259256,0,0,0.09259259259259256,79.53703703703701,0)" xlink:href="#as"/></g><g id="t"><use transform="matrix(0.09259259259259256,0,0,0.09259259259259256,0,0)" xlink:href="#aA"/><use transform="matrix(0.09259259259259256,0,0,0.09259259259259256,18.518518518518512,0)" xlink:href="#aJ"/><use transform="matrix(0.09259259259259256,0,0,0.09259259259259256,35.185185185185176,0)" xlink:href="#aH"/><use transform="matrix(0.09259259259259256,0,0,0.09259259259259256,44.44444444444443,0)" xlink:href="#aD"/></g><path d="M9 0v-24l116-142H16v-24h144v24L44-24h123V0H9" id="aN"/><g id="u"><use transform="matrix(0.09259259259259256,0,0,0.09259259259259256,0,0)" xlink:href="#at"/><use transform="matrix(0.09259259259259256,0,0,0.09259259259259256,16.66666666666666,0)" xlink:href="#au"/><use transform="matrix(0.09259259259259256,0,0,0.09259259259259256,23.981481481481474,0)" xlink:href="#aN"/><use transform="matrix(0.09259259259259256,0,0,0.09259259259259256,40.64814814814814,0)" xlink:href="#aD"/></g><path d="M33-154v-36h34v36H33zM33 0v-36h34V0H33" id="aO"/><use transform="matrix(0.09259259259259256,0,0,0.09259259259259256,0,0)" xlink:href="#aO" id="v"/><path d="M205 0l-28-72H64L36 0H1l101-248h38L239 0h-34zm-38-99l-47-123c-12 45-31 82-46 123h93" id="aP"/><path d="M108 0H70L1-190h34L89-25l56-165h34" id="aQ"/><g id="w"><use transform="matrix(0.09259259259259256,0,0,0.09259259259259256,0,0)" xlink:href="#aP"/><use transform="matrix(0.09259259259259256,0,0,0.09259259259259256,22.222222222222214,0)" xlink:href="#aL"/><use transform="matrix(0.09259259259259256,0,0,0.09259259259259256,38.88888888888887,0)" xlink:href="#aH"/><use transform="matrix(0.09259259259259256,0,0,0.09259259259259256,48.148148148148124,0)" xlink:href="#au"/><use transform="matrix(0.09259259259259256,0,0,0.09259259259259256,55.46296296296293,0)" xlink:href="#aQ"/><use transform="matrix(0.09259259259259256,0,0,0.09259259259259256,72.12962962962959,0)" xlink:href="#aD"/></g><path d="M101-234c-31-9-42 10-38 44h38v23H63V0H32v-167H5v-23h27c-7-52 17-82 69-68v24" id="aR"/><g id="x"><use transform="matrix(0.09259259259259256,0,0,0.09259259259259256,0,0)" xlink:href="#au"/><use transform="matrix(0.09259259259259256,0,0,0.09259259259259256,7.314814814814812,0)" xlink:href="#aR"/></g><path d="M240 0l2-218c-23 76-54 145-80 218h-23L58-218 59 0H30v-248h44l77 211c21-75 51-140 76-211h43V0h-30" id="aS"/><path d="M30-248c87 1 191-15 191 75 0 78-77 80-158 76V0H30v-248zm33 125c57 0 124 11 124-50 0-59-68-47-124-48v98" id="aT"/><g id="y"><use transform="matrix(0.09259259259259256,0,0,0.09259259259259256,0,0)" xlink:href="#aS"/><use transform="matrix(0.09259259259259256,0,0,0.09259259259259256,27.685185185185176,0)" xlink:href="#aq"/><use transform="matrix(0.09259259259259256,0,0,0.09259259259259256,46.20370370370369,0)" xlink:href="#ay"/><use transform="matrix(0.09259259259259256,0,0,0.09259259259259256,53.5185185185185,0)" xlink:href="#aH"/><use transform="matrix(0.09259259259259256,0,0,0.09259259259259256,62.77777777777776,0)" xlink:href="#au"/><use transform="matrix(0.09259259259259256,0,0,0.09259259259259256,70.09259259259257,0)" xlink:href="#aT"/><use transform="matrix(0.09259259259259256,0,0,0.09259259259259256,92.31481481481478,0)" xlink:href="#az"/><use transform="matrix(0.09259259259259256,0,0,0.09259259259259256,110.8333333333333,0)" xlink:href="#ay"/><use transform="matrix(0.09259259259259256,0,0,0.09259259259259256,118.14814814814808,0)" xlink:href="#aJ"/><use transform="matrix(0.09259259259259256,0,0,0.09259259259259256,134.81481481481475,0)" xlink:href="#aw"/><use transform="matrix(0.09259259259259256,0,0,0.09259259259259256,153.33333333333326,0)" xlink:href="#az"/><use transform="matrix(0.09259259259259256,0,0,0.09259259259259256,171.85185185185176,0)" xlink:href="#ar"/></g><g id="z"><use transform="matrix(0.09259259259259256,0,0,0.09259259259259256,0,0)" xlink:href="#aT"/><use transform="matrix(0.09259259259259256,0,0,0.09259259259259256,22.222222222222214,0)" xlink:href="#az"/><use transform="matrix(0.09259259259259256,0,0,0.09259259259259256,40.740740740740726,0)" xlink:href="#ay"/><use transform="matrix(0.09259259259259256,0,0,0.09259259259259256,48.055555555555536,0)" xlink:href="#aJ"/><use transform="matrix(0.09259259259259256,0,0,0.09259259259259256,64.7222222222222,0)" xlink:href="#aw"/><use transform="matrix(0.09259259259259256,0,0,0.09259259259259256,83.2407407407407,0)" xlink:href="#az"/><use transform="matrix(0.09259259259259256,0,0,0.09259259259259256,101.7592592592592,0)" xlink:href="#ar"/></g><g id="A"><use transform="matrix(0.09259259259259256,0,0,0.09259259259259256,0,0)" xlink:href="#az"/><use transform="matrix(0.09259259259259256,0,0,0.09259259259259256,18.518518518518512,0)" xlink:href="#av"/></g><g id="B"><use transform="matrix(0.09259259259259256,0,0,0.09259259259259256,0,0)" xlink:href="#aD"/><use transform="matrix(0.09259259259259256,0,0,0.09259259259259256,18.518518518518512,0)" xlink:href="#ar"/><use transform="matrix(0.09259259259259256,0,0,0.09259259259259256,37.037037037037024,0)" xlink:href="#aH"/><use transform="matrix(0.09259259259259256,0,0,0.09259259259259256,46.296296296296276,0)" xlink:href="#av"/><use transform="matrix(0.09259259259259256,0,0,0.09259259259259256,57.314814814814795,0)" xlink:href="#az"/><use transform="matrix(0.09259259259259256,0,0,0.09259259259259256,75.83333333333331,0)" xlink:href="#aI"/><use transform="matrix(0.09259259259259256,0,0,0.09259259259259256,94.35185185185182,0)" xlink:href="#aJ"/></g><g id="C"><use transform="matrix(0.09259259259259256,0,0,0.09259259259259256,0,0)" xlink:href="#aD"/><use transform="matrix(0.09259259259259256,0,0,0.09259259259259256,18.518518518518512,0)" xlink:href="#ar"/><use transform="matrix(0.09259259259259256,0,0,0.09259259259259256,37.037037037037024,0)" xlink:href="#aL"/><use transform="matrix(0.09259259259259256,0,0,0.09259259259259256,53.70370370370368,0)" xlink:href="#az"/><use transform="matrix(0.09259259259259256,0,0,0.09259259259259256,72.2222222222222,0)" xlink:href="#aE"/><use transform="matrix(0.09259259259259256,0,0,0.09259259259259256,90.7407407407407,0)" xlink:href="#au"/><use transform="matrix(0.09259259259259256,0,0,0.09259259259259256,98.05555555555551,0)" xlink:href="#ar"/><use transform="matrix(0.09259259259259256,0,0,0.09259259259259256,116.574074074074,0)" xlink:href="#aw"/></g><g id="D"><use transform="matrix(0.09259259259259256,0,0,0.09259259259259256,0,0)" xlink:href="#aE"/><use transform="matrix(0.09259259259259256,0,0,0.09259259259259256,18.518518518518512,0)" xlink:href="#aD"/><use transform="matrix(0.09259259259259256,0,0,0.09259259259259256,37.037037037037024,0)" xlink:href="#ay"/><use transform="matrix(0.09259259259259256,0,0,0.09259259259259256,44.35185185185183,0)" xlink:href="#aH"/><use transform="matrix(0.09259259259259256,0,0,0.09259259259259256,53.61111111111108,0)" xlink:href="#aB"/><use transform="matrix(0.09259259259259256,0,0,0.09259259259259256,72.12962962962959,0)" xlink:href="#at"/></g><g id="E"><use transform="matrix(0.0987654320987654,0,0,0.0987654320987654,0,0)" xlink:href="#aT"/><use transform="matrix(0.0987654320987654,0,0,0.0987654320987654,23.703703703703695,0)" xlink:href="#az"/><use transform="matrix(0.0987654320987654,0,0,0.0987654320987654,43.45679012345677,0)" xlink:href="#ay"/><use transform="matrix(0.0987654320987654,0,0,0.0987654320987654,51.259259259259245,0)" xlink:href="#aJ"/><use transform="matrix(0.0987654320987654,0,0,0.0987654320987654,69.03703703703701,0)" xlink:href="#aw"/><use transform="matrix(0.0987654320987654,0,0,0.0987654320987654,88.79012345679008,0)" xlink:href="#az"/><use transform="matrix(0.0987654320987654,0,0,0.0987654320987654,108.54320987654314,0)" xlink:href="#ar"/></g><g id="F"><use transform="matrix(0.0987654320987654,0,0,0.0987654320987654,0,0)" xlink:href="#aC"/><use transform="matrix(0.0987654320987654,0,0,0.0987654320987654,25.58024691358024,0)" xlink:href="#aD"/><use transform="matrix(0.0987654320987654,0,0,0.0987654320987654,45.333333333333314,0)" xlink:href="#aB"/><use transform="matrix(0.0987654320987654,0,0,0.0987654320987654,65.08641975308639,0)" xlink:href="#aE"/><use transform="matrix(0.0987654320987654,0,0,0.0987654320987654,84.83950617283946,0)" xlink:href="#aD"/><use transform="matrix(0.0987654320987654,0,0,0.0987654320987654,104.59259259259254,0)" xlink:href="#av"/></g><g id="G"><use transform="matrix(0.0987654320987654,0,0,0.0987654320987654,0,0)" xlink:href="#aF"/><use transform="matrix(0.0987654320987654,0,0,0.0987654320987654,25.58024691358024,0)" xlink:href="#au"/><use transform="matrix(0.0987654320987654,0,0,0.0987654320987654,33.38271604938271,0)" xlink:href="#ar"/><use transform="matrix(0.0987654320987654,0,0,0.0987654320987654,53.13580246913578,0)" xlink:href="#aw"/></g><g id="H"><use transform="matrix(0.0987654320987654,0,0,0.0987654320987654,0,0)" xlink:href="#ao"/><use transform="matrix(0.0987654320987654,0,0,0.0987654320987654,25.58024691358024,0)" xlink:href="#ap"/><use transform="matrix(0.0987654320987654,0,0,0.0987654320987654,45.333333333333314,0)" xlink:href="#aq"/><use transform="matrix(0.0987654320987654,0,0,0.0987654320987654,65.08641975308639,0)" xlink:href="#ar"/><use transform="matrix(0.0987654320987654,0,0,0.0987654320987654,84.83950617283946,0)" xlink:href="#as"/></g><g id="I"><use transform="matrix(0.0864197530864197,0,0,0.0864197530864197,0,0)" xlink:href="#aK"/><use transform="matrix(0.0864197530864197,0,0,0.0864197530864197,22.382716049382704,0)" xlink:href="#aD"/><use transform="matrix(0.0864197530864197,0,0,0.0864197530864197,39.66666666666664,0)" xlink:href="#ay"/><use transform="matrix(0.0864197530864197,0,0,0.0864197530864197,46.4938271604938,0)" xlink:href="#aH"/><use transform="matrix(0.0864197530864197,0,0,0.0864197530864197,55.135802469135776,0)" xlink:href="#aB"/></g><g id="J"><use transform="matrix(0.0864197530864197,0,0,0.0864197530864197,0,0)" xlink:href="#aL"/><use transform="matrix(0.0864197530864197,0,0,0.0864197530864197,15.555555555555546,0)" xlink:href="#az"/><use transform="matrix(0.0864197530864197,0,0,0.0864197530864197,32.83950617283949,0)" xlink:href="#az"/><use transform="matrix(0.0864197530864197,0,0,0.0864197530864197,50.12345679012343,0)" xlink:href="#av"/><use transform="matrix(0.0864197530864197,0,0,0.0864197530864197,60.407407407407376,0)" xlink:href="#aE"/></g><path d="M24 0v-54h51V0H24" id="aU"/><use transform="matrix(0.10493827160493824,0,0,0.10493827160493824,0,0)" xlink:href="#aU" id="K"/><use transform="matrix(0.10493827160493824,0,0,0.10493827160493824,0,0)" xlink:href="#aU" id="L"/><use transform="matrix(0.10493827160493824,0,0,0.10493827160493824,0,0)" xlink:href="#aU" id="M"/><use transform="matrix(0.0987654320987654,0,0,0.0987654320987654,0,0)" xlink:href="#an" id="N"/><g id="O"><use transform="matrix(0.0987654320987654,0,0,0.0987654320987654,0,0)" xlink:href="#aK"/><use transform="matrix(0.0987654320987654,0,0,0.0987654320987654,25.58024691358024,0)" xlink:href="#aD"/><use transform="matrix(0.0987654320987654,0,0,0.0987654320987654,45.333333333333314,0)" xlink:href="#ay"/><use transform="matrix(0.0987654320987654,0,0,0.0987654320987654,53.13580246913578,0)" xlink:href="#aH"/><use transform="matrix(0.0987654320987654,0,0,0.0987654320987654,63.01234567901233,0)" xlink:href="#aB"/><use transform="matrix(0.0987654320987654,0,0,0.0987654320987654,82.7654320987654,0)" xlink:href="#at"/></g><g id="P"><use transform="matrix(0.0987654320987654,0,0,0.0987654320987654,0,0)" xlink:href="#au"/><use transform="matrix(0.0987654320987654,0,0,0.0987654320987654,7.8024691358024665,0)" xlink:href="#ar"/></g><g id="Q"><use transform="matrix(0.0987654320987654,0,0,0.0987654320987654,0,0)" xlink:href="#aL"/><use transform="matrix(0.0987654320987654,0,0,0.0987654320987654,17.77777777777777,0)" xlink:href="#ap"/><use transform="matrix(0.0987654320987654,0,0,0.0987654320987654,37.530864197530846,0)" xlink:href="#aq"/><use transform="matrix(0.0987654320987654,0,0,0.0987654320987654,57.28395061728392,0)" xlink:href="#ar"/><use transform="matrix(0.0987654320987654,0,0,0.0987654320987654,77.037037037037,0)" xlink:href="#as"/></g><g id="R"><use transform="matrix(0.0925925925925926,0,0,0.0925925925925926,0,0)" xlink:href="#aF"/><use transform="matrix(0.0925925925925926,0,0,0.0925925925925926,23.981481481481485,0)" xlink:href="#au"/><use transform="matrix(0.0925925925925926,0,0,0.0925925925925926,31.296296296296298,0)" xlink:href="#ar"/><use transform="matrix(0.0925925925925926,0,0,0.0925925925925926,49.81481481481482,0)" xlink:href="#aw"/><use transform="matrix(0.0925925925925926,0,0,0.0925925925925926,68.33333333333334,0)" xlink:href="#at"/></g><g id="S"><use transform="matrix(0.0925925925925926,0,0,0.0925925925925926,0,0)" xlink:href="#aI"/><use transform="matrix(0.0925925925925926,0,0,0.0925925925925926,18.51851851851852,0)" xlink:href="#az"/><use transform="matrix(0.0925925925925926,0,0,0.0925925925925926,37.03703703703704,0)" xlink:href="#ay"/><use transform="matrix(0.0925925925925926,0,0,0.0925925925925926,44.351851851851855,0)" xlink:href="#aJ"/><use transform="matrix(0.0925925925925926,0,0,0.0925925925925926,61.018518518518526,0)" xlink:href="#aw"/><use transform="matrix(0.0925925925925926,0,0,0.0925925925925926,79.53703703703704,0)" xlink:href="#az"/><use transform="matrix(0.0925925925925926,0,0,0.0925925925925926,98.05555555555557,0)" xlink:href="#ar"/></g><path d="M182 0l-62-99L58 0H3l86-130-79-118h55l55 88 55-88h55l-75 118L237 0h-55" id="aV"/><use transform="matrix(0.11111111111111108,0,0,0.11111111111111108,0,0)" xlink:href="#aV" id="T"/><g id="U"><use transform="matrix(0.09259259259259256,0,0,0.09259259259259256,0,0)" xlink:href="#aF"/><use transform="matrix(0.09259259259259256,0,0,0.09259259259259256,23.981481481481474,0)" xlink:href="#aD"/><use transform="matrix(0.09259259259259256,0,0,0.09259259259259256,42.499999999999986,0)" xlink:href="#aI"/><use transform="matrix(0.09259259259259256,0,0,0.09259259259259256,61.0185185185185,0)" xlink:href="#aD"/><use transform="matrix(0.09259259259259256,0,0,0.09259259259259256,79.53703703703701,0)" xlink:href="#aB"/><use transform="matrix(0.09259259259259256,0,0,0.09259259259259256,98.05555555555551,0)" xlink:href="#aH"/><use transform="matrix(0.09259259259259256,0,0,0.09259259259259256,107.31481481481478,0)" xlink:href="#aD"/><use transform="matrix(0.09259259259259256,0,0,0.09259259259259256,125.83333333333329,0)" xlink:href="#aE"/></g><use transform="matrix(0.09259259259259256,0,0,0.09259259259259256,0,0)" xlink:href="#aV" id="V"/><path d="M210-169c-67 3-38 105-44 169h-31v-121c0-29-5-50-35-48C34-165 62-65 56 0H25l-1-190h30c1 10-1 24 2 32 10-44 99-50 107 0 11-21 27-35 58-36 85-2 47 119 55 194h-31v-121c0-29-5-49-35-48" id="aW"/><g id="W"><use transform="matrix(0.09259259259259256,0,0,0.09259259259259256,0,0)" xlink:href="#aH"/><use transform="matrix(0.09259259259259256,0,0,0.09259259259259256,9.259259259259256,0)" xlink:href="#au"/><use transform="matrix(0.09259259259259256,0,0,0.09259259259259256,16.57407407407407,0)" xlink:href="#aW"/><use transform="matrix(0.09259259259259256,0,0,0.09259259259259256,44.259259259259245,0)" xlink:href="#aD"/><use transform="matrix(0.09259259259259256,0,0,0.09259259259259256,62.77777777777776,0)" xlink:href="#at"/></g><g id="X"><use transform="matrix(0.09259259259259256,0,0,0.09259259259259256,0,0)" xlink:href="#aq"/><use transform="matrix(0.09259259259259256,0,0,0.09259259259259256,18.518518518518512,0)" xlink:href="#ar"/><use transform="matrix(0.09259259259259256,0,0,0.09259259259259256,37.037037037037024,0)" xlink:href="#aH"/><use transform="matrix(0.09259259259259256,0,0,0.09259259259259256,46.296296296296276,0)" xlink:href="#au"/><use transform="matrix(0.09259259259259256,0,0,0.09259259259259256,53.61111111111108,0)" xlink:href="#ay"/></g><path d="M30 0v-248h187v28H63v79h144v27H63v87h162V0H30" id="aX"/><path d="M140-251c81 0 123 46 123 126C263-46 219 4 140 4 59 4 17-45 17-125s42-126 123-126zm0 227c63 0 89-41 89-101s-29-99-89-99c-61 0-89 39-89 99S79-25 140-24" id="aY"/><g id="Y"><use transform="matrix(0.09259259259259256,0,0,0.09259259259259256,0,0)" xlink:href="#aX"/><use transform="matrix(0.09259259259259256,0,0,0.09259259259259256,22.222222222222214,0)" xlink:href="#aY"/><use transform="matrix(0.09259259259259256,0,0,0.09259259259259256,48.14814814814813,0)" xlink:href="#aM"/></g><path d="M232-93c-1 65-40 97-104 97C67 4 28-28 28-90v-158h33c8 89-33 224 67 224 102 0 64-133 71-224h33v155" id="aZ"/><g id="Z"><use transform="matrix(0.0925925925925926,0,0,0.0925925925925926,0,0)" xlink:href="#aZ"/><use transform="matrix(0.0925925925925926,0,0,0.0925925925925926,23.981481481481485,0)" xlink:href="#ar"/><use transform="matrix(0.0925925925925926,0,0,0.0925925925925926,42.5,0)" xlink:href="#aH"/><use transform="matrix(0.0925925925925926,0,0,0.0925925925925926,51.75925925925927,0)" xlink:href="#au"/><use transform="matrix(0.0925925925925926,0,0,0.0925925925925926,59.074074074074076,0)" xlink:href="#ay"/></g><g id="aa"><use transform="matrix(0.0925925925925926,0,0,0.0925925925925926,0,0)" xlink:href="#aX"/><use transform="matrix(0.0925925925925926,0,0,0.0925925925925926,22.222222222222225,0)" xlink:href="#aY"/><use transform="matrix(0.0925925925925926,0,0,0.0925925925925926,48.14814814814815,0)" xlink:href="#aM"/></g><g id="ab"><use transform="matrix(0.09259259259259256,0,0,0.09259259259259256,0,0)" xlink:href="#aK"/><use transform="matrix(0.09259259259259256,0,0,0.09259259259259256,23.981481481481474,0)" xlink:href="#aD"/><use transform="matrix(0.09259259259259256,0,0,0.09259259259259256,42.499999999999986,0)" xlink:href="#ay"/><use transform="matrix(0.09259259259259256,0,0,0.09259259259259256,49.814814814814795,0)" xlink:href="#aH"/><use transform="matrix(0.09259259259259256,0,0,0.09259259259259256,59.07407407407404,0)" xlink:href="#aB"/></g><g id="ac"><use transform="matrix(0.09259259259259256,0,0,0.09259259259259256,0,0)" xlink:href="#ax"/><use transform="matrix(0.09259259259259256,0,0,0.09259259259259256,25.925925925925917,0)" xlink:href="#aD"/><use transform="matrix(0.09259259259259256,0,0,0.09259259259259256,44.44444444444443,0)" xlink:href="#az"/><use transform="matrix(0.09259259259259256,0,0,0.09259259259259256,62.96296296296294,0)" xlink:href="#aW"/></g><g id="ad"><use transform="matrix(0.09259259259259256,0,0,0.09259259259259256,0,0)" xlink:href="#aH"/><use transform="matrix(0.09259259259259256,0,0,0.09259259259259256,9.259259259259256,0)" xlink:href="#aJ"/><use transform="matrix(0.09259259259259256,0,0,0.09259259259259256,25.925925925925917,0)" xlink:href="#aI"/><use transform="matrix(0.09259259259259256,0,0,0.09259259259259256,44.44444444444443,0)" xlink:href="#aD"/></g><g id="af"><use transform="matrix(0.09259259259259256,0,0,0.09259259259259256,0,0)" xlink:href="#ao"/><use transform="matrix(0.09259259259259256,0,0,0.09259259259259256,23.981481481481474,0)" xlink:href="#ap"/><use transform="matrix(0.09259259259259256,0,0,0.09259259259259256,42.499999999999986,0)" xlink:href="#aq"/><use transform="matrix(0.09259259259259256,0,0,0.09259259259259256,61.0185185185185,0)" xlink:href="#ar"/><use transform="matrix(0.09259259259259256,0,0,0.09259259259259256,79.53703703703701,0)" xlink:href="#as"/></g><path d="M160-131c35 5 61 23 61 61C221 17 115-2 30 0v-248c76 3 177-17 177 60 0 33-19 50-47 57zm-97-11c50-1 110 9 110-42 0-47-63-36-110-37v79zm0 115c55-2 124 14 124-45 0-56-70-42-124-44v89" id="ba"/><g id="ag"><use transform="matrix(0.09259259259259256,0,0,0.09259259259259256,0,0)" xlink:href="#ba"/><use transform="matrix(0.09259259259259256,0,0,0.09259259259259256,22.222222222222214,0)" xlink:href="#ba"/></g><g id="ah"><use transform="matrix(0.09259259259259256,0,0,0.09259259259259256,0,0)" xlink:href="#aX"/><use transform="matrix(0.09259259259259256,0,0,0.09259259259259256,22.222222222222214,0)" xlink:href="#ar"/><use transform="matrix(0.09259259259259256,0,0,0.09259259259259256,40.740740740740726,0)" xlink:href="#aH"/><use transform="matrix(0.09259259259259256,0,0,0.09259259259259256,49.999999999999986,0)" xlink:href="#av"/><use transform="matrix(0.09259259259259256,0,0,0.09259259259259256,61.018518518518505,0)" xlink:href="#az"/><use transform="matrix(0.09259259259259256,0,0,0.09259259259259256,79.53703703703701,0)" xlink:href="#aI"/><use transform="matrix(0.09259259259259256,0,0,0.09259259259259256,98.05555555555551,0)" xlink:href="#aJ"/></g><g id="ai"><use transform="matrix(0.09259259259259256,0,0,0.09259259259259256,0,0)" xlink:href="#aI"/><use transform="matrix(0.09259259259259256,0,0,0.09259259259259256,18.518518518518512,0)" xlink:href="#aB"/><use transform="matrix(0.09259259259259256,0,0,0.09259259259259256,37.037037037037024,0)" xlink:href="#av"/><use transform="matrix(0.09259259259259256,0,0,0.09259259259259256,48.055555555555536,0)" xlink:href="#aB"/><use transform="matrix(0.09259259259259256,0,0,0.09259259259259256,66.57407407407405,0)" xlink:href="#aW"/><use transform="matrix(0.09259259259259256,0,0,0.09259259259259256,94.25925925925922,0)" xlink:href="#aD"/><use transform="matrix(0.09259259259259256,0,0,0.09259259259259256,112.77777777777774,0)" xlink:href="#aH"/><use transform="matrix(0.09259259259259256,0,0,0.09259259259259256,122.037037037037,0)" xlink:href="#aD"/><use transform="matrix(0.09259259259259256,0,0,0.09259259259259256,140.55555555555551,0)" xlink:href="#av"/></g><path d="M185-189c-5-48-123-54-124 2 14 75 158 14 163 119 3 78-121 87-175 55-17-10-28-26-33-46l33-7c5 56 141 63 141-1 0-78-155-14-162-118-5-82 145-84 179-34 5 7 8 16 11 25" id="bb"/><g id="aj"><use transform="matrix(0.09259259259259256,0,0,0.09259259259259256,0,0)" xlink:href="#bb"/><use transform="matrix(0.09259259259259256,0,0,0.09259259259259256,22.222222222222214,0)" xlink:href="#ap"/><use transform="matrix(0.09259259259259256,0,0,0.09259259259259256,40.740740740740726,0)" xlink:href="#aB"/><use transform="matrix(0.09259259259259256,0,0,0.09259259259259256,59.25925925925924,0)" xlink:href="#aI"/><use transform="matrix(0.09259259259259256,0,0,0.09259259259259256,77.77777777777774,0)" xlink:href="#aD"/></g><g id="ak"><use transform="matrix(0.09259259259259256,0,0,0.09259259259259256,0,0)" xlink:href="#ao"/><use transform="matrix(0.09259259259259256,0,0,0.09259259259259256,23.981481481481474,0)" xlink:href="#ap"/><use transform="matrix(0.09259259259259256,0,0,0.09259259259259256,42.499999999999986,0)" xlink:href="#aq"/><use transform="matrix(0.09259259259259256,0,0,0.09259259259259256,61.0185185185185,0)" xlink:href="#ar"/><use transform="matrix(0.09259259259259256,0,0,0.09259259259259256,79.53703703703701,0)" xlink:href="#as"/><use transform="matrix(0.09259259259259256,0,0,0.09259259259259256,96.20370370370367,0)" xlink:href="#at"/></g><use transform="matrix(0.08641975308641973,0,0,0.08641975308641973,0,0)" xlink:href="#an" id="al"/><g id="am"><use transform="matrix(0.08641975308641973,0,0,0.08641975308641973,0,0)" xlink:href="#ao"/><use transform="matrix(0.08641975308641973,0,0,0.08641975308641973,22.38271604938271,0)" xlink:href="#ap"/><use transform="matrix(0.08641975308641973,0,0,0.08641975308641973,39.66666666666666,0)" xlink:href="#aq"/><use transform="matrix(0.08641975308641973,0,0,0.08641975308641973,56.950617283950606,0)" xlink:href="#ar"/><use transform="matrix(0.08641975308641973,0,0,0.08641975308641973,74.23456790123456,0)" xlink:href="#as"/><use transform="matrix(0.08641975308641973,0,0,0.08641975308641973,89.7901234567901,0)" xlink:href="#at"/></g></defs></g></svg>