<svg xmlns="http://www.w3.org/2000/svg" xmlns:xlink="http://www.w3.org/1999/xlink" xmlns:lucid="lucid" width="578" height="501"><g transform="translate(-49 -63)" lucid:page-tab-id="0_0"><path d="M197.44 94.67c0 13.8-11.2 25-25 25s-25-11.2-25-25 11.2-25 25-25 25 11.2 25 25z" stroke="#3a414a" stroke-width="2" fill-opacity="0"/><use xlink:href="#a" transform="matrix(1,0,0,1,151.44514845800535,73.66666666666771) translate(-2.2222222222221966 26.83333333333333)"/><path d="M304.05 164.17c0 13.8-11.2 25-25 25s-25-11.2-25-25 11.2-25 25-25 25 11.2 25 25z" stroke="#3a414a" stroke-width="2" fill-opacity="0"/><use xlink:href="#b" transform="matrix(1,0,0,1,258.04592150590565,143.16666666666757) translate(-2.2222222222221966 26.83333333333333)"/><path d="M57 139.17h50v67.66H57z" stroke="#3a414a" stroke-width="2" fill-opacity="0"/><use xlink:href="#c" transform="matrix(1,0,0,1,61,143.16666666666757) translate(-0.8703703703703525 20.222222222222232)"/><use xlink:href="#d" transform="matrix(1,0,0,1,61,143.16666666666757) translate(11.351851851851858 49.55555555555554)"/><path d="M405.47 232.83c0 13.8-11.2 25-25 25s-25-11.2-25-25 11.2-25 25-25 25 11.2 25 25z" stroke="#3a414a" stroke-width="2" fill-opacity="0"/><use xlink:href="#e" transform="matrix(1,0,0,1,359.4736507545929,211.83333333333417) translate(-2.2222222222221966 26.83333333333333)"/><path d="M207.84 232.83c0 13.8-11.2 25-25 25s-25-11.2-25-25 11.2-25 25-25 25 11.2 25 25z" stroke="#3a414a" stroke-width="2" fill-opacity="0"/><use xlink:href="#f" transform="matrix(1,0,0,1,161.8375984251968,211.83333333333417) translate(6.190185185185202 26.70833333333331)"/><path d="M108 277.67h50v67.66h-50z" stroke="#3a414a" stroke-width="2" fill-opacity="0"/><use xlink:href="#g" transform="matrix(1,0,0,1,112,281.66666666666663) translate(5.919753086419766 23.30555555555554)"/><use xlink:href="#h" transform="matrix(1,0,0,1,112,281.66666666666663) translate(10.706790123456798 52.63888888888884)"/><path d="M207.84 277.67h50v67.66h-50z" stroke="#3a414a" stroke-width="2" fill-opacity="0"/><use xlink:href="#i" transform="matrix(1,0,0,1,211.83759842519686,281.66666666666663) translate(5.919753086419766 23.30555555555554)"/><use xlink:href="#j" transform="matrix(1,0,0,1,211.83759842519686,281.66666666666663) translate(10.706790123456798 52.63888888888884)"/><path d="M283.05 277.67h50v67.66h-50z" stroke="#3a414a" stroke-width="2" fill-opacity="0"/><use xlink:href="#i" transform="matrix(1,0,0,1,287.0459215059057,281.66666666666663) translate(5.919753086419766 23.30555555555554)"/><use xlink:href="#k" transform="matrix(1,0,0,1,287.0459215059057,281.66666666666663) translate(12.709876543209884 52.63888888888884)"/><path d="M483.47 302.67c0 13.8-11.2 25-25 25s-25-11.2-25-25 11.2-25 25-25 25 11.2 25 25z" stroke="#3a414a" stroke-width="2" fill-opacity="0"/><use xlink:href="#l" transform="matrix(1,0,0,1,437.4736507545929,281.66666666666663) translate(6.190185185185202 26.70833333333331)"/><path d="M122.3 131.18l-29.48 3.4-3.76.8-2.04.56-1.23.42-.8.32-.54.25-.38.2-.28.17-.2.14-.15.1-.1.1-.1.1-.06.06-.08.08-1.54-1.28.1-.12.14-.15.17-.16.2-.17.22-.18.3-.2.36-.23.48-.26.64-.3.9-.36 1.34-.45 2.14-.6 3.9-.84 29.83-3.44zm50.57-8.96l-.1.13-.15.16-.16.17-.2.16-.24.2-.3.2-.36.2-.48.27-.64.3-.9.36-1.33.45-2.14.6-3.88.84-8.8 1.4-21 2.4v-2l20.72-2.4 8.7-1.37 3.78-.8 2.04-.58 1.23-.42.8-.32.54-.25.37-.2.27-.16.2-.14.15-.12.1-.1.1-.07.06-.06.06-.1z" stroke="#3a414a" stroke-width=".05" fill="#3a414a"/><path d="M172.44 120.67l1-.1-.02 1.15-2-.05.03-1.1z" fill="#3a414a"/><path d="M172.44 120.65l1.03-.1-.03 1.2-2.05-.06.02-1.16zm-1 1l1.95.05.02-1.1-.98.1-.97-.1z" stroke="#3a414a" stroke-width=".05" fill="#3a414a"/><path d="M83 137.9v.27h-2v-.27z" fill="#3a414a"/><path d="M83.03 137.87v.32h-2.06v-.33zm-2 .27h1.94v-.22h-1.94z" stroke="#3a414a" stroke-width=".05" fill="#3a414a"/><use xlink:href="#m" transform="matrix(1,0,0,1,122.30927104820401,118.93599093945382) translate(0 14.222222222222223)"/><path d="M267.02 132.65l4.35.8 2.4.58 1.5.43 1.02.34.7.28.55.24.4.2.33.2.27.16.2.15.2.14.16.14.22.2-1.4 1.45-.15-.16-.08-.07-.12-.08-.14-.1-.18-.12-.24-.13-.33-.17-.46-.2-.63-.25-.92-.3-1.4-.4-2.33-.56-4.2-.8-36.1-3.53v-2.02zm-93.37-11.68l.16.14.1.1.15.08.18.12.25.14.32.16.45.2.63.25.93.3 1.42.42 2.32.55 4.23.78 9.53 1.3 26.5 2.6v2.02l-26.73-2.62-9.6-1.32-4.35-.8-2.4-.58-1.5-.43-1.02-.34-.72-.28-.54-.24-.4-.2-.33-.18-.26-.17-.2-.15-.2-.15-.28-.24-.15-.15 1.46-1.37z" stroke="#3a414a" stroke-width=".05" fill="#3a414a"/><path d="M172.44 120.67l1-.1.03 1.1-2 .05-.03-1.15z" fill="#3a414a"/><path d="M172.44 120.65l1.03-.1.03 1.15-2.06.05-.02-1.2zm-.95 1.04l1.94-.05-.02-1.04-.98.1-.97-.1z" stroke="#3a414a" stroke-width=".05" fill="#3a414a"/><path d="M280.05 138.26l-1-.1-1 .1v-.37h2z" fill="#3a414a"/><path d="M280.07 138.3l-1.02-.1-1.03.08v-.4h2.05zm-2-.38v.3l.98-.08.97.1v-.32z" stroke="#3a414a" stroke-width=".05" fill="#3a414a"/><use xlink:href="#n" transform="matrix(1,0,0,1,220.7857023814774,118.93442677435844) translate(0 14.222222222222223)"/><path d="M226.03 200.2l-31.5 3.22-4.23.8-2.23.56-1.32.4-.85.3-.56.25-.4.2-.3.15-.2.13-.15.12-.12.1-.1.06-.08.1-1.38-1.46.12-.12.17-.14.2-.15.25-.16.3-.18.37-.2.5-.25.65-.27.95-.34 1.42-.44 2.33-.58 4.36-.84 31.8-3.26zm53.34-8.43l-.22.22-.17.14-.2.15-.24.16-.3.18-.37.2-.5.25-.66.27-.93.34-1.42.44-2.34.58-4.33.84L257.2 197l-21.3 2.18v-2l21.06-2.17 10.38-1.4 4.25-.83 2.2-.56 1.34-.4.84-.3.57-.23.4-.2.28-.15.2-.13.16-.12.1-.1.1-.06.15-.16z" stroke="#3a414a" stroke-width=".05" fill="#3a414a"/><path d="M279.04 190.17l1-.08-.02 1.12-2-.05.03-1.1z" fill="#3a414a"/><path d="M279.04 190.15l1.03-.1-.03 1.2-2.05-.06.02-1.16zm-1 1l1.95.05.02-1.1-.98.1-.97-.1z" stroke="#3a414a" stroke-width=".05" fill="#3a414a"/><path d="M183.84 206.57v.36l-1-.1-1 .08v-.33z" fill="#3a414a"/><path d="M183.86 206.55v.4l-1.02-.1-1.03.1v-.4zm-2 .34l.98-.1.97.1v-.3h-1.94z" stroke="#3a414a" stroke-width=".05" fill="#3a414a"/><use xlink:href="#m" transform="matrix(1,0,0,1,226.02515137478912,188.01493202079274) translate(0 14.222222222222223)"/><path d="M365.7 201.02l6.02 1 3 .64 1.78.47 1.13.37.8.3.56.24.42.22.33.2.27.15.22.16.18.15.16.14.2.2-1.4 1.4-.15-.12-.07-.06-.1-.08-.14-.1-.2-.1-.24-.15-.34-.17-.47-.2-.7-.27-1.04-.35-1.67-.45-2.9-.63-5.93-.96-30.75-2.88v-2zm-85.4-10.54l.06.06.1.08.14.1.2.1.24.15.34.17.48.2.7.27 1.03.35 1.66.45 2.9.63 5.94.97 18.05 2 12.66 1.18v2l-12.85-1.2-18.13-2-6.02-1-3-.64-1.78-.47-1.13-.37-.8-.3-.57-.24-.43-.22-.33-.2-.27-.15-.22-.16-.18-.15-.17-.14-.18-.2 1.4-1.4z" stroke="#3a414a" stroke-width=".05" fill="#3a414a"/><path d="M279.04 190.17l1-.08.03 1.07-2 .05-.03-1.15z" fill="#3a414a"/><path d="M279.04 190.15l1.03-.1.03 1.14-2.05.05-.03-1.2zm-.94 1.04l1.95-.05-.03-1.04-.98.1-.97-.1z" stroke="#3a414a" stroke-width=".05" fill="#3a414a"/><path d="M381.47 206.93l-1-.1-1 .08v-.33h2z" fill="#3a414a"/><path d="M381.5 206.96l-1.02-.1-1.03.08v-.4h2.05zm-2-.36v.3l.98-.1.97.1v-.3z" stroke="#3a414a" stroke-width=".05" fill="#3a414a"/><use xlink:href="#n" transform="matrix(1,0,0,1,324.80615250998363,187.98467970487948) translate(0 14.222222222222223)"/><path d="M339.36 269.7l-23.72 3.56-2.44.73-1.4.52-.85.4-.56.3-.4.24-.26.2-.2.16-.13.13-.1.12-.06.1-.08.1-1.66-1.1.1-.17.17-.2.2-.23.23-.23.3-.25.38-.3.5-.3.68-.38.98-.45 1.52-.57 2.64-.8 24.16-3.63zm41.66-9.36l-.1.17-.17.2-.2.23-.23.23-.3.25-.38.3-.5.3-.68.38-.98.45-1.52.58-2.6.8-5.34 1.18-18.8 2.82v-2.02l18.44-2.77 5.2-1.15 2.46-.74 1.4-.5.85-.4.56-.3.38-.25.28-.2.2-.16.13-.15.1-.12.08-.1.08-.1z" stroke="#3a414a" stroke-width=".05" fill="#3a414a"/><path d="M380.47 258.84l1-.1-.03 1.16-2-.07.04-1.1z" fill="#3a414a"/><path d="M380.47 258.8l1.03-.08-.04 1.2-2.05-.07.05-1.14zm-1 1l1.94.07.05-1.1-.98.1-.97-.1z" stroke="#3a414a" stroke-width=".05" fill="#3a414a"/><path d="M309.05 276.4v.27h-2v-.28z" fill="#3a414a"/><path d="M309.07 276.37v.32h-2.05v-.33zm-2 .27h1.95v-.22h-1.95z" stroke="#3a414a" stroke-width=".05" fill="#3a414a"/><use xlink:href="#m" transform="matrix(1,0,0,1,339.35611215314435,257.2711518194741) translate(0 14.222222222222223)"/><path d="M449.68 271.05l3.3.85 1.83.6 1.17.48.8.38.56.3.43.3.33.24.25.22.22.2.18.2.14.2.1.13-1.65 1.15-.06-.1-.08-.07-.1-.1-.1-.12-.18-.13-.23-.17-.3-.2-.46-.27-.68-.32-1.04-.4-1.7-.58-3.13-.8-24.92-3.4v-2.02zm-68.02-11.76l.06.07.1.1.12.12.17.13.23.17.32.2.46.27.68.32 1.05.4 1.7.58 3.16.8 7.06 1.35 17.75 2.42v2.02l-18.06-2.46-7.2-1.36-3.26-.84-1.84-.6-1.16-.48-.8-.38-.56-.3-.43-.3-.34-.24-.26-.22-.22-.2-.18-.2-.15-.2-.1-.13 1.65-1.15z" stroke="#3a414a" stroke-width=".05" fill="#3a414a"/><path d="M380.47 258.84l1-.1.04 1.1-2 .06-.03-1.16z" fill="#3a414a"/><path d="M380.47 258.8l1.03-.07.03 1.12-2.05.07-.04-1.2zm-.94 1.07l1.95-.06-.03-1.02-.98.08-.97-.1z" stroke="#3a414a" stroke-width=".05" fill="#3a414a"/><path d="M459.47 276.76l-1-.1-1 .1v-.37h2z" fill="#3a414a"/><path d="M459.5 276.8l-1.02-.1-1.03.08v-.42h2.05zm-2-.4v.32l.98-.08.97.1v-.33z" stroke="#3a414a" stroke-width=".05" fill="#3a414a"/><use xlink:href="#n" transform="matrix(1,0,0,1,414.505255816941,257.2690176404081) translate(0 14.222222222222223)"/><path d="M157.92 268.98l-19.52 4.26-1.74.75-.97.55-.6.4-.38.34-.24.25-.17.22-.1.18-.1.18-1.8-.87.14-.27.22-.37.3-.38.38-.4.52-.46.75-.54 1.17-.66 2-.88 20.15-4.4zm25.6-8.74l-.12.28-.22.35-.3.38-.38.4-.52.47-.76.53-1.15.65-1.97.86-4.05 1.3-6.26 1.36v-2.05l5.73-1.25 3.86-1.23 1.77-.8.98-.54.6-.42.37-.32.24-.27.17-.2.1-.2.1-.18z" stroke="#3a414a" stroke-width=".05" fill="#3a414a"/><path d="M182.83 258.84l1-.1-.05 1.17-2-.1.06-1.06z" fill="#3a414a"/><path d="M182.83 258.8l1.04-.08-.06 1.22-2.04-.1.06-1.13zm-1.02 1l1.96.08.06-1.1-1 .08-.95-.1z" stroke="#3a414a" stroke-width=".05" fill="#3a414a"/><path d="M134 276.4v.27h-2v-.28z" fill="#3a414a"/><path d="M134.03 276.37v.32h-2.06v-.33zm-2 .27h1.94v-.22h-1.94z" stroke="#3a414a" stroke-width=".05" fill="#3a414a"/><use xlink:href="#m" transform="matrix(1,0,0,1,157.91642752163597,256.2091170688571) translate(0 14.222222222222223)"/><path d="M228.17 271.37l1.96.87 1.13.64.74.53.52.46.38.4.28.38.22.36.13.26-1.8.87-.1-.17-.1-.18-.16-.22-.25-.26-.36-.32-.58-.4-.95-.55-1.7-.75-19.7-4.3v-2.05zm-44.14-11.82l.1.18.18.2.25.27.37.32.57.4.95.56 1.73.76 3.7 1.2 6.08 1.33v2.05l-6.6-1.45-3.9-1.26-1.9-.84-1.14-.64-.74-.52-.52-.46-.38-.4-.3-.38-.2-.35-.13-.26 1.8-.87z" stroke="#3a414a" stroke-width=".05" fill="#3a414a"/><path d="M182.83 258.84l1-.1.06 1.07-2 .1-.07-1.16z" fill="#3a414a"/><path d="M182.83 258.8l1.03-.07.05 1.1-2.03.1-.06-1.22zm-.92 1.08l1.96-.1-.05-1-.97.08-.97-.1z" stroke="#3a414a" stroke-width=".05" fill="#3a414a"/><path d="M233.84 276.67h-2v-.28h2z" fill="#3a414a"/><path d="M233.86 276.7h-2.05v-.33h2.06zm-2-.28v.22h1.95v-.22z" stroke="#3a414a" stroke-width=".05" fill="#3a414a"/><use xlink:href="#n" transform="matrix(1,0,0,1,197.96337090632815,256.2072770398797) translate(0 14.222222222222223)"/><path d="M361 347.5h50v67.67h-50z" stroke="#3a414a" stroke-width="2" fill-opacity="0"/><use xlink:href="#o" transform="matrix(1,0,0,1,365.0000000000003,351.4999999999991) translate(5.919753086419766 23.30555555555554)"/><use xlink:href="#p" transform="matrix(1,0,0,1,365.0000000000003,351.4999999999991) translate(10.706790123456798 52.63888888888884)"/><path d="M555.78 372.5c0 13.8-11.2 25-25 25s-25-11.2-25-25 11.2-25 25-25 25 11.2 25 25z" stroke="#3a414a" stroke-width="2" fill-opacity="0"/><use xlink:href="#q" transform="matrix(1,0,0,1,509.7805938320213,351.4999999999991) translate(6.190185185185202 26.70833333333331)"/><path d="M417.33 339.53l-23.78 3.58-2.42.73-1.38.53-.85.4-.56.3-.38.23-.27.2-.2.15-.13.14-.1.1-.08.1-.08.1-1.67-1.1.1-.17.17-.2.2-.22.23-.22.3-.25.38-.28.5-.32.67-.37.98-.45 1.5-.56 2.63-.8 24.23-3.64zm41.7-9.36l-.12.17-.15.2-.2.22-.23.23-.3.25-.37.27-.5.32-.68.37-.98.46-1.52.57-2.58.77-5.27 1.2-18.92 2.84V336l18.56-2.78 5.13-1.15 2.44-.74 1.38-.52.86-.38.55-.3.38-.24.28-.2.2-.16.13-.14.1-.1.08-.1.08-.12z" stroke="#3a414a" stroke-width=".05" fill="#3a414a"/><path d="M458.47 328.67l1-.1-.03 1.16-2-.07.04-1.1z" fill="#3a414a"/><path d="M458.47 328.65l1.03-.1-.04 1.2-2.05-.06.05-1.15zm-1 1l1.94.05.05-1.1-.98.1-.97-.1z" stroke="#3a414a" stroke-width=".05" fill="#3a414a"/><path d="M387 346.23v.27h-2v-.27z" fill="#3a414a"/><path d="M387.02 346.2v.32h-2.04v-.32zm-2 .28h1.96v-.23h-1.96z" stroke="#3a414a" stroke-width=".05" fill="#3a414a"/><use xlink:href="#m" transform="matrix(1,0,0,1,417.3332222792568,327.1043569711069) translate(0 14.222222222222223)"/><path d="M523.5 341.1l2.7.8 1.55.58 1 .45.7.38.5.33.37.28.3.27.24.23.2.22.15.2.13.17-1.67 1.1-.07-.1-.1-.1-.1-.12-.13-.14-.2-.16-.26-.2-.38-.25-.56-.3-.88-.4-1.4-.53-2.5-.74-23.55-3.54v-2.02zm-63.83-11.93l.07.1.1.12.14.12.2.17.27.2.38.23.57.3.87.4 1.42.54 2.5.74 5.37 1.2 18.08 2.72v2.02l-18.44-2.77-5.5-1.22-2.65-.8-1.55-.56-1-.47-.68-.37-.5-.32-.4-.28-.3-.26-.23-.23-.2-.22-.16-.2-.1-.18 1.65-1.1z" stroke="#3a414a" stroke-width=".05" fill="#3a414a"/><path d="M458.47 328.67l1-.1.04 1.1-2 .06-.03-1.16z" fill="#3a414a"/><path d="M458.47 328.65l1.02-.1.03 1.13-2.04.08-.06-1.22zm-.94 1.05l1.95-.06-.03-1.03-.98.1-.97-.1z" stroke="#3a414a" stroke-width=".05" fill="#3a414a"/><path d="M531.78 346.6l-1-.1-1 .08v-.36h2z" fill="#3a414a"/><path d="M531.8 346.62l-1-.1-1.04.1v-.42h2.05zm-2-.37v.3l1-.08.96.1v-.32z" stroke="#3a414a" stroke-width=".05" fill="#3a414a"/><use xlink:href="#n" transform="matrix(1,0,0,1,489.65445388577973,327.1029506183246) translate(0 14.222222222222223)"/><path d="M572 418h50v67.67h-50z" stroke="#3a414a" stroke-width="2" fill-opacity="0"/><use xlink:href="#r" transform="matrix(1,0,0,1,576,422.0036263729475) translate(5.919753086419766 23.30555555555554)"/><use xlink:href="#s" transform="matrix(1,0,0,1,576,422.0036263729475) translate(9.348765432098775 52.63888888888884)"/><path d="M497.24 443c0 13.8-11.2 25-25 25s-25-11.2-25-25 11.2-25 25-25 25 11.2 25 25z" stroke="#3a414a" stroke-width="2" fill-opacity="0"/><use xlink:href="#t" transform="matrix(1,0,0,1,451.24360236220446,422.00362637294756) translate(13.597592592592601 26.70833333333331)"/><path d="M590.3 411.42l2.5.84 1.45.6.94.5.65.4.5.35.36.32.3.28.23.26.18.25.14.22-1.68 1.07-.1-.15-.1-.13-.12-.15-.18-.17-.25-.22-.35-.26-.53-.32-.82-.42-1.3-.55-2.3-.76-21-3.57v-2.03zM532 399.17l.1.1.12.16.18.18.25.22.37.27.53.3.8.43 1.32.55 2.3.77 4.85 1.2 16.06 2.74v2.02l-16.46-2.8-5-1.25-2.45-.82-1.47-.6-.94-.5-.67-.4-.5-.35-.36-.3-.3-.3-.22-.26-.2-.25-.18-.32 1.72-1.03z" stroke="#3a414a" stroke-width=".05" fill="#3a414a"/><path d="M530.77 398.5l1-.08.05 1.07-2 .07-.04-1.17z" fill="#3a414a"/><path d="M530.77 398.48l1.03-.1.05 1.13-2.05.1-.05-1.22zm-.93 1.06l1.95-.07-.05-1.02-.98.08-.97-.1z" stroke="#3a414a" stroke-width=".05" fill="#3a414a"/><path d="M598 417h-2v-.28h2z" fill="#3a414a"/><path d="M598.02 417.03H596v-.34H598zm-2-.3v.25H598v-.24z" stroke="#3a414a" stroke-width=".05" fill="#3a414a"/><use xlink:href="#n" transform="matrix(1,0,0,1,558.9128658388792,397.27474092039125) translate(0 14.222222222222223)"/><path d="M496.6 409.87l-16.66 3.1-2.67.9-1.44.62-.86.46-.54.37-.37.3-.25.22-.16.2-.13.16-.07.16-.07.13-1.78-.92.1-.2.18-.3.23-.3.28-.32.37-.36.5-.4.7-.45 1-.55 1.6-.7 2.88-.98 17.18-3.2zm34.85-9.95l-.1.2-.2.3-.22.3-.28.33-.38.35-.5.4-.68.45-1.02.56-1.6.7-2.86.98-6.54 1.6-10.6 1.96V406l10.18-1.88 6.4-1.56 2.7-.92 1.43-.63.85-.46.55-.36.36-.3.25-.23.18-.2.13-.16.1-.15.06-.13z" stroke="#3a414a" stroke-width=".05" fill="#3a414a"/><path d="M530.77 398.5l1-.08-.03 1.15-2-.08.04-1.1z" fill="#3a414a"/><path d="M530.77 398.48l1.04-.1-.04 1.22-2.05-.1.06-1.12zm-1 .98l1.94.1.06-1.12-1 .1-.95-.1z" stroke="#3a414a" stroke-width=".05" fill="#3a414a"/><path d="M473.24 416.7v.4l-1-.1-1 .08v-.37z" fill="#3a414a"/><path d="M473.27 416.7v.43l-1.02-.1-1.03.08v-.4zm-2 .36l.98-.1.97.1v-.32h-1.95z" stroke="#3a414a" stroke-width=".05" fill="#3a414a"/><use xlink:href="#m" transform="matrix(1,0,0,1,496.61314423660065,397.2690496893541) translate(0 14.222222222222223)"/><path d="M496.78 489.67h50v67.67h-50z" stroke="#3a414a" stroke-width="2" fill-opacity="0"/><use xlink:href="#u" transform="matrix(1,0,0,1,500.7805938320214,493.67029303961414) translate(12.709876543209884 23.30555555555554)"/><use xlink:href="#v" transform="matrix(1,0,0,1,500.7805938320214,493.67029303961414) translate(11.351851851851858 52.63888888888884)"/><path d="M515.85 482.4l2.45 1.06 1.4.77.9.63.62.53.45.47.34.44.27.43.2.4.07.2-1.87.7-.05-.12-.1-.2-.15-.25-.22-.27-.3-.33-.5-.4-.72-.52-1.2-.68-2.2-.94-14.3-3.32v-2.06zm-42.45-12.63l.1.2.16.25.2.28.33.33.46.4.73.52 1.2.67 2.24.96 5.07 1.58 7.15 1.66v2.06l-7.66-1.8-5.25-1.62-2.42-1.04-1.4-.77-.9-.63-.62-.54-.45-.47-.34-.43-.24-.42-.2-.4-.08-.22 1.88-.7z" stroke="#3a414a" stroke-width=".05" fill="#3a414a"/><path d="M472.24 469l1-.08.05 1.06-2 .1-.06-1.17z" fill="#3a414a"/><path d="M472.24 468.98l1.02-.1.06 1.13-2.05.1-.06-1.22zm-.92 1.08l1.95-.1-.05-1-.98.07-.98-.1z" stroke="#3a414a" stroke-width=".05" fill="#3a414a"/><path d="M522.78 488.67h-2v-.3h2z" fill="#3a414a"/><path d="M522.8 488.7h-2.04v-.36h2.05zm-2-.3v.25h1.96v-.26z" stroke="#3a414a" stroke-width=".05" fill="#3a414a"/><use xlink:href="#n" transform="matrix(1,0,0,1,491.04907307,468.13292279662113) translate(0 14.222222222222223)"/><path d="M443.33 481l-14.9 3.48-2 .88-1.14.65-.7.5-.45.4-.3.3-.2.28-.15.24-.1.2-.04.12-1.88-.7.07-.2.2-.38.24-.4.32-.44.44-.47.6-.52.86-.6 1.3-.76 2.27-1 15.53-3.64zM473 470.32l-.07.2-.2.4-.24.4-.33.43-.44.47-.6.52-.86.6-1.3.75-2.24 1-4.6 1.48-8.92 2.1v-2.06l8.38-1.96 4.44-1.44 2.04-.9 1.13-.65.7-.5.44-.38.3-.33.2-.28.15-.24.1-.2.03-.12z" stroke="#3a414a" stroke-width=".05" fill="#3a414a"/><path d="M472.24 469l1-.08-.05 1.16-2-.1.05-1.07z" fill="#3a414a"/><path d="M472.24 468.98l1.04-.1-.06 1.23-2.05-.1.05-1.12zm-1.02.98l1.95.1.05-1.1-.98.07-.97-.1z" stroke="#3a414a" stroke-width=".05" fill="#3a414a"/><path d="M423.24 488.37v.3h-2v-.3z" fill="#3a414a"/><path d="M423.27 488.34v.36h-2.05v-.36zm-2 .3h1.95v-.25h-1.95z" stroke="#3a414a" stroke-width=".05" fill="#3a414a"/><g><use xlink:href="#m" transform="matrix(1,0,0,1,443.33210438542085,468.13516673818157) translate(0 14.222222222222223)"/></g><path d="M397.24 489.67h50v67.67h-50z" stroke="#3a414a" stroke-width="2" fill-opacity="0"/><g><use xlink:href="#w" transform="matrix(1,0,0,1,401.24360236220446,493.67029303961425) translate(12.709876543209884 23.30555555555554)"/><use xlink:href="#x" transform="matrix(1,0,0,1,401.24360236220446,493.67029303961425) translate(12.06481481481482 52.63888888888884)"/></g><defs><path d="M126-127c33 6 58 20 58 59 0 88-139 92-164 29-3-8-5-16-6-25l32-3c6 27 21 44 54 44 32 0 52-15 52-46 0-38-36-46-79-43v-28c39 1 72-4 72-42 0-27-17-43-46-43-28 0-47 15-49 41l-32-3c6-42 35-63 81-64 48-1 79 21 79 65 0 36-21 52-52 59" id="y"/><path d="M101-251c68 0 85 55 85 127S166 4 100 4C33 4 14-52 14-124c0-73 17-127 87-127zm-1 229c47 0 54-49 54-102s-4-102-53-102c-51 0-55 48-55 102 0 53 5 102 54 102" id="z"/><path d="M110-160c48 1 74 30 74 79 0 53-28 85-80 85-65 0-83-55-86-122-5-90 50-162 133-122 14 7 22 21 27 39l-31 6c-5-40-67-38-82-6-9 19-15 44-15 74 11-20 30-34 60-33zm-7 138c34 0 49-23 49-58s-16-56-50-56c-29 0-50 16-49 49 1 36 15 65 50 65" id="A"/><g id="a"><use transform="matrix(0.07407407407407399,0,0,0.07407407407407399,0,0)" xlink:href="#y"/><use transform="matrix(0.07407407407407399,0,0,0.07407407407407399,14.814814814814797,0)" xlink:href="#z"/><use transform="matrix(0.07407407407407399,0,0,0.07407407407407399,29.629629629629594,0)" xlink:href="#A"/></g><path d="M27 0v-27h64v-190l-56 39v-29l58-41h29v221h61V0H27" id="B"/><path d="M134-131c28 9 52 24 51 62-1 50-34 73-85 73S17-19 16-69c0-36 21-54 49-61-75-25-45-126 34-121 46 3 78 18 79 63 0 33-17 51-44 57zm-34-11c31 1 46-15 46-44 0-28-17-43-47-42-29 0-46 13-45 42 1 28 16 44 46 44zm1 122c35 0 51-18 51-52 0-30-18-46-53-46-33 0-51 17-51 47 0 34 19 51 53 51" id="C"/><g id="b"><use transform="matrix(0.07407407407407399,0,0,0.07407407407407399,0,0)" xlink:href="#B"/><use transform="matrix(0.07407407407407399,0,0,0.07407407407407399,14.814814814814797,0)" xlink:href="#C"/><use transform="matrix(0.07407407407407399,0,0,0.07407407407407399,29.629629629629594,0)" xlink:href="#A"/></g><path d="M101-251c82-7 93 87 43 132L82-64C71-53 59-42 53-27h129V0H18c2-99 128-94 128-182 0-28-16-43-45-43s-46 15-49 41l-32-3c6-41 34-60 81-64" id="D"/><g id="c"><use transform="matrix(0.06790123456790118,0,0,0.06790123456790118,0,0)" xlink:href="#B"/><use transform="matrix(0.06790123456790118,0,0,0.06790123456790118,13.580246913580234,0)" xlink:href="#D"/><use transform="matrix(0.06790123456790118,0,0,0.06790123456790118,27.16049382716047,0)" xlink:href="#z"/></g><path d="M30 0v-248h187v28H63v79h144v27H63v87h162V0H30" id="E"/><use transform="matrix(0.06790123456790118,0,0,0.06790123456790118,0,0)" xlink:href="#E" id="d"/><path d="M64 0c3-98 48-159 88-221H18v-27h164v26C143-157 98-101 97 0H64" id="F"/><g id="e"><use transform="matrix(0.07407407407407399,0,0,0.07407407407407399,0,0)" xlink:href="#B"/><use transform="matrix(0.07407407407407399,0,0,0.07407407407407399,14.814814814814797,0)" xlink:href="#z"/><use transform="matrix(0.07407407407407399,0,0,0.07407407407407399,29.629629629629594,0)" xlink:href="#F"/></g><path d="M99-251c64 0 84 50 84 122C183-37 130 33 47-8c-14-7-20-23-25-40l30-5c6 39 69 39 84 7 9-19 16-44 16-74-10 22-31 35-62 35-49 0-73-33-73-83 0-54 28-83 82-83zm-1 141c31-1 51-18 51-49 0-36-14-67-51-67-34 0-49 23-49 58 0 34 15 58 49 58" id="G"/><g id="f"><use transform="matrix(0.07407407407407399,0,0,0.07407407407407399,0,0)" xlink:href="#F"/><use transform="matrix(0.07407407407407399,0,0,0.07407407407407399,14.814814814814797,0)" xlink:href="#G"/></g><g id="g"><use transform="matrix(0.06790123456790118,0,0,0.06790123456790118,0,0)" xlink:href="#y"/><use transform="matrix(0.06790123456790118,0,0,0.06790123456790118,13.580246913580234,0)" xlink:href="#F"/></g><path d="M232-93c-1 65-40 97-104 97C67 4 28-28 28-90v-158h33c8 89-33 224 67 224 102 0 64-133 71-224h33v155" id="H"/><use transform="matrix(0.06790123456790118,0,0,0.06790123456790118,0,0)" xlink:href="#H" id="h"/><path d="M155-56V0h-30v-56H8v-25l114-167h33v167h35v25h-35zm-30-156c-27 46-58 90-88 131h88v-131" id="I"/><g id="i"><use transform="matrix(0.06790123456790118,0,0,0.06790123456790118,0,0)" xlink:href="#I"/><use transform="matrix(0.06790123456790118,0,0,0.06790123456790118,13.580246913580234,0)" xlink:href="#D"/></g><path d="M30-248c118-7 216 8 213 122C240-48 200 0 122 0H30v-248zM63-27c89 8 146-16 146-99s-60-101-146-95v194" id="J"/><use transform="matrix(0.06790123456790118,0,0,0.06790123456790118,0,0)" xlink:href="#J" id="j"/><path d="M30 0v-248h33v221h125V0H30" id="K"/><use transform="matrix(0.06790123456790118,0,0,0.06790123456790118,0,0)" xlink:href="#K" id="k"/><path d="M54-142c48-35 137-8 131 61C196 18 31 33 14-55l32-4c7 23 22 37 52 37 35-1 51-22 54-58 4-55-73-65-99-34H22l8-134h141v27H59" id="L"/><g id="l"><use transform="matrix(0.07407407407407399,0,0,0.07407407407407399,0,0)" xlink:href="#A"/><use transform="matrix(0.07407407407407399,0,0,0.07407407407407399,14.814814814814797,0)" xlink:href="#L"/></g><path fill="#333" d="M101-251c68 0 84 54 84 127C185-50 166 4 99 4S15-52 14-124c-1-75 17-127 87-127zm-1 216c37-5 36-46 36-89s4-89-36-89c-39 0-36 45-36 89 0 43-3 85 36 89" id="M"/><use transform="matrix(0.04938271604938272,0,0,0.04938271604938272,0,0)" xlink:href="#M" id="m"/><path fill="#333" d="M23 0v-37h61v-169l-59 37v-38l62-41h46v211h57V0H23" id="N"/><use transform="matrix(0.04938271604938272,0,0,0.04938271604938272,0,0)" xlink:href="#N" id="n"/><g id="o"><use transform="matrix(0.06790123456790118,0,0,0.06790123456790118,0,0)" xlink:href="#y"/><use transform="matrix(0.06790123456790118,0,0,0.06790123456790118,13.580246913580234,0)" xlink:href="#D"/></g><path d="M212-179c-10-28-35-45-73-45-59 0-87 40-87 99 0 60 29 101 89 101 43 0 62-24 78-52l27 14C228-24 195 4 139 4 59 4 22-46 18-125c-6-104 99-153 187-111 19 9 31 26 39 46" id="O"/><use transform="matrix(0.06790123456790118,0,0,0.06790123456790118,0,0)" xlink:href="#O" id="p"/><g id="q"><use transform="matrix(0.07407407407407399,0,0,0.07407407407407399,0,0)" xlink:href="#y"/><use transform="matrix(0.07407407407407399,0,0,0.07407407407407399,14.814814814814797,0)" xlink:href="#y"/></g><g id="r"><use transform="matrix(0.06790123456790118,0,0,0.06790123456790118,0,0)" xlink:href="#D"/><use transform="matrix(0.06790123456790118,0,0,0.06790123456790118,13.580246913580234,0)" xlink:href="#I"/></g><path d="M240 0l2-218c-23 76-54 145-80 218h-23L58-218 59 0H30v-248h44l77 211c21-75 51-140 76-211h43V0h-30" id="P"/><use transform="matrix(0.06790123456790118,0,0,0.06790123456790118,0,0)" xlink:href="#P" id="s"/><use transform="matrix(0.07407407407407399,0,0,0.07407407407407399,0,0)" xlink:href="#G" id="t"/><use transform="matrix(0.06790123456790118,0,0,0.06790123456790118,0,0)" xlink:href="#F" id="u"/><path d="M194 0L95-120 63-95V0H30v-248h33v124l119-124h40L117-140 236 0h-42" id="Q"/><use transform="matrix(0.06790123456790118,0,0,0.06790123456790118,0,0)" xlink:href="#Q" id="v"/><use transform="matrix(0.06790123456790118,0,0,0.06790123456790118,0,0)" xlink:href="#D" id="w"/><path d="M209 0H11v-25l151-195H24v-28h176v25L50-27h159V0" id="R"/><use transform="matrix(0.06790123456790118,0,0,0.06790123456790118,0,0)" xlink:href="#R" id="x"/></defs></g></svg>