<svg xmlns="http://www.w3.org/2000/svg" xmlns:xlink="http://www.w3.org/1999/xlink" xmlns:lucid="lucid" width="1010" height="930"><g transform="translate(283 -142)" lucid:page-tab-id="JXL.CsW2XmMt"><path d="M181.62 201.67a6 6 0 0 1 6-6h321.7a6 6 0 0 1 6 6v84a6 6 0 0 1-6 6h-321.7a6 6 0 0 1-6-6z" stroke="#000" stroke-opacity="0" stroke-width="6" fill="#fff" fill-opacity="0"/><use xlink:href="#a" transform="matrix(1,0,0,1,186.61904761904754,200.66666666666663) translate(79.59259259259264 29.354166666666657)"/><use xlink:href="#b" transform="matrix(1,0,0,1,186.61904761904754,200.66666666666663) translate(119.7777777777778 69.35416666666664)"/><path d="M-183.52 229.67h392v746.66h-392zM208.48 323h508v653.33h-508z" stroke="#000" stroke-width="4" fill-opacity="0"/><path d="M-183.52 229.67h56V323h-56zM-127.52 229.67h56V323h-56zM-71.52 229.67h56V323h-56z" fill="#fff"/><path d="M-15.52 229.67h56V323h-56z" fill="#fff"/><path d="M40.48 229.67h56V323h-56zM96.48 229.67h56V323h-56z" fill="#fff"/><path d="M152.48 229.67h56V323h-56zM-183.52 323h56v93.33h-56zM-127.52 323h56v93.33h-56zM-71.52 323h56v93.33h-56z" fill="#fff"/><path d="M-15.52 323h56v93.33h-56z" fill="#fff"/><path d="M40.48 323h56v93.33h-56zM96.48 323h56v93.33h-56z" fill="#fff"/><path d="M152.48 323h56v93.33h-56zM-183.52 416.33h56v93.34h-56zM-127.52 416.33h56v93.34h-56zM-71.52 416.33h56v93.34h-56z" fill="#fff"/><path d="M-15.52 416.33h56v93.34h-56z" fill="#fff"/><path d="M40.48 416.33h56v93.34h-56zM96.48 416.33h56v93.34h-56z" fill="#fff"/><path d="M152.48 416.33h56v93.34h-56zM-183.52 509.67h56V603h-56zM-127.52 509.67h56V603h-56zM-71.52 509.67h56V603h-56z" fill="#fff"/><path d="M-15.52 509.67h56V603h-56z" fill="#fff"/><path d="M40.48 509.67h56V603h-56zM96.48 509.67h56V603h-56z" fill="#fff"/><path d="M152.48 509.67h56V603h-56zM-183.52 603h56v93.33h-56zM-127.52 603h56v93.33h-56zM-71.52 603h56v93.33h-56z" fill="#fff"/><path d="M-15.52 603h56v93.33h-56z" fill="#fff"/><path d="M40.48 603h56v93.33h-56zM96.48 603h56v93.33h-56z" fill="#fff"/><path d="M152.48 603h56v93.33h-56zM-183.52 696.33h56v93.34h-56zM-127.52 696.33h56v93.34h-56zM-71.52 696.33h56v93.34h-56z" fill="#fff"/><path d="M-15.52 696.33h56v93.34h-56z" fill="#fff"/><path d="M40.48 696.33h56v93.34h-56zM96.48 696.33h56v93.34h-56z" fill="#fff"/><path d="M152.48 696.33h56v93.34h-56zM-183.52 789.67h56V883h-56zM-127.52 789.67h56V883h-56zM-71.52 789.67h56V883h-56z" fill="#fff"/><path d="M-15.52 789.67h56V883h-56z" fill="#fff"/><path d="M40.48 789.67h56V883h-56zM96.48 789.67h56V883h-56z" fill="#fff"/><path d="M152.48 789.67h56V883h-56zM-183.52 883h56v93.33h-56zM-127.52 883h56v93.33h-56zM-71.52 883h56v93.33h-56z" fill="#fff"/><path d="M-15.52 883h56v93.33h-56z" fill="#fff"/><path d="M40.48 883h56v93.33h-56zM96.48 883h56v93.33h-56z" fill="#fff"/><path d="M152.48 883h56v93.33h-56z" fill="#fff"/><path d="M-183.52 229.67V323M-127.52 229.67V323M-71.52 229.67V323M-15.52 229.67V323M40.48 229.67V323M96.48 229.67V323M152.48 229.67V323M208.48 229.67V323M-183.52 323v93.33M-127.52 323v93.33M-71.52 323v93.33M-15.52 323v93.33M40.48 323v93.33M96.48 323v93.33M152.48 323v93.33M208.48 323v93.33M-183.52 416.33v93.34M-127.52 416.33v93.34M-71.52 416.33v93.34M-15.52 416.33v93.34M40.48 416.33v93.34M96.48 416.33v93.34M152.48 416.33v93.34M208.48 416.33v93.34M-183.52 509.67V603M-127.52 509.67V603M-71.52 509.67V603M-15.52 509.67V603M40.48 509.67V603M96.48 509.67V603M152.48 509.67V603M208.48 509.67V603M-183.52 603v93.33M-127.52 603v93.33M-71.52 603v93.33M-15.52 603v93.33M40.48 603v93.33M96.48 603v93.33M152.48 603v93.33M208.48 603v93.33M-183.52 696.33v93.34M-127.52 696.33v93.34M-71.52 696.33v93.34M-15.52 696.33v93.34M40.48 696.33v93.34M96.48 696.33v93.34M152.48 696.33v93.34M208.48 696.33v93.34M-183.52 789.67V883M-127.52 789.67V883M-71.52 789.67V883M-15.52 789.67V883M40.48 789.67V883M96.48 789.67V883M152.48 789.67V883M208.48 789.67V883M-183.52 883v93.33M-127.52 883v93.33M-71.52 883v93.33M-15.52 883v93.33M40.48 883v93.33M96.48 883v93.33M152.48 883v93.33M208.48 883v93.33M-183.52 229.67h56M-127.52 229.67h56M-71.52 229.67h56M-15.52 229.67h56M40.48 229.67h56M96.48 229.67h56M152.48 229.67h56M-183.52 323h56M-127.52 323h56M-71.52 323h56M-15.52 323h56M40.48 323h56M96.48 323h56M152.48 323h56M-183.52 416.33h56M-127.52 416.33h56M-71.52 416.33h56M-15.52 416.33h56M40.48 416.33h56M96.48 416.33h56M152.48 416.33h56M-183.52 509.67h56M-127.52 509.67h56M-71.52 509.67h56M-15.52 509.67h56M40.48 509.67h56M96.48 509.67h56M152.48 509.67h56M-183.52 603h56M-127.52 603h56M-71.52 603h56M-15.52 603h56M40.48 603h56M96.48 603h56M152.48 603h56M-183.52 696.33h56M-127.52 696.33h56M-71.52 696.33h56M-15.52 696.33h56M40.48 696.33h56M96.48 696.33h56M152.48 696.33h56M-183.52 789.67h56M-127.52 789.67h56M-71.52 789.67h56M-15.52 789.67h56M40.48 789.67h56M96.48 789.67h56M152.48 789.67h56M-183.52 883h56M-183.52 976.33h56M-127.52 883h56M-127.52 976.33h56M-71.52 883h56M-71.52 976.33h56M-15.52 883h56M-15.52 976.33h56M40.48 883h56M40.48 976.33h56M96.48 883h56M96.48 976.33h56M152.48 883h56M152.48 976.33h56" stroke="#000" fill="none"/><use xlink:href="#c" transform="matrix(1,0,0,1,-178.52380952380958,234.66666666666663) translate(13.123456790123461 49.11111111111111)"/><use xlink:href="#d" transform="matrix(1,0,0,1,-122.52380952380958,234.66666666666663) translate(13.123456790123461 49.11111111111111)"/><use xlink:href="#e" transform="matrix(1,0,0,1,-66.52380952380958,234.66666666666663) translate(13.123456790123461 49.11111111111111)"/><use xlink:href="#f" transform="matrix(1,0,0,1,-10.523809523809575,234.66666666666663) translate(13.123456790123461 49.11111111111111)"/><use xlink:href="#g" transform="matrix(1,0,0,1,45.476190476190425,234.66666666666663) translate(13.123456790123461 49.11111111111111)"/><use xlink:href="#h" transform="matrix(1,0,0,1,101.47619047619042,234.66666666666663) translate(13.123456790123461 49.11111111111111)"/><use xlink:href="#i" transform="matrix(1,0,0,1,157.47619047619042,234.66666666666663) translate(13.123456790123461 49.11111111111111)"/><use xlink:href="#j" transform="matrix(1,0,0,1,157.47619047619042,421.3333333333333) translate(13.123456790123461 49.11111111111111)"/><use xlink:href="#j" transform="matrix(1,0,0,1,101.47619047619042,514.6666666666666) translate(13.123456790123461 49.11111111111111)"/><use xlink:href="#k" transform="matrix(1,0,0,1,157.47619047619042,514.6666666666666) translate(13.123456790123461 49.11111111111111)"/><use xlink:href="#j" transform="matrix(1,0,0,1,45.476190476190425,608) translate(13.123456790123461 49.11111111111111)"/><use xlink:href="#k" transform="matrix(1,0,0,1,101.47619047619042,608) translate(13.123456790123461 49.11111111111111)"/><use xlink:href="#l" transform="matrix(1,0,0,1,157.47619047619042,608) translate(17.12345679012346 49.11111111111111)"/><use xlink:href="#j" transform="matrix(1,0,0,1,-66.52380952380958,701.3333333333334) translate(13.123456790123461 49.11111111111111)"/><use xlink:href="#k" transform="matrix(1,0,0,1,-10.523809523809575,701.3333333333334) translate(13.123456790123461 49.11111111111111)"/><use xlink:href="#l" transform="matrix(1,0,0,1,45.476190476190425,701.3333333333334) translate(17.12345679012346 49.11111111111111)"/><use xlink:href="#j" transform="matrix(1,0,0,1,101.47619047619042,701.3333333333334) translate(13.123456790123461 49.11111111111111)"/><use xlink:href="#m" transform="matrix(1,0,0,1,157.47619047619042,701.3333333333334) translate(14.111111111111114 49.11111111111111)"/><use xlink:href="#j" transform="matrix(1,0,0,1,-178.52380952380958,794.6666666666666) translate(13.123456790123461 49.11111111111111)"/><use xlink:href="#k" transform="matrix(1,0,0,1,-122.52380952380958,794.6666666666666) translate(13.123456790123461 49.11111111111111)"/><use xlink:href="#l" transform="matrix(1,0,0,1,-66.52380952380958,794.6666666666666) translate(17.12345679012346 49.11111111111111)"/><use xlink:href="#j" transform="matrix(1,0,0,1,-10.523809523809575,794.6666666666666) translate(13.123456790123461 49.11111111111111)"/><use xlink:href="#m" transform="matrix(1,0,0,1,45.476190476190425,794.6666666666666) translate(14.111111111111114 49.11111111111111)"/><use xlink:href="#j" transform="matrix(1,0,0,1,101.47619047619042,794.6666666666666) translate(13.123456790123461 49.11111111111111)"/><use xlink:href="#n" transform="matrix(1,0,0,1,157.47619047619042,794.6666666666666) translate(13.123456790123461 49.11111111111111)"/><use xlink:href="#j" transform="matrix(1,0,0,1,-178.52380952380958,888) translate(13.123456790123461 49.11111111111111)"/><use xlink:href="#n" transform="matrix(1,0,0,1,-122.52380952380958,888) translate(13.123456790123461 49.11111111111111)"/><use xlink:href="#j" transform="matrix(1,0,0,1,-66.52380952380958,888) translate(13.123456790123461 49.11111111111111)"/><use xlink:href="#k" transform="matrix(1,0,0,1,-10.523809523809575,888) translate(13.123456790123461 49.11111111111111)"/><use xlink:href="#l" transform="matrix(1,0,0,1,45.476190476190425,888) translate(17.12345679012346 49.11111111111111)"/><use xlink:href="#j" transform="matrix(1,0,0,1,101.47619047619042,888) translate(13.123456790123461 49.11111111111111)"/><use xlink:href="#n" transform="matrix(1,0,0,1,157.47619047619042,888) translate(13.123456790123461 49.11111111111111)"/><path d="M-303.52 892.67a6 6 0 0 1 6-6h108a6 6 0 0 1 6 6v74.66a6 6 0 0 1-6 6h-108a6 6 0 0 1-6-6z" stroke="#000" stroke-opacity="0" stroke-width="6" fill="#fff" fill-opacity="0"/><use xlink:href="#o" transform="matrix(1,0,0,1,-298.5238095238096,891.6666666666666) translate(19.320987654320994 47.065972222222214)"/><path d="M208.48 322.67h56V416h-56zM264.48 322.67h56V416h-56zM320.48 322.67h56V416h-56zM376.48 322.67h56V416h-56zM432.48 322.67h56V416h-56zM208.48 416h56v93.33h-56zM264.48 416h56v93.33h-56zM320.48 416h56v93.33h-56zM376.48 416h56v93.33h-56zM432.48 416h56v93.33h-56zM208.48 509.33h56v93.34h-56zM264.48 509.33h56v93.34h-56zM320.48 509.33h56v93.34h-56zM376.48 509.33h56v93.34h-56zM432.48 509.33h56v93.34h-56zM208.48 602.67h56V696h-56zM264.48 602.67h56V696h-56zM320.48 602.67h56V696h-56zM376.48 602.67h56V696h-56zM432.48 602.67h56V696h-56zM208.48 696h56v93.33h-56zM264.48 696h56v93.33h-56zM320.48 696h56v93.33h-56zM376.48 696h56v93.33h-56zM432.48 696h56v93.33h-56zM208.48 789.33h56v93.34h-56zM264.48 789.33h56v93.34h-56zM320.48 789.33h56v93.34h-56zM376.48 789.33h56v93.34h-56zM432.48 789.33h56v93.34h-56z" fill="#fff"/><path d="M208.48 882.67h56V976h-56zM264.48 882.67h56V976h-56zM320.48 882.67h56V976h-56zM376.48 882.67h56V976h-56zM432.48 882.67h56V976h-56z" fill="#fff"/><path d="M208.48 322.67V416M264.48 322.67V416M320.48 322.67V416M376.48 322.67V416M432.48 322.67V416M488.48 322.67V416M208.48 416v93.33M264.48 416v93.33M320.48 416v93.33M376.48 416v93.33M432.48 416v93.33M488.48 416v93.33M208.48 509.33v93.34M264.48 509.33v93.34M320.48 509.33v93.34M376.48 509.33v93.34M432.48 509.33v93.34M488.48 509.33v93.34M208.48 602.67V696M264.48 602.67V696M320.48 602.67V696M376.48 602.67V696M432.48 602.67V696M488.48 602.67V696M208.48 696v93.33M264.48 696v93.33M320.48 696v93.33M376.48 696v93.33M432.48 696v93.33M488.48 696v93.33M208.48 789.33v93.34M264.48 789.33v93.34M320.48 789.33v93.34M376.48 789.33v93.34M432.48 789.33v93.34M488.48 789.33v93.34M208.48 882.67V976M264.48 882.67V976M320.48 882.67V976M376.48 882.67V976M432.48 882.67V976M488.48 882.67V976M208.48 322.67h56M264.48 322.67h56M320.48 322.67h56M376.48 322.67h56M432.48 322.67h56M208.48 416h56M264.48 416h56M320.48 416h56M376.48 416h56M432.48 416h56M208.48 509.33h56M264.48 509.33h56M320.48 509.33h56M376.48 509.33h56M432.48 509.33h56M208.48 602.67h56M264.48 602.67h56M320.48 602.67h56M376.48 602.67h56M432.48 602.67h56M208.48 696h56M264.48 696h56M320.48 696h56M376.48 696h56M432.48 696h56M208.48 789.33h56M264.48 789.33h56M320.48 789.33h56M376.48 789.33h56M432.48 789.33h56M208.48 882.67h56M208.48 976h56M264.48 882.67h56M264.48 976h56M320.48 882.67h56M320.48 976h56M376.48 882.67h56M376.48 976h56M432.48 882.67h56M432.48 976h56" stroke="#000" fill="none"/><use xlink:href="#j" transform="matrix(1,0,0,1,213.47619047619042,327.6666666666666) translate(13.123456790123461 49.11111111111111)"/><use xlink:href="#k" transform="matrix(1,0,0,1,269.4761904761904,327.6666666666666) translate(13.123456790123461 49.11111111111111)"/><use xlink:href="#l" transform="matrix(1,0,0,1,325.4761904761904,327.6666666666666) translate(17.12345679012346 49.11111111111111)"/><use xlink:href="#j" transform="matrix(1,0,0,1,381.4761904761904,327.6666666666666) translate(13.123456790123461 49.11111111111111)"/><use xlink:href="#m" transform="matrix(1,0,0,1,437.4761904761904,327.6666666666666) translate(14.111111111111114 49.11111111111111)"/><use xlink:href="#k" transform="matrix(1,0,0,1,213.47619047619042,420.9999999999999) translate(13.123456790123461 49.11111111111111)"/><use xlink:href="#l" transform="matrix(1,0,0,1,269.4761904761904,420.9999999999999) translate(17.12345679012346 49.11111111111111)"/><use xlink:href="#j" transform="matrix(1,0,0,1,325.4761904761904,420.9999999999999) translate(13.123456790123461 49.11111111111111)"/><use xlink:href="#m" transform="matrix(1,0,0,1,381.4761904761904,420.9999999999999) translate(14.111111111111114 49.11111111111111)"/><use xlink:href="#j" transform="matrix(1,0,0,1,437.4761904761904,420.9999999999999) translate(13.123456790123461 49.11111111111111)"/><use xlink:href="#l" transform="matrix(1,0,0,1,213.47619047619042,514.3333333333333) translate(17.12345679012346 49.11111111111111)"/><use xlink:href="#j" transform="matrix(1,0,0,1,269.4761904761904,514.3333333333333) translate(13.123456790123461 49.11111111111111)"/><use xlink:href="#m" transform="matrix(1,0,0,1,325.4761904761904,514.3333333333333) translate(14.111111111111114 49.11111111111111)"/><use xlink:href="#j" transform="matrix(1,0,0,1,381.4761904761904,514.3333333333333) translate(13.123456790123461 49.11111111111111)"/><use xlink:href="#n" transform="matrix(1,0,0,1,437.4761904761904,514.3333333333333) translate(13.123456790123461 49.11111111111111)"/><use xlink:href="#j" transform="matrix(1,0,0,1,213.47619047619042,607.6666666666665) translate(13.123456790123461 49.11111111111111)"/><use xlink:href="#m" transform="matrix(1,0,0,1,269.4761904761904,607.6666666666665) translate(14.111111111111114 49.11111111111111)"/><use xlink:href="#j" transform="matrix(1,0,0,1,325.4761904761904,607.6666666666665) translate(13.123456790123461 49.11111111111111)"/><use xlink:href="#n" transform="matrix(1,0,0,1,381.4761904761904,607.6666666666665) translate(13.123456790123461 49.11111111111111)"/><use xlink:href="#j" transform="matrix(1,0,0,1,437.4761904761904,607.6666666666665) translate(13.123456790123461 49.11111111111111)"/><use xlink:href="#j" transform="matrix(1,0,0,1,213.47619047619042,701) translate(13.123456790123461 49.11111111111111)"/><use xlink:href="#n" transform="matrix(1,0,0,1,269.4761904761904,701) translate(13.123456790123461 49.11111111111111)"/><use xlink:href="#j" transform="matrix(1,0,0,1,325.4761904761904,701) translate(13.123456790123461 49.11111111111111)"/><use xlink:href="#k" transform="matrix(1,0,0,1,381.4761904761904,701) translate(13.123456790123461 49.11111111111111)"/><use xlink:href="#l" transform="matrix(1,0,0,1,437.4761904761904,701) translate(17.12345679012346 49.11111111111111)"/><use xlink:href="#j" transform="matrix(1,0,0,1,213.47619047619042,794.3333333333333) translate(13.123456790123461 49.11111111111111)"/><use xlink:href="#k" transform="matrix(1,0,0,1,269.4761904761904,794.3333333333333) translate(13.123456790123461 49.11111111111111)"/><use xlink:href="#l" transform="matrix(1,0,0,1,325.4761904761904,794.3333333333333) translate(17.12345679012346 49.11111111111111)"/><use xlink:href="#j" transform="matrix(1,0,0,1,381.4761904761904,794.3333333333333) translate(13.123456790123461 49.11111111111111)"/><use xlink:href="#n" transform="matrix(1,0,0,1,437.4761904761904,794.3333333333333) translate(13.123456790123461 49.11111111111111)"/><use xlink:href="#j" transform="matrix(1,0,0,1,213.47619047619042,887.6666666666665) translate(13.123456790123461 49.11111111111111)"/><use xlink:href="#k" transform="matrix(1,0,0,1,269.4761904761904,887.6666666666665) translate(13.123456790123461 49.11111111111111)"/><use xlink:href="#l" transform="matrix(1,0,0,1,325.4761904761904,887.6666666666665) translate(17.12345679012346 49.11111111111111)"/><use xlink:href="#j" transform="matrix(1,0,0,1,381.4761904761904,887.6666666666665) translate(13.123456790123461 49.11111111111111)"/><use xlink:href="#m" transform="matrix(1,0,0,1,437.4761904761904,887.6666666666665) translate(14.111111111111114 49.11111111111111)"/><path d="M488.48 323h114v93.33h-114zM602.48 323h114v93.33h-114zM488.48 416.33h114v93.34h-114zM602.48 416.33h114v93.34h-114zM488.48 509.67h114V603h-114zM602.48 509.67h114V603h-114zM488.48 603h114v93.33h-114zM602.48 603h114v93.33h-114zM488.48 696.33h114v93.34h-114zM602.48 696.33h114v93.34h-114z" fill="#fff"/><path d="M488.48 789.67h114V883h-114zM602.48 789.67h114V883h-114zM488.48 883h114v93.33h-114zM602.48 883h114v93.33h-114z" fill="#fff"/><path d="M488.48 323v93.33M602.48 323v93.33M716.48 323v93.33M488.48 416.33v93.34M602.48 416.33v93.34M716.48 416.33v93.34M488.48 509.67V603M602.48 509.67V603M716.48 509.67V603M488.48 603v93.33M602.48 603v93.33M716.48 603v93.33M488.48 696.33v93.34M602.48 696.33v93.34M716.48 696.33v93.34M488.48 789.67V883M602.48 789.67V883M716.48 789.67V883M488.48 883v93.33M602.48 883v93.33M716.48 883v93.33M488.48 323h114M602.48 323h114M488.48 416.33h114M602.48 416.33h114M488.48 509.67h114M602.48 509.67h114M488.48 603h114M602.48 603h114M488.48 696.33h114M602.48 696.33h114M488.48 789.67h114M602.48 789.67h114M488.48 883h114M488.48 976.33h114M602.48 883h114M602.48 976.33h114" stroke="#000" fill="none"/><use xlink:href="#p" transform="matrix(1,0,0,1,493.4761904761904,328.00000000000017) translate(7.555555555555564 49.11111111111111)"/><use xlink:href="#q" transform="matrix(1,0,0,1,607.4761904761904,328.00000000000017) translate(0.7407407407407618 49.11111111111111)"/><use xlink:href="#r" transform="matrix(1,0,0,1,493.4761904761904,421.3333333333335) translate(7.555555555555564 49.11111111111111)"/><use xlink:href="#s" transform="matrix(1,0,0,1,607.4761904761904,421.3333333333335) translate(0.7407407407407618 49.11111111111111)"/><use xlink:href="#t" transform="matrix(1,0,0,1,493.4761904761904,514.6666666666669) translate(12.543209876543223 49.11111111111111)"/><use xlink:href="#u" transform="matrix(1,0,0,1,607.4761904761904,514.6666666666669) translate(4.740740740740748 49.11111111111111)"/><use xlink:href="#v" transform="matrix(1,0,0,1,493.4761904761904,608.0000000000002) translate(11.555555555555571 49.11111111111111)"/><use xlink:href="#w" transform="matrix(1,0,0,1,607.4761904761904,608.0000000000002) translate(1.7283950617284063 49.11111111111111)"/><use xlink:href="#x" transform="matrix(1,0,0,1,493.4761904761904,701.3333333333335) translate(32.246913580246925 49.11111111111111)"/><use xlink:href="#y" transform="matrix(1,0,0,1,607.4761904761904,701.3333333333335) translate(0.7407407407407618 49.11111111111111)"/><use xlink:href="#z" transform="matrix(1,0,0,1,607.4761904761904,794.666666666667) translate(0.7407407407407618 49.11111111111111)"/><path d="M-107.52 140.67a6 6 0 0 1 6-6h228a6 6 0 0 1 6 6v48a6 6 0 0 1-6 6h-228a6 6 0 0 1-6-6z" stroke="#000" stroke-opacity="0" stroke-width="6" fill="#fff" fill-opacity="0"/><use xlink:href="#A" transform="matrix(1,0,0,1,-102.52380952380958,139.66666666666663) translate(15.4166666666667 32.91666666666666)"/><use xlink:href="#B" transform="matrix(1,0,0,1,-102.52380952380958,139.66666666666663) translate(130.13888888888889 32.91666666666666)"/><g fill="none"><path d="M-177.52 229.67a6 6 0 0 1-6-6v-108a6 6 0 0 1 6-6h380a6 6 0 0 1 6 6v108a6 6 0 0 1-6 6z"/><path d="M208.48 229.67c0-9.94-8.06-18-18-18h-160c-9.94 0-18-8.06-18-18 0 9.94-8.06 18-18 18h-160c-9.94 0-18 8.06-18 18" stroke="#3a414a" stroke-width="6"/></g><path d="M492.48 252.67a6 6 0 0 1 6-6h321.7a6 6 0 0 1 6 6v84a6 6 0 0 1-6 6H498.5a6 6 0 0 1-6-6z" stroke="#000" stroke-opacity="0" stroke-width="6" fill="#fff" fill-opacity="0"/><use xlink:href="#C" transform="matrix(1,0,0,1,497.4761904761904,251.66666666666663) translate(112.00000000000003 50.85416666666666)"/><path d="M-191.52 995.67a6 6 0 0 1 6-6h916a6 6 0 0 1 6 6v126a6 6 0 0 1-6 6h-916a6 6 0 0 1-6-6z" stroke="#000" stroke-opacity="0" stroke-width="6" fill="#fff" fill-opacity="0"/><use xlink:href="#D" transform="matrix(1,0,0,1,-186.52380952380958,994.6666666666666) translate(10.111111111111107 24.88888888888888)"/><use xlink:href="#E" transform="matrix(1,0,0,1,-186.52380952380958,994.6666666666666) translate(31.111111111111097 24.88888888888888)"/><use xlink:href="#F" transform="matrix(1,0,0,1,-186.52380952380958,994.6666666666666) translate(74.32098765432096 24.88888888888888)"/><use xlink:href="#G" transform="matrix(1,0,0,1,-186.52380952380958,994.6666666666666) translate(227.9753086419752 24.88888888888888)"/><use xlink:href="#H" transform="matrix(1,0,0,1,-186.52380952380958,994.6666666666666) translate(405.827160493827 24.88888888888888)"/><use xlink:href="#I" transform="matrix(1,0,0,1,-186.52380952380958,994.6666666666666) translate(464.506172839506 24.88888888888888)"/><use xlink:href="#J" transform="matrix(1,0,0,1,-186.52380952380958,994.6666666666666) translate(490.43209876543193 24.88888888888888)"/><use xlink:href="#K" transform="matrix(1,0,0,1,-186.52380952380958,994.6666666666666) translate(594.0493827160492 24.88888888888888)"/><use xlink:href="#L" transform="matrix(1,0,0,1,-186.52380952380958,994.6666666666666) translate(695.9382716049381 24.88888888888888)"/><use xlink:href="#M" transform="matrix(1,0,0,1,-186.52380952380958,994.6666666666666) translate(813.2098765432097 24.88888888888888)"/><use xlink:href="#D" transform="matrix(1,0,0,1,-186.52380952380958,994.6666666666666) translate(10.111111111111107 62.22222222222219)"/><use xlink:href="#N" transform="matrix(1,0,0,1,-186.52380952380958,994.6666666666666) translate(31.111111111111097 62.22222222222219)"/><use xlink:href="#O" transform="matrix(1,0,0,1,-186.52380952380958,994.6666666666666) translate(222.61728395061718 62.22222222222219)"/><use xlink:href="#P" transform="matrix(1,0,0,1,-186.52380952380958,994.6666666666666) translate(300.22222222222206 62.22222222222219)"/><path d="M226.87 869.38l158.87.25M226.92 869.38h-2.05" stroke="#e81313" stroke-width="4" fill="none"/><path d="M402 869.66l-14.27 4.6V865z" stroke="#e81313" stroke-width="4" fill="#e81313"/><path d="M67.48 606.43v-16.76h558v32.5" stroke="#e81313" stroke-width="4" fill="none"/><path d="M67.48 622.7l-4.64-14.27h9.27z" stroke="#e81313" stroke-width="4" fill="#e81313"/><path d="M625.48 622.1v2.07M-157.02 796.43v-26.76h786v32.5" stroke="#e81313" stroke-width="4" fill="none"/><path d="M-157.02 812.7l-4.64-14.27h9.27z" stroke="#e81313" stroke-width="4" fill="#e81313"/><path d="M628.98 802.1v2.07" stroke="#e81313" stroke-width="4" fill="none"/><path d="M205.48 322.67h6.05v653.66h-6.05z"/><path d="M-170.2 869.32l158.86.25M-170.15 869.32h-2.05" stroke="#e81313" stroke-width="4" fill="none"/><path d="M4.93 869.6l-14.27 4.6v-9.27z" stroke="#e81313" stroke-width="4" fill="#e81313"/><g fill="none"><path d="M214.48 322.67a6 6 0 0 1-6-6v-108a6 6 0 0 1 6-6h268a6 6 0 0 1 6 6v108a6 6 0 0 1-6 6z"/><path d="M488.48 322.67c0-9.94-8.06-18-18-18h-104c-9.94 0-18-8.06-18-18 0 9.94-8.06 18-18 18h-104c-9.94 0-18 8.06-18 18" stroke="#3a414a" stroke-width="6"/></g><defs><path d="M30 0v-248h33v221h125V0H30" id="Q"/><path d="M100-194c62-1 85 37 85 99 1 63-27 99-86 99S16-35 15-95c0-66 28-99 85-99zM99-20c44 1 53-31 53-75 0-43-8-75-51-75s-53 32-53 75 10 74 51 75" id="R"/><path d="M143 0L79-87 56-68V0H24v-261h32v163l83-92h37l-77 82L181 0h-38" id="S"/><path d="M141-36C126-15 110 5 73 4 37 3 15-17 15-53c-1-64 63-63 125-63 3-35-9-54-41-54-24 1-41 7-42 31l-33-3c5-37 33-52 76-52 45 0 72 20 72 64v82c-1 20 7 32 28 27v20c-31 9-61-2-59-35zM48-53c0 20 12 33 32 33 41-3 63-29 60-74-43 2-92-5-92 41" id="T"/><path d="M106-169C34-169 62-67 57 0H25v-261h32l-1 103c12-21 28-36 61-36 89 0 53 116 60 194h-32v-121c2-32-8-49-39-48" id="U"/><path d="M100-194c63 0 86 42 84 106H49c0 40 14 67 53 68 26 1 43-12 49-29l28 8c-11 28-37 45-77 45C44 4 14-33 15-96c1-61 26-98 85-98zm52 81c6-60-76-77-97-28-3 7-6 17-6 28h103" id="V"/><path d="M85-194c31 0 48 13 60 33l-1-100h32l1 261h-30c-2-10 0-23-3-31C134-8 116 4 85 4 32 4 16-35 15-94c0-66 23-100 70-100zm9 24c-40 0-46 34-46 75 0 40 6 74 45 74 42 0 51-32 51-76 0-42-9-74-50-73" id="W"/><g id="a"><use transform="matrix(0.09259259259259256,0,0,0.09259259259259256,0,0)" xlink:href="#Q"/><use transform="matrix(0.09259259259259256,0,0,0.09259259259259256,18.518518518518512,0)" xlink:href="#R"/><use transform="matrix(0.09259259259259256,0,0,0.09259259259259256,37.037037037037024,0)" xlink:href="#R"/><use transform="matrix(0.09259259259259256,0,0,0.09259259259259256,55.555555555555536,0)" xlink:href="#S"/><use transform="matrix(0.09259259259259256,0,0,0.09259259259259256,72.2222222222222,0)" xlink:href="#T"/><use transform="matrix(0.09259259259259256,0,0,0.09259259259259256,90.7407407407407,0)" xlink:href="#U"/><use transform="matrix(0.09259259259259256,0,0,0.09259259259259256,109.2592592592592,0)" xlink:href="#V"/><use transform="matrix(0.09259259259259256,0,0,0.09259259259259256,127.77777777777771,0)" xlink:href="#T"/><use transform="matrix(0.09259259259259256,0,0,0.09259259259259256,146.29629629629622,0)" xlink:href="#W"/></g><path d="M115-194c53 0 69 39 70 98 0 66-23 100-70 100C84 3 66-7 56-30L54 0H23l1-261h32v101c10-23 28-34 59-34zm-8 174c40 0 45-34 45-75 0-40-5-75-45-74-42 0-51 32-51 76 0 43 10 73 51 73" id="X"/><path d="M84 4C-5 8 30-112 23-190h32v120c0 31 7 50 39 49 72-2 45-101 50-169h31l1 190h-30c-1-10 1-25-2-33-11 22-28 36-60 37" id="Y"/><path d="M101-234c-31-9-42 10-38 44h38v23H63V0H32v-167H5v-23h27c-7-52 17-82 69-68v24" id="Z"/><path d="M114-163C36-179 61-72 57 0H25l-1-190h30c1 12-1 29 2 39 6-27 23-49 58-41v29" id="aa"/><g id="b"><use transform="matrix(0.09259259259259256,0,0,0.09259259259259256,0,0)" xlink:href="#X"/><use transform="matrix(0.09259259259259256,0,0,0.09259259259259256,18.518518518518512,0)" xlink:href="#Y"/><use transform="matrix(0.09259259259259256,0,0,0.09259259259259256,37.037037037037024,0)" xlink:href="#Z"/><use transform="matrix(0.09259259259259256,0,0,0.09259259259259256,45.64814814814814,0)" xlink:href="#Z"/><use transform="matrix(0.09259259259259256,0,0,0.09259259259259256,54.90740740740739,0)" xlink:href="#V"/><use transform="matrix(0.09259259259259256,0,0,0.09259259259259256,73.4259259259259,0)" xlink:href="#aa"/></g><path d="M64 0c3-98 48-159 88-221H18v-27h164v26C143-157 98-101 97 0H64" id="ab"/><use transform="matrix(0.0987654320987654,0,0,0.0987654320987654,0,0)" xlink:href="#ab" id="c"/><path d="M110-160c48 1 74 30 74 79 0 53-28 85-80 85-65 0-83-55-86-122-5-90 50-162 133-122 14 7 22 21 27 39l-31 6c-5-40-67-38-82-6-9 19-15 44-15 74 11-20 30-34 60-33zm-7 138c34 0 49-23 49-58s-16-56-50-56c-29 0-50 16-49 49 1 36 15 65 50 65" id="ac"/><use transform="matrix(0.0987654320987654,0,0,0.0987654320987654,0,0)" xlink:href="#ac" id="d"/><path d="M54-142c48-35 137-8 131 61C196 18 31 33 14-55l32-4c7 23 22 37 52 37 35-1 51-22 54-58 4-55-73-65-99-34H22l8-134h141v27H59" id="ad"/><use transform="matrix(0.0987654320987654,0,0,0.0987654320987654,0,0)" xlink:href="#ad" id="e"/><path d="M155-56V0h-30v-56H8v-25l114-167h33v167h35v25h-35zm-30-156c-27 46-58 90-88 131h88v-131" id="ae"/><use transform="matrix(0.0987654320987654,0,0,0.0987654320987654,0,0)" xlink:href="#ae" id="f"/><path d="M126-127c33 6 58 20 58 59 0 88-139 92-164 29-3-8-5-16-6-25l32-3c6 27 21 44 54 44 32 0 52-15 52-46 0-38-36-46-79-43v-28c39 1 72-4 72-42 0-27-17-43-46-43-28 0-47 15-49 41l-32-3c6-42 35-63 81-64 48-1 79 21 79 65 0 36-21 52-52 59" id="af"/><use transform="matrix(0.0987654320987654,0,0,0.0987654320987654,0,0)" xlink:href="#af" id="g"/><path d="M101-251c82-7 93 87 43 132L82-64C71-53 59-42 53-27h129V0H18c2-99 128-94 128-182 0-28-16-43-45-43s-46 15-49 41l-32-3c6-41 34-60 81-64" id="ag"/><use transform="matrix(0.0987654320987654,0,0,0.0987654320987654,0,0)" xlink:href="#ag" id="h"/><path d="M27 0v-27h64v-190l-56 39v-29l58-41h29v221h61V0H27" id="ah"/><use transform="matrix(0.0987654320987654,0,0,0.0987654320987654,0,0)" xlink:href="#ah" id="i"/><use transform="matrix(0.0987654320987654,0,0,0.0987654320987654,0,0)" xlink:href="#T" id="j"/><use transform="matrix(0.0987654320987654,0,0,0.0987654320987654,0,0)" xlink:href="#X" id="k"/><use transform="matrix(0.0987654320987654,0,0,0.0987654320987654,0,0)" xlink:href="#aa" id="l"/><path d="M96-169c-40 0-48 33-48 73s9 75 48 75c24 0 41-14 43-38l32 2c-6 37-31 61-74 61-59 0-76-41-82-99-10-93 101-131 147-64 4 7 5 14 7 22l-32 3c-4-21-16-35-41-35" id="ai"/><use transform="matrix(0.0987654320987654,0,0,0.0987654320987654,0,0)" xlink:href="#ai" id="m"/><use transform="matrix(0.0987654320987654,0,0,0.0987654320987654,0,0)" xlink:href="#W" id="n"/><path d="M33 0v-38h34V0H33" id="aj"/><g id="o"><use transform="matrix(0.10493827160493824,0,0,0.10493827160493824,0,0)" xlink:href="#aj"/><use transform="matrix(0.10493827160493824,0,0,0.10493827160493824,10.493827160493824,0)" xlink:href="#aj"/><use transform="matrix(0.10493827160493824,0,0,0.10493827160493824,20.987654320987648,0)" xlink:href="#aj"/><use transform="matrix(0.10493827160493824,0,0,0.10493827160493824,31.48148148148147,0)" xlink:href="#T"/><use transform="matrix(0.10493827160493824,0,0,0.10493827160493824,52.469135802469125,0)" xlink:href="#ai"/></g><g id="p"><use transform="matrix(0.0987654320987654,0,0,0.0987654320987654,0,0)" xlink:href="#T"/><use transform="matrix(0.0987654320987654,0,0,0.0987654320987654,19.753086419753078,0)" xlink:href="#W"/><use transform="matrix(0.0987654320987654,0,0,0.0987654320987654,39.506172839506156,0)" xlink:href="#T"/><use transform="matrix(0.0987654320987654,0,0,0.0987654320987654,59.25925925925924,0)" xlink:href="#aj"/><use transform="matrix(0.0987654320987654,0,0,0.0987654320987654,69.13580246913578,0)" xlink:href="#aj"/><use transform="matrix(0.0987654320987654,0,0,0.0987654320987654,79.01234567901233,0)" xlink:href="#aj"/></g><path d="M87 75C49 33 22-17 22-94c0-76 28-126 65-167h31c-38 41-64 92-64 168S80 34 118 75H87" id="ak"/><path d="M101-251c68 0 85 55 85 127S166 4 100 4C33 4 14-52 14-124c0-73 17-127 87-127zm-1 229c47 0 54-49 54-102s-4-102-53-102c-51 0-55 48-55 102 0 53 5 102 54 102" id="al"/><path d="M68-38c1 34 0 65-14 84H32c9-13 17-26 17-46H33v-38h35" id="am"/><path d="M33-261c38 41 65 92 65 168S71 34 33 75H2C39 34 66-17 66-93S39-220 2-261h31" id="an"/><g id="q"><use transform="matrix(0.0987654320987654,0,0,0.0987654320987654,0,0)" xlink:href="#ak"/><use transform="matrix(0.0987654320987654,0,0,0.0987654320987654,11.753086419753082,0)" xlink:href="#al"/><use transform="matrix(0.0987654320987654,0,0,0.0987654320987654,31.506172839506164,0)" xlink:href="#am"/><use transform="matrix(0.0987654320987654,0,0,0.0987654320987654,41.3827160493827,0)" xlink:href="#al"/><use transform="matrix(0.0987654320987654,0,0,0.0987654320987654,61.13580246913578,0)" xlink:href="#am"/><use transform="matrix(0.0987654320987654,0,0,0.0987654320987654,71.01234567901233,0)" xlink:href="#T"/><use transform="matrix(0.0987654320987654,0,0,0.0987654320987654,90.7654320987654,0)" xlink:href="#an"/></g><g id="r"><use transform="matrix(0.0987654320987654,0,0,0.0987654320987654,0,0)" xlink:href="#W"/><use transform="matrix(0.0987654320987654,0,0,0.0987654320987654,19.753086419753078,0)" xlink:href="#T"/><use transform="matrix(0.0987654320987654,0,0,0.0987654320987654,39.506172839506156,0)" xlink:href="#X"/><use transform="matrix(0.0987654320987654,0,0,0.0987654320987654,59.25925925925924,0)" xlink:href="#aj"/><use transform="matrix(0.0987654320987654,0,0,0.0987654320987654,69.13580246913578,0)" xlink:href="#aj"/><use transform="matrix(0.0987654320987654,0,0,0.0987654320987654,79.01234567901233,0)" xlink:href="#aj"/></g><g id="s"><use transform="matrix(0.0987654320987654,0,0,0.0987654320987654,0,0)" xlink:href="#ak"/><use transform="matrix(0.0987654320987654,0,0,0.0987654320987654,11.753086419753082,0)" xlink:href="#al"/><use transform="matrix(0.0987654320987654,0,0,0.0987654320987654,31.506172839506164,0)" xlink:href="#am"/><use transform="matrix(0.0987654320987654,0,0,0.0987654320987654,41.3827160493827,0)" xlink:href="#al"/><use transform="matrix(0.0987654320987654,0,0,0.0987654320987654,61.13580246913578,0)" xlink:href="#am"/><use transform="matrix(0.0987654320987654,0,0,0.0987654320987654,71.01234567901233,0)" xlink:href="#X"/><use transform="matrix(0.0987654320987654,0,0,0.0987654320987654,90.7654320987654,0)" xlink:href="#an"/></g><g id="t"><use transform="matrix(0.0987654320987654,0,0,0.0987654320987654,0,0)" xlink:href="#T"/><use transform="matrix(0.0987654320987654,0,0,0.0987654320987654,19.753086419753078,0)" xlink:href="#X"/><use transform="matrix(0.0987654320987654,0,0,0.0987654320987654,39.506172839506156,0)" xlink:href="#aa"/><use transform="matrix(0.0987654320987654,0,0,0.0987654320987654,49.28395061728393,0)" xlink:href="#aj"/><use transform="matrix(0.0987654320987654,0,0,0.0987654320987654,59.160493827160465,0)" xlink:href="#aj"/><use transform="matrix(0.0987654320987654,0,0,0.0987654320987654,69.03703703703701,0)" xlink:href="#aj"/></g><g id="u"><use transform="matrix(0.0987654320987654,0,0,0.0987654320987654,0,0)" xlink:href="#ak"/><use transform="matrix(0.0987654320987654,0,0,0.0987654320987654,11.753086419753082,0)" xlink:href="#al"/><use transform="matrix(0.0987654320987654,0,0,0.0987654320987654,31.506172839506164,0)" xlink:href="#am"/><use transform="matrix(0.0987654320987654,0,0,0.0987654320987654,41.3827160493827,0)" xlink:href="#al"/><use transform="matrix(0.0987654320987654,0,0,0.0987654320987654,61.13580246913578,0)" xlink:href="#am"/><use transform="matrix(0.0987654320987654,0,0,0.0987654320987654,71.01234567901233,0)" xlink:href="#aa"/><use transform="matrix(0.0987654320987654,0,0,0.0987654320987654,82.76543209876542,0)" xlink:href="#an"/></g><g id="v"><use transform="matrix(0.0987654320987654,0,0,0.0987654320987654,0,0)" xlink:href="#X"/><use transform="matrix(0.0987654320987654,0,0,0.0987654320987654,19.753086419753078,0)" xlink:href="#aa"/><use transform="matrix(0.0987654320987654,0,0,0.0987654320987654,31.506172839506164,0)" xlink:href="#T"/><use transform="matrix(0.0987654320987654,0,0,0.0987654320987654,51.259259259259245,0)" xlink:href="#aj"/><use transform="matrix(0.0987654320987654,0,0,0.0987654320987654,61.13580246913577,0)" xlink:href="#aj"/><use transform="matrix(0.0987654320987654,0,0,0.0987654320987654,71.01234567901231,0)" xlink:href="#aj"/></g><g id="w"><use transform="matrix(0.0987654320987654,0,0,0.0987654320987654,0,0)" xlink:href="#ak"/><use transform="matrix(0.0987654320987654,0,0,0.0987654320987654,11.753086419753082,0)" xlink:href="#af"/><use transform="matrix(0.0987654320987654,0,0,0.0987654320987654,31.506172839506164,0)" xlink:href="#am"/><use transform="matrix(0.0987654320987654,0,0,0.0987654320987654,41.3827160493827,0)" xlink:href="#ah"/><use transform="matrix(0.0987654320987654,0,0,0.0987654320987654,61.13580246913578,0)" xlink:href="#am"/><use transform="matrix(0.0987654320987654,0,0,0.0987654320987654,71.01234567901233,0)" xlink:href="#ai"/><use transform="matrix(0.0987654320987654,0,0,0.0987654320987654,88.7901234567901,0)" xlink:href="#an"/></g><g id="x"><use transform="matrix(0.0987654320987654,0,0,0.0987654320987654,0,0)" xlink:href="#T"/><use transform="matrix(0.0987654320987654,0,0,0.0987654320987654,19.753086419753078,0)" xlink:href="#W"/></g><g id="y"><use transform="matrix(0.0987654320987654,0,0,0.0987654320987654,0,0)" xlink:href="#ak"/><use transform="matrix(0.0987654320987654,0,0,0.0987654320987654,11.753086419753082,0)" xlink:href="#ag"/><use transform="matrix(0.0987654320987654,0,0,0.0987654320987654,31.506172839506164,0)" xlink:href="#am"/><use transform="matrix(0.0987654320987654,0,0,0.0987654320987654,41.3827160493827,0)" xlink:href="#ah"/><use transform="matrix(0.0987654320987654,0,0,0.0987654320987654,61.13580246913578,0)" xlink:href="#am"/><use transform="matrix(0.0987654320987654,0,0,0.0987654320987654,71.01234567901233,0)" xlink:href="#W"/><use transform="matrix(0.0987654320987654,0,0,0.0987654320987654,90.7654320987654,0)" xlink:href="#an"/></g><g id="z"><use transform="matrix(0.0987654320987654,0,0,0.0987654320987654,0,0)" xlink:href="#ak"/><use transform="matrix(0.0987654320987654,0,0,0.0987654320987654,11.753086419753082,0)" xlink:href="#ab"/><use transform="matrix(0.0987654320987654,0,0,0.0987654320987654,31.506172839506164,0)" xlink:href="#am"/><use transform="matrix(0.0987654320987654,0,0,0.0987654320987654,41.3827160493827,0)" xlink:href="#ae"/><use transform="matrix(0.0987654320987654,0,0,0.0987654320987654,61.13580246913578,0)" xlink:href="#am"/><use transform="matrix(0.0987654320987654,0,0,0.0987654320987654,71.01234567901233,0)" xlink:href="#W"/><use transform="matrix(0.0987654320987654,0,0,0.0987654320987654,90.7654320987654,0)" xlink:href="#an"/></g><path d="M185-189c-5-48-123-54-124 2 14 75 158 14 163 119 3 78-121 87-175 55-17-10-28-26-33-46l33-7c5 56 141 63 141-1 0-78-155-14-162-118-5-82 145-84 179-34 5 7 8 16 11 25" id="ao"/><g id="A"><use transform="matrix(0.09259259259259256,0,0,0.09259259259259256,0,0)" xlink:href="#ao"/><use transform="matrix(0.09259259259259256,0,0,0.09259259259259256,22.222222222222214,0)" xlink:href="#V"/><use transform="matrix(0.09259259259259256,0,0,0.09259259259259256,40.740740740740726,0)" xlink:href="#T"/><use transform="matrix(0.09259259259259256,0,0,0.09259259259259256,59.25925925925924,0)" xlink:href="#aa"/><use transform="matrix(0.09259259259259256,0,0,0.09259259259259256,70.27777777777776,0)" xlink:href="#ai"/><use transform="matrix(0.09259259259259256,0,0,0.09259259259259256,86.94444444444441,0)" xlink:href="#U"/></g><g id="B"><use transform="matrix(0.09259259259259256,0,0,0.09259259259259256,0,0)" xlink:href="#X"/><use transform="matrix(0.09259259259259256,0,0,0.09259259259259256,18.518518518518512,0)" xlink:href="#Y"/><use transform="matrix(0.09259259259259256,0,0,0.09259259259259256,37.037037037037024,0)" xlink:href="#Z"/><use transform="matrix(0.09259259259259256,0,0,0.09259259259259256,45.64814814814814,0)" xlink:href="#Z"/><use transform="matrix(0.09259259259259256,0,0,0.09259259259259256,54.90740740740739,0)" xlink:href="#V"/><use transform="matrix(0.09259259259259256,0,0,0.09259259259259256,73.4259259259259,0)" xlink:href="#aa"/></g><path d="M140-251c81 0 123 46 123 126C263-46 219 4 140 4 59 4 17-45 17-125s42-126 123-126zm0 227c63 0 89-41 89-101s-29-99-89-99c-61 0-89 39-89 99S79-25 140-24" id="ap"/><path d="M59-47c-2 24 18 29 38 22v24C64 9 27 4 27-40v-127H5v-23h24l9-43h21v43h35v23H59v120" id="aq"/><path d="M115-194c55 1 70 41 70 98S169 2 115 4C84 4 66-9 55-30l1 105H24l-1-265h31l2 30c10-21 28-34 59-34zm-8 174c40 0 45-34 45-75s-6-73-45-74c-42 0-51 32-51 76 0 43 10 73 51 73" id="ar"/><g id="C"><use transform="matrix(0.09259259259259256,0,0,0.09259259259259256,0,0)" xlink:href="#ap"/><use transform="matrix(0.09259259259259256,0,0,0.09259259259259256,25.925925925925917,0)" xlink:href="#Y"/><use transform="matrix(0.09259259259259256,0,0,0.09259259259259256,44.44444444444443,0)" xlink:href="#aq"/><use transform="matrix(0.09259259259259256,0,0,0.09259259259259256,53.70370370370368,0)" xlink:href="#ar"/><use transform="matrix(0.09259259259259256,0,0,0.09259259259259256,72.2222222222222,0)" xlink:href="#Y"/><use transform="matrix(0.09259259259259256,0,0,0.09259259259259256,90.7407407407407,0)" xlink:href="#aq"/></g><path d="M62-168c30 0 50 19 50 48S92-70 62-70c-29 0-48-21-48-50s20-48 48-48" id="as"/><use transform="matrix(0.0864197530864197,0,0,0.0864197530864197,0,0)" xlink:href="#as" id="D"/><g id="E"><use transform="matrix(0.0864197530864197,0,0,0.0864197530864197,0,0)" xlink:href="#ah"/><use transform="matrix(0.0864197530864197,0,0,0.0864197530864197,17.283950617283942,0)" xlink:href="#ag"/></g><path d="M135-143c-3-34-86-38-87 0 15 53 115 12 119 90S17 21 10-45l28-5c4 36 97 45 98 0-10-56-113-15-118-90-4-57 82-63 122-42 12 7 21 19 24 35" id="at"/><g id="F"><use transform="matrix(0.0864197530864197,0,0,0.0864197530864197,0,0)" xlink:href="#ai"/><use transform="matrix(0.0864197530864197,0,0,0.0864197530864197,15.555555555555546,0)" xlink:href="#U"/><use transform="matrix(0.0864197530864197,0,0,0.0864197530864197,32.83950617283949,0)" xlink:href="#T"/><use transform="matrix(0.0864197530864197,0,0,0.0864197530864197,50.12345679012343,0)" xlink:href="#aa"/><use transform="matrix(0.0864197530864197,0,0,0.0864197530864197,60.407407407407376,0)" xlink:href="#T"/><use transform="matrix(0.0864197530864197,0,0,0.0864197530864197,77.69135802469131,0)" xlink:href="#ai"/><use transform="matrix(0.0864197530864197,0,0,0.0864197530864197,93.24691358024687,0)" xlink:href="#aq"/><use transform="matrix(0.0864197530864197,0,0,0.0864197530864197,101.88888888888883,0)" xlink:href="#V"/><use transform="matrix(0.0864197530864197,0,0,0.0864197530864197,119.17283950617278,0)" xlink:href="#aa"/><use transform="matrix(0.0864197530864197,0,0,0.0864197530864197,129.45679012345673,0)" xlink:href="#at"/></g><path d="M210-169c-67 3-38 105-44 169h-31v-121c0-29-5-50-35-48C34-165 62-65 56 0H25l-1-190h30c1 10-1 24 2 32 10-44 99-50 107 0 11-21 27-35 58-36 85-2 47 119 55 194h-31v-121c0-29-5-49-35-48" id="au"/><g id="G"><use transform="matrix(0.0864197530864197,0,0,0.0864197530864197,0,0)" xlink:href="#ai"/><use transform="matrix(0.0864197530864197,0,0,0.0864197530864197,15.555555555555546,0)" xlink:href="#R"/><use transform="matrix(0.0864197530864197,0,0,0.0864197530864197,32.83950617283949,0)" xlink:href="#au"/><use transform="matrix(0.0864197530864197,0,0,0.0864197530864197,58.679012345678984,0)" xlink:href="#ar"/><use transform="matrix(0.0864197530864197,0,0,0.0864197530864197,75.96296296296293,0)" xlink:href="#aa"/><use transform="matrix(0.0864197530864197,0,0,0.0864197530864197,86.24691358024688,0)" xlink:href="#V"/><use transform="matrix(0.0864197530864197,0,0,0.0864197530864197,103.53086419753083,0)" xlink:href="#at"/><use transform="matrix(0.0864197530864197,0,0,0.0864197530864197,119.08641975308637,0)" xlink:href="#at"/><use transform="matrix(0.0864197530864197,0,0,0.0864197530864197,134.64197530864192,0)" xlink:href="#V"/><use transform="matrix(0.0864197530864197,0,0,0.0864197530864197,151.92592592592587,0)" xlink:href="#W"/></g><path d="M24-231v-30h32v30H24zM24 0v-190h32V0H24" id="av"/><path d="M117-194c89-4 53 116 60 194h-32v-121c0-31-8-49-39-48C34-167 62-67 57 0H25l-1-190h30c1 10-1 24 2 32 11-22 29-35 61-36" id="aw"/><g id="H"><use transform="matrix(0.0864197530864197,0,0,0.0864197530864197,0,0)" xlink:href="#av"/><use transform="matrix(0.0864197530864197,0,0,0.0864197530864197,6.827160493827157,0)" xlink:href="#aw"/><use transform="matrix(0.0864197530864197,0,0,0.0864197530864197,24.111111111111097,0)" xlink:href="#aq"/><use transform="matrix(0.0864197530864197,0,0,0.0864197530864197,32.753086419753075,0)" xlink:href="#R"/></g><use transform="matrix(0.0864197530864197,0,0,0.0864197530864197,0,0)" xlink:href="#ac" id="I"/><path d="M17-49c1-102 45-165 103-212h30C92-210 49-145 49-46 49 4 63 43 85 75H54C30 43 18 2 17-49" id="ax"/><path d="M30-147c31-64 166-65 159 27C183-49 158 1 86 4 9 8 1-88 30-147zM88-20c53 0 68-48 68-100 0-31-11-51-44-50-52 1-68 46-68 97 0 32 13 53 44 53" id="ay"/><path d="M76-167L44 0H12l33-167H18l4-23h27c3-47 25-81 82-69l-4 24c-35-8-44 15-46 45h37l-5 23H76" id="az"/><path d="M55-144c13 50 104 24 104 88C159 21 15 23 1-39l26-10c6 40 102 42 102-4-13-50-104-23-104-87 0-71 143-71 148-8l-29 4c-5-35-85-37-89 0" id="aA"/><path d="M111-194c62-3 86 47 72 106H45c-7 38 6 69 45 68 27-1 43-14 53-32l24 11C152-15 129 4 87 4 38 3 12-23 12-71c0-70 32-119 99-123zm44 81c14-66-71-72-95-28-4 8-8 17-11 28h106" id="aB"/><path d="M51-54c-9 22 5 41 31 30L79-1C43 14 10-4 19-52l22-115H19l5-23h22l19-43h21l-9 43h35l-4 23H73" id="aC"/><path d="M58-38C53-5 46 26 28 46H7C19 32 27 18 32 0H17l7-38h34" id="aD"/><g id="J"><use transform="matrix(0.0864197530864197,0,0,0.0864197530864197,0,0)" xlink:href="#ax"/><use transform="matrix(0.0864197530864197,0,0,0.0864197530864197,10.283950617283946,0)" xlink:href="#ay"/><use transform="matrix(0.0864197530864197,0,0,0.0864197530864197,27.567901234567888,0)" xlink:href="#az"/><use transform="matrix(0.0864197530864197,0,0,0.0864197530864197,36.20987654320986,0)" xlink:href="#az"/><use transform="matrix(0.0864197530864197,0,0,0.0864197530864197,44.85185185185184,0)" xlink:href="#aA"/><use transform="matrix(0.0864197530864197,0,0,0.0864197530864197,60.407407407407376,0)" xlink:href="#aB"/><use transform="matrix(0.0864197530864197,0,0,0.0864197530864197,77.69135802469131,0)" xlink:href="#aC"/><use transform="matrix(0.0864197530864197,0,0,0.0864197530864197,86.33333333333329,0)" xlink:href="#aD"/></g><path d="M6 0l50-261h32L37 0H6" id="aE"/><path d="M67-158c22-48 132-52 116 29L158 0h-32l25-140c3-38-53-32-70-12C52-117 51-52 38 0H6l36-190h30" id="aF"/><path d="M103-194c29 0 47 14 56 36 2-11 5-23 8-32h30L160-5C157 61 82 97 21 62 9 55 4 45 1 30l28-7c7 42 83 31 92-3 4-16 9-38 13-55-13 20-29 36-62 36-40 0-60-25-60-64 0-71 23-131 91-131zm4 24c-53 0-58 54-61 104-2 27 10 44 36 44 49 0 65-50 67-102 1-29-15-46-42-46" id="aG"/><path d="M67-158c15-20 31-36 64-36 94 0 33 127 27 194h-32l25-140c3-38-53-32-70-12C52-117 51-51 37 0H6l51-261h31" id="aH"/><g id="K"><use transform="matrix(0.0864197530864197,0,0,0.0864197530864197,0,0)" xlink:href="#aE"/><use transform="matrix(0.0864197530864197,0,0,0.0864197530864197,6.827160493827157,0)" xlink:href="#aB"/><use transform="matrix(0.0864197530864197,0,0,0.0864197530864197,24.111111111111097,0)" xlink:href="#aF"/><use transform="matrix(0.0864197530864197,0,0,0.0864197530864197,41.39506172839504,0)" xlink:href="#aG"/><use transform="matrix(0.0864197530864197,0,0,0.0864197530864197,58.679012345678984,0)" xlink:href="#aC"/><use transform="matrix(0.0864197530864197,0,0,0.0864197530864197,67.32098765432096,0)" xlink:href="#aH"/><use transform="matrix(0.0864197530864197,0,0,0.0864197530864197,84.60493827160491,0)" xlink:href="#aD"/></g><path d="M198-190L69 30C53 58 25 83-20 72c4-11-1-27 19-22 33-1 43-29 59-52L20-190h32L79-34l84-156h35" id="aI"/><path d="M248-111c6-24 9-61-24-58-72 9-57 108-77 169h-31l26-142c3-37-50-30-64-10C52-115 50-51 37 0H6l36-190h30c-1 10-6 24-4 32 13-43 101-52 105 5 13-22 29-41 61-41 90 0 28 129 23 194h-31" id="aJ"/><path d="M68-162c25-46 127-43 121 31C183-60 169 1 98 4 69 5 53-11 43-31L36 0H5l52-261h31zm88 36c2-27-9-43-34-43-55 0-70 51-70 103 0 29 15 45 43 46 52 0 58-58 61-106" id="aK"/><path d="M98-137C97-35 54 29-4 75h-31C23 23 67-41 67-140c0-50-15-89-37-121h31c24 32 36 73 37 124" id="aL"/><g id="L"><use transform="matrix(0.0864197530864197,0,0,0.0864197530864197,0,0)" xlink:href="#aA"/><use transform="matrix(0.0864197530864197,0,0,0.0864197530864197,15.555555555555546,0)" xlink:href="#aI"/><use transform="matrix(0.0864197530864197,0,0,0.0864197530864197,31.111111111111093,0)" xlink:href="#aJ"/><use transform="matrix(0.0864197530864197,0,0,0.0864197530864197,56.950617283950585,0)" xlink:href="#aK"/><use transform="matrix(0.0864197530864197,0,0,0.0864197530864197,74.23456790123453,0)" xlink:href="#ay"/><use transform="matrix(0.0864197530864197,0,0,0.0864197530864197,91.51851851851848,0)" xlink:href="#aE"/><use transform="matrix(0.0864197530864197,0,0,0.0864197530864197,98.34567901234563,0)" xlink:href="#aL"/></g><path d="M24 0v-261h32V0H24" id="aM"/><g id="M"><use transform="matrix(0.0864197530864197,0,0,0.0864197530864197,0,0)" xlink:href="#aq"/><use transform="matrix(0.0864197530864197,0,0,0.0864197530864197,8.641975308641971,0)" xlink:href="#Y"/><use transform="matrix(0.0864197530864197,0,0,0.0864197530864197,25.925925925925913,0)" xlink:href="#ar"/><use transform="matrix(0.0864197530864197,0,0,0.0864197530864197,43.20987654320986,0)" xlink:href="#aM"/><use transform="matrix(0.0864197530864197,0,0,0.0864197530864197,50.03703703703702,0)" xlink:href="#V"/><use transform="matrix(0.0864197530864197,0,0,0.0864197530864197,67.32098765432096,0)" xlink:href="#at"/></g><path d="M212-179c-10-28-35-45-73-45-59 0-87 40-87 99 0 60 29 101 89 101 43 0 62-24 78-52l27 14C228-24 195 4 139 4 59 4 22-46 18-125c-6-104 99-153 187-111 19 9 31 26 39 46" id="aN"/><g id="N"><use transform="matrix(0.0864197530864197,0,0,0.0864197530864197,0,0)" xlink:href="#aN"/><use transform="matrix(0.0864197530864197,0,0,0.0864197530864197,22.382716049382704,0)" xlink:href="#R"/><use transform="matrix(0.0864197530864197,0,0,0.0864197530864197,39.66666666666664,0)" xlink:href="#au"/><use transform="matrix(0.0864197530864197,0,0,0.0864197530864197,65.50617283950614,0)" xlink:href="#ar"/><use transform="matrix(0.0864197530864197,0,0,0.0864197530864197,82.79012345679007,0)" xlink:href="#aa"/><use transform="matrix(0.0864197530864197,0,0,0.0864197530864197,93.07407407407402,0)" xlink:href="#V"/><use transform="matrix(0.0864197530864197,0,0,0.0864197530864197,110.35802469135797,0)" xlink:href="#at"/><use transform="matrix(0.0864197530864197,0,0,0.0864197530864197,125.91358024691351,0)" xlink:href="#at"/><use transform="matrix(0.0864197530864197,0,0,0.0864197530864197,141.46913580246905,0)" xlink:href="#av"/><use transform="matrix(0.0864197530864197,0,0,0.0864197530864197,148.29629629629622,0)" xlink:href="#R"/><use transform="matrix(0.0864197530864197,0,0,0.0864197530864197,165.58024691358017,0)" xlink:href="#aw"/></g><path d="M33-154v-36h34v36H33zM33 0v-36h34V0H33" id="aO"/><g id="O"><use transform="matrix(0.0864197530864197,0,0,0.0864197530864197,0,0)" xlink:href="#aa"/><use transform="matrix(0.0864197530864197,0,0,0.0864197530864197,10.283950617283946,0)" xlink:href="#T"/><use transform="matrix(0.0864197530864197,0,0,0.0864197530864197,27.567901234567888,0)" xlink:href="#aq"/><use transform="matrix(0.0864197530864197,0,0,0.0864197530864197,36.20987654320986,0)" xlink:href="#av"/><use transform="matrix(0.0864197530864197,0,0,0.0864197530864197,43.03703703703702,0)" xlink:href="#R"/><use transform="matrix(0.0864197530864197,0,0,0.0864197530864197,60.32098765432095,0)" xlink:href="#aO"/></g><path d="M252-156c43 0 55 33 55 80 0 46-13 78-56 78-42 0-55-33-55-78 0-48 12-80 56-80zM93 0H65l162-248h28zM13-171c-1-47 13-79 56-79s55 33 55 79-13 79-55 79c-43 0-56-33-56-79zM251-17c28 0 30-29 30-59 0-31-1-60-29-60-29 0-31 29-31 60 0 29 2 59 30 59zM69-112c27 0 28-30 29-59 0-31-1-60-29-60-29 0-30 30-30 60s2 59 30 59" id="aP"/><g id="P"><use transform="matrix(0.0864197530864197,0,0,0.0864197530864197,0,0)" xlink:href="#ac"/><use transform="matrix(0.0864197530864197,0,0,0.0864197530864197,17.283950617283942,0)" xlink:href="#al"/><use transform="matrix(0.0864197530864197,0,0,0.0864197530864197,34.567901234567884,0)" xlink:href="#aP"/></g></defs></g></svg>