<svg xmlns="http://www.w3.org/2000/svg" xmlns:xlink="http://www.w3.org/1999/xlink" xmlns:lucid="lucid" width="737.61" height="138.5"><g transform="translate(159.47261497706415 -624.0858333333331)" lucid:page-tab-id="8dI._S0hVxfN"><path d="M-136.38 662.75h128v57.83h-128z" stroke="#5e5e5e" stroke-width="2" fill-opacity="0"/><use xlink:href="#a" transform="matrix(1,0,0,1,-133.4909996442098,665.6439166666665) translate(39.308641975308646 31.02777777777778)"/><path d="M-8.38 662.75h220v57.83h-220z" stroke="#5e5e5e" stroke-width="2" fill-opacity="0"/><use xlink:href="#b" transform="matrix(1,0,0,1,-5.490999644209797,665.6439166666665) translate(60.58641975308643 21.090277777777775)"/><use xlink:href="#c" transform="matrix(1,0,0,1,-5.490999644209797,665.6439166666665) translate(15.351851851851848 44.201388888888886)"/><use xlink:href="#d" transform="matrix(1,0,0,1,-5.490999644209797,665.6439166666665) translate(48.83333333333333 44.201388888888886)"/><use xlink:href="#e" transform="matrix(1,0,0,1,-5.490999644209797,665.6439166666665) translate(85.32716049382717 44.201388888888886)"/><use xlink:href="#f" transform="matrix(1,0,0,1,-5.490999644209797,665.6439166666665) translate(154.26543209876544 44.201388888888886)"/><path d="M211.62 662.75h344v57.83h-344z" stroke="#5e5e5e" stroke-width="2" fill-opacity="0"/><use xlink:href="#g" transform="matrix(1,0,0,1,214.5090003557902,665.6439166666665) translate(125.11728395061728 31.02777777777778)"/><path d="M-89.7 741.08h-31.4v-1h31.4zm64.93 0h-31.4v-1h31.4z" stroke="#5e5e5e" stroke-width=".05" fill="#5e5e5e"/><path d="M-121.6 745.22l-14.25-4.64 14.26-4.63z" fill="#fff"/><path d="M-121.1 745.9l-16.37-5.32 16.38-5.32zm-13.14-5.32l12.15 3.95v-7.9z" stroke="#5e5e5e" stroke-width=".05" fill="#5e5e5e"/><path d="M-10 740.58l-14.27 4.64v-9.27z" fill="#fff"/><path d="M-8.38 740.58l-16.4 5.32v-10.64zm-15.4 3.95l12.16-3.95-12.15-3.95z" stroke="#5e5e5e" stroke-width=".05" fill="#5e5e5e"/><use xlink:href="#h" transform="matrix(1,0,0,1,-89.69294774273568,729.9141666666668) translate(0 14.222222222222223)"/><use xlink:href="#i" transform="matrix(1,0,0,1,-89.69294774273568,729.9141666666668) translate(14.814814814814817 14.222222222222223)"/><path d="M80.24 741.08H8v-1h72.24zm114.66 0h-72.24v-1h72.24z" stroke="#5e5e5e" stroke-width=".05" fill="#5e5e5e"/><path d="M7.5 745.22l-14.26-4.64 14.26-4.63z" fill="#fff"/><path d="M8 745.9l-16.38-5.32L8 735.26zm-13.15-5.32L7 744.53v-7.9z" stroke="#5e5e5e" stroke-width=".05" fill="#5e5e5e"/><path d="M209.67 740.58l-14.27 4.64v-9.27z" fill="#fff"/><path d="M211.28 740.58l-16.38 5.32v-10.64zm-15.38 3.95l12.15-3.95-12.15-3.95z" stroke="#5e5e5e" stroke-width=".05" fill="#5e5e5e"/><use xlink:href="#j" transform="matrix(1,0,0,1,80.24104047924754,729.914166666667) translate(0 14.222222222222223)"/><use xlink:href="#k" transform="matrix(1,0,0,1,80.24104047924754,729.914166666667) translate(14.814814814814817 14.222222222222223)"/><path d="M353.65 741.08H227.92v-1h125.73zm185.88 0H413.8v-1h125.73z" stroke="#5e5e5e" stroke-width=".05" fill="#5e5e5e"/><path d="M227.42 745.22l-14.27-4.64 14.27-4.63z" fill="#fff"/><path d="M227.92 745.9l-16.4-5.32 16.4-5.32zm-13.15-5.32l12.15 3.95v-7.9z" stroke="#5e5e5e" stroke-width=".05" fill="#5e5e5e"/><path d="M554.3 740.58l-14.27 4.64v-9.27z" fill="#fff"/><path d="M555.92 740.58l-16.4 5.32v-10.64zm-15.4 3.95l12.16-3.95-12.15-3.95z" stroke="#5e5e5e" stroke-width=".05" fill="#5e5e5e"/><use xlink:href="#l" transform="matrix(1,0,0,1,353.6508885268119,729.9141666666666) translate(0 14.222222222222223)"/><use xlink:href="#k" transform="matrix(1,0,0,1,353.6508885268119,729.9141666666666) translate(32.543209876543216 14.222222222222223)"/><path d="M187.44 646.6h-307.92v-1h307.92zm352.3 0h-307.9v-1h307.9z" stroke="#5e5e5e" stroke-width=".05" fill="#5e5e5e"/><path d="M-120.98 650.72l-14.26-4.63 14.26-4.65z" fill="#fff"/><path d="M-120.48 651.4l-16.38-5.3 16.38-5.34zm-13.15-5.3l12.15 3.93v-7.9z" stroke="#5e5e5e" stroke-width=".05" fill="#5e5e5e"/><path d="M554.52 646.1l-14.26 4.62v-9.27z" fill="#fff"/><path d="M556.14 646.1l-16.38 5.3v-10.64zm-15.38 3.93l12.14-3.94-12.14-3.96z" stroke="#5e5e5e" stroke-width=".05" fill="#5e5e5e"/><g><use xlink:href="#m" transform="matrix(1,0,0,1,187.44112036778859,635.4191666666665) translate(0 14.222222222222223)"/><use xlink:href="#n" transform="matrix(1,0,0,1,187.44112036778859,635.4191666666665) translate(16.790123456790127 14.222222222222223)"/></g><defs><path d="M185-189c-5-48-123-54-124 2 14 75 158 14 163 119 3 78-121 87-175 55-17-10-28-26-33-46l33-7c5 56 141 63 141-1 0-78-155-14-162-118-5-82 145-84 179-34 5 7 8 16 11 25" id="o"/><path d="M24-231v-30h32v30H24zM24 0v-190h32V0H24" id="p"/><path d="M177-190C167-65 218 103 67 71c-23-6-38-20-44-43l32-5c15 47 100 32 89-28v-30C133-14 115 1 83 1 29 1 15-40 15-95c0-56 16-97 71-98 29-1 48 16 59 35 1-10 0-23 2-32h30zM94-22c36 0 50-32 50-73 0-42-14-75-50-75-39 0-46 34-46 75s6 73 46 73" id="q"/><path d="M117-194c89-4 53 116 60 194h-32v-121c0-31-8-49-39-48C34-167 62-67 57 0H25l-1-190h30c1 10-1 24 2 32 11-22 29-35 61-36" id="r"/><g id="a"><use transform="matrix(0.06172839506172839,0,0,0.06172839506172839,0,0)" xlink:href="#o"/><use transform="matrix(0.06172839506172839,0,0,0.06172839506172839,14.814814814814813,0)" xlink:href="#p"/><use transform="matrix(0.06172839506172839,0,0,0.06172839506172839,19.691358024691354,0)" xlink:href="#q"/><use transform="matrix(0.06172839506172839,0,0,0.06172839506172839,32.03703703703703,0)" xlink:href="#r"/></g><path d="M30 0v-248h187v28H63v79h144v27H63v87h162V0H30" id="s"/><path d="M141 0L90-78 38 0H4l68-98-65-92h35l48 74 47-74h35l-64 92 68 98h-35" id="t"/><path d="M115-194c55 1 70 41 70 98S169 2 115 4C84 4 66-9 55-30l1 105H24l-1-265h31l2 30c10-21 28-34 59-34zm-8 174c40 0 45-34 45-75s-6-73-45-74c-42 0-51 32-51 76 0 43 10 73 51 73" id="u"/><path d="M100-194c62-1 85 37 85 99 1 63-27 99-86 99S16-35 15-95c0-66 28-99 85-99zM99-20c44 1 53-31 53-75 0-43-8-75-51-75s-53 32-53 75 10 74 51 75" id="v"/><path d="M100-194c63 0 86 42 84 106H49c0 40 14 67 53 68 26 1 43-12 49-29l28 8c-11 28-37 45-77 45C44 4 14-33 15-96c1-61 26-98 85-98zm52 81c6-60-76-77-97-28-3 7-6 17-6 28h103" id="w"/><path d="M59-47c-2 24 18 29 38 22v24C64 9 27 4 27-40v-127H5v-23h24l9-43h21v43h35v23H59v120" id="x"/><g id="b"><use transform="matrix(0.061728395061728385,0,0,0.061728395061728385,0,0)" xlink:href="#s"/><use transform="matrix(0.061728395061728385,0,0,0.061728395061728385,14.814814814814813,0)" xlink:href="#t"/><use transform="matrix(0.061728395061728385,0,0,0.061728395061728385,25.925925925925924,0)" xlink:href="#u"/><use transform="matrix(0.061728395061728385,0,0,0.061728395061728385,38.2716049382716,0)" xlink:href="#v"/><use transform="matrix(0.061728395061728385,0,0,0.061728395061728385,50.61728395061728,0)" xlink:href="#r"/><use transform="matrix(0.061728395061728385,0,0,0.061728395061728385,62.962962962962955,0)" xlink:href="#w"/><use transform="matrix(0.061728395061728385,0,0,0.061728395061728385,75.30864197530863,0)" xlink:href="#r"/><use transform="matrix(0.061728395061728385,0,0,0.061728395061728385,87.6543209876543,0)" xlink:href="#x"/></g><path d="M240 0l2-218c-23 76-54 145-80 218h-23L58-218 59 0H30v-248h44l77 211c21-75 51-140 76-211h43V0h-30" id="y"/><g id="c"><use transform="matrix(0.04938271604938272,0,0,0.04938271604938272,0,0)" xlink:href="#y"/><use transform="matrix(0.04938271604938272,0,0,0.04938271604938272,14.765432098765434,0)" xlink:href="#p"/><use transform="matrix(0.04938271604938272,0,0,0.04938271604938272,18.666666666666668,0)" xlink:href="#r"/></g><path d="M135-143c-3-34-86-38-87 0 15 53 115 12 119 90S17 21 10-45l28-5c4 36 97 45 98 0-10-56-113-15-118-90-4-57 82-63 122-42 12 7 21 19 24 35" id="z"/><path d="M9 0v-24l116-142H16v-24h144v24L44-24h123V0H9" id="A"/><g id="d"><use transform="matrix(0.04938271604938272,0,0,0.04938271604938272,0,0)" xlink:href="#z"/><use transform="matrix(0.04938271604938272,0,0,0.04938271604938272,8.88888888888889,0)" xlink:href="#p"/><use transform="matrix(0.04938271604938272,0,0,0.04938271604938272,12.790123456790125,0)" xlink:href="#A"/><use transform="matrix(0.04938271604938272,0,0,0.04938271604938272,21.679012345679013,0)" xlink:href="#w"/></g><path d="M141-36C126-15 110 5 73 4 37 3 15-17 15-53c-1-64 63-63 125-63 3-35-9-54-41-54-24 1-41 7-42 31l-33-3c5-37 33-52 76-52 45 0 72 20 72 64v82c-1 20 7 32 28 27v20c-31 9-61-2-59-35zM48-53c0 20 12 33 32 33 41-3 63-29 60-74-43 2-92-5-92 41" id="B"/><path d="M24 0v-261h32V0H24" id="C"/><path d="M206 0h-36l-40-164L89 0H53L-1-190h32L70-26l43-164h34l41 164 42-164h31" id="D"/><g id="e"><use transform="matrix(0.04938271604938272,0,0,0.04938271604938272,0,0)" xlink:href="#B"/><use transform="matrix(0.04938271604938272,0,0,0.04938271604938272,9.876543209876544,0)" xlink:href="#C"/><use transform="matrix(0.04938271604938272,0,0,0.04938271604938272,13.777777777777779,0)" xlink:href="#C"/><use transform="matrix(0.04938271604938272,0,0,0.04938271604938272,17.679012345679013,0)" xlink:href="#v"/><use transform="matrix(0.04938271604938272,0,0,0.04938271604938272,27.555555555555557,0)" xlink:href="#D"/><use transform="matrix(0.04938271604938272,0,0,0.04938271604938272,40.345679012345684,0)" xlink:href="#p"/><use transform="matrix(0.04938271604938272,0,0,0.04938271604938272,44.24691358024692,0)" xlink:href="#r"/><use transform="matrix(0.04938271604938272,0,0,0.04938271604938272,54.12345679012346,0)" xlink:href="#q"/></g><path d="M101-251c68 0 85 55 85 127S166 4 100 4C33 4 14-52 14-124c0-73 17-127 87-127zm-1 229c47 0 54-49 54-102s-4-102-53-102c-51 0-55 48-55 102 0 53 5 102 54 102" id="E"/><path d="M16-82v-28h88v28H16" id="F"/><path d="M27 0v-27h64v-190l-56 39v-29l58-41h29v221h61V0H27" id="G"/><path d="M134-131c28 9 52 24 51 62-1 50-34 73-85 73S17-19 16-69c0-36 21-54 49-61-75-25-45-126 34-121 46 3 78 18 79 63 0 33-17 51-44 57zm-34-11c31 1 46-15 46-44 0-28-17-43-47-42-29 0-46 13-45 42 1 28 16 44 46 44zm1 122c35 0 51-18 51-52 0-30-18-46-53-46-33 0-51 17-51 47 0 34 19 51 53 51" id="H"/><g id="f"><use transform="matrix(0.04938271604938272,0,0,0.04938271604938272,0,0)" xlink:href="#E"/><use transform="matrix(0.04938271604938272,0,0,0.04938271604938272,9.876543209876544,0)" xlink:href="#F"/><use transform="matrix(0.04938271604938272,0,0,0.04938271604938272,15.753086419753087,0)" xlink:href="#G"/><use transform="matrix(0.04938271604938272,0,0,0.04938271604938272,25.629629629629633,0)" xlink:href="#H"/><use transform="matrix(0.04938271604938272,0,0,0.04938271604938272,35.50617283950618,0)" xlink:href="#E"/></g><g id="g"><use transform="matrix(0.06172839506172839,0,0,0.06172839506172839,0,0)" xlink:href="#y"/><use transform="matrix(0.06172839506172839,0,0,0.06172839506172839,18.456790123456788,0)" xlink:href="#B"/><use transform="matrix(0.06172839506172839,0,0,0.06172839506172839,30.80246913580247,0)" xlink:href="#r"/><use transform="matrix(0.06172839506172839,0,0,0.06172839506172839,43.148148148148145,0)" xlink:href="#x"/><use transform="matrix(0.06172839506172839,0,0,0.06172839506172839,49.32098765432099,0)" xlink:href="#p"/><use transform="matrix(0.06172839506172839,0,0,0.06172839506172839,54.19753086419753,0)" xlink:href="#z"/><use transform="matrix(0.06172839506172839,0,0,0.06172839506172839,65.30864197530865,0)" xlink:href="#z"/><use transform="matrix(0.06172839506172839,0,0,0.06172839506172839,76.41975308641976,0)" xlink:href="#B"/></g><use transform="matrix(0.04938271604938272,0,0,0.04938271604938272,0,0)" xlink:href="#G" id="h"/><path d="M115-194c53 0 69 39 70 98 0 66-23 100-70 100C84 3 66-7 56-30L54 0H23l1-261h32v101c10-23 28-34 59-34zm-8 174c40 0 45-34 45-75 0-40-5-75-45-74-42 0-51 32-51 76 0 43 10 73 51 73" id="I"/><g id="i"><use transform="matrix(0.04938271604938272,0,0,0.04938271604938272,0,0)" xlink:href="#I"/><use transform="matrix(0.04938271604938272,0,0,0.04938271604938272,9.876543209876544,0)" xlink:href="#p"/><use transform="matrix(0.04938271604938272,0,0,0.04938271604938272,13.777777777777779,0)" xlink:href="#x"/></g><path d="M155-56V0h-30v-56H8v-25l114-167h33v167h35v25h-35zm-30-156c-27 46-58 90-88 131h88v-131" id="J"/><use transform="matrix(0.04938271604938272,0,0,0.04938271604938272,0,0)" xlink:href="#J" id="j"/><g id="k"><use transform="matrix(0.04938271604938272,0,0,0.04938271604938272,0,0)" xlink:href="#I"/><use transform="matrix(0.04938271604938272,0,0,0.04938271604938272,9.876543209876544,0)" xlink:href="#p"/><use transform="matrix(0.04938271604938272,0,0,0.04938271604938272,13.777777777777779,0)" xlink:href="#x"/><use transform="matrix(0.04938271604938272,0,0,0.04938271604938272,18.71604938271605,0)" xlink:href="#z"/></g><path d="M195 0l-74-108L45 0H8l94-129-87-119h37l69 98 67-98h37l-84 118L233 0h-38" id="K"/><path d="M54-142c48-35 137-8 131 61C196 18 31 33 14-55l32-4c7 23 22 37 52 37 35-1 51-22 54-58 4-55-73-65-99-34H22l8-134h141v27H59" id="L"/><g id="l"><use transform="matrix(0.04938271604938272,0,0,0.04938271604938272,0,0)" xlink:href="#K"/><use transform="matrix(0.04938271604938272,0,0,0.04938271604938272,11.851851851851853,0)" xlink:href="#F"/><use transform="matrix(0.04938271604938272,0,0,0.04938271604938272,17.728395061728396,0)" xlink:href="#L"/></g><use transform="matrix(0.04938271604938272,0,0,0.04938271604938272,0,0)" xlink:href="#K" id="m"/><g id="n"><use transform="matrix(0.04938271604938272,0,0,0.04938271604938272,0,0)" xlink:href="#I"/><use transform="matrix(0.04938271604938272,0,0,0.04938271604938272,9.876543209876544,0)" xlink:href="#p"/><use transform="matrix(0.04938271604938272,0,0,0.04938271604938272,13.777777777777779,0)" xlink:href="#x"/><use transform="matrix(0.04938271604938272,0,0,0.04938271604938272,18.71604938271605,0)" xlink:href="#z"/></g></defs></g></svg>